%TF.GenerationSoftware,KiCad,Pcbnew,(5.0.1)-3*%
%TF.CreationDate,2018-11-18T09:55:05+01:00*%
%TF.ProjectId,ESP32-wood-beam-lamp,45535033322D776F6F642D6265616D2D,rev?*%
%TF.SameCoordinates,Original*%
%TF.FileFunction,Legend,Top*%
%TF.FilePolarity,Positive*%
%FSLAX46Y46*%
G04 Gerber Fmt 4.6, Leading zero omitted, Abs format (unit mm)*
G04 Created by KiCad (PCBNEW (5.0.1)-3) date 18.11.2018 09:55:05*
%MOMM*%
%LPD*%
G01*
G04 APERTURE LIST*
%ADD10C,0.300000*%
%ADD11C,0.150000*%
%ADD12C,0.120000*%
%ADD13C,2.540000*%
%ADD14C,0.304800*%
%ADD15C,0.500000*%
%ADD16C,0.010000*%
%ADD17C,0.317500*%
%ADD18C,0.254000*%
G04 APERTURE END LIST*
D10*
X42340571Y-114592571D02*
X43340571Y-114306857D01*
X42626285Y-114021142D01*
X43340571Y-113735428D01*
X42340571Y-113449714D01*
X43340571Y-112664000D02*
X43269142Y-112806857D01*
X43197714Y-112878285D01*
X43054857Y-112949714D01*
X42626285Y-112949714D01*
X42483428Y-112878285D01*
X42412000Y-112806857D01*
X42340571Y-112664000D01*
X42340571Y-112449714D01*
X42412000Y-112306857D01*
X42483428Y-112235428D01*
X42626285Y-112164000D01*
X43054857Y-112164000D01*
X43197714Y-112235428D01*
X43269142Y-112306857D01*
X43340571Y-112449714D01*
X43340571Y-112664000D01*
X43340571Y-111306857D02*
X43269142Y-111449714D01*
X43197714Y-111521142D01*
X43054857Y-111592571D01*
X42626285Y-111592571D01*
X42483428Y-111521142D01*
X42412000Y-111449714D01*
X42340571Y-111306857D01*
X42340571Y-111092571D01*
X42412000Y-110949714D01*
X42483428Y-110878285D01*
X42626285Y-110806857D01*
X43054857Y-110806857D01*
X43197714Y-110878285D01*
X43269142Y-110949714D01*
X43340571Y-111092571D01*
X43340571Y-111306857D01*
X43340571Y-109521142D02*
X41840571Y-109521142D01*
X43269142Y-109521142D02*
X43340571Y-109664000D01*
X43340571Y-109949714D01*
X43269142Y-110092571D01*
X43197714Y-110164000D01*
X43054857Y-110235428D01*
X42626285Y-110235428D01*
X42483428Y-110164000D01*
X42412000Y-110092571D01*
X42340571Y-109949714D01*
X42340571Y-109664000D01*
X42412000Y-109521142D01*
X43340571Y-108806857D02*
X41840571Y-108806857D01*
X42412000Y-108806857D02*
X42340571Y-108664000D01*
X42340571Y-108378285D01*
X42412000Y-108235428D01*
X42483428Y-108164000D01*
X42626285Y-108092571D01*
X43054857Y-108092571D01*
X43197714Y-108164000D01*
X43269142Y-108235428D01*
X43340571Y-108378285D01*
X43340571Y-108664000D01*
X43269142Y-108806857D01*
X43269142Y-106878285D02*
X43340571Y-107021142D01*
X43340571Y-107306857D01*
X43269142Y-107449714D01*
X43126285Y-107521142D01*
X42554857Y-107521142D01*
X42412000Y-107449714D01*
X42340571Y-107306857D01*
X42340571Y-107021142D01*
X42412000Y-106878285D01*
X42554857Y-106806857D01*
X42697714Y-106806857D01*
X42840571Y-107521142D01*
X43340571Y-105521142D02*
X42554857Y-105521142D01*
X42412000Y-105592571D01*
X42340571Y-105735428D01*
X42340571Y-106021142D01*
X42412000Y-106164000D01*
X43269142Y-105521142D02*
X43340571Y-105664000D01*
X43340571Y-106021142D01*
X43269142Y-106164000D01*
X43126285Y-106235428D01*
X42983428Y-106235428D01*
X42840571Y-106164000D01*
X42769142Y-106021142D01*
X42769142Y-105664000D01*
X42697714Y-105521142D01*
X43340571Y-104806857D02*
X42340571Y-104806857D01*
X42483428Y-104806857D02*
X42412000Y-104735428D01*
X42340571Y-104592571D01*
X42340571Y-104378285D01*
X42412000Y-104235428D01*
X42554857Y-104164000D01*
X43340571Y-104164000D01*
X42554857Y-104164000D02*
X42412000Y-104092571D01*
X42340571Y-103949714D01*
X42340571Y-103735428D01*
X42412000Y-103592571D01*
X42554857Y-103521142D01*
X43340571Y-103521142D01*
X43340571Y-102592571D02*
X43269142Y-102735428D01*
X43126285Y-102806857D01*
X41840571Y-102806857D01*
X43340571Y-101378285D02*
X42554857Y-101378285D01*
X42412000Y-101449714D01*
X42340571Y-101592571D01*
X42340571Y-101878285D01*
X42412000Y-102021142D01*
X43269142Y-101378285D02*
X43340571Y-101521142D01*
X43340571Y-101878285D01*
X43269142Y-102021142D01*
X43126285Y-102092571D01*
X42983428Y-102092571D01*
X42840571Y-102021142D01*
X42769142Y-101878285D01*
X42769142Y-101521142D01*
X42697714Y-101378285D01*
X43340571Y-100664000D02*
X42340571Y-100664000D01*
X42483428Y-100664000D02*
X42412000Y-100592571D01*
X42340571Y-100449714D01*
X42340571Y-100235428D01*
X42412000Y-100092571D01*
X42554857Y-100021142D01*
X43340571Y-100021142D01*
X42554857Y-100021142D02*
X42412000Y-99949714D01*
X42340571Y-99806857D01*
X42340571Y-99592571D01*
X42412000Y-99449714D01*
X42554857Y-99378285D01*
X43340571Y-99378285D01*
X42340571Y-98664000D02*
X43840571Y-98664000D01*
X42412000Y-98664000D02*
X42340571Y-98521142D01*
X42340571Y-98235428D01*
X42412000Y-98092571D01*
X42483428Y-98021142D01*
X42626285Y-97949714D01*
X43054857Y-97949714D01*
X43197714Y-98021142D01*
X43269142Y-98092571D01*
X43340571Y-98235428D01*
X43340571Y-98521142D01*
X43269142Y-98664000D01*
X45104857Y-111985428D02*
X45104857Y-111485428D01*
X45890571Y-111271142D02*
X45890571Y-111985428D01*
X44390571Y-111985428D01*
X44390571Y-111271142D01*
X45819142Y-110699714D02*
X45890571Y-110485428D01*
X45890571Y-110128285D01*
X45819142Y-109985428D01*
X45747714Y-109914000D01*
X45604857Y-109842571D01*
X45462000Y-109842571D01*
X45319142Y-109914000D01*
X45247714Y-109985428D01*
X45176285Y-110128285D01*
X45104857Y-110414000D01*
X45033428Y-110556857D01*
X44962000Y-110628285D01*
X44819142Y-110699714D01*
X44676285Y-110699714D01*
X44533428Y-110628285D01*
X44462000Y-110556857D01*
X44390571Y-110414000D01*
X44390571Y-110056857D01*
X44462000Y-109842571D01*
X45890571Y-109199714D02*
X44390571Y-109199714D01*
X44390571Y-108628285D01*
X44462000Y-108485428D01*
X44533428Y-108414000D01*
X44676285Y-108342571D01*
X44890571Y-108342571D01*
X45033428Y-108414000D01*
X45104857Y-108485428D01*
X45176285Y-108628285D01*
X45176285Y-109199714D01*
X44390571Y-107842571D02*
X44390571Y-106914000D01*
X44962000Y-107414000D01*
X44962000Y-107199714D01*
X45033428Y-107056857D01*
X45104857Y-106985428D01*
X45247714Y-106914000D01*
X45604857Y-106914000D01*
X45747714Y-106985428D01*
X45819142Y-107056857D01*
X45890571Y-107199714D01*
X45890571Y-107628285D01*
X45819142Y-107771142D01*
X45747714Y-107842571D01*
X44533428Y-106342571D02*
X44462000Y-106271142D01*
X44390571Y-106128285D01*
X44390571Y-105771142D01*
X44462000Y-105628285D01*
X44533428Y-105556857D01*
X44676285Y-105485428D01*
X44819142Y-105485428D01*
X45033428Y-105556857D01*
X45890571Y-106414000D01*
X45890571Y-105485428D01*
X45890571Y-102842571D02*
X45176285Y-103342571D01*
X45890571Y-103699714D02*
X44390571Y-103699714D01*
X44390571Y-103128285D01*
X44462000Y-102985428D01*
X44533428Y-102914000D01*
X44676285Y-102842571D01*
X44890571Y-102842571D01*
X45033428Y-102914000D01*
X45104857Y-102985428D01*
X45176285Y-103128285D01*
X45176285Y-103699714D01*
X45890571Y-101414000D02*
X45890571Y-102271142D01*
X45890571Y-101842571D02*
X44390571Y-101842571D01*
X44604857Y-101985428D01*
X44747714Y-102128285D01*
X44819142Y-102271142D01*
X45747714Y-100771142D02*
X45819142Y-100699714D01*
X45890571Y-100771142D01*
X45819142Y-100842571D01*
X45747714Y-100771142D01*
X45890571Y-100771142D01*
X44390571Y-99771142D02*
X44390571Y-99628285D01*
X44462000Y-99485428D01*
X44533428Y-99414000D01*
X44676285Y-99342571D01*
X44962000Y-99271142D01*
X45319142Y-99271142D01*
X45604857Y-99342571D01*
X45747714Y-99414000D01*
X45819142Y-99485428D01*
X45890571Y-99628285D01*
X45890571Y-99771142D01*
X45819142Y-99914000D01*
X45747714Y-99985428D01*
X45604857Y-100056857D01*
X45319142Y-100128285D01*
X44962000Y-100128285D01*
X44676285Y-100056857D01*
X44533428Y-99985428D01*
X44462000Y-99914000D01*
X44390571Y-99771142D01*
X46940571Y-111914000D02*
X48440571Y-111414000D01*
X46940571Y-110914000D01*
X48440571Y-110414000D02*
X47440571Y-110414000D01*
X46940571Y-110414000D02*
X47012000Y-110485428D01*
X47083428Y-110414000D01*
X47012000Y-110342571D01*
X46940571Y-110414000D01*
X47083428Y-110414000D01*
X48440571Y-109699714D02*
X46940571Y-109699714D01*
X47869142Y-109556857D02*
X48440571Y-109128285D01*
X47440571Y-109128285D02*
X48012000Y-109699714D01*
X47440571Y-108699714D02*
X47440571Y-108128285D01*
X46940571Y-108485428D02*
X48226285Y-108485428D01*
X48369142Y-108414000D01*
X48440571Y-108271142D01*
X48440571Y-108128285D01*
X48440571Y-107414000D02*
X48369142Y-107556857D01*
X48297714Y-107628285D01*
X48154857Y-107699714D01*
X47726285Y-107699714D01*
X47583428Y-107628285D01*
X47512000Y-107556857D01*
X47440571Y-107414000D01*
X47440571Y-107199714D01*
X47512000Y-107056857D01*
X47583428Y-106985428D01*
X47726285Y-106914000D01*
X48154857Y-106914000D01*
X48297714Y-106985428D01*
X48369142Y-107056857D01*
X48440571Y-107199714D01*
X48440571Y-107414000D01*
X48440571Y-106271142D02*
X47440571Y-106271142D01*
X47726285Y-106271142D02*
X47583428Y-106199714D01*
X47512000Y-106128285D01*
X47440571Y-105985428D01*
X47440571Y-105842571D01*
X48440571Y-103342571D02*
X47726285Y-103842571D01*
X48440571Y-104199714D02*
X46940571Y-104199714D01*
X46940571Y-103628285D01*
X47012000Y-103485428D01*
X47083428Y-103414000D01*
X47226285Y-103342571D01*
X47440571Y-103342571D01*
X47583428Y-103414000D01*
X47654857Y-103485428D01*
X47726285Y-103628285D01*
X47726285Y-104199714D01*
X48369142Y-102128285D02*
X48440571Y-102271142D01*
X48440571Y-102556857D01*
X48369142Y-102699714D01*
X48226285Y-102771142D01*
X47654857Y-102771142D01*
X47512000Y-102699714D01*
X47440571Y-102556857D01*
X47440571Y-102271142D01*
X47512000Y-102128285D01*
X47654857Y-102056857D01*
X47797714Y-102056857D01*
X47940571Y-102771142D01*
X48369142Y-100842571D02*
X48440571Y-100985428D01*
X48440571Y-101271142D01*
X48369142Y-101414000D01*
X48226285Y-101485428D01*
X47654857Y-101485428D01*
X47512000Y-101414000D01*
X47440571Y-101271142D01*
X47440571Y-100985428D01*
X47512000Y-100842571D01*
X47654857Y-100771142D01*
X47797714Y-100771142D01*
X47940571Y-101485428D01*
X48369142Y-100199714D02*
X48440571Y-100056857D01*
X48440571Y-99771142D01*
X48369142Y-99628285D01*
X48226285Y-99556857D01*
X48154857Y-99556857D01*
X48012000Y-99628285D01*
X47940571Y-99771142D01*
X47940571Y-99985428D01*
X47869142Y-100128285D01*
X47726285Y-100199714D01*
X47654857Y-100199714D01*
X47512000Y-100128285D01*
X47440571Y-99985428D01*
X47440571Y-99771142D01*
X47512000Y-99628285D01*
D11*
X41666666Y-130000000D02*
G75*
G03X41666666Y-130000000I-1666666J0D01*
G01*
X37500000Y-130000000D02*
X42500000Y-130000000D01*
X40000000Y-127500000D02*
X40000000Y-132500000D01*
X40000000Y-130000000D02*
X40000000Y-30000000D01*
X100000000Y-130000000D02*
X40000000Y-130000000D01*
X100000000Y-30000000D02*
X100000000Y-130000000D01*
X40000000Y-30000000D02*
X100000000Y-30000000D01*
D12*
X82698000Y-77854564D02*
X82698000Y-76650436D01*
X80878000Y-77854564D02*
X80878000Y-76650436D01*
X80540000Y-114080000D02*
G75*
G03X80540000Y-114080000I-950000J0D01*
G01*
X99282000Y-104608000D02*
X99282000Y-114848000D01*
X94641000Y-104608000D02*
X94641000Y-114848000D01*
X99282000Y-104608000D02*
X94641000Y-104608000D01*
X99282000Y-114848000D02*
X94641000Y-114848000D01*
X97772000Y-104608000D02*
X97772000Y-114848000D01*
X99282000Y-107878000D02*
X97772000Y-107878000D01*
X99282000Y-111579000D02*
X97772000Y-111579000D01*
X99335900Y-69668900D02*
G75*
G02X99335900Y-67668900I0J1000000D01*
G01*
X99335900Y-67668900D02*
X99335900Y-65433900D01*
X99335900Y-65433900D02*
X83975900Y-65433900D01*
X83975900Y-65433900D02*
X83975900Y-71903900D01*
X83975900Y-71903900D02*
X99335900Y-71903900D01*
X99335900Y-71903900D02*
X99335900Y-69668900D01*
X57488500Y-39785536D02*
X57488500Y-40989664D01*
X55668500Y-39785536D02*
X55668500Y-40989664D01*
X56748000Y-116811036D02*
X56748000Y-118015164D01*
X58568000Y-116811036D02*
X58568000Y-118015164D01*
X58360900Y-39785536D02*
X58360900Y-40989664D01*
X60180900Y-39785536D02*
X60180900Y-40989664D01*
X91246000Y-116098000D02*
G75*
G03X91246000Y-116098000I-3870000J0D01*
G01*
X83546000Y-116098000D02*
X91206000Y-116098000D01*
X83546000Y-116058000D02*
X91206000Y-116058000D01*
X83546000Y-116018000D02*
X91206000Y-116018000D01*
X83547000Y-115978000D02*
X91205000Y-115978000D01*
X83549000Y-115938000D02*
X91203000Y-115938000D01*
X83551000Y-115898000D02*
X91201000Y-115898000D01*
X83553000Y-115858000D02*
X86336000Y-115858000D01*
X88416000Y-115858000D02*
X91199000Y-115858000D01*
X83556000Y-115818000D02*
X86336000Y-115818000D01*
X88416000Y-115818000D02*
X91196000Y-115818000D01*
X83559000Y-115778000D02*
X86336000Y-115778000D01*
X88416000Y-115778000D02*
X91193000Y-115778000D01*
X83562000Y-115738000D02*
X86336000Y-115738000D01*
X88416000Y-115738000D02*
X91190000Y-115738000D01*
X83566000Y-115698000D02*
X86336000Y-115698000D01*
X88416000Y-115698000D02*
X91186000Y-115698000D01*
X83571000Y-115658000D02*
X86336000Y-115658000D01*
X88416000Y-115658000D02*
X91181000Y-115658000D01*
X83575000Y-115618000D02*
X86336000Y-115618000D01*
X88416000Y-115618000D02*
X91177000Y-115618000D01*
X83581000Y-115578000D02*
X86336000Y-115578000D01*
X88416000Y-115578000D02*
X91171000Y-115578000D01*
X83586000Y-115538000D02*
X86336000Y-115538000D01*
X88416000Y-115538000D02*
X91166000Y-115538000D01*
X83592000Y-115498000D02*
X86336000Y-115498000D01*
X88416000Y-115498000D02*
X91160000Y-115498000D01*
X83599000Y-115458000D02*
X86336000Y-115458000D01*
X88416000Y-115458000D02*
X91153000Y-115458000D01*
X83606000Y-115418000D02*
X86336000Y-115418000D01*
X88416000Y-115418000D02*
X91146000Y-115418000D01*
X83613000Y-115377000D02*
X86336000Y-115377000D01*
X88416000Y-115377000D02*
X91139000Y-115377000D01*
X83621000Y-115337000D02*
X86336000Y-115337000D01*
X88416000Y-115337000D02*
X91131000Y-115337000D01*
X83629000Y-115297000D02*
X86336000Y-115297000D01*
X88416000Y-115297000D02*
X91123000Y-115297000D01*
X83638000Y-115257000D02*
X86336000Y-115257000D01*
X88416000Y-115257000D02*
X91114000Y-115257000D01*
X83647000Y-115217000D02*
X86336000Y-115217000D01*
X88416000Y-115217000D02*
X91105000Y-115217000D01*
X83656000Y-115177000D02*
X86336000Y-115177000D01*
X88416000Y-115177000D02*
X91096000Y-115177000D01*
X83666000Y-115137000D02*
X86336000Y-115137000D01*
X88416000Y-115137000D02*
X91086000Y-115137000D01*
X83677000Y-115097000D02*
X86336000Y-115097000D01*
X88416000Y-115097000D02*
X91075000Y-115097000D01*
X83688000Y-115057000D02*
X86336000Y-115057000D01*
X88416000Y-115057000D02*
X91064000Y-115057000D01*
X83699000Y-115017000D02*
X86336000Y-115017000D01*
X88416000Y-115017000D02*
X91053000Y-115017000D01*
X83711000Y-114977000D02*
X86336000Y-114977000D01*
X88416000Y-114977000D02*
X91041000Y-114977000D01*
X83723000Y-114937000D02*
X86336000Y-114937000D01*
X88416000Y-114937000D02*
X91029000Y-114937000D01*
X83736000Y-114897000D02*
X86336000Y-114897000D01*
X88416000Y-114897000D02*
X91016000Y-114897000D01*
X83750000Y-114857000D02*
X86336000Y-114857000D01*
X88416000Y-114857000D02*
X91002000Y-114857000D01*
X83763000Y-114817000D02*
X86336000Y-114817000D01*
X88416000Y-114817000D02*
X90989000Y-114817000D01*
X83778000Y-114777000D02*
X86336000Y-114777000D01*
X88416000Y-114777000D02*
X90974000Y-114777000D01*
X83792000Y-114737000D02*
X86336000Y-114737000D01*
X88416000Y-114737000D02*
X90960000Y-114737000D01*
X83808000Y-114697000D02*
X86336000Y-114697000D01*
X88416000Y-114697000D02*
X90944000Y-114697000D01*
X83823000Y-114657000D02*
X86336000Y-114657000D01*
X88416000Y-114657000D02*
X90929000Y-114657000D01*
X83840000Y-114617000D02*
X86336000Y-114617000D01*
X88416000Y-114617000D02*
X90912000Y-114617000D01*
X83856000Y-114577000D02*
X86336000Y-114577000D01*
X88416000Y-114577000D02*
X90896000Y-114577000D01*
X83874000Y-114537000D02*
X86336000Y-114537000D01*
X88416000Y-114537000D02*
X90878000Y-114537000D01*
X83892000Y-114497000D02*
X86336000Y-114497000D01*
X88416000Y-114497000D02*
X90860000Y-114497000D01*
X83910000Y-114457000D02*
X86336000Y-114457000D01*
X88416000Y-114457000D02*
X90842000Y-114457000D01*
X83929000Y-114417000D02*
X86336000Y-114417000D01*
X88416000Y-114417000D02*
X90823000Y-114417000D01*
X83949000Y-114377000D02*
X86336000Y-114377000D01*
X88416000Y-114377000D02*
X90803000Y-114377000D01*
X83969000Y-114337000D02*
X86336000Y-114337000D01*
X88416000Y-114337000D02*
X90783000Y-114337000D01*
X83990000Y-114297000D02*
X86336000Y-114297000D01*
X88416000Y-114297000D02*
X90762000Y-114297000D01*
X84011000Y-114257000D02*
X86336000Y-114257000D01*
X88416000Y-114257000D02*
X90741000Y-114257000D01*
X84033000Y-114217000D02*
X86336000Y-114217000D01*
X88416000Y-114217000D02*
X90719000Y-114217000D01*
X84055000Y-114177000D02*
X86336000Y-114177000D01*
X88416000Y-114177000D02*
X90697000Y-114177000D01*
X84079000Y-114137000D02*
X86336000Y-114137000D01*
X88416000Y-114137000D02*
X90673000Y-114137000D01*
X84102000Y-114097000D02*
X86336000Y-114097000D01*
X88416000Y-114097000D02*
X90650000Y-114097000D01*
X84127000Y-114057000D02*
X86336000Y-114057000D01*
X88416000Y-114057000D02*
X90625000Y-114057000D01*
X84152000Y-114017000D02*
X86336000Y-114017000D01*
X88416000Y-114017000D02*
X90600000Y-114017000D01*
X84178000Y-113977000D02*
X86336000Y-113977000D01*
X88416000Y-113977000D02*
X90574000Y-113977000D01*
X84204000Y-113937000D02*
X86336000Y-113937000D01*
X88416000Y-113937000D02*
X90548000Y-113937000D01*
X84232000Y-113897000D02*
X86336000Y-113897000D01*
X88416000Y-113897000D02*
X90520000Y-113897000D01*
X84260000Y-113857000D02*
X86336000Y-113857000D01*
X88416000Y-113857000D02*
X90492000Y-113857000D01*
X84288000Y-113817000D02*
X86336000Y-113817000D01*
X88416000Y-113817000D02*
X90464000Y-113817000D01*
X84318000Y-113777000D02*
X90434000Y-113777000D01*
X84348000Y-113737000D02*
X90404000Y-113737000D01*
X84380000Y-113697000D02*
X90372000Y-113697000D01*
X84412000Y-113657000D02*
X90340000Y-113657000D01*
X84445000Y-113617000D02*
X90307000Y-113617000D01*
X84478000Y-113577000D02*
X90274000Y-113577000D01*
X84513000Y-113537000D02*
X90239000Y-113537000D01*
X84549000Y-113497000D02*
X90203000Y-113497000D01*
X84586000Y-113457000D02*
X90166000Y-113457000D01*
X84624000Y-113417000D02*
X90128000Y-113417000D01*
X84663000Y-113377000D02*
X90089000Y-113377000D01*
X84703000Y-113337000D02*
X90049000Y-113337000D01*
X84744000Y-113297000D02*
X90008000Y-113297000D01*
X84787000Y-113257000D02*
X89965000Y-113257000D01*
X84830000Y-113217000D02*
X89922000Y-113217000D01*
X84876000Y-113177000D02*
X89876000Y-113177000D01*
X84922000Y-113137000D02*
X89830000Y-113137000D01*
X84971000Y-113097000D02*
X89781000Y-113097000D01*
X85021000Y-113057000D02*
X89731000Y-113057000D01*
X85072000Y-113017000D02*
X89680000Y-113017000D01*
X85126000Y-112977000D02*
X89626000Y-112977000D01*
X85181000Y-112937000D02*
X89571000Y-112937000D01*
X85239000Y-112897000D02*
X89513000Y-112897000D01*
X85299000Y-112857000D02*
X89453000Y-112857000D01*
X85362000Y-112817000D02*
X89390000Y-112817000D01*
X85427000Y-112777000D02*
X89325000Y-112777000D01*
X85495000Y-112737000D02*
X89257000Y-112737000D01*
X85567000Y-112697000D02*
X89185000Y-112697000D01*
X85643000Y-112657000D02*
X89109000Y-112657000D01*
X85722000Y-112617000D02*
X89030000Y-112617000D01*
X85807000Y-112577000D02*
X88945000Y-112577000D01*
X85898000Y-112537000D02*
X88854000Y-112537000D01*
X85995000Y-112497000D02*
X88757000Y-112497000D01*
X86101000Y-112457000D02*
X88651000Y-112457000D01*
X86218000Y-112417000D02*
X88534000Y-112417000D01*
X86348000Y-112377000D02*
X88404000Y-112377000D01*
X86499000Y-112337000D02*
X88253000Y-112337000D01*
X86683000Y-112297000D02*
X88069000Y-112297000D01*
X86935000Y-112257000D02*
X87817000Y-112257000D01*
X85201000Y-120240211D02*
X85201000Y-119490211D01*
X84826000Y-119865211D02*
X85576000Y-119865211D01*
X48670800Y-116491936D02*
X48670800Y-117696064D01*
X50490800Y-116491936D02*
X50490800Y-117696064D01*
X94212164Y-58068800D02*
X93008036Y-58068800D01*
X94212164Y-59888800D02*
X93008036Y-59888800D01*
X51925000Y-60555436D02*
X51925000Y-61759564D01*
X50105000Y-60555436D02*
X50105000Y-61759564D01*
X59542000Y-62033564D02*
X59542000Y-60829436D01*
X61362000Y-62033564D02*
X61362000Y-60829436D01*
X58275000Y-60555436D02*
X58275000Y-61759564D01*
X56455000Y-60555436D02*
X56455000Y-61759564D01*
X61579000Y-115201800D02*
X59579000Y-115201800D01*
X59579000Y-115201800D02*
X59579000Y-119051800D01*
X61579000Y-115201800D02*
X61579000Y-119051800D01*
X64070600Y-115402600D02*
X62370600Y-115402600D01*
X62370600Y-115402600D02*
X62370600Y-118552600D01*
X64070600Y-115402600D02*
X64070600Y-118552600D01*
X44053800Y-121774900D02*
X44053800Y-117714900D01*
X40883800Y-121774900D02*
X44053800Y-121774900D01*
X40883800Y-117714900D02*
X40883800Y-121774900D01*
X93411000Y-114851500D02*
X93411000Y-118911500D01*
X96581000Y-114851500D02*
X93411000Y-114851500D01*
X96581000Y-118911500D02*
X96581000Y-114851500D01*
X92903000Y-88352500D02*
X92903000Y-92412500D01*
X92903000Y-92412500D02*
X96073000Y-92412500D01*
X96073000Y-92412500D02*
X96073000Y-88352500D01*
X51770000Y-120020000D02*
X52370000Y-120020000D01*
X52070000Y-120620000D02*
X51770000Y-120020000D01*
X52370000Y-120020000D02*
X52070000Y-120620000D01*
X80210000Y-127930000D02*
X79470000Y-127930000D01*
X80210000Y-122630000D02*
X80210000Y-127930000D01*
X49330000Y-122630000D02*
X80210000Y-122630000D01*
X49330000Y-127930000D02*
X49330000Y-122630000D01*
X50070000Y-127930000D02*
X49330000Y-127930000D01*
X74390000Y-127930000D02*
X75470000Y-127930000D01*
X69310000Y-127930000D02*
X70390000Y-127930000D01*
X64230000Y-127930000D02*
X65310000Y-127930000D01*
X59150000Y-127930000D02*
X60230000Y-127930000D01*
X54070000Y-127930000D02*
X55150000Y-127930000D01*
X78470000Y-122630000D02*
X76470000Y-122630000D01*
X78470000Y-120820000D02*
X78470000Y-122630000D01*
X76470000Y-120820000D02*
X78470000Y-120820000D01*
X76470000Y-122630000D02*
X76470000Y-120820000D01*
X73390000Y-122630000D02*
X71390000Y-122630000D01*
X73390000Y-120820000D02*
X73390000Y-122630000D01*
X71390000Y-120820000D02*
X73390000Y-120820000D01*
X71390000Y-122630000D02*
X71390000Y-120820000D01*
X68310000Y-122630000D02*
X66310000Y-122630000D01*
X68310000Y-120820000D02*
X68310000Y-122630000D01*
X66310000Y-120820000D02*
X68310000Y-120820000D01*
X66310000Y-122630000D02*
X66310000Y-120820000D01*
X63230000Y-122630000D02*
X61230000Y-122630000D01*
X63230000Y-120820000D02*
X63230000Y-122630000D01*
X61230000Y-120820000D02*
X63230000Y-120820000D01*
X61230000Y-122630000D02*
X61230000Y-120820000D01*
X58150000Y-122630000D02*
X56150000Y-122630000D01*
X58150000Y-120820000D02*
X58150000Y-122630000D01*
X56150000Y-120820000D02*
X58150000Y-120820000D01*
X56150000Y-122630000D02*
X56150000Y-120820000D01*
X53070000Y-122630000D02*
X51070000Y-122630000D01*
X53070000Y-120820000D02*
X53070000Y-122630000D01*
X51070000Y-120820000D02*
X53070000Y-120820000D01*
X51070000Y-122630000D02*
X51070000Y-120820000D01*
X73390000Y-121630000D02*
X76470000Y-121630000D01*
X68310000Y-121630000D02*
X71390000Y-121630000D01*
X63230000Y-121630000D02*
X66310000Y-121630000D01*
X58150000Y-121630000D02*
X61230000Y-121630000D01*
X53070000Y-121630000D02*
X56150000Y-121630000D01*
X81120000Y-121630000D02*
X78580000Y-121630000D01*
X48420000Y-121630000D02*
X50960000Y-121630000D01*
X81120000Y-120820000D02*
X48420000Y-120820000D01*
X81120000Y-129640000D02*
X81120000Y-120820000D01*
X48420000Y-129640000D02*
X81120000Y-129640000D01*
X48420000Y-120820000D02*
X48420000Y-129640000D01*
X79456841Y-127945821D02*
G75*
G02X75470000Y-127930000I-1986841J1665821D01*
G01*
X74376841Y-127945821D02*
G75*
G02X70390000Y-127930000I-1986841J1665821D01*
G01*
X69296841Y-127945821D02*
G75*
G02X65310000Y-127930000I-1986841J1665821D01*
G01*
X64216841Y-127945821D02*
G75*
G02X60230000Y-127930000I-1986841J1665821D01*
G01*
X59136841Y-127945821D02*
G75*
G02X55150000Y-127930000I-1986841J1665821D01*
G01*
X54056841Y-127945821D02*
G75*
G02X50070000Y-127930000I-1986841J1665821D01*
G01*
X90607821Y-105709159D02*
G75*
G02X90592000Y-109696000I-1665821J-1986841D01*
G01*
X90607821Y-100629159D02*
G75*
G02X90592000Y-104616000I-1665821J-1986841D01*
G01*
X90607821Y-95549159D02*
G75*
G02X90592000Y-99536000I-1665821J-1986841D01*
G01*
X90607821Y-90469159D02*
G75*
G02X90592000Y-94456000I-1665821J-1986841D01*
G01*
X90607821Y-85389159D02*
G75*
G02X90592000Y-89376000I-1665821J-1986841D01*
G01*
X90607821Y-80309159D02*
G75*
G02X90592000Y-84296000I-1665821J-1986841D01*
G01*
X83482000Y-111346000D02*
X92302000Y-111346000D01*
X92302000Y-111346000D02*
X92302000Y-78646000D01*
X92302000Y-78646000D02*
X83482000Y-78646000D01*
X83482000Y-78646000D02*
X83482000Y-111346000D01*
X84292000Y-111346000D02*
X84292000Y-108806000D01*
X84292000Y-78646000D02*
X84292000Y-81186000D01*
X84292000Y-106696000D02*
X84292000Y-103616000D01*
X84292000Y-101616000D02*
X84292000Y-98536000D01*
X84292000Y-96536000D02*
X84292000Y-93456000D01*
X84292000Y-91456000D02*
X84292000Y-88376000D01*
X84292000Y-86376000D02*
X84292000Y-83296000D01*
X85292000Y-108696000D02*
X83482000Y-108696000D01*
X83482000Y-108696000D02*
X83482000Y-106696000D01*
X83482000Y-106696000D02*
X85292000Y-106696000D01*
X85292000Y-106696000D02*
X85292000Y-108696000D01*
X85292000Y-103616000D02*
X83482000Y-103616000D01*
X83482000Y-103616000D02*
X83482000Y-101616000D01*
X83482000Y-101616000D02*
X85292000Y-101616000D01*
X85292000Y-101616000D02*
X85292000Y-103616000D01*
X85292000Y-98536000D02*
X83482000Y-98536000D01*
X83482000Y-98536000D02*
X83482000Y-96536000D01*
X83482000Y-96536000D02*
X85292000Y-96536000D01*
X85292000Y-96536000D02*
X85292000Y-98536000D01*
X85292000Y-93456000D02*
X83482000Y-93456000D01*
X83482000Y-93456000D02*
X83482000Y-91456000D01*
X83482000Y-91456000D02*
X85292000Y-91456000D01*
X85292000Y-91456000D02*
X85292000Y-93456000D01*
X85292000Y-88376000D02*
X83482000Y-88376000D01*
X83482000Y-88376000D02*
X83482000Y-86376000D01*
X83482000Y-86376000D02*
X85292000Y-86376000D01*
X85292000Y-86376000D02*
X85292000Y-88376000D01*
X85292000Y-83296000D02*
X83482000Y-83296000D01*
X83482000Y-83296000D02*
X83482000Y-81296000D01*
X83482000Y-81296000D02*
X85292000Y-81296000D01*
X85292000Y-81296000D02*
X85292000Y-83296000D01*
X90592000Y-105696000D02*
X90592000Y-104616000D01*
X90592000Y-100616000D02*
X90592000Y-99536000D01*
X90592000Y-95536000D02*
X90592000Y-94456000D01*
X90592000Y-90456000D02*
X90592000Y-89376000D01*
X90592000Y-85376000D02*
X90592000Y-84296000D01*
X90592000Y-109696000D02*
X90592000Y-110436000D01*
X90592000Y-110436000D02*
X85292000Y-110436000D01*
X85292000Y-110436000D02*
X85292000Y-79556000D01*
X85292000Y-79556000D02*
X90592000Y-79556000D01*
X90592000Y-79556000D02*
X90592000Y-80296000D01*
X82682000Y-107396000D02*
X83282000Y-107696000D01*
X83282000Y-107696000D02*
X82682000Y-107996000D01*
X82682000Y-107996000D02*
X82682000Y-107396000D01*
X98180200Y-45792700D02*
X98180200Y-43132700D01*
X87960200Y-45792700D02*
X98180200Y-45792700D01*
X87960200Y-43132700D02*
X98180200Y-43132700D01*
X87960200Y-45792700D02*
X87960200Y-43132700D01*
X86690200Y-45792700D02*
X85360200Y-45792700D01*
X85360200Y-45792700D02*
X85360200Y-44462700D01*
X79435000Y-119440000D02*
X79435000Y-116780000D01*
X76835000Y-119440000D02*
X79435000Y-119440000D01*
X76835000Y-116780000D02*
X79435000Y-116780000D01*
X76835000Y-119440000D02*
X76835000Y-116780000D01*
X75565000Y-119440000D02*
X74235000Y-119440000D01*
X74235000Y-119440000D02*
X74235000Y-118110000D01*
X89671200Y-47463400D02*
X87011200Y-47463400D01*
X89671200Y-55143400D02*
X89671200Y-47463400D01*
X87011200Y-55143400D02*
X87011200Y-47463400D01*
X89671200Y-55143400D02*
X87011200Y-55143400D01*
X89671200Y-56413400D02*
X89671200Y-57743400D01*
X89671200Y-57743400D02*
X88341200Y-57743400D01*
X83476000Y-124729500D02*
X83926000Y-124729500D01*
X83476000Y-126579500D02*
X83476000Y-124729500D01*
X91276000Y-129129500D02*
X91276000Y-128879500D01*
X83476000Y-129129500D02*
X83476000Y-128879500D01*
X91276000Y-126579500D02*
X91276000Y-124729500D01*
X91276000Y-124729500D02*
X90826000Y-124729500D01*
X85676000Y-124179500D02*
X86126000Y-124179500D01*
X85676000Y-124179500D02*
X85676000Y-124629500D01*
X54327100Y-38408300D02*
X54327100Y-39738300D01*
X52997100Y-38408300D02*
X54327100Y-38408300D01*
X51727100Y-38408300D02*
X51727100Y-41068300D01*
X51727100Y-41068300D02*
X41507100Y-41068300D01*
X51727100Y-38408300D02*
X41507100Y-38408300D01*
X41507100Y-38408300D02*
X41507100Y-41068300D01*
X86674000Y-123250000D02*
X86674000Y-120590000D01*
X84074000Y-123250000D02*
X86674000Y-123250000D01*
X84074000Y-120590000D02*
X86674000Y-120590000D01*
X84074000Y-123250000D02*
X84074000Y-120590000D01*
X82804000Y-123250000D02*
X81474000Y-123250000D01*
X81474000Y-123250000D02*
X81474000Y-121920000D01*
X92770000Y-120590000D02*
X92770000Y-121920000D01*
X91440000Y-120590000D02*
X92770000Y-120590000D01*
X90170000Y-120590000D02*
X90170000Y-123250000D01*
X90170000Y-123250000D02*
X87570000Y-123250000D01*
X90170000Y-120590000D02*
X87570000Y-120590000D01*
X87570000Y-120590000D02*
X87570000Y-123250000D01*
X99282000Y-99387000D02*
X97772000Y-99387000D01*
X99282000Y-95686000D02*
X97772000Y-95686000D01*
X97772000Y-92416000D02*
X97772000Y-102656000D01*
X99282000Y-102656000D02*
X94641000Y-102656000D01*
X99282000Y-92416000D02*
X94641000Y-92416000D01*
X94641000Y-92416000D02*
X94641000Y-102656000D01*
X99282000Y-92416000D02*
X99282000Y-102656000D01*
X94938436Y-39222000D02*
X96142564Y-39222000D01*
X94938436Y-41042000D02*
X96142564Y-41042000D01*
X96626000Y-82898836D02*
X96626000Y-84102964D01*
X98446000Y-82898836D02*
X98446000Y-84102964D01*
X81374064Y-64918000D02*
X80169936Y-64918000D01*
X81374064Y-63098000D02*
X80169936Y-63098000D01*
X80206436Y-67458000D02*
X81410564Y-67458000D01*
X80206436Y-65638000D02*
X81410564Y-65638000D01*
X82698000Y-70009936D02*
X82698000Y-71214064D01*
X80878000Y-70009936D02*
X80878000Y-71214064D01*
X97134000Y-116745936D02*
X97134000Y-117950064D01*
X98954000Y-116745936D02*
X98954000Y-117950064D01*
X97134000Y-90554564D02*
X97134000Y-89350436D01*
X98954000Y-90554564D02*
X98954000Y-89350436D01*
X46930000Y-61759564D02*
X46930000Y-60555436D01*
X48750000Y-61759564D02*
X48750000Y-60555436D01*
X40580000Y-61759564D02*
X40580000Y-60555436D01*
X42400000Y-61759564D02*
X42400000Y-60555436D01*
X55100000Y-61759564D02*
X55100000Y-60555436D01*
X53280000Y-61759564D02*
X53280000Y-60555436D01*
X45575000Y-61759564D02*
X45575000Y-60555436D01*
X43755000Y-61759564D02*
X43755000Y-60555436D01*
X95398000Y-82965536D02*
X95398000Y-84169664D01*
X93578000Y-82965536D02*
X93578000Y-84169664D01*
X44860800Y-118741436D02*
X44860800Y-119945564D01*
X46680800Y-118741436D02*
X46680800Y-119945564D01*
D13*
X96002419Y-52578000D02*
G75*
G03X96002419Y-52578000I-803219J0D01*
G01*
D14*
X92151200Y-55626000D02*
X92151200Y-49530000D01*
X98247200Y-55626000D02*
X92151200Y-55626000D01*
X98247200Y-49530000D02*
X98247200Y-55626000D01*
X92151200Y-49530000D02*
X98247200Y-49530000D01*
X85163660Y-34874200D02*
X91259660Y-34874200D01*
X91259660Y-34874200D02*
X91259660Y-40970200D01*
X91259660Y-40970200D02*
X85163660Y-40970200D01*
X85163660Y-40970200D02*
X85163660Y-34874200D01*
D13*
X89014879Y-37922200D02*
G75*
G03X89014879Y-37922200I-803219J0D01*
G01*
D12*
X69110000Y-114080000D02*
G75*
G03X69110000Y-114080000I-950000J0D01*
G01*
X98752700Y-59588400D02*
G75*
G03X98752700Y-59588400I-950000J0D01*
G01*
X86294000Y-32512000D02*
G75*
G03X86294000Y-32512000I-950000J0D01*
G01*
X82153800Y-107696000D02*
G75*
G03X82153800Y-107696000I-950000J0D01*
G01*
X82153800Y-102616000D02*
G75*
G03X82153800Y-102616000I-950000J0D01*
G01*
X72920000Y-114080000D02*
G75*
G03X72920000Y-114080000I-950000J0D01*
G01*
X54697200Y-115484000D02*
X52897200Y-115484000D01*
X52897200Y-118704000D02*
X55347200Y-118704000D01*
X53555000Y-65760000D02*
X53555000Y-68420000D01*
X53555000Y-65760000D02*
X40795000Y-65760000D01*
X40795000Y-65760000D02*
X40795000Y-68420000D01*
X53555000Y-68420000D02*
X40795000Y-68420000D01*
X56155000Y-68420000D02*
X54825000Y-68420000D01*
X56155000Y-67090000D02*
X56155000Y-68420000D01*
D15*
X62894981Y-37185600D02*
G75*
G03X62894981Y-37185600I-283981J0D01*
G01*
D11*
X81517000Y-37039600D02*
X63517000Y-37039600D01*
X63517000Y-31039600D02*
X63517000Y-56539600D01*
X81517000Y-31039600D02*
X81517000Y-56539600D01*
X81517000Y-56539600D02*
X63517000Y-56539600D01*
X81517000Y-31039600D02*
X63517000Y-31039600D01*
D12*
X50004600Y-50608800D02*
X49004600Y-50608800D01*
X49504600Y-51108800D02*
X49504600Y-50108800D01*
X43404600Y-47108800D02*
X43404600Y-44708800D01*
X43404600Y-51908800D02*
X43404600Y-49308800D01*
X43404600Y-56508800D02*
X43404600Y-54108800D01*
X56704600Y-54708800D02*
X57004600Y-54408800D01*
X57304600Y-54708800D02*
X56704600Y-54708800D01*
X57004600Y-54408800D02*
X57304600Y-54708800D01*
X55604600Y-56508800D02*
X55604600Y-44708800D01*
X51504600Y-56508800D02*
X55604600Y-56508800D01*
X51504600Y-44708800D02*
X55604600Y-44708800D01*
X43404600Y-44708800D02*
X47504600Y-44708800D01*
X47504600Y-56508800D02*
X43404600Y-56508800D01*
X52504600Y-50608800D02*
G75*
G03X52504600Y-50608800I-3000000J0D01*
G01*
X82230000Y-82296000D02*
G75*
G03X82230000Y-82296000I-950000J0D01*
G01*
X82230000Y-87376000D02*
G75*
G03X82230000Y-87376000I-950000J0D01*
G01*
X57820000Y-109180000D02*
X57820000Y-106280000D01*
X60720000Y-109180000D02*
X57820000Y-109180000D01*
X60720000Y-106280000D02*
X60720000Y-109180000D01*
X57820000Y-106280000D02*
X60720000Y-106280000D01*
X75600000Y-109180000D02*
X75600000Y-106280000D01*
X78500000Y-109180000D02*
X75600000Y-109180000D01*
X78500000Y-106280000D02*
X78500000Y-109180000D01*
X75600000Y-106280000D02*
X78500000Y-106280000D01*
X57820000Y-71080000D02*
X57820000Y-68180000D01*
X60720000Y-71080000D02*
X57820000Y-71080000D01*
X60720000Y-68180000D02*
X60720000Y-71080000D01*
X57820000Y-68180000D02*
X60720000Y-68180000D01*
X75600000Y-71080000D02*
X75600000Y-68180000D01*
X78500000Y-71080000D02*
X75600000Y-71080000D01*
X78500000Y-68180000D02*
X78500000Y-71080000D01*
X75600000Y-68180000D02*
X78500000Y-68180000D01*
X76730000Y-114080000D02*
G75*
G03X76730000Y-114080000I-950000J0D01*
G01*
D16*
G36*
X62538541Y-101255446D02*
X62538613Y-100729244D01*
X62538623Y-100484303D01*
X62538623Y-96563699D01*
X62769734Y-96563699D01*
X63050976Y-96539032D01*
X63310359Y-96464584D01*
X63549424Y-96339686D01*
X63769714Y-96163670D01*
X63829210Y-96104118D01*
X63997971Y-95889895D01*
X64121052Y-95653690D01*
X64198510Y-95402517D01*
X64230399Y-95143393D01*
X64216776Y-94883333D01*
X64157697Y-94629353D01*
X64053217Y-94388469D01*
X63903393Y-94167696D01*
X63813001Y-94068543D01*
X63591376Y-93883773D01*
X63347661Y-93748284D01*
X63084643Y-93663256D01*
X62805106Y-93629872D01*
X62777606Y-93629428D01*
X62538632Y-93627678D01*
X62538628Y-93522645D01*
X62551273Y-93429470D01*
X62582040Y-93344356D01*
X62585219Y-93338731D01*
X62595194Y-93319508D01*
X62602962Y-93301855D01*
X62610787Y-93285708D01*
X62620930Y-93271005D01*
X62635655Y-93257681D01*
X62657225Y-93245672D01*
X62687901Y-93234915D01*
X62729947Y-93225346D01*
X62785626Y-93216901D01*
X62857199Y-93209516D01*
X62946930Y-93203127D01*
X63057082Y-93197671D01*
X63189916Y-93193084D01*
X63347696Y-93189302D01*
X63532684Y-93186260D01*
X63747144Y-93183897D01*
X63993337Y-93182147D01*
X64273527Y-93180947D01*
X64589975Y-93180232D01*
X64944946Y-93179940D01*
X65340700Y-93180007D01*
X65779502Y-93180368D01*
X66263614Y-93180960D01*
X66795298Y-93181719D01*
X67376817Y-93182581D01*
X68010433Y-93183482D01*
X68087629Y-93183587D01*
X68725287Y-93184395D01*
X69310582Y-93185081D01*
X69845778Y-93185717D01*
X70333136Y-93186376D01*
X70774917Y-93187131D01*
X71173382Y-93188053D01*
X71530795Y-93189216D01*
X71849415Y-93190693D01*
X72131506Y-93192555D01*
X72379328Y-93194876D01*
X72595143Y-93197729D01*
X72781213Y-93201185D01*
X72939800Y-93205318D01*
X73073164Y-93210200D01*
X73183569Y-93215904D01*
X73273275Y-93222502D01*
X73344544Y-93230068D01*
X73399638Y-93238673D01*
X73440818Y-93248390D01*
X73470346Y-93259293D01*
X73490484Y-93271453D01*
X73503493Y-93284943D01*
X73511636Y-93299837D01*
X73517173Y-93316206D01*
X73522366Y-93334123D01*
X73529477Y-93353661D01*
X73531642Y-93358434D01*
X73536506Y-93373434D01*
X73540976Y-93398541D01*
X73545066Y-93435946D01*
X73548793Y-93487842D01*
X73552173Y-93556420D01*
X73555221Y-93643873D01*
X73557954Y-93752394D01*
X73560387Y-93884174D01*
X73562537Y-94041406D01*
X73564419Y-94226281D01*
X73566049Y-94440993D01*
X73567443Y-94687734D01*
X73568617Y-94968694D01*
X73569587Y-95286068D01*
X73570369Y-95642047D01*
X73570979Y-96038822D01*
X73571432Y-96478588D01*
X73571745Y-96963535D01*
X73571934Y-97495856D01*
X73572013Y-98077743D01*
X73572000Y-98711389D01*
X73571980Y-98916644D01*
X73571876Y-99564347D01*
X73571706Y-100159644D01*
X73571453Y-100704755D01*
X73571098Y-101201897D01*
X73570626Y-101653290D01*
X73570018Y-102061151D01*
X73569258Y-102427700D01*
X73568327Y-102755154D01*
X73567209Y-103045732D01*
X73565886Y-103301652D01*
X73564341Y-103525133D01*
X73562557Y-103718394D01*
X73560516Y-103883652D01*
X73558201Y-104023127D01*
X73555594Y-104139037D01*
X73552678Y-104233600D01*
X73549436Y-104309034D01*
X73545851Y-104367558D01*
X73541905Y-104411391D01*
X73537581Y-104442752D01*
X73532862Y-104463857D01*
X73528540Y-104475363D01*
X73519916Y-104495812D01*
X73513557Y-104514587D01*
X73507203Y-104531760D01*
X73498597Y-104547402D01*
X73485480Y-104561584D01*
X73465594Y-104574377D01*
X73436679Y-104585852D01*
X73396479Y-104596080D01*
X73342733Y-104605133D01*
X73273185Y-104613080D01*
X73185574Y-104619994D01*
X73077644Y-104625945D01*
X72947135Y-104631005D01*
X72791789Y-104635245D01*
X72609348Y-104638735D01*
X72397553Y-104641547D01*
X72316258Y-104642283D01*
X72316258Y-103913361D01*
X72316258Y-101336987D01*
X72241150Y-101386561D01*
X72163968Y-101435878D01*
X72090469Y-101477640D01*
X72015512Y-101512441D01*
X71933953Y-101540877D01*
X71840648Y-101563540D01*
X71730453Y-101581025D01*
X71598225Y-101593926D01*
X71438820Y-101602837D01*
X71247095Y-101608352D01*
X71017907Y-101611064D01*
X70746112Y-101611569D01*
X70426566Y-101610459D01*
X70307932Y-101609830D01*
X69036123Y-101602732D01*
X70133010Y-100797033D01*
X70444183Y-100568779D01*
X70715143Y-100371025D01*
X70949478Y-100201635D01*
X71150780Y-100058473D01*
X71322637Y-99939405D01*
X71468640Y-99842295D01*
X71592378Y-99765007D01*
X71697441Y-99705407D01*
X71787420Y-99661359D01*
X71865903Y-99630728D01*
X71936480Y-99611378D01*
X72002742Y-99601175D01*
X72068277Y-99597983D01*
X72136677Y-99599667D01*
X72145274Y-99600097D01*
X72316372Y-99608968D01*
X72316315Y-98197236D01*
X72316258Y-96785505D01*
X72104500Y-96995516D01*
X72046582Y-97052504D01*
X71990225Y-97106566D01*
X71932322Y-97160076D01*
X71869764Y-97215404D01*
X71799443Y-97274925D01*
X71718251Y-97341011D01*
X71623081Y-97416034D01*
X71510823Y-97502367D01*
X71378370Y-97602383D01*
X71222614Y-97718454D01*
X71040446Y-97852952D01*
X70828760Y-98008251D01*
X70584446Y-98186722D01*
X70304397Y-98390740D01*
X69985504Y-98622675D01*
X69723920Y-98812782D01*
X69395292Y-99051372D01*
X69107957Y-99259508D01*
X68859187Y-99439075D01*
X68646254Y-99591957D01*
X68466430Y-99720041D01*
X68316986Y-99825212D01*
X68195196Y-99909355D01*
X68098331Y-99974357D01*
X68023662Y-100022103D01*
X67968463Y-100054477D01*
X67930004Y-100073366D01*
X67905559Y-100080655D01*
X67892706Y-100078464D01*
X67858504Y-100051913D01*
X67786108Y-99994508D01*
X67679820Y-99909713D01*
X67543945Y-99800992D01*
X67382784Y-99671808D01*
X67200643Y-99525626D01*
X67001822Y-99365909D01*
X66790627Y-99196121D01*
X66571359Y-99019726D01*
X66348323Y-98840187D01*
X66225720Y-98741435D01*
X66225720Y-96289548D01*
X66594430Y-96085742D01*
X71947548Y-96085742D01*
X72316258Y-96289548D01*
X72316258Y-95084111D01*
X72316174Y-94796341D01*
X72315797Y-94558647D01*
X72314935Y-94366482D01*
X72313400Y-94215298D01*
X72311000Y-94100548D01*
X72307546Y-94017685D01*
X72302849Y-93962162D01*
X72296717Y-93929430D01*
X72288961Y-93914943D01*
X72279391Y-93914153D01*
X72267817Y-93922513D01*
X72267721Y-93922599D01*
X72217907Y-93957036D01*
X72136910Y-94002637D01*
X72056055Y-94042908D01*
X71892925Y-94119291D01*
X69059322Y-94127081D01*
X66225720Y-94134871D01*
X66225720Y-96289548D01*
X66225720Y-98741435D01*
X66125821Y-98660969D01*
X65908157Y-98485536D01*
X65699633Y-98317350D01*
X65504554Y-98159877D01*
X65327221Y-98016579D01*
X65171939Y-97890921D01*
X65043010Y-97786366D01*
X64944738Y-97706379D01*
X64887441Y-97659398D01*
X64673180Y-97476963D01*
X64479830Y-97301452D01*
X64313720Y-97139016D01*
X64181180Y-96995805D01*
X64099921Y-96894171D01*
X64013462Y-96773998D01*
X64013462Y-99537840D01*
X64175646Y-99537064D01*
X64294883Y-99544788D01*
X64405426Y-99573828D01*
X64510216Y-99618782D01*
X64569416Y-99648004D01*
X64628074Y-99679423D01*
X64690086Y-99715909D01*
X64759345Y-99760331D01*
X64839746Y-99815561D01*
X64935181Y-99884469D01*
X65049547Y-99969923D01*
X65186735Y-100074796D01*
X65350642Y-100201955D01*
X65545160Y-100354273D01*
X65774185Y-100534618D01*
X66041609Y-100745862D01*
X66071783Y-100769721D01*
X67125195Y-101602732D01*
X65958522Y-101610796D01*
X65609069Y-101612420D01*
X65313230Y-101612074D01*
X65070030Y-101609742D01*
X64878493Y-101605407D01*
X64737644Y-101599051D01*
X64646508Y-101590659D01*
X64629220Y-101587838D01*
X64447117Y-101543584D01*
X64282950Y-101485602D01*
X64150954Y-101419437D01*
X64094972Y-101379687D01*
X64013462Y-101311102D01*
X64013462Y-102612453D01*
X64013728Y-102922885D01*
X64014591Y-103182477D01*
X64016154Y-103395014D01*
X64018517Y-103564276D01*
X64021780Y-103694048D01*
X64026045Y-103788111D01*
X64031413Y-103850248D01*
X64037983Y-103884241D01*
X64045858Y-103893874D01*
X64047602Y-103893208D01*
X64089243Y-103865620D01*
X64155248Y-103819564D01*
X64188631Y-103795735D01*
X64221944Y-103771099D01*
X64251734Y-103748955D01*
X64280933Y-103729164D01*
X64312474Y-103711586D01*
X64349286Y-103696081D01*
X64394303Y-103682511D01*
X64450455Y-103670736D01*
X64520675Y-103660616D01*
X64607894Y-103652013D01*
X64715043Y-103644786D01*
X64845055Y-103638796D01*
X65000861Y-103633904D01*
X65185393Y-103629971D01*
X65401581Y-103626857D01*
X65652359Y-103624422D01*
X65940658Y-103622527D01*
X66269409Y-103621033D01*
X66641543Y-103619801D01*
X67059994Y-103618690D01*
X67527691Y-103617562D01*
X67957354Y-103616508D01*
X68436353Y-103615512D01*
X68893362Y-103614994D01*
X69325464Y-103614941D01*
X69729738Y-103615338D01*
X70103265Y-103616172D01*
X70443127Y-103617429D01*
X70746404Y-103619094D01*
X71010177Y-103621156D01*
X71231527Y-103623599D01*
X71407535Y-103626410D01*
X71535283Y-103629576D01*
X71611849Y-103633082D01*
X71619941Y-103633745D01*
X71805568Y-103657905D01*
X71954647Y-103695624D01*
X72084750Y-103753064D01*
X72213452Y-103836389D01*
X72227494Y-103846811D01*
X72316258Y-103913361D01*
X72316258Y-104642283D01*
X72154145Y-104643752D01*
X71876867Y-104645421D01*
X71563459Y-104646625D01*
X71211664Y-104647435D01*
X70819223Y-104647922D01*
X70383877Y-104648156D01*
X69903368Y-104648211D01*
X69375438Y-104648156D01*
X68797828Y-104648062D01*
X68168279Y-104648002D01*
X68043301Y-104648000D01*
X67407122Y-104647965D01*
X66823325Y-104647847D01*
X66289668Y-104647628D01*
X65803909Y-104647292D01*
X65363805Y-104646822D01*
X64967116Y-104646198D01*
X64611599Y-104645406D01*
X64295012Y-104644426D01*
X64015113Y-104643242D01*
X63769661Y-104641836D01*
X63556413Y-104640190D01*
X63373128Y-104638288D01*
X63217564Y-104636113D01*
X63087478Y-104633645D01*
X62980629Y-104630869D01*
X62894775Y-104627767D01*
X62827674Y-104624321D01*
X62777084Y-104620515D01*
X62740764Y-104616330D01*
X62716470Y-104611749D01*
X62701962Y-104606755D01*
X62701600Y-104606570D01*
X62679437Y-104596285D01*
X62659372Y-104587718D01*
X62641301Y-104578241D01*
X62625121Y-104565226D01*
X62610726Y-104546043D01*
X62598014Y-104518065D01*
X62586880Y-104478663D01*
X62577221Y-104425208D01*
X62568932Y-104355071D01*
X62561910Y-104265624D01*
X62556050Y-104154238D01*
X62551250Y-104018284D01*
X62547404Y-103855135D01*
X62544409Y-103662161D01*
X62542161Y-103436733D01*
X62540556Y-103176224D01*
X62539491Y-102878004D01*
X62538860Y-102539445D01*
X62538561Y-102157918D01*
X62538490Y-101730794D01*
X62538541Y-101255446D01*
X62538541Y-101255446D01*
G37*
X62538541Y-101255446D02*
X62538613Y-100729244D01*
X62538623Y-100484303D01*
X62538623Y-96563699D01*
X62769734Y-96563699D01*
X63050976Y-96539032D01*
X63310359Y-96464584D01*
X63549424Y-96339686D01*
X63769714Y-96163670D01*
X63829210Y-96104118D01*
X63997971Y-95889895D01*
X64121052Y-95653690D01*
X64198510Y-95402517D01*
X64230399Y-95143393D01*
X64216776Y-94883333D01*
X64157697Y-94629353D01*
X64053217Y-94388469D01*
X63903393Y-94167696D01*
X63813001Y-94068543D01*
X63591376Y-93883773D01*
X63347661Y-93748284D01*
X63084643Y-93663256D01*
X62805106Y-93629872D01*
X62777606Y-93629428D01*
X62538632Y-93627678D01*
X62538628Y-93522645D01*
X62551273Y-93429470D01*
X62582040Y-93344356D01*
X62585219Y-93338731D01*
X62595194Y-93319508D01*
X62602962Y-93301855D01*
X62610787Y-93285708D01*
X62620930Y-93271005D01*
X62635655Y-93257681D01*
X62657225Y-93245672D01*
X62687901Y-93234915D01*
X62729947Y-93225346D01*
X62785626Y-93216901D01*
X62857199Y-93209516D01*
X62946930Y-93203127D01*
X63057082Y-93197671D01*
X63189916Y-93193084D01*
X63347696Y-93189302D01*
X63532684Y-93186260D01*
X63747144Y-93183897D01*
X63993337Y-93182147D01*
X64273527Y-93180947D01*
X64589975Y-93180232D01*
X64944946Y-93179940D01*
X65340700Y-93180007D01*
X65779502Y-93180368D01*
X66263614Y-93180960D01*
X66795298Y-93181719D01*
X67376817Y-93182581D01*
X68010433Y-93183482D01*
X68087629Y-93183587D01*
X68725287Y-93184395D01*
X69310582Y-93185081D01*
X69845778Y-93185717D01*
X70333136Y-93186376D01*
X70774917Y-93187131D01*
X71173382Y-93188053D01*
X71530795Y-93189216D01*
X71849415Y-93190693D01*
X72131506Y-93192555D01*
X72379328Y-93194876D01*
X72595143Y-93197729D01*
X72781213Y-93201185D01*
X72939800Y-93205318D01*
X73073164Y-93210200D01*
X73183569Y-93215904D01*
X73273275Y-93222502D01*
X73344544Y-93230068D01*
X73399638Y-93238673D01*
X73440818Y-93248390D01*
X73470346Y-93259293D01*
X73490484Y-93271453D01*
X73503493Y-93284943D01*
X73511636Y-93299837D01*
X73517173Y-93316206D01*
X73522366Y-93334123D01*
X73529477Y-93353661D01*
X73531642Y-93358434D01*
X73536506Y-93373434D01*
X73540976Y-93398541D01*
X73545066Y-93435946D01*
X73548793Y-93487842D01*
X73552173Y-93556420D01*
X73555221Y-93643873D01*
X73557954Y-93752394D01*
X73560387Y-93884174D01*
X73562537Y-94041406D01*
X73564419Y-94226281D01*
X73566049Y-94440993D01*
X73567443Y-94687734D01*
X73568617Y-94968694D01*
X73569587Y-95286068D01*
X73570369Y-95642047D01*
X73570979Y-96038822D01*
X73571432Y-96478588D01*
X73571745Y-96963535D01*
X73571934Y-97495856D01*
X73572013Y-98077743D01*
X73572000Y-98711389D01*
X73571980Y-98916644D01*
X73571876Y-99564347D01*
X73571706Y-100159644D01*
X73571453Y-100704755D01*
X73571098Y-101201897D01*
X73570626Y-101653290D01*
X73570018Y-102061151D01*
X73569258Y-102427700D01*
X73568327Y-102755154D01*
X73567209Y-103045732D01*
X73565886Y-103301652D01*
X73564341Y-103525133D01*
X73562557Y-103718394D01*
X73560516Y-103883652D01*
X73558201Y-104023127D01*
X73555594Y-104139037D01*
X73552678Y-104233600D01*
X73549436Y-104309034D01*
X73545851Y-104367558D01*
X73541905Y-104411391D01*
X73537581Y-104442752D01*
X73532862Y-104463857D01*
X73528540Y-104475363D01*
X73519916Y-104495812D01*
X73513557Y-104514587D01*
X73507203Y-104531760D01*
X73498597Y-104547402D01*
X73485480Y-104561584D01*
X73465594Y-104574377D01*
X73436679Y-104585852D01*
X73396479Y-104596080D01*
X73342733Y-104605133D01*
X73273185Y-104613080D01*
X73185574Y-104619994D01*
X73077644Y-104625945D01*
X72947135Y-104631005D01*
X72791789Y-104635245D01*
X72609348Y-104638735D01*
X72397553Y-104641547D01*
X72316258Y-104642283D01*
X72316258Y-103913361D01*
X72316258Y-101336987D01*
X72241150Y-101386561D01*
X72163968Y-101435878D01*
X72090469Y-101477640D01*
X72015512Y-101512441D01*
X71933953Y-101540877D01*
X71840648Y-101563540D01*
X71730453Y-101581025D01*
X71598225Y-101593926D01*
X71438820Y-101602837D01*
X71247095Y-101608352D01*
X71017907Y-101611064D01*
X70746112Y-101611569D01*
X70426566Y-101610459D01*
X70307932Y-101609830D01*
X69036123Y-101602732D01*
X70133010Y-100797033D01*
X70444183Y-100568779D01*
X70715143Y-100371025D01*
X70949478Y-100201635D01*
X71150780Y-100058473D01*
X71322637Y-99939405D01*
X71468640Y-99842295D01*
X71592378Y-99765007D01*
X71697441Y-99705407D01*
X71787420Y-99661359D01*
X71865903Y-99630728D01*
X71936480Y-99611378D01*
X72002742Y-99601175D01*
X72068277Y-99597983D01*
X72136677Y-99599667D01*
X72145274Y-99600097D01*
X72316372Y-99608968D01*
X72316315Y-98197236D01*
X72316258Y-96785505D01*
X72104500Y-96995516D01*
X72046582Y-97052504D01*
X71990225Y-97106566D01*
X71932322Y-97160076D01*
X71869764Y-97215404D01*
X71799443Y-97274925D01*
X71718251Y-97341011D01*
X71623081Y-97416034D01*
X71510823Y-97502367D01*
X71378370Y-97602383D01*
X71222614Y-97718454D01*
X71040446Y-97852952D01*
X70828760Y-98008251D01*
X70584446Y-98186722D01*
X70304397Y-98390740D01*
X69985504Y-98622675D01*
X69723920Y-98812782D01*
X69395292Y-99051372D01*
X69107957Y-99259508D01*
X68859187Y-99439075D01*
X68646254Y-99591957D01*
X68466430Y-99720041D01*
X68316986Y-99825212D01*
X68195196Y-99909355D01*
X68098331Y-99974357D01*
X68023662Y-100022103D01*
X67968463Y-100054477D01*
X67930004Y-100073366D01*
X67905559Y-100080655D01*
X67892706Y-100078464D01*
X67858504Y-100051913D01*
X67786108Y-99994508D01*
X67679820Y-99909713D01*
X67543945Y-99800992D01*
X67382784Y-99671808D01*
X67200643Y-99525626D01*
X67001822Y-99365909D01*
X66790627Y-99196121D01*
X66571359Y-99019726D01*
X66348323Y-98840187D01*
X66225720Y-98741435D01*
X66225720Y-96289548D01*
X66594430Y-96085742D01*
X71947548Y-96085742D01*
X72316258Y-96289548D01*
X72316258Y-95084111D01*
X72316174Y-94796341D01*
X72315797Y-94558647D01*
X72314935Y-94366482D01*
X72313400Y-94215298D01*
X72311000Y-94100548D01*
X72307546Y-94017685D01*
X72302849Y-93962162D01*
X72296717Y-93929430D01*
X72288961Y-93914943D01*
X72279391Y-93914153D01*
X72267817Y-93922513D01*
X72267721Y-93922599D01*
X72217907Y-93957036D01*
X72136910Y-94002637D01*
X72056055Y-94042908D01*
X71892925Y-94119291D01*
X69059322Y-94127081D01*
X66225720Y-94134871D01*
X66225720Y-96289548D01*
X66225720Y-98741435D01*
X66125821Y-98660969D01*
X65908157Y-98485536D01*
X65699633Y-98317350D01*
X65504554Y-98159877D01*
X65327221Y-98016579D01*
X65171939Y-97890921D01*
X65043010Y-97786366D01*
X64944738Y-97706379D01*
X64887441Y-97659398D01*
X64673180Y-97476963D01*
X64479830Y-97301452D01*
X64313720Y-97139016D01*
X64181180Y-96995805D01*
X64099921Y-96894171D01*
X64013462Y-96773998D01*
X64013462Y-99537840D01*
X64175646Y-99537064D01*
X64294883Y-99544788D01*
X64405426Y-99573828D01*
X64510216Y-99618782D01*
X64569416Y-99648004D01*
X64628074Y-99679423D01*
X64690086Y-99715909D01*
X64759345Y-99760331D01*
X64839746Y-99815561D01*
X64935181Y-99884469D01*
X65049547Y-99969923D01*
X65186735Y-100074796D01*
X65350642Y-100201955D01*
X65545160Y-100354273D01*
X65774185Y-100534618D01*
X66041609Y-100745862D01*
X66071783Y-100769721D01*
X67125195Y-101602732D01*
X65958522Y-101610796D01*
X65609069Y-101612420D01*
X65313230Y-101612074D01*
X65070030Y-101609742D01*
X64878493Y-101605407D01*
X64737644Y-101599051D01*
X64646508Y-101590659D01*
X64629220Y-101587838D01*
X64447117Y-101543584D01*
X64282950Y-101485602D01*
X64150954Y-101419437D01*
X64094972Y-101379687D01*
X64013462Y-101311102D01*
X64013462Y-102612453D01*
X64013728Y-102922885D01*
X64014591Y-103182477D01*
X64016154Y-103395014D01*
X64018517Y-103564276D01*
X64021780Y-103694048D01*
X64026045Y-103788111D01*
X64031413Y-103850248D01*
X64037983Y-103884241D01*
X64045858Y-103893874D01*
X64047602Y-103893208D01*
X64089243Y-103865620D01*
X64155248Y-103819564D01*
X64188631Y-103795735D01*
X64221944Y-103771099D01*
X64251734Y-103748955D01*
X64280933Y-103729164D01*
X64312474Y-103711586D01*
X64349286Y-103696081D01*
X64394303Y-103682511D01*
X64450455Y-103670736D01*
X64520675Y-103660616D01*
X64607894Y-103652013D01*
X64715043Y-103644786D01*
X64845055Y-103638796D01*
X65000861Y-103633904D01*
X65185393Y-103629971D01*
X65401581Y-103626857D01*
X65652359Y-103624422D01*
X65940658Y-103622527D01*
X66269409Y-103621033D01*
X66641543Y-103619801D01*
X67059994Y-103618690D01*
X67527691Y-103617562D01*
X67957354Y-103616508D01*
X68436353Y-103615512D01*
X68893362Y-103614994D01*
X69325464Y-103614941D01*
X69729738Y-103615338D01*
X70103265Y-103616172D01*
X70443127Y-103617429D01*
X70746404Y-103619094D01*
X71010177Y-103621156D01*
X71231527Y-103623599D01*
X71407535Y-103626410D01*
X71535283Y-103629576D01*
X71611849Y-103633082D01*
X71619941Y-103633745D01*
X71805568Y-103657905D01*
X71954647Y-103695624D01*
X72084750Y-103753064D01*
X72213452Y-103836389D01*
X72227494Y-103846811D01*
X72316258Y-103913361D01*
X72316258Y-104642283D01*
X72154145Y-104643752D01*
X71876867Y-104645421D01*
X71563459Y-104646625D01*
X71211664Y-104647435D01*
X70819223Y-104647922D01*
X70383877Y-104648156D01*
X69903368Y-104648211D01*
X69375438Y-104648156D01*
X68797828Y-104648062D01*
X68168279Y-104648002D01*
X68043301Y-104648000D01*
X67407122Y-104647965D01*
X66823325Y-104647847D01*
X66289668Y-104647628D01*
X65803909Y-104647292D01*
X65363805Y-104646822D01*
X64967116Y-104646198D01*
X64611599Y-104645406D01*
X64295012Y-104644426D01*
X64015113Y-104643242D01*
X63769661Y-104641836D01*
X63556413Y-104640190D01*
X63373128Y-104638288D01*
X63217564Y-104636113D01*
X63087478Y-104633645D01*
X62980629Y-104630869D01*
X62894775Y-104627767D01*
X62827674Y-104624321D01*
X62777084Y-104620515D01*
X62740764Y-104616330D01*
X62716470Y-104611749D01*
X62701962Y-104606755D01*
X62701600Y-104606570D01*
X62679437Y-104596285D01*
X62659372Y-104587718D01*
X62641301Y-104578241D01*
X62625121Y-104565226D01*
X62610726Y-104546043D01*
X62598014Y-104518065D01*
X62586880Y-104478663D01*
X62577221Y-104425208D01*
X62568932Y-104355071D01*
X62561910Y-104265624D01*
X62556050Y-104154238D01*
X62551250Y-104018284D01*
X62547404Y-103855135D01*
X62544409Y-103662161D01*
X62542161Y-103436733D01*
X62540556Y-103176224D01*
X62539491Y-102878004D01*
X62538860Y-102539445D01*
X62538561Y-102157918D01*
X62538490Y-101730794D01*
X62538541Y-101255446D01*
G36*
X63904777Y-88532807D02*
X63937019Y-88238294D01*
X63994729Y-87952961D01*
X64080917Y-87665200D01*
X64198593Y-87363404D01*
X64350767Y-87035966D01*
X64380243Y-86976999D01*
X64446910Y-86841676D01*
X64506939Y-86714049D01*
X64554599Y-86606713D01*
X64584155Y-86532264D01*
X64587876Y-86520827D01*
X64620714Y-86411226D01*
X65334453Y-86901845D01*
X65508895Y-87021794D01*
X65668270Y-87131461D01*
X65807168Y-87227117D01*
X65920178Y-87305031D01*
X66001890Y-87361475D01*
X66046891Y-87392719D01*
X66054018Y-87397795D01*
X66039117Y-87418412D01*
X65994320Y-87469161D01*
X65927765Y-87540966D01*
X65890147Y-87580594D01*
X65711568Y-87805118D01*
X65575868Y-88057274D01*
X65501537Y-88274560D01*
X65478193Y-88404993D01*
X65463967Y-88568307D01*
X65459124Y-88745293D01*
X65463926Y-88916744D01*
X65478638Y-89063452D01*
X65489905Y-89121993D01*
X65580685Y-89385853D01*
X65719296Y-89623622D01*
X65905485Y-89835124D01*
X66138999Y-90020184D01*
X66419584Y-90178625D01*
X66746987Y-90310271D01*
X67120955Y-90414946D01*
X67441097Y-90477155D01*
X67582426Y-90493386D01*
X67765004Y-90504444D01*
X67975709Y-90510437D01*
X68201422Y-90511473D01*
X68429022Y-90507657D01*
X68645389Y-90499097D01*
X68837402Y-90485899D01*
X68991943Y-90468170D01*
X69015786Y-90464333D01*
X69399860Y-90379749D01*
X69739783Y-90264505D01*
X70037078Y-90117897D01*
X70293268Y-89939226D01*
X70431775Y-89812400D01*
X70619828Y-89584475D01*
X70759220Y-89334512D01*
X70849195Y-89066730D01*
X70888994Y-88785344D01*
X70877857Y-88494571D01*
X70815026Y-88198627D01*
X70753547Y-88023660D01*
X70630436Y-87781534D01*
X70453837Y-87531980D01*
X70334412Y-87392191D01*
X70265291Y-87313699D01*
X70214579Y-87252030D01*
X70190144Y-87216928D01*
X70189398Y-87212570D01*
X70214367Y-87196903D01*
X70280348Y-87156308D01*
X70381685Y-87094243D01*
X70512721Y-87014167D01*
X70667800Y-86919538D01*
X70841265Y-86813814D01*
X70937896Y-86754967D01*
X71676201Y-86305474D01*
X71953549Y-86866683D01*
X72053172Y-87069596D01*
X72131729Y-87233973D01*
X72193122Y-87369861D01*
X72241253Y-87487309D01*
X72280023Y-87596364D01*
X72313333Y-87707074D01*
X72345086Y-87829487D01*
X72372969Y-87946818D01*
X72394546Y-88051105D01*
X72410851Y-88160168D01*
X72422791Y-88284927D01*
X72431270Y-88436297D01*
X72437192Y-88625199D01*
X72439749Y-88752517D01*
X72441494Y-88934177D01*
X72440614Y-89108367D01*
X72437360Y-89263557D01*
X72431984Y-89388223D01*
X72424735Y-89470834D01*
X72424012Y-89475730D01*
X72331205Y-89904709D01*
X72190449Y-90307551D01*
X72001839Y-90684112D01*
X71765466Y-91034252D01*
X71481424Y-91357828D01*
X71149805Y-91654700D01*
X70855075Y-91869701D01*
X70469298Y-92098589D01*
X70061895Y-92283611D01*
X69629600Y-92425662D01*
X69169146Y-92525636D01*
X68677267Y-92584428D01*
X68177799Y-92602951D01*
X67694634Y-92587717D01*
X67248842Y-92539844D01*
X66832905Y-92457811D01*
X66439304Y-92340097D01*
X66060518Y-92185181D01*
X66021275Y-92166683D01*
X65654440Y-91962894D01*
X65305360Y-91712598D01*
X64981260Y-91422885D01*
X64689366Y-91100846D01*
X64436904Y-90753574D01*
X64251714Y-90429987D01*
X64106670Y-90103096D01*
X64001603Y-89775511D01*
X63933653Y-89434552D01*
X63899960Y-89067535D01*
X63894992Y-88848108D01*
X63904777Y-88532807D01*
X63904777Y-88532807D01*
G37*
X63904777Y-88532807D02*
X63937019Y-88238294D01*
X63994729Y-87952961D01*
X64080917Y-87665200D01*
X64198593Y-87363404D01*
X64350767Y-87035966D01*
X64380243Y-86976999D01*
X64446910Y-86841676D01*
X64506939Y-86714049D01*
X64554599Y-86606713D01*
X64584155Y-86532264D01*
X64587876Y-86520827D01*
X64620714Y-86411226D01*
X65334453Y-86901845D01*
X65508895Y-87021794D01*
X65668270Y-87131461D01*
X65807168Y-87227117D01*
X65920178Y-87305031D01*
X66001890Y-87361475D01*
X66046891Y-87392719D01*
X66054018Y-87397795D01*
X66039117Y-87418412D01*
X65994320Y-87469161D01*
X65927765Y-87540966D01*
X65890147Y-87580594D01*
X65711568Y-87805118D01*
X65575868Y-88057274D01*
X65501537Y-88274560D01*
X65478193Y-88404993D01*
X65463967Y-88568307D01*
X65459124Y-88745293D01*
X65463926Y-88916744D01*
X65478638Y-89063452D01*
X65489905Y-89121993D01*
X65580685Y-89385853D01*
X65719296Y-89623622D01*
X65905485Y-89835124D01*
X66138999Y-90020184D01*
X66419584Y-90178625D01*
X66746987Y-90310271D01*
X67120955Y-90414946D01*
X67441097Y-90477155D01*
X67582426Y-90493386D01*
X67765004Y-90504444D01*
X67975709Y-90510437D01*
X68201422Y-90511473D01*
X68429022Y-90507657D01*
X68645389Y-90499097D01*
X68837402Y-90485899D01*
X68991943Y-90468170D01*
X69015786Y-90464333D01*
X69399860Y-90379749D01*
X69739783Y-90264505D01*
X70037078Y-90117897D01*
X70293268Y-89939226D01*
X70431775Y-89812400D01*
X70619828Y-89584475D01*
X70759220Y-89334512D01*
X70849195Y-89066730D01*
X70888994Y-88785344D01*
X70877857Y-88494571D01*
X70815026Y-88198627D01*
X70753547Y-88023660D01*
X70630436Y-87781534D01*
X70453837Y-87531980D01*
X70334412Y-87392191D01*
X70265291Y-87313699D01*
X70214579Y-87252030D01*
X70190144Y-87216928D01*
X70189398Y-87212570D01*
X70214367Y-87196903D01*
X70280348Y-87156308D01*
X70381685Y-87094243D01*
X70512721Y-87014167D01*
X70667800Y-86919538D01*
X70841265Y-86813814D01*
X70937896Y-86754967D01*
X71676201Y-86305474D01*
X71953549Y-86866683D01*
X72053172Y-87069596D01*
X72131729Y-87233973D01*
X72193122Y-87369861D01*
X72241253Y-87487309D01*
X72280023Y-87596364D01*
X72313333Y-87707074D01*
X72345086Y-87829487D01*
X72372969Y-87946818D01*
X72394546Y-88051105D01*
X72410851Y-88160168D01*
X72422791Y-88284927D01*
X72431270Y-88436297D01*
X72437192Y-88625199D01*
X72439749Y-88752517D01*
X72441494Y-88934177D01*
X72440614Y-89108367D01*
X72437360Y-89263557D01*
X72431984Y-89388223D01*
X72424735Y-89470834D01*
X72424012Y-89475730D01*
X72331205Y-89904709D01*
X72190449Y-90307551D01*
X72001839Y-90684112D01*
X71765466Y-91034252D01*
X71481424Y-91357828D01*
X71149805Y-91654700D01*
X70855075Y-91869701D01*
X70469298Y-92098589D01*
X70061895Y-92283611D01*
X69629600Y-92425662D01*
X69169146Y-92525636D01*
X68677267Y-92584428D01*
X68177799Y-92602951D01*
X67694634Y-92587717D01*
X67248842Y-92539844D01*
X66832905Y-92457811D01*
X66439304Y-92340097D01*
X66060518Y-92185181D01*
X66021275Y-92166683D01*
X65654440Y-91962894D01*
X65305360Y-91712598D01*
X64981260Y-91422885D01*
X64689366Y-91100846D01*
X64436904Y-90753574D01*
X64251714Y-90429987D01*
X64106670Y-90103096D01*
X64001603Y-89775511D01*
X63933653Y-89434552D01*
X63899960Y-89067535D01*
X63894992Y-88848108D01*
X63904777Y-88532807D01*
G36*
X66100368Y-83107049D02*
X66110611Y-82971728D01*
X66162122Y-82584558D01*
X66244283Y-82241679D01*
X66358222Y-81941420D01*
X66505072Y-81682112D01*
X66685962Y-81462084D01*
X66902022Y-81279666D01*
X67154384Y-81133189D01*
X67427441Y-81026229D01*
X67514541Y-80999079D01*
X67596107Y-80975436D01*
X67676529Y-80955023D01*
X67760199Y-80937561D01*
X67851508Y-80922770D01*
X67954847Y-80910373D01*
X68074609Y-80900089D01*
X68215183Y-80891642D01*
X68380962Y-80884752D01*
X68576336Y-80879139D01*
X68805698Y-80874527D01*
X69073437Y-80870635D01*
X69383947Y-80867185D01*
X69741618Y-80863898D01*
X70022064Y-80861549D01*
X71947548Y-80845742D01*
X72132843Y-80743323D01*
X72222111Y-80694825D01*
X72291448Y-80658734D01*
X72328354Y-80641517D01*
X72330854Y-80640904D01*
X72333715Y-80667220D01*
X72336351Y-80742189D01*
X72338689Y-80859839D01*
X72340653Y-81014200D01*
X72342170Y-81199300D01*
X72343165Y-81409168D01*
X72343565Y-81637833D01*
X72343570Y-81665097D01*
X72343570Y-82689291D01*
X72111419Y-82689291D01*
X72006507Y-82691037D01*
X71926271Y-82695698D01*
X71883251Y-82702404D01*
X71879269Y-82705368D01*
X71895950Y-82732477D01*
X71939731Y-82788269D01*
X72001216Y-82860785D01*
X72002638Y-82862411D01*
X72101160Y-82994743D01*
X72200089Y-83161867D01*
X72289706Y-83344900D01*
X72360293Y-83524957D01*
X72384414Y-83604237D01*
X72415051Y-83762009D01*
X72434602Y-83955603D01*
X72442787Y-84167296D01*
X72439327Y-84379368D01*
X72423945Y-84574096D01*
X72401811Y-84710366D01*
X72303676Y-85044546D01*
X72163819Y-85345397D01*
X71983974Y-85610961D01*
X71765876Y-85839279D01*
X71511261Y-86028394D01*
X71221864Y-86176347D01*
X71046258Y-86240175D01*
X70875576Y-86280177D01*
X70670678Y-86306687D01*
X70450464Y-86318953D01*
X70418420Y-86318550D01*
X70418420Y-84471388D01*
X70582053Y-84456070D01*
X70718042Y-84405065D01*
X70844208Y-84310796D01*
X70881203Y-84274589D01*
X70981221Y-84145880D01*
X71045294Y-83997115D01*
X71076309Y-83818887D01*
X71078593Y-83631202D01*
X71063514Y-83453186D01*
X71034021Y-83316888D01*
X71011869Y-83257694D01*
X70951496Y-83151005D01*
X70866589Y-83037963D01*
X70771295Y-82934825D01*
X70679760Y-82857849D01*
X70646181Y-82837409D01*
X70599157Y-82821519D01*
X70524333Y-82810222D01*
X70414560Y-82802991D01*
X70262692Y-82799300D01*
X70118155Y-82798538D01*
X69949644Y-82799054D01*
X69827799Y-82801140D01*
X69744666Y-82805598D01*
X69692292Y-82813235D01*
X69662726Y-82824854D01*
X69648013Y-82841260D01*
X69645670Y-82846334D01*
X69638453Y-82890430D01*
X69632550Y-82977400D01*
X69628493Y-83095500D01*
X69626815Y-83232986D01*
X69626813Y-83262839D01*
X69629746Y-83446614D01*
X69638469Y-83588593D01*
X69654177Y-83701409D01*
X69677118Y-83794598D01*
X69764535Y-84025754D01*
X69872010Y-84207027D01*
X70001262Y-84339986D01*
X70154010Y-84426199D01*
X70331972Y-84467238D01*
X70418420Y-84471388D01*
X70418420Y-86318550D01*
X70233834Y-86316224D01*
X70039689Y-86297748D01*
X69961252Y-86283336D01*
X69670017Y-86191310D01*
X69402054Y-86051377D01*
X69159932Y-85866177D01*
X68946221Y-85638352D01*
X68763492Y-85370543D01*
X68614314Y-85065393D01*
X68523727Y-84805957D01*
X68476136Y-84632566D01*
X68439155Y-84466718D01*
X68411585Y-84297671D01*
X68392224Y-84114683D01*
X68379871Y-83907011D01*
X68373326Y-83663913D01*
X68371483Y-83444128D01*
X68369699Y-82792406D01*
X68173798Y-82804891D01*
X67961243Y-82840343D01*
X67778543Y-82915759D01*
X67630262Y-83027927D01*
X67520960Y-83173636D01*
X67467624Y-83301936D01*
X67434010Y-83485765D01*
X67429183Y-83704606D01*
X67451363Y-83948200D01*
X67498772Y-84206290D01*
X67569629Y-84468615D01*
X67662155Y-84724918D01*
X67746778Y-84911176D01*
X67790231Y-85000789D01*
X67820580Y-85069142D01*
X67832423Y-85103903D01*
X67832043Y-85105789D01*
X67805518Y-85117785D01*
X67735210Y-85147738D01*
X67627855Y-85192830D01*
X67490190Y-85250243D01*
X67328949Y-85317158D01*
X67164395Y-85385176D01*
X66505328Y-85657103D01*
X66473559Y-85463681D01*
X66457619Y-85379846D01*
X66430847Y-85253817D01*
X66395673Y-85096392D01*
X66354528Y-84918367D01*
X66309842Y-84730537D01*
X66291683Y-84655742D01*
X66216631Y-84332162D01*
X66160362Y-84048868D01*
X66121738Y-83795285D01*
X66099623Y-83560838D01*
X66092878Y-83334951D01*
X66100368Y-83107049D01*
X66100368Y-83107049D01*
G37*
X66100368Y-83107049D02*
X66110611Y-82971728D01*
X66162122Y-82584558D01*
X66244283Y-82241679D01*
X66358222Y-81941420D01*
X66505072Y-81682112D01*
X66685962Y-81462084D01*
X66902022Y-81279666D01*
X67154384Y-81133189D01*
X67427441Y-81026229D01*
X67514541Y-80999079D01*
X67596107Y-80975436D01*
X67676529Y-80955023D01*
X67760199Y-80937561D01*
X67851508Y-80922770D01*
X67954847Y-80910373D01*
X68074609Y-80900089D01*
X68215183Y-80891642D01*
X68380962Y-80884752D01*
X68576336Y-80879139D01*
X68805698Y-80874527D01*
X69073437Y-80870635D01*
X69383947Y-80867185D01*
X69741618Y-80863898D01*
X70022064Y-80861549D01*
X71947548Y-80845742D01*
X72132843Y-80743323D01*
X72222111Y-80694825D01*
X72291448Y-80658734D01*
X72328354Y-80641517D01*
X72330854Y-80640904D01*
X72333715Y-80667220D01*
X72336351Y-80742189D01*
X72338689Y-80859839D01*
X72340653Y-81014200D01*
X72342170Y-81199300D01*
X72343165Y-81409168D01*
X72343565Y-81637833D01*
X72343570Y-81665097D01*
X72343570Y-82689291D01*
X72111419Y-82689291D01*
X72006507Y-82691037D01*
X71926271Y-82695698D01*
X71883251Y-82702404D01*
X71879269Y-82705368D01*
X71895950Y-82732477D01*
X71939731Y-82788269D01*
X72001216Y-82860785D01*
X72002638Y-82862411D01*
X72101160Y-82994743D01*
X72200089Y-83161867D01*
X72289706Y-83344900D01*
X72360293Y-83524957D01*
X72384414Y-83604237D01*
X72415051Y-83762009D01*
X72434602Y-83955603D01*
X72442787Y-84167296D01*
X72439327Y-84379368D01*
X72423945Y-84574096D01*
X72401811Y-84710366D01*
X72303676Y-85044546D01*
X72163819Y-85345397D01*
X71983974Y-85610961D01*
X71765876Y-85839279D01*
X71511261Y-86028394D01*
X71221864Y-86176347D01*
X71046258Y-86240175D01*
X70875576Y-86280177D01*
X70670678Y-86306687D01*
X70450464Y-86318953D01*
X70418420Y-86318550D01*
X70418420Y-84471388D01*
X70582053Y-84456070D01*
X70718042Y-84405065D01*
X70844208Y-84310796D01*
X70881203Y-84274589D01*
X70981221Y-84145880D01*
X71045294Y-83997115D01*
X71076309Y-83818887D01*
X71078593Y-83631202D01*
X71063514Y-83453186D01*
X71034021Y-83316888D01*
X71011869Y-83257694D01*
X70951496Y-83151005D01*
X70866589Y-83037963D01*
X70771295Y-82934825D01*
X70679760Y-82857849D01*
X70646181Y-82837409D01*
X70599157Y-82821519D01*
X70524333Y-82810222D01*
X70414560Y-82802991D01*
X70262692Y-82799300D01*
X70118155Y-82798538D01*
X69949644Y-82799054D01*
X69827799Y-82801140D01*
X69744666Y-82805598D01*
X69692292Y-82813235D01*
X69662726Y-82824854D01*
X69648013Y-82841260D01*
X69645670Y-82846334D01*
X69638453Y-82890430D01*
X69632550Y-82977400D01*
X69628493Y-83095500D01*
X69626815Y-83232986D01*
X69626813Y-83262839D01*
X69629746Y-83446614D01*
X69638469Y-83588593D01*
X69654177Y-83701409D01*
X69677118Y-83794598D01*
X69764535Y-84025754D01*
X69872010Y-84207027D01*
X70001262Y-84339986D01*
X70154010Y-84426199D01*
X70331972Y-84467238D01*
X70418420Y-84471388D01*
X70418420Y-86318550D01*
X70233834Y-86316224D01*
X70039689Y-86297748D01*
X69961252Y-86283336D01*
X69670017Y-86191310D01*
X69402054Y-86051377D01*
X69159932Y-85866177D01*
X68946221Y-85638352D01*
X68763492Y-85370543D01*
X68614314Y-85065393D01*
X68523727Y-84805957D01*
X68476136Y-84632566D01*
X68439155Y-84466718D01*
X68411585Y-84297671D01*
X68392224Y-84114683D01*
X68379871Y-83907011D01*
X68373326Y-83663913D01*
X68371483Y-83444128D01*
X68369699Y-82792406D01*
X68173798Y-82804891D01*
X67961243Y-82840343D01*
X67778543Y-82915759D01*
X67630262Y-83027927D01*
X67520960Y-83173636D01*
X67467624Y-83301936D01*
X67434010Y-83485765D01*
X67429183Y-83704606D01*
X67451363Y-83948200D01*
X67498772Y-84206290D01*
X67569629Y-84468615D01*
X67662155Y-84724918D01*
X67746778Y-84911176D01*
X67790231Y-85000789D01*
X67820580Y-85069142D01*
X67832423Y-85103903D01*
X67832043Y-85105789D01*
X67805518Y-85117785D01*
X67735210Y-85147738D01*
X67627855Y-85192830D01*
X67490190Y-85250243D01*
X67328949Y-85317158D01*
X67164395Y-85385176D01*
X66505328Y-85657103D01*
X66473559Y-85463681D01*
X66457619Y-85379846D01*
X66430847Y-85253817D01*
X66395673Y-85096392D01*
X66354528Y-84918367D01*
X66309842Y-84730537D01*
X66291683Y-84655742D01*
X66216631Y-84332162D01*
X66160362Y-84048868D01*
X66121738Y-83795285D01*
X66099623Y-83560838D01*
X66092878Y-83334951D01*
X66100368Y-83107049D01*
G36*
X63499618Y-75797033D02*
X63500571Y-75564746D01*
X63501052Y-75485796D01*
X63508193Y-74400151D01*
X67673247Y-74386495D01*
X68238041Y-74384692D01*
X68750864Y-74383092D01*
X69214371Y-74381594D01*
X69631214Y-74380094D01*
X70004045Y-74378491D01*
X70335519Y-74376680D01*
X70628286Y-74374560D01*
X70885002Y-74372028D01*
X71108318Y-74368980D01*
X71300887Y-74365315D01*
X71465363Y-74360929D01*
X71604398Y-74355720D01*
X71720644Y-74349584D01*
X71816756Y-74342420D01*
X71895386Y-74334125D01*
X71959187Y-74324595D01*
X72010811Y-74313728D01*
X72052912Y-74301421D01*
X72088143Y-74287572D01*
X72119156Y-74272077D01*
X72148604Y-74254835D01*
X72179141Y-74235742D01*
X72213418Y-74214695D01*
X72220720Y-74210381D01*
X72344221Y-74138004D01*
X72337068Y-75184024D01*
X72329914Y-76230044D01*
X72100142Y-76243699D01*
X71989873Y-76251135D01*
X71926122Y-76258883D01*
X71900827Y-76269397D01*
X71905922Y-76285128D01*
X71920498Y-76298323D01*
X71973591Y-76355803D01*
X72041837Y-76449487D01*
X72117080Y-76566175D01*
X72191167Y-76692669D01*
X72255943Y-76815769D01*
X72298561Y-76910287D01*
X72368595Y-77131726D01*
X72418204Y-77385793D01*
X72445494Y-77653734D01*
X72448569Y-77916789D01*
X72425532Y-78156205D01*
X72424873Y-78160147D01*
X72342669Y-78487747D01*
X72211700Y-78794413D01*
X72034780Y-79077186D01*
X71814726Y-79333108D01*
X71554351Y-79559222D01*
X71256472Y-79752570D01*
X70923904Y-79910194D01*
X70677548Y-79996016D01*
X70471445Y-80052611D01*
X70271867Y-80094582D01*
X70066690Y-80123211D01*
X69843791Y-80139782D01*
X69591045Y-80145577D01*
X69384662Y-80143011D01*
X69384662Y-78127675D01*
X69730732Y-78118138D01*
X70028467Y-78088054D01*
X70280510Y-78036497D01*
X70489502Y-77962542D01*
X70658086Y-77865262D01*
X70788906Y-77743734D01*
X70881385Y-77603454D01*
X70915909Y-77530460D01*
X70936607Y-77467153D01*
X70946077Y-77396573D01*
X70946915Y-77301758D01*
X70943228Y-77199613D01*
X70925510Y-76998739D01*
X70890813Y-76839866D01*
X70873433Y-76789936D01*
X70822102Y-76675925D01*
X70757643Y-76555677D01*
X70725376Y-76503162D01*
X70635805Y-76366603D01*
X67796706Y-76366603D01*
X67706665Y-76516818D01*
X67604923Y-76726308D01*
X67544751Y-76940342D01*
X67525796Y-77151091D01*
X67547701Y-77350727D01*
X67610113Y-77531423D01*
X67712676Y-77685351D01*
X67761906Y-77735019D01*
X67923211Y-77854738D01*
X68118471Y-77951636D01*
X68351031Y-78026523D01*
X68624239Y-78080207D01*
X68941441Y-78113500D01*
X69305984Y-78127211D01*
X69384662Y-78127675D01*
X69384662Y-80143011D01*
X69298756Y-80141942D01*
X68849158Y-80118918D01*
X68443628Y-80072622D01*
X68076257Y-80001836D01*
X67741137Y-79905339D01*
X67432363Y-79781913D01*
X67340822Y-79737869D01*
X67042296Y-79560460D01*
X66777007Y-79346070D01*
X66549237Y-79099741D01*
X66363268Y-78826513D01*
X66223382Y-78531426D01*
X66165678Y-78354541D01*
X66131422Y-78180822D01*
X66111041Y-77971795D01*
X66104525Y-77744986D01*
X66111866Y-77517916D01*
X66133055Y-77308108D01*
X66166295Y-77139648D01*
X66231482Y-76939143D01*
X66315307Y-76744805D01*
X66409280Y-76574776D01*
X66473058Y-76484279D01*
X66520484Y-76421856D01*
X66549361Y-76378147D01*
X66553462Y-76368204D01*
X66527041Y-76365121D01*
X66451339Y-76362247D01*
X66331698Y-76359645D01*
X66173462Y-76357379D01*
X65981973Y-76355512D01*
X65762574Y-76354109D01*
X65520607Y-76353233D01*
X65274147Y-76352947D01*
X64958476Y-76353106D01*
X64692337Y-76353892D01*
X64470641Y-76355762D01*
X64288296Y-76359175D01*
X64140212Y-76364591D01*
X64021299Y-76372469D01*
X63926465Y-76383267D01*
X63850620Y-76397445D01*
X63788674Y-76415461D01*
X63735536Y-76437775D01*
X63686115Y-76464846D01*
X63635321Y-76497133D01*
X63629031Y-76501287D01*
X63563245Y-76542929D01*
X63518008Y-76568071D01*
X63508466Y-76571441D01*
X63505455Y-76545097D01*
X63503006Y-76469931D01*
X63501158Y-76351743D01*
X63499951Y-76196331D01*
X63499424Y-76009494D01*
X63499618Y-75797033D01*
X63499618Y-75797033D01*
G37*
X63499618Y-75797033D02*
X63500571Y-75564746D01*
X63501052Y-75485796D01*
X63508193Y-74400151D01*
X67673247Y-74386495D01*
X68238041Y-74384692D01*
X68750864Y-74383092D01*
X69214371Y-74381594D01*
X69631214Y-74380094D01*
X70004045Y-74378491D01*
X70335519Y-74376680D01*
X70628286Y-74374560D01*
X70885002Y-74372028D01*
X71108318Y-74368980D01*
X71300887Y-74365315D01*
X71465363Y-74360929D01*
X71604398Y-74355720D01*
X71720644Y-74349584D01*
X71816756Y-74342420D01*
X71895386Y-74334125D01*
X71959187Y-74324595D01*
X72010811Y-74313728D01*
X72052912Y-74301421D01*
X72088143Y-74287572D01*
X72119156Y-74272077D01*
X72148604Y-74254835D01*
X72179141Y-74235742D01*
X72213418Y-74214695D01*
X72220720Y-74210381D01*
X72344221Y-74138004D01*
X72337068Y-75184024D01*
X72329914Y-76230044D01*
X72100142Y-76243699D01*
X71989873Y-76251135D01*
X71926122Y-76258883D01*
X71900827Y-76269397D01*
X71905922Y-76285128D01*
X71920498Y-76298323D01*
X71973591Y-76355803D01*
X72041837Y-76449487D01*
X72117080Y-76566175D01*
X72191167Y-76692669D01*
X72255943Y-76815769D01*
X72298561Y-76910287D01*
X72368595Y-77131726D01*
X72418204Y-77385793D01*
X72445494Y-77653734D01*
X72448569Y-77916789D01*
X72425532Y-78156205D01*
X72424873Y-78160147D01*
X72342669Y-78487747D01*
X72211700Y-78794413D01*
X72034780Y-79077186D01*
X71814726Y-79333108D01*
X71554351Y-79559222D01*
X71256472Y-79752570D01*
X70923904Y-79910194D01*
X70677548Y-79996016D01*
X70471445Y-80052611D01*
X70271867Y-80094582D01*
X70066690Y-80123211D01*
X69843791Y-80139782D01*
X69591045Y-80145577D01*
X69384662Y-80143011D01*
X69384662Y-78127675D01*
X69730732Y-78118138D01*
X70028467Y-78088054D01*
X70280510Y-78036497D01*
X70489502Y-77962542D01*
X70658086Y-77865262D01*
X70788906Y-77743734D01*
X70881385Y-77603454D01*
X70915909Y-77530460D01*
X70936607Y-77467153D01*
X70946077Y-77396573D01*
X70946915Y-77301758D01*
X70943228Y-77199613D01*
X70925510Y-76998739D01*
X70890813Y-76839866D01*
X70873433Y-76789936D01*
X70822102Y-76675925D01*
X70757643Y-76555677D01*
X70725376Y-76503162D01*
X70635805Y-76366603D01*
X67796706Y-76366603D01*
X67706665Y-76516818D01*
X67604923Y-76726308D01*
X67544751Y-76940342D01*
X67525796Y-77151091D01*
X67547701Y-77350727D01*
X67610113Y-77531423D01*
X67712676Y-77685351D01*
X67761906Y-77735019D01*
X67923211Y-77854738D01*
X68118471Y-77951636D01*
X68351031Y-78026523D01*
X68624239Y-78080207D01*
X68941441Y-78113500D01*
X69305984Y-78127211D01*
X69384662Y-78127675D01*
X69384662Y-80143011D01*
X69298756Y-80141942D01*
X68849158Y-80118918D01*
X68443628Y-80072622D01*
X68076257Y-80001836D01*
X67741137Y-79905339D01*
X67432363Y-79781913D01*
X67340822Y-79737869D01*
X67042296Y-79560460D01*
X66777007Y-79346070D01*
X66549237Y-79099741D01*
X66363268Y-78826513D01*
X66223382Y-78531426D01*
X66165678Y-78354541D01*
X66131422Y-78180822D01*
X66111041Y-77971795D01*
X66104525Y-77744986D01*
X66111866Y-77517916D01*
X66133055Y-77308108D01*
X66166295Y-77139648D01*
X66231482Y-76939143D01*
X66315307Y-76744805D01*
X66409280Y-76574776D01*
X66473058Y-76484279D01*
X66520484Y-76421856D01*
X66549361Y-76378147D01*
X66553462Y-76368204D01*
X66527041Y-76365121D01*
X66451339Y-76362247D01*
X66331698Y-76359645D01*
X66173462Y-76357379D01*
X65981973Y-76355512D01*
X65762574Y-76354109D01*
X65520607Y-76353233D01*
X65274147Y-76352947D01*
X64958476Y-76353106D01*
X64692337Y-76353892D01*
X64470641Y-76355762D01*
X64288296Y-76359175D01*
X64140212Y-76364591D01*
X64021299Y-76372469D01*
X63926465Y-76383267D01*
X63850620Y-76397445D01*
X63788674Y-76415461D01*
X63735536Y-76437775D01*
X63686115Y-76464846D01*
X63635321Y-76497133D01*
X63629031Y-76501287D01*
X63563245Y-76542929D01*
X63518008Y-76568071D01*
X63508466Y-76571441D01*
X63505455Y-76545097D01*
X63503006Y-76469931D01*
X63501158Y-76351743D01*
X63499951Y-76196331D01*
X63499424Y-76009494D01*
X63499618Y-75797033D01*
G36*
X61668844Y-94830844D02*
X61739957Y-94625742D01*
X61851889Y-94434785D01*
X62004625Y-94264243D01*
X62198151Y-94120387D01*
X62320129Y-94055768D01*
X62490743Y-93999842D01*
X62687711Y-93972735D01*
X62890205Y-93975738D01*
X63073699Y-94009067D01*
X63297924Y-94100162D01*
X63492422Y-94232258D01*
X63653367Y-94398642D01*
X63776933Y-94592598D01*
X63859292Y-94807414D01*
X63896617Y-95036375D01*
X63885082Y-95272767D01*
X63860430Y-95389291D01*
X63772091Y-95616385D01*
X63637290Y-95818081D01*
X63460183Y-95989515D01*
X63244927Y-96125820D01*
X63221419Y-96137352D01*
X63133205Y-96177217D01*
X63058910Y-96202249D01*
X62980535Y-96215839D01*
X62880080Y-96221382D01*
X62770774Y-96222302D01*
X62639448Y-96220780D01*
X62544509Y-96213914D01*
X62467753Y-96198250D01*
X62390974Y-96170333D01*
X62315223Y-96135873D01*
X62100190Y-96007338D01*
X61926080Y-95849052D01*
X61792876Y-95667287D01*
X61700566Y-95468313D01*
X61649134Y-95258400D01*
X61638565Y-95043821D01*
X61668844Y-94830844D01*
X61668844Y-94830844D01*
G37*
X61668844Y-94830844D02*
X61739957Y-94625742D01*
X61851889Y-94434785D01*
X62004625Y-94264243D01*
X62198151Y-94120387D01*
X62320129Y-94055768D01*
X62490743Y-93999842D01*
X62687711Y-93972735D01*
X62890205Y-93975738D01*
X63073699Y-94009067D01*
X63297924Y-94100162D01*
X63492422Y-94232258D01*
X63653367Y-94398642D01*
X63776933Y-94592598D01*
X63859292Y-94807414D01*
X63896617Y-95036375D01*
X63885082Y-95272767D01*
X63860430Y-95389291D01*
X63772091Y-95616385D01*
X63637290Y-95818081D01*
X63460183Y-95989515D01*
X63244927Y-96125820D01*
X63221419Y-96137352D01*
X63133205Y-96177217D01*
X63058910Y-96202249D01*
X62980535Y-96215839D01*
X62880080Y-96221382D01*
X62770774Y-96222302D01*
X62639448Y-96220780D01*
X62544509Y-96213914D01*
X62467753Y-96198250D01*
X62390974Y-96170333D01*
X62315223Y-96135873D01*
X62100190Y-96007338D01*
X61926080Y-95849052D01*
X61792876Y-95667287D01*
X61700566Y-95468313D01*
X61649134Y-95258400D01*
X61638565Y-95043821D01*
X61668844Y-94830844D01*
D12*
X82230000Y-97536000D02*
G75*
G03X82230000Y-97536000I-950000J0D01*
G01*
X82230000Y-92456000D02*
G75*
G03X82230000Y-92456000I-950000J0D01*
G01*
X41850000Y-72330000D02*
X43180000Y-72330000D01*
X41850000Y-73660000D02*
X41850000Y-72330000D01*
X41850000Y-74930000D02*
X44510000Y-74930000D01*
X44510000Y-74930000D02*
X44510000Y-97850000D01*
X41850000Y-74930000D02*
X41850000Y-97850000D01*
X41850000Y-97850000D02*
X44510000Y-97850000D01*
X44390000Y-72330000D02*
X45720000Y-72330000D01*
X44390000Y-73660000D02*
X44390000Y-72330000D01*
X44390000Y-74930000D02*
X47050000Y-74930000D01*
X47050000Y-74930000D02*
X47050000Y-97850000D01*
X44390000Y-74930000D02*
X44390000Y-97850000D01*
X44390000Y-97850000D02*
X47050000Y-97850000D01*
X46930000Y-72330000D02*
X48260000Y-72330000D01*
X46930000Y-73660000D02*
X46930000Y-72330000D01*
X46930000Y-74930000D02*
X49590000Y-74930000D01*
X49590000Y-74930000D02*
X49590000Y-97850000D01*
X46930000Y-74930000D02*
X46930000Y-97850000D01*
X46930000Y-97850000D02*
X49590000Y-97850000D01*
X49470000Y-72330000D02*
X50800000Y-72330000D01*
X49470000Y-73660000D02*
X49470000Y-72330000D01*
X49470000Y-74930000D02*
X52130000Y-74930000D01*
X52130000Y-74930000D02*
X52130000Y-97850000D01*
X49470000Y-74930000D02*
X49470000Y-97850000D01*
X49470000Y-97850000D02*
X52130000Y-97850000D01*
X52010000Y-72330000D02*
X53340000Y-72330000D01*
X52010000Y-73660000D02*
X52010000Y-72330000D01*
X52010000Y-74930000D02*
X54670000Y-74930000D01*
X54670000Y-74930000D02*
X54670000Y-97850000D01*
X52010000Y-74930000D02*
X52010000Y-97850000D01*
X52010000Y-97850000D02*
X54670000Y-97850000D01*
X54550000Y-72330000D02*
X55880000Y-72330000D01*
X54550000Y-73660000D02*
X54550000Y-72330000D01*
X54550000Y-74930000D02*
X57210000Y-74930000D01*
X57210000Y-74930000D02*
X57210000Y-97850000D01*
X54550000Y-74930000D02*
X54550000Y-97850000D01*
X54550000Y-97850000D02*
X57210000Y-97850000D01*
D11*
X80716380Y-77382666D02*
X80240190Y-77716000D01*
X80716380Y-77954095D02*
X79716380Y-77954095D01*
X79716380Y-77573142D01*
X79764000Y-77477904D01*
X79811619Y-77430285D01*
X79906857Y-77382666D01*
X80049714Y-77382666D01*
X80144952Y-77430285D01*
X80192571Y-77477904D01*
X80240190Y-77573142D01*
X80240190Y-77954095D01*
X79716380Y-76525523D02*
X79716380Y-76716000D01*
X79764000Y-76811238D01*
X79811619Y-76858857D01*
X79954476Y-76954095D01*
X80144952Y-77001714D01*
X80525904Y-77001714D01*
X80621142Y-76954095D01*
X80668761Y-76906476D01*
X80716380Y-76811238D01*
X80716380Y-76620761D01*
X80668761Y-76525523D01*
X80621142Y-76477904D01*
X80525904Y-76430285D01*
X80287809Y-76430285D01*
X80192571Y-76477904D01*
X80144952Y-76525523D01*
X80097333Y-76620761D01*
X80097333Y-76811238D01*
X80144952Y-76906476D01*
X80192571Y-76954095D01*
X80287809Y-77001714D01*
X78494095Y-111720380D02*
X79065523Y-111720380D01*
X78779809Y-112720380D02*
X78779809Y-111720380D01*
X79398857Y-112720380D02*
X79398857Y-111720380D01*
X79779809Y-111720380D01*
X79875047Y-111768000D01*
X79922666Y-111815619D01*
X79970285Y-111910857D01*
X79970285Y-112053714D01*
X79922666Y-112148952D01*
X79875047Y-112196571D01*
X79779809Y-112244190D01*
X79398857Y-112244190D01*
X80351238Y-111815619D02*
X80398857Y-111768000D01*
X80494095Y-111720380D01*
X80732190Y-111720380D01*
X80827428Y-111768000D01*
X80875047Y-111815619D01*
X80922666Y-111910857D01*
X80922666Y-112006095D01*
X80875047Y-112148952D01*
X80303619Y-112720380D01*
X80922666Y-112720380D01*
X79248095Y-115705000D02*
X79152857Y-115657380D01*
X79010000Y-115657380D01*
X78867142Y-115705000D01*
X78771904Y-115800238D01*
X78724285Y-115895476D01*
X78676666Y-116085952D01*
X78676666Y-116228809D01*
X78724285Y-116419285D01*
X78771904Y-116514523D01*
X78867142Y-116609761D01*
X79010000Y-116657380D01*
X79105238Y-116657380D01*
X79248095Y-116609761D01*
X79295714Y-116562142D01*
X79295714Y-116228809D01*
X79105238Y-116228809D01*
X79724285Y-116657380D02*
X79724285Y-115657380D01*
X80295714Y-116657380D01*
X80295714Y-115657380D01*
X80771904Y-116657380D02*
X80771904Y-115657380D01*
X81010000Y-115657380D01*
X81152857Y-115705000D01*
X81248095Y-115800238D01*
X81295714Y-115895476D01*
X81343333Y-116085952D01*
X81343333Y-116228809D01*
X81295714Y-116419285D01*
X81248095Y-116514523D01*
X81152857Y-116609761D01*
X81010000Y-116657380D01*
X80771904Y-116657380D01*
X100829619Y-109823238D02*
X100782000Y-109918476D01*
X100686761Y-110013714D01*
X100543904Y-110156571D01*
X100496285Y-110251809D01*
X100496285Y-110347047D01*
X100734380Y-110299428D02*
X100686761Y-110394666D01*
X100591523Y-110489904D01*
X100401047Y-110537523D01*
X100067714Y-110537523D01*
X99877238Y-110489904D01*
X99782000Y-110394666D01*
X99734380Y-110299428D01*
X99734380Y-110108952D01*
X99782000Y-110013714D01*
X99877238Y-109918476D01*
X100067714Y-109870857D01*
X100401047Y-109870857D01*
X100591523Y-109918476D01*
X100686761Y-110013714D01*
X100734380Y-110108952D01*
X100734380Y-110299428D01*
X100734380Y-108918476D02*
X100734380Y-109489904D01*
X100734380Y-109204190D02*
X99734380Y-109204190D01*
X99877238Y-109299428D01*
X99972476Y-109394666D01*
X100020095Y-109489904D01*
X96988380Y-69341904D02*
X97797904Y-69341904D01*
X97893142Y-69294285D01*
X97940761Y-69246666D01*
X97988380Y-69151428D01*
X97988380Y-68960952D01*
X97940761Y-68865714D01*
X97893142Y-68818095D01*
X97797904Y-68770476D01*
X96988380Y-68770476D01*
X96988380Y-68389523D02*
X96988380Y-67770476D01*
X97369333Y-68103809D01*
X97369333Y-67960952D01*
X97416952Y-67865714D01*
X97464571Y-67818095D01*
X97559809Y-67770476D01*
X97797904Y-67770476D01*
X97893142Y-67818095D01*
X97940761Y-67865714D01*
X97988380Y-67960952D01*
X97988380Y-68246666D01*
X97940761Y-68341904D01*
X97893142Y-68389523D01*
X56386433Y-37085542D02*
X56338814Y-37133161D01*
X56195957Y-37180780D01*
X56100719Y-37180780D01*
X55957861Y-37133161D01*
X55862623Y-37037923D01*
X55815004Y-36942685D01*
X55767385Y-36752209D01*
X55767385Y-36609352D01*
X55815004Y-36418876D01*
X55862623Y-36323638D01*
X55957861Y-36228400D01*
X56100719Y-36180780D01*
X56195957Y-36180780D01*
X56338814Y-36228400D01*
X56386433Y-36276019D01*
X57338814Y-37180780D02*
X56767385Y-37180780D01*
X57053100Y-37180780D02*
X57053100Y-36180780D01*
X56957861Y-36323638D01*
X56862623Y-36418876D01*
X56767385Y-36466495D01*
X57389733Y-114533342D02*
X57342114Y-114580961D01*
X57199257Y-114628580D01*
X57104019Y-114628580D01*
X56961161Y-114580961D01*
X56865923Y-114485723D01*
X56818304Y-114390485D01*
X56770685Y-114200009D01*
X56770685Y-114057152D01*
X56818304Y-113866676D01*
X56865923Y-113771438D01*
X56961161Y-113676200D01*
X57104019Y-113628580D01*
X57199257Y-113628580D01*
X57342114Y-113676200D01*
X57389733Y-113723819D01*
X57770685Y-113723819D02*
X57818304Y-113676200D01*
X57913542Y-113628580D01*
X58151638Y-113628580D01*
X58246876Y-113676200D01*
X58294495Y-113723819D01*
X58342114Y-113819057D01*
X58342114Y-113914295D01*
X58294495Y-114057152D01*
X57723066Y-114628580D01*
X58342114Y-114628580D01*
X58850233Y-37123642D02*
X58802614Y-37171261D01*
X58659757Y-37218880D01*
X58564519Y-37218880D01*
X58421661Y-37171261D01*
X58326423Y-37076023D01*
X58278804Y-36980785D01*
X58231185Y-36790309D01*
X58231185Y-36647452D01*
X58278804Y-36456976D01*
X58326423Y-36361738D01*
X58421661Y-36266500D01*
X58564519Y-36218880D01*
X58659757Y-36218880D01*
X58802614Y-36266500D01*
X58850233Y-36314119D01*
X59183566Y-36218880D02*
X59802614Y-36218880D01*
X59469280Y-36599833D01*
X59612138Y-36599833D01*
X59707376Y-36647452D01*
X59754995Y-36695071D01*
X59802614Y-36790309D01*
X59802614Y-37028404D01*
X59754995Y-37123642D01*
X59707376Y-37171261D01*
X59612138Y-37218880D01*
X59326423Y-37218880D01*
X59231185Y-37171261D01*
X59183566Y-37123642D01*
X82733142Y-116264666D02*
X82780761Y-116312285D01*
X82828380Y-116455142D01*
X82828380Y-116550380D01*
X82780761Y-116693238D01*
X82685523Y-116788476D01*
X82590285Y-116836095D01*
X82399809Y-116883714D01*
X82256952Y-116883714D01*
X82066476Y-116836095D01*
X81971238Y-116788476D01*
X81876000Y-116693238D01*
X81828380Y-116550380D01*
X81828380Y-116455142D01*
X81876000Y-116312285D01*
X81923619Y-116264666D01*
X82161714Y-115407523D02*
X82828380Y-115407523D01*
X81780761Y-115645619D02*
X82495047Y-115883714D01*
X82495047Y-115264666D01*
X49414133Y-114250742D02*
X49366514Y-114298361D01*
X49223657Y-114345980D01*
X49128419Y-114345980D01*
X48985561Y-114298361D01*
X48890323Y-114203123D01*
X48842704Y-114107885D01*
X48795085Y-113917409D01*
X48795085Y-113774552D01*
X48842704Y-113584076D01*
X48890323Y-113488838D01*
X48985561Y-113393600D01*
X49128419Y-113345980D01*
X49223657Y-113345980D01*
X49366514Y-113393600D01*
X49414133Y-113441219D01*
X50318895Y-113345980D02*
X49842704Y-113345980D01*
X49795085Y-113822171D01*
X49842704Y-113774552D01*
X49937942Y-113726933D01*
X50176038Y-113726933D01*
X50271276Y-113774552D01*
X50318895Y-113822171D01*
X50366514Y-113917409D01*
X50366514Y-114155504D01*
X50318895Y-114250742D01*
X50271276Y-114298361D01*
X50176038Y-114345980D01*
X49937942Y-114345980D01*
X49842704Y-114298361D01*
X49795085Y-114250742D01*
X93443433Y-61155942D02*
X93395814Y-61203561D01*
X93252957Y-61251180D01*
X93157719Y-61251180D01*
X93014861Y-61203561D01*
X92919623Y-61108323D01*
X92872004Y-61013085D01*
X92824385Y-60822609D01*
X92824385Y-60679752D01*
X92872004Y-60489276D01*
X92919623Y-60394038D01*
X93014861Y-60298800D01*
X93157719Y-60251180D01*
X93252957Y-60251180D01*
X93395814Y-60298800D01*
X93443433Y-60346419D01*
X94300576Y-60251180D02*
X94110100Y-60251180D01*
X94014861Y-60298800D01*
X93967242Y-60346419D01*
X93872004Y-60489276D01*
X93824385Y-60679752D01*
X93824385Y-61060704D01*
X93872004Y-61155942D01*
X93919623Y-61203561D01*
X94014861Y-61251180D01*
X94205338Y-61251180D01*
X94300576Y-61203561D01*
X94348195Y-61155942D01*
X94395814Y-61060704D01*
X94395814Y-60822609D01*
X94348195Y-60727371D01*
X94300576Y-60679752D01*
X94205338Y-60632133D01*
X94014861Y-60632133D01*
X93919623Y-60679752D01*
X93872004Y-60727371D01*
X93824385Y-60822609D01*
X50797533Y-64954742D02*
X50749914Y-65002361D01*
X50607057Y-65049980D01*
X50511819Y-65049980D01*
X50368961Y-65002361D01*
X50273723Y-64907123D01*
X50226104Y-64811885D01*
X50178485Y-64621409D01*
X50178485Y-64478552D01*
X50226104Y-64288076D01*
X50273723Y-64192838D01*
X50368961Y-64097600D01*
X50511819Y-64049980D01*
X50607057Y-64049980D01*
X50749914Y-64097600D01*
X50797533Y-64145219D01*
X51130866Y-64049980D02*
X51797533Y-64049980D01*
X51368961Y-65049980D01*
X58989142Y-61598166D02*
X59036761Y-61645785D01*
X59084380Y-61788642D01*
X59084380Y-61883880D01*
X59036761Y-62026738D01*
X58941523Y-62121976D01*
X58846285Y-62169595D01*
X58655809Y-62217214D01*
X58512952Y-62217214D01*
X58322476Y-62169595D01*
X58227238Y-62121976D01*
X58132000Y-62026738D01*
X58084380Y-61883880D01*
X58084380Y-61788642D01*
X58132000Y-61645785D01*
X58179619Y-61598166D01*
X58512952Y-61026738D02*
X58465333Y-61121976D01*
X58417714Y-61169595D01*
X58322476Y-61217214D01*
X58274857Y-61217214D01*
X58179619Y-61169595D01*
X58132000Y-61121976D01*
X58084380Y-61026738D01*
X58084380Y-60836261D01*
X58132000Y-60741023D01*
X58179619Y-60693404D01*
X58274857Y-60645785D01*
X58322476Y-60645785D01*
X58417714Y-60693404D01*
X58465333Y-60741023D01*
X58512952Y-60836261D01*
X58512952Y-61026738D01*
X58560571Y-61121976D01*
X58608190Y-61169595D01*
X58703428Y-61217214D01*
X58893904Y-61217214D01*
X58989142Y-61169595D01*
X59036761Y-61121976D01*
X59084380Y-61026738D01*
X59084380Y-60836261D01*
X59036761Y-60741023D01*
X58989142Y-60693404D01*
X58893904Y-60645785D01*
X58703428Y-60645785D01*
X58608190Y-60693404D01*
X58560571Y-60741023D01*
X58512952Y-60836261D01*
X57198333Y-64907142D02*
X57150714Y-64954761D01*
X57007857Y-65002380D01*
X56912619Y-65002380D01*
X56769761Y-64954761D01*
X56674523Y-64859523D01*
X56626904Y-64764285D01*
X56579285Y-64573809D01*
X56579285Y-64430952D01*
X56626904Y-64240476D01*
X56674523Y-64145238D01*
X56769761Y-64050000D01*
X56912619Y-64002380D01*
X57007857Y-64002380D01*
X57150714Y-64050000D01*
X57198333Y-64097619D01*
X57674523Y-65002380D02*
X57865000Y-65002380D01*
X57960238Y-64954761D01*
X58007857Y-64907142D01*
X58103095Y-64764285D01*
X58150714Y-64573809D01*
X58150714Y-64192857D01*
X58103095Y-64097619D01*
X58055476Y-64050000D01*
X57960238Y-64002380D01*
X57769761Y-64002380D01*
X57674523Y-64050000D01*
X57626904Y-64097619D01*
X57579285Y-64192857D01*
X57579285Y-64430952D01*
X57626904Y-64526190D01*
X57674523Y-64573809D01*
X57769761Y-64621428D01*
X57960238Y-64621428D01*
X58055476Y-64573809D01*
X58103095Y-64526190D01*
X58150714Y-64430952D01*
X59739304Y-114676180D02*
X59739304Y-113676180D01*
X59977400Y-113676180D01*
X60120257Y-113723800D01*
X60215495Y-113819038D01*
X60263114Y-113914276D01*
X60310733Y-114104752D01*
X60310733Y-114247609D01*
X60263114Y-114438085D01*
X60215495Y-114533323D01*
X60120257Y-114628561D01*
X59977400Y-114676180D01*
X59739304Y-114676180D01*
X61263114Y-114676180D02*
X60691685Y-114676180D01*
X60977400Y-114676180D02*
X60977400Y-113676180D01*
X60882161Y-113819038D01*
X60786923Y-113914276D01*
X60691685Y-113961895D01*
X62482504Y-115062580D02*
X62482504Y-114062580D01*
X62720600Y-114062580D01*
X62863457Y-114110200D01*
X62958695Y-114205438D01*
X63006314Y-114300676D01*
X63053933Y-114491152D01*
X63053933Y-114634009D01*
X63006314Y-114824485D01*
X62958695Y-114919723D01*
X62863457Y-115014961D01*
X62720600Y-115062580D01*
X62482504Y-115062580D01*
X63434885Y-114157819D02*
X63482504Y-114110200D01*
X63577742Y-114062580D01*
X63815838Y-114062580D01*
X63911076Y-114110200D01*
X63958695Y-114157819D01*
X64006314Y-114253057D01*
X64006314Y-114348295D01*
X63958695Y-114491152D01*
X63387266Y-115062580D01*
X64006314Y-115062580D01*
X41629104Y-116454180D02*
X41629104Y-115454180D01*
X41867200Y-115454180D01*
X42010057Y-115501800D01*
X42105295Y-115597038D01*
X42152914Y-115692276D01*
X42200533Y-115882752D01*
X42200533Y-116025609D01*
X42152914Y-116216085D01*
X42105295Y-116311323D01*
X42010057Y-116406561D01*
X41867200Y-116454180D01*
X41629104Y-116454180D01*
X42533866Y-115454180D02*
X43152914Y-115454180D01*
X42819580Y-115835133D01*
X42962438Y-115835133D01*
X43057676Y-115882752D01*
X43105295Y-115930371D01*
X43152914Y-116025609D01*
X43152914Y-116263704D01*
X43105295Y-116358942D01*
X43057676Y-116406561D01*
X42962438Y-116454180D01*
X42676723Y-116454180D01*
X42581485Y-116406561D01*
X42533866Y-116358942D01*
X94257904Y-121356380D02*
X94257904Y-120356380D01*
X94496000Y-120356380D01*
X94638857Y-120404000D01*
X94734095Y-120499238D01*
X94781714Y-120594476D01*
X94829333Y-120784952D01*
X94829333Y-120927809D01*
X94781714Y-121118285D01*
X94734095Y-121213523D01*
X94638857Y-121308761D01*
X94496000Y-121356380D01*
X94257904Y-121356380D01*
X95686476Y-120689714D02*
X95686476Y-121356380D01*
X95448380Y-120308761D02*
X95210285Y-121023047D01*
X95829333Y-121023047D01*
X92660380Y-90690595D02*
X91660380Y-90690595D01*
X91660380Y-90452500D01*
X91708000Y-90309642D01*
X91803238Y-90214404D01*
X91898476Y-90166785D01*
X92088952Y-90119166D01*
X92231809Y-90119166D01*
X92422285Y-90166785D01*
X92517523Y-90214404D01*
X92612761Y-90309642D01*
X92660380Y-90452500D01*
X92660380Y-90690595D01*
X91660380Y-89214404D02*
X91660380Y-89690595D01*
X92136571Y-89738214D01*
X92088952Y-89690595D01*
X92041333Y-89595357D01*
X92041333Y-89357261D01*
X92088952Y-89262023D01*
X92136571Y-89214404D01*
X92231809Y-89166785D01*
X92469904Y-89166785D01*
X92565142Y-89214404D01*
X92612761Y-89262023D01*
X92660380Y-89357261D01*
X92660380Y-89595357D01*
X92612761Y-89690595D01*
X92565142Y-89738214D01*
X65173266Y-118883180D02*
X65173266Y-119597466D01*
X65125647Y-119740323D01*
X65030409Y-119835561D01*
X64887552Y-119883180D01*
X64792314Y-119883180D01*
X66173266Y-119883180D02*
X65601838Y-119883180D01*
X65887552Y-119883180D02*
X65887552Y-118883180D01*
X65792314Y-119026038D01*
X65697076Y-119121276D01*
X65601838Y-119168895D01*
X68331009Y-119933980D02*
X68331009Y-118933980D01*
X68711961Y-118933980D01*
X68807200Y-118981600D01*
X68854819Y-119029219D01*
X68902438Y-119124457D01*
X68902438Y-119267314D01*
X68854819Y-119362552D01*
X68807200Y-119410171D01*
X68711961Y-119457790D01*
X68331009Y-119457790D01*
X69473866Y-119933980D02*
X69378628Y-119886361D01*
X69331009Y-119838742D01*
X69283390Y-119743504D01*
X69283390Y-119457790D01*
X69331009Y-119362552D01*
X69378628Y-119314933D01*
X69473866Y-119267314D01*
X69616723Y-119267314D01*
X69711961Y-119314933D01*
X69759580Y-119362552D01*
X69807200Y-119457790D01*
X69807200Y-119743504D01*
X69759580Y-119838742D01*
X69711961Y-119886361D01*
X69616723Y-119933980D01*
X69473866Y-119933980D01*
X70140533Y-119267314D02*
X70331009Y-119933980D01*
X70521485Y-119457790D01*
X70711961Y-119933980D01*
X70902438Y-119267314D01*
X71664342Y-119886361D02*
X71569104Y-119933980D01*
X71378628Y-119933980D01*
X71283390Y-119886361D01*
X71235771Y-119791123D01*
X71235771Y-119410171D01*
X71283390Y-119314933D01*
X71378628Y-119267314D01*
X71569104Y-119267314D01*
X71664342Y-119314933D01*
X71711961Y-119410171D01*
X71711961Y-119505409D01*
X71235771Y-119600647D01*
X72140533Y-119933980D02*
X72140533Y-119267314D01*
X72140533Y-119457790D02*
X72188152Y-119362552D01*
X72235771Y-119314933D01*
X72331009Y-119267314D01*
X72426247Y-119267314D01*
X81494380Y-110582033D02*
X82208666Y-110582033D01*
X82351523Y-110629652D01*
X82446761Y-110724890D01*
X82494380Y-110867747D01*
X82494380Y-110962985D01*
X81589619Y-110153461D02*
X81542000Y-110105842D01*
X81494380Y-110010604D01*
X81494380Y-109772509D01*
X81542000Y-109677271D01*
X81589619Y-109629652D01*
X81684857Y-109582033D01*
X81780095Y-109582033D01*
X81922952Y-109629652D01*
X82494380Y-110201080D01*
X82494380Y-109582033D01*
X83666319Y-77706480D02*
X83190128Y-77706480D01*
X83190128Y-76706480D01*
X83999652Y-77182671D02*
X84332985Y-77182671D01*
X84475842Y-77706480D02*
X83999652Y-77706480D01*
X83999652Y-76706480D01*
X84475842Y-76706480D01*
X84904414Y-77706480D02*
X84904414Y-76706480D01*
X85142509Y-76706480D01*
X85285366Y-76754100D01*
X85380604Y-76849338D01*
X85428223Y-76944576D01*
X85475842Y-77135052D01*
X85475842Y-77277909D01*
X85428223Y-77468385D01*
X85380604Y-77563623D01*
X85285366Y-77658861D01*
X85142509Y-77706480D01*
X84904414Y-77706480D01*
X85904414Y-77325528D02*
X86666319Y-77325528D01*
X87285366Y-77706480D02*
X87190128Y-77658861D01*
X87142509Y-77611242D01*
X87094890Y-77516004D01*
X87094890Y-77230290D01*
X87142509Y-77135052D01*
X87190128Y-77087433D01*
X87285366Y-77039814D01*
X87428223Y-77039814D01*
X87523461Y-77087433D01*
X87571080Y-77135052D01*
X87618700Y-77230290D01*
X87618700Y-77516004D01*
X87571080Y-77611242D01*
X87523461Y-77658861D01*
X87428223Y-77706480D01*
X87285366Y-77706480D01*
X88475842Y-77039814D02*
X88475842Y-77706480D01*
X88047271Y-77039814D02*
X88047271Y-77563623D01*
X88094890Y-77658861D01*
X88190128Y-77706480D01*
X88332985Y-77706480D01*
X88428223Y-77658861D01*
X88475842Y-77611242D01*
X88809176Y-77039814D02*
X89190128Y-77039814D01*
X88952033Y-76706480D02*
X88952033Y-77563623D01*
X88999652Y-77658861D01*
X89094890Y-77706480D01*
X89190128Y-77706480D01*
X83812580Y-44796033D02*
X84526866Y-44796033D01*
X84669723Y-44843652D01*
X84764961Y-44938890D01*
X84812580Y-45081747D01*
X84812580Y-45176985D01*
X83812580Y-44415080D02*
X83812580Y-43796033D01*
X84193533Y-44129366D01*
X84193533Y-43986509D01*
X84241152Y-43891271D01*
X84288771Y-43843652D01*
X84384009Y-43796033D01*
X84622104Y-43796033D01*
X84717342Y-43843652D01*
X84764961Y-43891271D01*
X84812580Y-43986509D01*
X84812580Y-44272223D01*
X84764961Y-44367461D01*
X84717342Y-44415080D01*
X93329309Y-42336980D02*
X93329309Y-41336980D01*
X93710261Y-41336980D01*
X93805500Y-41384600D01*
X93853119Y-41432219D01*
X93900738Y-41527457D01*
X93900738Y-41670314D01*
X93853119Y-41765552D01*
X93805500Y-41813171D01*
X93710261Y-41860790D01*
X93329309Y-41860790D01*
X94329309Y-42336980D02*
X94329309Y-41670314D01*
X94329309Y-41860790D02*
X94376928Y-41765552D01*
X94424547Y-41717933D01*
X94519785Y-41670314D01*
X94615023Y-41670314D01*
X95091214Y-42336980D02*
X94995976Y-42289361D01*
X94948357Y-42241742D01*
X94900738Y-42146504D01*
X94900738Y-41860790D01*
X94948357Y-41765552D01*
X94995976Y-41717933D01*
X95091214Y-41670314D01*
X95234071Y-41670314D01*
X95329309Y-41717933D01*
X95376928Y-41765552D01*
X95424547Y-41860790D01*
X95424547Y-42146504D01*
X95376928Y-42241742D01*
X95329309Y-42289361D01*
X95234071Y-42336980D01*
X95091214Y-42336980D01*
X96281690Y-41670314D02*
X96281690Y-42479838D01*
X96234071Y-42575076D01*
X96186452Y-42622695D01*
X96091214Y-42670314D01*
X95948357Y-42670314D01*
X95853119Y-42622695D01*
X96281690Y-42289361D02*
X96186452Y-42336980D01*
X95995976Y-42336980D01*
X95900738Y-42289361D01*
X95853119Y-42241742D01*
X95805500Y-42146504D01*
X95805500Y-41860790D01*
X95853119Y-41765552D01*
X95900738Y-41717933D01*
X95995976Y-41670314D01*
X96186452Y-41670314D01*
X96281690Y-41717933D01*
X80819666Y-117562380D02*
X80819666Y-118276666D01*
X80772047Y-118419523D01*
X80676809Y-118514761D01*
X80533952Y-118562380D01*
X80438714Y-118562380D01*
X81724428Y-117895714D02*
X81724428Y-118562380D01*
X81486333Y-117514761D02*
X81248238Y-118229047D01*
X81867285Y-118229047D01*
X88007866Y-58195780D02*
X88007866Y-58910066D01*
X87960247Y-59052923D01*
X87865009Y-59148161D01*
X87722152Y-59195780D01*
X87626914Y-59195780D01*
X88960247Y-58195780D02*
X88484057Y-58195780D01*
X88436438Y-58671971D01*
X88484057Y-58624352D01*
X88579295Y-58576733D01*
X88817390Y-58576733D01*
X88912628Y-58624352D01*
X88960247Y-58671971D01*
X89007866Y-58767209D01*
X89007866Y-59005304D01*
X88960247Y-59100542D01*
X88912628Y-59148161D01*
X88817390Y-59195780D01*
X88579295Y-59195780D01*
X88484057Y-59148161D01*
X88436438Y-59100542D01*
X86037680Y-57714495D02*
X85037680Y-57714495D01*
X86037680Y-57143066D01*
X85037680Y-57143066D01*
X85990061Y-56285923D02*
X86037680Y-56381161D01*
X86037680Y-56571638D01*
X85990061Y-56666876D01*
X85894823Y-56714495D01*
X85513871Y-56714495D01*
X85418633Y-56666876D01*
X85371014Y-56571638D01*
X85371014Y-56381161D01*
X85418633Y-56285923D01*
X85513871Y-56238304D01*
X85609109Y-56238304D01*
X85704347Y-56714495D01*
X86037680Y-55904971D02*
X85371014Y-55381161D01*
X85371014Y-55904971D02*
X86037680Y-55381161D01*
X85371014Y-55143066D02*
X85371014Y-54762114D01*
X85037680Y-55000209D02*
X85894823Y-55000209D01*
X85990061Y-54952590D01*
X86037680Y-54857352D01*
X86037680Y-54762114D01*
X86037680Y-54428780D02*
X85371014Y-54428780D01*
X85037680Y-54428780D02*
X85085300Y-54476400D01*
X85132919Y-54428780D01*
X85085300Y-54381161D01*
X85037680Y-54428780D01*
X85132919Y-54428780D01*
X86037680Y-53809733D02*
X85990061Y-53904971D01*
X85942442Y-53952590D01*
X85847204Y-54000209D01*
X85561490Y-54000209D01*
X85466252Y-53952590D01*
X85418633Y-53904971D01*
X85371014Y-53809733D01*
X85371014Y-53666876D01*
X85418633Y-53571638D01*
X85466252Y-53524019D01*
X85561490Y-53476400D01*
X85847204Y-53476400D01*
X85942442Y-53524019D01*
X85990061Y-53571638D01*
X86037680Y-53666876D01*
X86037680Y-53809733D01*
X85371014Y-53047828D02*
X86037680Y-53047828D01*
X85466252Y-53047828D02*
X85418633Y-53000209D01*
X85371014Y-52904971D01*
X85371014Y-52762114D01*
X85418633Y-52666876D01*
X85513871Y-52619257D01*
X86037680Y-52619257D01*
X86037680Y-52143066D02*
X85037680Y-52143066D01*
X85037680Y-51904971D01*
X85085300Y-51762114D01*
X85180538Y-51666876D01*
X85275776Y-51619257D01*
X85466252Y-51571638D01*
X85609109Y-51571638D01*
X85799585Y-51619257D01*
X85894823Y-51666876D01*
X85990061Y-51762114D01*
X86037680Y-51904971D01*
X86037680Y-52143066D01*
X86037680Y-51143066D02*
X85371014Y-51143066D01*
X85037680Y-51143066D02*
X85085300Y-51190685D01*
X85132919Y-51143066D01*
X85085300Y-51095447D01*
X85037680Y-51143066D01*
X85132919Y-51143066D01*
X85990061Y-50714495D02*
X86037680Y-50619257D01*
X86037680Y-50428780D01*
X85990061Y-50333542D01*
X85894823Y-50285923D01*
X85847204Y-50285923D01*
X85751966Y-50333542D01*
X85704347Y-50428780D01*
X85704347Y-50571638D01*
X85656728Y-50666876D01*
X85561490Y-50714495D01*
X85513871Y-50714495D01*
X85418633Y-50666876D01*
X85371014Y-50571638D01*
X85371014Y-50428780D01*
X85418633Y-50333542D01*
X85371014Y-49857352D02*
X86371014Y-49857352D01*
X85418633Y-49857352D02*
X85371014Y-49762114D01*
X85371014Y-49571638D01*
X85418633Y-49476400D01*
X85466252Y-49428780D01*
X85561490Y-49381161D01*
X85847204Y-49381161D01*
X85942442Y-49428780D01*
X85990061Y-49476400D01*
X86037680Y-49571638D01*
X86037680Y-49762114D01*
X85990061Y-49857352D01*
X86037680Y-48809733D02*
X85990061Y-48904971D01*
X85894823Y-48952590D01*
X85037680Y-48952590D01*
X86037680Y-48000209D02*
X85513871Y-48000209D01*
X85418633Y-48047828D01*
X85371014Y-48143066D01*
X85371014Y-48333542D01*
X85418633Y-48428780D01*
X85990061Y-48000209D02*
X86037680Y-48095447D01*
X86037680Y-48333542D01*
X85990061Y-48428780D01*
X85894823Y-48476400D01*
X85799585Y-48476400D01*
X85704347Y-48428780D01*
X85656728Y-48333542D01*
X85656728Y-48095447D01*
X85609109Y-48000209D01*
X85371014Y-47619257D02*
X86037680Y-47381161D01*
X85371014Y-47143066D02*
X86037680Y-47381161D01*
X86275776Y-47476400D01*
X86323395Y-47524019D01*
X86371014Y-47619257D01*
X87042666Y-122831880D02*
X87042666Y-123546166D01*
X86995047Y-123689023D01*
X86899809Y-123784261D01*
X86756952Y-123831880D01*
X86661714Y-123831880D01*
X87947428Y-122831880D02*
X87756952Y-122831880D01*
X87661714Y-122879500D01*
X87614095Y-122927119D01*
X87518857Y-123069976D01*
X87471238Y-123260452D01*
X87471238Y-123641404D01*
X87518857Y-123736642D01*
X87566476Y-123784261D01*
X87661714Y-123831880D01*
X87852190Y-123831880D01*
X87947428Y-123784261D01*
X87995047Y-123736642D01*
X88042666Y-123641404D01*
X88042666Y-123403309D01*
X87995047Y-123308071D01*
X87947428Y-123260452D01*
X87852190Y-123212833D01*
X87661714Y-123212833D01*
X87566476Y-123260452D01*
X87518857Y-123308071D01*
X87471238Y-123403309D01*
X54779480Y-40071633D02*
X55493766Y-40071633D01*
X55636623Y-40119252D01*
X55731861Y-40214490D01*
X55779480Y-40357347D01*
X55779480Y-40452585D01*
X54779480Y-39690680D02*
X54779480Y-39024014D01*
X55779480Y-39452585D01*
X46679004Y-37022066D02*
X47155195Y-37022066D01*
X46583766Y-37307780D02*
X46917100Y-36307780D01*
X47250433Y-37307780D01*
X47583766Y-36307780D02*
X47583766Y-37117304D01*
X47631385Y-37212542D01*
X47679004Y-37260161D01*
X47774242Y-37307780D01*
X47964719Y-37307780D01*
X48059957Y-37260161D01*
X48107576Y-37212542D01*
X48155195Y-37117304D01*
X48155195Y-36307780D01*
X48536147Y-36307780D02*
X49202814Y-37307780D01*
X49202814Y-36307780D02*
X48536147Y-37307780D01*
X81462666Y-118832380D02*
X81462666Y-119546666D01*
X81415047Y-119689523D01*
X81319809Y-119784761D01*
X81176952Y-119832380D01*
X81081714Y-119832380D01*
X81938857Y-119832380D02*
X81938857Y-118832380D01*
X82319809Y-118832380D01*
X82415047Y-118880000D01*
X82462666Y-118927619D01*
X82510285Y-119022857D01*
X82510285Y-119165714D01*
X82462666Y-119260952D01*
X82415047Y-119308571D01*
X82319809Y-119356190D01*
X81938857Y-119356190D01*
X83462666Y-119832380D02*
X82891238Y-119832380D01*
X83176952Y-119832380D02*
X83176952Y-118832380D01*
X83081714Y-118975238D01*
X82986476Y-119070476D01*
X82891238Y-119118095D01*
X90606666Y-118832380D02*
X90606666Y-119546666D01*
X90559047Y-119689523D01*
X90463809Y-119784761D01*
X90320952Y-119832380D01*
X90225714Y-119832380D01*
X91082857Y-119832380D02*
X91082857Y-118832380D01*
X91463809Y-118832380D01*
X91559047Y-118880000D01*
X91606666Y-118927619D01*
X91654285Y-119022857D01*
X91654285Y-119165714D01*
X91606666Y-119260952D01*
X91559047Y-119308571D01*
X91463809Y-119356190D01*
X91082857Y-119356190D01*
X92035238Y-118927619D02*
X92082857Y-118880000D01*
X92178095Y-118832380D01*
X92416190Y-118832380D01*
X92511428Y-118880000D01*
X92559047Y-118927619D01*
X92606666Y-119022857D01*
X92606666Y-119118095D01*
X92559047Y-119260952D01*
X91987619Y-119832380D01*
X92606666Y-119832380D01*
X100829619Y-97631238D02*
X100782000Y-97726476D01*
X100686761Y-97821714D01*
X100543904Y-97964571D01*
X100496285Y-98059809D01*
X100496285Y-98155047D01*
X100734380Y-98107428D02*
X100686761Y-98202666D01*
X100591523Y-98297904D01*
X100401047Y-98345523D01*
X100067714Y-98345523D01*
X99877238Y-98297904D01*
X99782000Y-98202666D01*
X99734380Y-98107428D01*
X99734380Y-97916952D01*
X99782000Y-97821714D01*
X99877238Y-97726476D01*
X100067714Y-97678857D01*
X100401047Y-97678857D01*
X100591523Y-97726476D01*
X100686761Y-97821714D01*
X100734380Y-97916952D01*
X100734380Y-98107428D01*
X99829619Y-97297904D02*
X99782000Y-97250285D01*
X99734380Y-97155047D01*
X99734380Y-96916952D01*
X99782000Y-96821714D01*
X99829619Y-96774095D01*
X99924857Y-96726476D01*
X100020095Y-96726476D01*
X100162952Y-96774095D01*
X100734380Y-97345523D01*
X100734380Y-96726476D01*
X92325833Y-38615880D02*
X91992500Y-38139690D01*
X91754404Y-38615880D02*
X91754404Y-37615880D01*
X92135357Y-37615880D01*
X92230595Y-37663500D01*
X92278214Y-37711119D01*
X92325833Y-37806357D01*
X92325833Y-37949214D01*
X92278214Y-38044452D01*
X92230595Y-38092071D01*
X92135357Y-38139690D01*
X91754404Y-38139690D01*
X93278214Y-38615880D02*
X92706785Y-38615880D01*
X92992500Y-38615880D02*
X92992500Y-37615880D01*
X92897261Y-37758738D01*
X92802023Y-37853976D01*
X92706785Y-37901595D01*
X97115333Y-80713180D02*
X96782000Y-80236990D01*
X96543904Y-80713180D02*
X96543904Y-79713180D01*
X96924857Y-79713180D01*
X97020095Y-79760800D01*
X97067714Y-79808419D01*
X97115333Y-79903657D01*
X97115333Y-80046514D01*
X97067714Y-80141752D01*
X97020095Y-80189371D01*
X96924857Y-80236990D01*
X96543904Y-80236990D01*
X97496285Y-79808419D02*
X97543904Y-79760800D01*
X97639142Y-79713180D01*
X97877238Y-79713180D01*
X97972476Y-79760800D01*
X98020095Y-79808419D01*
X98067714Y-79903657D01*
X98067714Y-79998895D01*
X98020095Y-80141752D01*
X97448666Y-80713180D01*
X98067714Y-80713180D01*
X77049333Y-63952380D02*
X76716000Y-63476190D01*
X76477904Y-63952380D02*
X76477904Y-62952380D01*
X76858857Y-62952380D01*
X76954095Y-63000000D01*
X77001714Y-63047619D01*
X77049333Y-63142857D01*
X77049333Y-63285714D01*
X77001714Y-63380952D01*
X76954095Y-63428571D01*
X76858857Y-63476190D01*
X76477904Y-63476190D01*
X77382666Y-62952380D02*
X78001714Y-62952380D01*
X77668380Y-63333333D01*
X77811238Y-63333333D01*
X77906476Y-63380952D01*
X77954095Y-63428571D01*
X78001714Y-63523809D01*
X78001714Y-63761904D01*
X77954095Y-63857142D01*
X77906476Y-63904761D01*
X77811238Y-63952380D01*
X77525523Y-63952380D01*
X77430285Y-63904761D01*
X77382666Y-63857142D01*
X76541333Y-67508380D02*
X76208000Y-67032190D01*
X75969904Y-67508380D02*
X75969904Y-66508380D01*
X76350857Y-66508380D01*
X76446095Y-66556000D01*
X76493714Y-66603619D01*
X76541333Y-66698857D01*
X76541333Y-66841714D01*
X76493714Y-66936952D01*
X76446095Y-66984571D01*
X76350857Y-67032190D01*
X75969904Y-67032190D01*
X77398476Y-66841714D02*
X77398476Y-67508380D01*
X77160380Y-66460761D02*
X76922285Y-67175047D01*
X77541333Y-67175047D01*
X80716380Y-71286666D02*
X80240190Y-71620000D01*
X80716380Y-71858095D02*
X79716380Y-71858095D01*
X79716380Y-71477142D01*
X79764000Y-71381904D01*
X79811619Y-71334285D01*
X79906857Y-71286666D01*
X80049714Y-71286666D01*
X80144952Y-71334285D01*
X80192571Y-71381904D01*
X80240190Y-71477142D01*
X80240190Y-71858095D01*
X79716380Y-70381904D02*
X79716380Y-70858095D01*
X80192571Y-70905714D01*
X80144952Y-70858095D01*
X80097333Y-70762857D01*
X80097333Y-70524761D01*
X80144952Y-70429523D01*
X80192571Y-70381904D01*
X80287809Y-70334285D01*
X80525904Y-70334285D01*
X80621142Y-70381904D01*
X80668761Y-70429523D01*
X80716380Y-70524761D01*
X80716380Y-70762857D01*
X80668761Y-70858095D01*
X80621142Y-70905714D01*
X97877333Y-121356380D02*
X97544000Y-120880190D01*
X97305904Y-121356380D02*
X97305904Y-120356380D01*
X97686857Y-120356380D01*
X97782095Y-120404000D01*
X97829714Y-120451619D01*
X97877333Y-120546857D01*
X97877333Y-120689714D01*
X97829714Y-120784952D01*
X97782095Y-120832571D01*
X97686857Y-120880190D01*
X97305904Y-120880190D01*
X98210666Y-120356380D02*
X98877333Y-120356380D01*
X98448761Y-121356380D01*
X96676380Y-90119166D02*
X96200190Y-90452500D01*
X96676380Y-90690595D02*
X95676380Y-90690595D01*
X95676380Y-90309642D01*
X95724000Y-90214404D01*
X95771619Y-90166785D01*
X95866857Y-90119166D01*
X96009714Y-90119166D01*
X96104952Y-90166785D01*
X96152571Y-90214404D01*
X96200190Y-90309642D01*
X96200190Y-90690595D01*
X96104952Y-89547738D02*
X96057333Y-89642976D01*
X96009714Y-89690595D01*
X95914476Y-89738214D01*
X95866857Y-89738214D01*
X95771619Y-89690595D01*
X95724000Y-89642976D01*
X95676380Y-89547738D01*
X95676380Y-89357261D01*
X95724000Y-89262023D01*
X95771619Y-89214404D01*
X95866857Y-89166785D01*
X95914476Y-89166785D01*
X96009714Y-89214404D01*
X96057333Y-89262023D01*
X96104952Y-89357261D01*
X96104952Y-89547738D01*
X96152571Y-89642976D01*
X96200190Y-89690595D01*
X96295428Y-89738214D01*
X96485904Y-89738214D01*
X96581142Y-89690595D01*
X96628761Y-89642976D01*
X96676380Y-89547738D01*
X96676380Y-89357261D01*
X96628761Y-89262023D01*
X96581142Y-89214404D01*
X96485904Y-89166785D01*
X96295428Y-89166785D01*
X96200190Y-89214404D01*
X96152571Y-89262023D01*
X96104952Y-89357261D01*
X47800333Y-64986480D02*
X47467000Y-64510290D01*
X47228904Y-64986480D02*
X47228904Y-63986480D01*
X47609857Y-63986480D01*
X47705095Y-64034100D01*
X47752714Y-64081719D01*
X47800333Y-64176957D01*
X47800333Y-64319814D01*
X47752714Y-64415052D01*
X47705095Y-64462671D01*
X47609857Y-64510290D01*
X47228904Y-64510290D01*
X48276523Y-64986480D02*
X48467000Y-64986480D01*
X48562238Y-64938861D01*
X48609857Y-64891242D01*
X48705095Y-64748385D01*
X48752714Y-64557909D01*
X48752714Y-64176957D01*
X48705095Y-64081719D01*
X48657476Y-64034100D01*
X48562238Y-63986480D01*
X48371761Y-63986480D01*
X48276523Y-64034100D01*
X48228904Y-64081719D01*
X48181285Y-64176957D01*
X48181285Y-64415052D01*
X48228904Y-64510290D01*
X48276523Y-64557909D01*
X48371761Y-64605528D01*
X48562238Y-64605528D01*
X48657476Y-64557909D01*
X48705095Y-64510290D01*
X48752714Y-64415052D01*
X40847142Y-64949980D02*
X40513809Y-64473790D01*
X40275714Y-64949980D02*
X40275714Y-63949980D01*
X40656666Y-63949980D01*
X40751904Y-63997600D01*
X40799523Y-64045219D01*
X40847142Y-64140457D01*
X40847142Y-64283314D01*
X40799523Y-64378552D01*
X40751904Y-64426171D01*
X40656666Y-64473790D01*
X40275714Y-64473790D01*
X41799523Y-64949980D02*
X41228095Y-64949980D01*
X41513809Y-64949980D02*
X41513809Y-63949980D01*
X41418571Y-64092838D01*
X41323333Y-64188076D01*
X41228095Y-64235695D01*
X42418571Y-63949980D02*
X42513809Y-63949980D01*
X42609047Y-63997600D01*
X42656666Y-64045219D01*
X42704285Y-64140457D01*
X42751904Y-64330933D01*
X42751904Y-64569028D01*
X42704285Y-64759504D01*
X42656666Y-64854742D01*
X42609047Y-64902361D01*
X42513809Y-64949980D01*
X42418571Y-64949980D01*
X42323333Y-64902361D01*
X42275714Y-64854742D01*
X42228095Y-64759504D01*
X42180476Y-64569028D01*
X42180476Y-64330933D01*
X42228095Y-64140457D01*
X42275714Y-64045219D01*
X42323333Y-63997600D01*
X42418571Y-63949980D01*
X53661442Y-64986480D02*
X53328109Y-64510290D01*
X53090014Y-64986480D02*
X53090014Y-63986480D01*
X53470966Y-63986480D01*
X53566204Y-64034100D01*
X53613823Y-64081719D01*
X53661442Y-64176957D01*
X53661442Y-64319814D01*
X53613823Y-64415052D01*
X53566204Y-64462671D01*
X53470966Y-64510290D01*
X53090014Y-64510290D01*
X54613823Y-64986480D02*
X54042395Y-64986480D01*
X54328109Y-64986480D02*
X54328109Y-63986480D01*
X54232871Y-64129338D01*
X54137633Y-64224576D01*
X54042395Y-64272195D01*
X55566204Y-64986480D02*
X54994776Y-64986480D01*
X55280490Y-64986480D02*
X55280490Y-63986480D01*
X55185252Y-64129338D01*
X55090014Y-64224576D01*
X54994776Y-64272195D01*
X43933242Y-65013480D02*
X43599909Y-64537290D01*
X43361814Y-65013480D02*
X43361814Y-64013480D01*
X43742766Y-64013480D01*
X43838004Y-64061100D01*
X43885623Y-64108719D01*
X43933242Y-64203957D01*
X43933242Y-64346814D01*
X43885623Y-64442052D01*
X43838004Y-64489671D01*
X43742766Y-64537290D01*
X43361814Y-64537290D01*
X44885623Y-65013480D02*
X44314195Y-65013480D01*
X44599909Y-65013480D02*
X44599909Y-64013480D01*
X44504671Y-64156338D01*
X44409433Y-64251576D01*
X44314195Y-64299195D01*
X45266576Y-64108719D02*
X45314195Y-64061100D01*
X45409433Y-64013480D01*
X45647528Y-64013480D01*
X45742766Y-64061100D01*
X45790385Y-64108719D01*
X45838004Y-64203957D01*
X45838004Y-64299195D01*
X45790385Y-64442052D01*
X45218957Y-65013480D01*
X45838004Y-65013480D01*
X93832442Y-80716380D02*
X93499109Y-80240190D01*
X93261014Y-80716380D02*
X93261014Y-79716380D01*
X93641966Y-79716380D01*
X93737204Y-79764000D01*
X93784823Y-79811619D01*
X93832442Y-79906857D01*
X93832442Y-80049714D01*
X93784823Y-80144952D01*
X93737204Y-80192571D01*
X93641966Y-80240190D01*
X93261014Y-80240190D01*
X94784823Y-80716380D02*
X94213395Y-80716380D01*
X94499109Y-80716380D02*
X94499109Y-79716380D01*
X94403871Y-79859238D01*
X94308633Y-79954476D01*
X94213395Y-80002095D01*
X95118157Y-79716380D02*
X95737204Y-79716380D01*
X95403871Y-80097333D01*
X95546728Y-80097333D01*
X95641966Y-80144952D01*
X95689585Y-80192571D01*
X95737204Y-80287809D01*
X95737204Y-80525904D01*
X95689585Y-80621142D01*
X95641966Y-80668761D01*
X95546728Y-80716380D01*
X95261014Y-80716380D01*
X95165776Y-80668761D01*
X95118157Y-80621142D01*
X45305742Y-116581180D02*
X44972409Y-116104990D01*
X44734314Y-116581180D02*
X44734314Y-115581180D01*
X45115266Y-115581180D01*
X45210504Y-115628800D01*
X45258123Y-115676419D01*
X45305742Y-115771657D01*
X45305742Y-115914514D01*
X45258123Y-116009752D01*
X45210504Y-116057371D01*
X45115266Y-116104990D01*
X44734314Y-116104990D01*
X45686695Y-115676419D02*
X45734314Y-115628800D01*
X45829552Y-115581180D01*
X46067647Y-115581180D01*
X46162885Y-115628800D01*
X46210504Y-115676419D01*
X46258123Y-115771657D01*
X46258123Y-115866895D01*
X46210504Y-116009752D01*
X45639076Y-116581180D01*
X46258123Y-116581180D01*
X47162885Y-115581180D02*
X46686695Y-115581180D01*
X46639076Y-116057371D01*
X46686695Y-116009752D01*
X46781933Y-115962133D01*
X47020028Y-115962133D01*
X47115266Y-116009752D01*
X47162885Y-116057371D01*
X47210504Y-116152609D01*
X47210504Y-116390704D01*
X47162885Y-116485942D01*
X47115266Y-116533561D01*
X47020028Y-116581180D01*
X46781933Y-116581180D01*
X46686695Y-116533561D01*
X46639076Y-116485942D01*
D17*
X93505866Y-48012047D02*
X93687295Y-48072523D01*
X93989676Y-48072523D01*
X94110628Y-48012047D01*
X94171104Y-47951571D01*
X94231580Y-47830619D01*
X94231580Y-47709666D01*
X94171104Y-47588714D01*
X94110628Y-47528238D01*
X93989676Y-47467761D01*
X93747771Y-47407285D01*
X93626819Y-47346809D01*
X93566342Y-47286333D01*
X93505866Y-47165380D01*
X93505866Y-47044428D01*
X93566342Y-46923476D01*
X93626819Y-46863000D01*
X93747771Y-46802523D01*
X94050152Y-46802523D01*
X94231580Y-46863000D01*
X94654914Y-46802523D02*
X94957295Y-48072523D01*
X95199200Y-47165380D01*
X95441104Y-48072523D01*
X95743485Y-46802523D01*
X96892533Y-48072523D02*
X96166819Y-48072523D01*
X96529676Y-48072523D02*
X96529676Y-46802523D01*
X96408723Y-46983952D01*
X96287771Y-47104904D01*
X96166819Y-47165380D01*
D18*
X91123225Y-54468485D02*
X91123225Y-54891819D01*
X91788463Y-54891819D02*
X90518463Y-54891819D01*
X90518463Y-54287057D01*
X91788463Y-53621819D02*
X91727987Y-53742771D01*
X91607035Y-53803247D01*
X90518463Y-53803247D01*
X91788463Y-52593723D02*
X91123225Y-52593723D01*
X91002273Y-52654200D01*
X90941797Y-52775152D01*
X90941797Y-53017057D01*
X91002273Y-53138009D01*
X91727987Y-52593723D02*
X91788463Y-52714676D01*
X91788463Y-53017057D01*
X91727987Y-53138009D01*
X91607035Y-53198485D01*
X91486082Y-53198485D01*
X91365130Y-53138009D01*
X91304654Y-53017057D01*
X91304654Y-52714676D01*
X91244178Y-52593723D01*
X91727987Y-52049438D02*
X91788463Y-51928485D01*
X91788463Y-51686580D01*
X91727987Y-51565628D01*
X91607035Y-51505152D01*
X91546559Y-51505152D01*
X91425606Y-51565628D01*
X91365130Y-51686580D01*
X91365130Y-51868009D01*
X91304654Y-51988961D01*
X91183701Y-52049438D01*
X91123225Y-52049438D01*
X91002273Y-51988961D01*
X90941797Y-51868009D01*
X90941797Y-51686580D01*
X91002273Y-51565628D01*
X91788463Y-50960866D02*
X90518463Y-50960866D01*
X91788463Y-50416580D02*
X91123225Y-50416580D01*
X91002273Y-50477057D01*
X90941797Y-50598009D01*
X90941797Y-50779438D01*
X91002273Y-50900390D01*
X91062749Y-50960866D01*
D17*
X86698666Y-33534047D02*
X86880095Y-33594523D01*
X87182476Y-33594523D01*
X87303428Y-33534047D01*
X87363904Y-33473571D01*
X87424380Y-33352619D01*
X87424380Y-33231666D01*
X87363904Y-33110714D01*
X87303428Y-33050238D01*
X87182476Y-32989761D01*
X86940571Y-32929285D01*
X86819619Y-32868809D01*
X86759142Y-32808333D01*
X86698666Y-32687380D01*
X86698666Y-32566428D01*
X86759142Y-32445476D01*
X86819619Y-32385000D01*
X86940571Y-32324523D01*
X87242952Y-32324523D01*
X87424380Y-32385000D01*
X87847714Y-32324523D02*
X88150095Y-33594523D01*
X88392000Y-32687380D01*
X88633904Y-33594523D01*
X88936285Y-32324523D01*
X89359619Y-32445476D02*
X89420095Y-32385000D01*
X89541047Y-32324523D01*
X89843428Y-32324523D01*
X89964380Y-32385000D01*
X90024857Y-32445476D01*
X90085333Y-32566428D01*
X90085333Y-32687380D01*
X90024857Y-32868809D01*
X89299142Y-33594523D01*
X90085333Y-33594523D01*
D18*
X88851619Y-31562523D02*
X88428285Y-30957761D01*
X88125904Y-31562523D02*
X88125904Y-30292523D01*
X88609714Y-30292523D01*
X88730666Y-30353000D01*
X88791142Y-30413476D01*
X88851619Y-30534428D01*
X88851619Y-30715857D01*
X88791142Y-30836809D01*
X88730666Y-30897285D01*
X88609714Y-30957761D01*
X88125904Y-30957761D01*
X89879714Y-31502047D02*
X89758761Y-31562523D01*
X89516857Y-31562523D01*
X89395904Y-31502047D01*
X89335428Y-31381095D01*
X89335428Y-30897285D01*
X89395904Y-30776333D01*
X89516857Y-30715857D01*
X89758761Y-30715857D01*
X89879714Y-30776333D01*
X89940190Y-30897285D01*
X89940190Y-31018238D01*
X89335428Y-31139190D01*
X90424000Y-31502047D02*
X90544952Y-31562523D01*
X90786857Y-31562523D01*
X90907809Y-31502047D01*
X90968285Y-31381095D01*
X90968285Y-31320619D01*
X90907809Y-31199666D01*
X90786857Y-31139190D01*
X90605428Y-31139190D01*
X90484476Y-31078714D01*
X90424000Y-30957761D01*
X90424000Y-30897285D01*
X90484476Y-30776333D01*
X90605428Y-30715857D01*
X90786857Y-30715857D01*
X90907809Y-30776333D01*
X91996380Y-31502047D02*
X91875428Y-31562523D01*
X91633523Y-31562523D01*
X91512571Y-31502047D01*
X91452095Y-31381095D01*
X91452095Y-30897285D01*
X91512571Y-30776333D01*
X91633523Y-30715857D01*
X91875428Y-30715857D01*
X91996380Y-30776333D01*
X92056857Y-30897285D01*
X92056857Y-31018238D01*
X91452095Y-31139190D01*
X92419714Y-30715857D02*
X92903523Y-30715857D01*
X92601142Y-30292523D02*
X92601142Y-31381095D01*
X92661619Y-31502047D01*
X92782571Y-31562523D01*
X92903523Y-31562523D01*
D11*
X67318095Y-111720380D02*
X67889523Y-111720380D01*
X67603809Y-112720380D02*
X67603809Y-111720380D01*
X68222857Y-112720380D02*
X68222857Y-111720380D01*
X68603809Y-111720380D01*
X68699047Y-111768000D01*
X68746666Y-111815619D01*
X68794285Y-111910857D01*
X68794285Y-112053714D01*
X68746666Y-112148952D01*
X68699047Y-112196571D01*
X68603809Y-112244190D01*
X68222857Y-112244190D01*
X69746666Y-112720380D02*
X69175238Y-112720380D01*
X69460952Y-112720380D02*
X69460952Y-111720380D01*
X69365714Y-111863238D01*
X69270476Y-111958476D01*
X69175238Y-112006095D01*
X65945000Y-116276428D02*
X66706904Y-116276428D01*
X66325952Y-116657380D02*
X66325952Y-115895476D01*
X67087857Y-115657380D02*
X67706904Y-115657380D01*
X67373571Y-116038333D01*
X67516428Y-116038333D01*
X67611666Y-116085952D01*
X67659285Y-116133571D01*
X67706904Y-116228809D01*
X67706904Y-116466904D01*
X67659285Y-116562142D01*
X67611666Y-116609761D01*
X67516428Y-116657380D01*
X67230714Y-116657380D01*
X67135476Y-116609761D01*
X67087857Y-116562142D01*
X68135476Y-116562142D02*
X68183095Y-116609761D01*
X68135476Y-116657380D01*
X68087857Y-116609761D01*
X68135476Y-116562142D01*
X68135476Y-116657380D01*
X68516428Y-115657380D02*
X69135476Y-115657380D01*
X68802142Y-116038333D01*
X68945000Y-116038333D01*
X69040238Y-116085952D01*
X69087857Y-116133571D01*
X69135476Y-116228809D01*
X69135476Y-116466904D01*
X69087857Y-116562142D01*
X69040238Y-116609761D01*
X68945000Y-116657380D01*
X68659285Y-116657380D01*
X68564047Y-116609761D01*
X68516428Y-116562142D01*
X69421190Y-115657380D02*
X69754523Y-116657380D01*
X70087857Y-115657380D01*
X96540795Y-57392780D02*
X97112223Y-57392780D01*
X96826509Y-58392780D02*
X96826509Y-57392780D01*
X97445557Y-58392780D02*
X97445557Y-57392780D01*
X97826509Y-57392780D01*
X97921747Y-57440400D01*
X97969366Y-57488019D01*
X98016985Y-57583257D01*
X98016985Y-57726114D01*
X97969366Y-57821352D01*
X97921747Y-57868971D01*
X97826509Y-57916590D01*
X97445557Y-57916590D01*
X98350319Y-57392780D02*
X98969366Y-57392780D01*
X98636033Y-57773733D01*
X98778890Y-57773733D01*
X98874128Y-57821352D01*
X98921747Y-57868971D01*
X98969366Y-57964209D01*
X98969366Y-58202304D01*
X98921747Y-58297542D01*
X98874128Y-58345161D01*
X98778890Y-58392780D01*
X98493176Y-58392780D01*
X98397938Y-58345161D01*
X98350319Y-58297542D01*
X96683652Y-61266971D02*
X96826509Y-61314590D01*
X96874128Y-61362209D01*
X96921747Y-61457447D01*
X96921747Y-61600304D01*
X96874128Y-61695542D01*
X96826509Y-61743161D01*
X96731271Y-61790780D01*
X96350319Y-61790780D01*
X96350319Y-60790780D01*
X96683652Y-60790780D01*
X96778890Y-60838400D01*
X96826509Y-60886019D01*
X96874128Y-60981257D01*
X96874128Y-61076495D01*
X96826509Y-61171733D01*
X96778890Y-61219352D01*
X96683652Y-61266971D01*
X96350319Y-61266971D01*
X97493176Y-61790780D02*
X97397938Y-61743161D01*
X97350319Y-61695542D01*
X97302700Y-61600304D01*
X97302700Y-61314590D01*
X97350319Y-61219352D01*
X97397938Y-61171733D01*
X97493176Y-61124114D01*
X97636033Y-61124114D01*
X97731271Y-61171733D01*
X97778890Y-61219352D01*
X97826509Y-61314590D01*
X97826509Y-61600304D01*
X97778890Y-61695542D01*
X97731271Y-61743161D01*
X97636033Y-61790780D01*
X97493176Y-61790780D01*
X98397938Y-61790780D02*
X98302700Y-61743161D01*
X98255080Y-61695542D01*
X98207461Y-61600304D01*
X98207461Y-61314590D01*
X98255080Y-61219352D01*
X98302700Y-61171733D01*
X98397938Y-61124114D01*
X98540795Y-61124114D01*
X98636033Y-61171733D01*
X98683652Y-61219352D01*
X98731271Y-61314590D01*
X98731271Y-61600304D01*
X98683652Y-61695542D01*
X98636033Y-61743161D01*
X98540795Y-61790780D01*
X98397938Y-61790780D01*
X99016985Y-61124114D02*
X99397938Y-61124114D01*
X99159842Y-60790780D02*
X99159842Y-61647923D01*
X99207461Y-61743161D01*
X99302700Y-61790780D01*
X99397938Y-61790780D01*
X84082095Y-30316380D02*
X84653523Y-30316380D01*
X84367809Y-31316380D02*
X84367809Y-30316380D01*
X84986857Y-31316380D02*
X84986857Y-30316380D01*
X85367809Y-30316380D01*
X85463047Y-30364000D01*
X85510666Y-30411619D01*
X85558285Y-30506857D01*
X85558285Y-30649714D01*
X85510666Y-30744952D01*
X85463047Y-30792571D01*
X85367809Y-30840190D01*
X84986857Y-30840190D01*
X86415428Y-30649714D02*
X86415428Y-31316380D01*
X86177333Y-30268761D02*
X85939238Y-30983047D01*
X86558285Y-30983047D01*
X84105904Y-34714380D02*
X83772571Y-34238190D01*
X83534476Y-34714380D02*
X83534476Y-33714380D01*
X83915428Y-33714380D01*
X84010666Y-33762000D01*
X84058285Y-33809619D01*
X84105904Y-33904857D01*
X84105904Y-34047714D01*
X84058285Y-34142952D01*
X84010666Y-34190571D01*
X83915428Y-34238190D01*
X83534476Y-34238190D01*
X84915428Y-34666761D02*
X84820190Y-34714380D01*
X84629714Y-34714380D01*
X84534476Y-34666761D01*
X84486857Y-34571523D01*
X84486857Y-34190571D01*
X84534476Y-34095333D01*
X84629714Y-34047714D01*
X84820190Y-34047714D01*
X84915428Y-34095333D01*
X84963047Y-34190571D01*
X84963047Y-34285809D01*
X84486857Y-34381047D01*
X85344000Y-34666761D02*
X85439238Y-34714380D01*
X85629714Y-34714380D01*
X85724952Y-34666761D01*
X85772571Y-34571523D01*
X85772571Y-34523904D01*
X85724952Y-34428666D01*
X85629714Y-34381047D01*
X85486857Y-34381047D01*
X85391619Y-34333428D01*
X85344000Y-34238190D01*
X85344000Y-34190571D01*
X85391619Y-34095333D01*
X85486857Y-34047714D01*
X85629714Y-34047714D01*
X85724952Y-34095333D01*
X86582095Y-34666761D02*
X86486857Y-34714380D01*
X86296380Y-34714380D01*
X86201142Y-34666761D01*
X86153523Y-34571523D01*
X86153523Y-34190571D01*
X86201142Y-34095333D01*
X86296380Y-34047714D01*
X86486857Y-34047714D01*
X86582095Y-34095333D01*
X86629714Y-34190571D01*
X86629714Y-34285809D01*
X86153523Y-34381047D01*
X86915428Y-34047714D02*
X87296380Y-34047714D01*
X87058285Y-33714380D02*
X87058285Y-34571523D01*
X87105904Y-34666761D01*
X87201142Y-34714380D01*
X87296380Y-34714380D01*
X79941895Y-105500380D02*
X80513323Y-105500380D01*
X80227609Y-106500380D02*
X80227609Y-105500380D01*
X80846657Y-106500380D02*
X80846657Y-105500380D01*
X81227609Y-105500380D01*
X81322847Y-105548000D01*
X81370466Y-105595619D01*
X81418085Y-105690857D01*
X81418085Y-105833714D01*
X81370466Y-105928952D01*
X81322847Y-105976571D01*
X81227609Y-106024190D01*
X80846657Y-106024190D01*
X82322847Y-105500380D02*
X81846657Y-105500380D01*
X81799038Y-105976571D01*
X81846657Y-105928952D01*
X81941895Y-105881333D01*
X82179990Y-105881333D01*
X82275228Y-105928952D01*
X82322847Y-105976571D01*
X82370466Y-106071809D01*
X82370466Y-106309904D01*
X82322847Y-106405142D01*
X82275228Y-106452761D01*
X82179990Y-106500380D01*
X81941895Y-106500380D01*
X81846657Y-106452761D01*
X81799038Y-106405142D01*
X79941895Y-100420380D02*
X80513323Y-100420380D01*
X80227609Y-101420380D02*
X80227609Y-100420380D01*
X80846657Y-101420380D02*
X80846657Y-100420380D01*
X81227609Y-100420380D01*
X81322847Y-100468000D01*
X81370466Y-100515619D01*
X81418085Y-100610857D01*
X81418085Y-100753714D01*
X81370466Y-100848952D01*
X81322847Y-100896571D01*
X81227609Y-100944190D01*
X80846657Y-100944190D01*
X82275228Y-100420380D02*
X82084752Y-100420380D01*
X81989514Y-100468000D01*
X81941895Y-100515619D01*
X81846657Y-100658476D01*
X81799038Y-100848952D01*
X81799038Y-101229904D01*
X81846657Y-101325142D01*
X81894276Y-101372761D01*
X81989514Y-101420380D01*
X82179990Y-101420380D01*
X82275228Y-101372761D01*
X82322847Y-101325142D01*
X82370466Y-101229904D01*
X82370466Y-100991809D01*
X82322847Y-100896571D01*
X82275228Y-100848952D01*
X82179990Y-100801333D01*
X81989514Y-100801333D01*
X81894276Y-100848952D01*
X81846657Y-100896571D01*
X81799038Y-100991809D01*
X70708095Y-111720380D02*
X71279523Y-111720380D01*
X70993809Y-112720380D02*
X70993809Y-111720380D01*
X71612857Y-112720380D02*
X71612857Y-111720380D01*
X71993809Y-111720380D01*
X72089047Y-111768000D01*
X72136666Y-111815619D01*
X72184285Y-111910857D01*
X72184285Y-112053714D01*
X72136666Y-112148952D01*
X72089047Y-112196571D01*
X71993809Y-112244190D01*
X71612857Y-112244190D01*
X72517619Y-111720380D02*
X73184285Y-111720380D01*
X72755714Y-112720380D01*
X70469285Y-116276428D02*
X71231190Y-116276428D01*
X70850238Y-116657380D02*
X70850238Y-115895476D01*
X72183571Y-115657380D02*
X71707380Y-115657380D01*
X71659761Y-116133571D01*
X71707380Y-116085952D01*
X71802619Y-116038333D01*
X72040714Y-116038333D01*
X72135952Y-116085952D01*
X72183571Y-116133571D01*
X72231190Y-116228809D01*
X72231190Y-116466904D01*
X72183571Y-116562142D01*
X72135952Y-116609761D01*
X72040714Y-116657380D01*
X71802619Y-116657380D01*
X71707380Y-116609761D01*
X71659761Y-116562142D01*
X72516904Y-115657380D02*
X72850238Y-116657380D01*
X73183571Y-115657380D01*
X53136895Y-113803180D02*
X53136895Y-114612704D01*
X53184514Y-114707942D01*
X53232133Y-114755561D01*
X53327371Y-114803180D01*
X53517847Y-114803180D01*
X53613085Y-114755561D01*
X53660704Y-114707942D01*
X53708323Y-114612704D01*
X53708323Y-113803180D01*
X54708323Y-114803180D02*
X54136895Y-114803180D01*
X54422609Y-114803180D02*
X54422609Y-113803180D01*
X54327371Y-113946038D01*
X54232133Y-114041276D01*
X54136895Y-114088895D01*
X51599295Y-69196680D02*
X51599295Y-70006204D01*
X51646914Y-70101442D01*
X51694533Y-70149061D01*
X51789771Y-70196680D01*
X51980247Y-70196680D01*
X52075485Y-70149061D01*
X52123104Y-70101442D01*
X52170723Y-70006204D01*
X52170723Y-69196680D01*
X53075485Y-69530014D02*
X53075485Y-70196680D01*
X52837390Y-69149061D02*
X52599295Y-69863347D01*
X53218342Y-69863347D01*
X42744428Y-69622071D02*
X42887285Y-69669690D01*
X42934904Y-69717309D01*
X42982523Y-69812547D01*
X42982523Y-69955404D01*
X42934904Y-70050642D01*
X42887285Y-70098261D01*
X42792047Y-70145880D01*
X42411095Y-70145880D01*
X42411095Y-69145880D01*
X42744428Y-69145880D01*
X42839666Y-69193500D01*
X42887285Y-69241119D01*
X42934904Y-69336357D01*
X42934904Y-69431595D01*
X42887285Y-69526833D01*
X42839666Y-69574452D01*
X42744428Y-69622071D01*
X42411095Y-69622071D01*
X43411095Y-70145880D02*
X43411095Y-69145880D01*
X43744428Y-69860166D01*
X44077761Y-69145880D01*
X44077761Y-70145880D01*
X44553952Y-70145880D02*
X44553952Y-69145880D01*
X44934904Y-69145880D01*
X45030142Y-69193500D01*
X45077761Y-69241119D01*
X45125380Y-69336357D01*
X45125380Y-69479214D01*
X45077761Y-69574452D01*
X45030142Y-69622071D01*
X44934904Y-69669690D01*
X44553952Y-69669690D01*
X45506333Y-69241119D02*
X45553952Y-69193500D01*
X45649190Y-69145880D01*
X45887285Y-69145880D01*
X45982523Y-69193500D01*
X46030142Y-69241119D01*
X46077761Y-69336357D01*
X46077761Y-69431595D01*
X46030142Y-69574452D01*
X45458714Y-70145880D01*
X46077761Y-70145880D01*
X46649190Y-69574452D02*
X46553952Y-69526833D01*
X46506333Y-69479214D01*
X46458714Y-69383976D01*
X46458714Y-69336357D01*
X46506333Y-69241119D01*
X46553952Y-69193500D01*
X46649190Y-69145880D01*
X46839666Y-69145880D01*
X46934904Y-69193500D01*
X46982523Y-69241119D01*
X47030142Y-69336357D01*
X47030142Y-69383976D01*
X46982523Y-69479214D01*
X46934904Y-69526833D01*
X46839666Y-69574452D01*
X46649190Y-69574452D01*
X46553952Y-69622071D01*
X46506333Y-69669690D01*
X46458714Y-69764928D01*
X46458714Y-69955404D01*
X46506333Y-70050642D01*
X46553952Y-70098261D01*
X46649190Y-70145880D01*
X46839666Y-70145880D01*
X46934904Y-70098261D01*
X46982523Y-70050642D01*
X47030142Y-69955404D01*
X47030142Y-69764928D01*
X46982523Y-69669690D01*
X46934904Y-69622071D01*
X46839666Y-69574452D01*
X47649190Y-69145880D02*
X47744428Y-69145880D01*
X47839666Y-69193500D01*
X47887285Y-69241119D01*
X47934904Y-69336357D01*
X47982523Y-69526833D01*
X47982523Y-69764928D01*
X47934904Y-69955404D01*
X47887285Y-70050642D01*
X47839666Y-70098261D01*
X47744428Y-70145880D01*
X47649190Y-70145880D01*
X47553952Y-70098261D01*
X47506333Y-70050642D01*
X47458714Y-69955404D01*
X47411095Y-69764928D01*
X47411095Y-69526833D01*
X47458714Y-69336357D01*
X47506333Y-69241119D01*
X47553952Y-69193500D01*
X47649190Y-69145880D01*
X60782295Y-32294580D02*
X60782295Y-33104104D01*
X60829914Y-33199342D01*
X60877533Y-33246961D01*
X60972771Y-33294580D01*
X61163247Y-33294580D01*
X61258485Y-33246961D01*
X61306104Y-33199342D01*
X61353723Y-33104104D01*
X61353723Y-32294580D01*
X61782295Y-32389819D02*
X61829914Y-32342200D01*
X61925152Y-32294580D01*
X62163247Y-32294580D01*
X62258485Y-32342200D01*
X62306104Y-32389819D01*
X62353723Y-32485057D01*
X62353723Y-32580295D01*
X62306104Y-32723152D01*
X61734676Y-33294580D01*
X62353723Y-33294580D01*
X79303571Y-51250028D02*
X79303571Y-50916695D01*
X79827380Y-50773838D02*
X79827380Y-51250028D01*
X78827380Y-51250028D01*
X78827380Y-50773838D01*
X79779761Y-50392885D02*
X79827380Y-50297647D01*
X79827380Y-50107171D01*
X79779761Y-50011933D01*
X79684523Y-49964314D01*
X79636904Y-49964314D01*
X79541666Y-50011933D01*
X79494047Y-50107171D01*
X79494047Y-50250028D01*
X79446428Y-50345266D01*
X79351190Y-50392885D01*
X79303571Y-50392885D01*
X79208333Y-50345266D01*
X79160714Y-50250028D01*
X79160714Y-50107171D01*
X79208333Y-50011933D01*
X79160714Y-49535742D02*
X80160714Y-49535742D01*
X79208333Y-49535742D02*
X79160714Y-49440504D01*
X79160714Y-49250028D01*
X79208333Y-49154790D01*
X79255952Y-49107171D01*
X79351190Y-49059552D01*
X79636904Y-49059552D01*
X79732142Y-49107171D01*
X79779761Y-49154790D01*
X79827380Y-49250028D01*
X79827380Y-49440504D01*
X79779761Y-49535742D01*
X79827380Y-48630980D02*
X79160714Y-48630980D01*
X79351190Y-48630980D02*
X79255952Y-48583361D01*
X79208333Y-48535742D01*
X79160714Y-48440504D01*
X79160714Y-48345266D01*
X79779761Y-47630980D02*
X79827380Y-47726219D01*
X79827380Y-47916695D01*
X79779761Y-48011933D01*
X79684523Y-48059552D01*
X79303571Y-48059552D01*
X79208333Y-48011933D01*
X79160714Y-47916695D01*
X79160714Y-47726219D01*
X79208333Y-47630980D01*
X79303571Y-47583361D01*
X79398809Y-47583361D01*
X79494047Y-48059552D01*
X79779761Y-47202409D02*
X79827380Y-47107171D01*
X79827380Y-46916695D01*
X79779761Y-46821457D01*
X79684523Y-46773838D01*
X79636904Y-46773838D01*
X79541666Y-46821457D01*
X79494047Y-46916695D01*
X79494047Y-47059552D01*
X79446428Y-47154790D01*
X79351190Y-47202409D01*
X79303571Y-47202409D01*
X79208333Y-47154790D01*
X79160714Y-47059552D01*
X79160714Y-46916695D01*
X79208333Y-46821457D01*
X79779761Y-46392885D02*
X79827380Y-46297647D01*
X79827380Y-46107171D01*
X79779761Y-46011933D01*
X79684523Y-45964314D01*
X79636904Y-45964314D01*
X79541666Y-46011933D01*
X79494047Y-46107171D01*
X79494047Y-46250028D01*
X79446428Y-46345266D01*
X79351190Y-46392885D01*
X79303571Y-46392885D01*
X79208333Y-46345266D01*
X79160714Y-46250028D01*
X79160714Y-46107171D01*
X79208333Y-46011933D01*
X79827380Y-45535742D02*
X79160714Y-45535742D01*
X78827380Y-45535742D02*
X78875000Y-45583361D01*
X78922619Y-45535742D01*
X78875000Y-45488123D01*
X78827380Y-45535742D01*
X78922619Y-45535742D01*
X79160714Y-45202409D02*
X79160714Y-44821457D01*
X79827380Y-45059552D02*
X78970238Y-45059552D01*
X78875000Y-45011933D01*
X78827380Y-44916695D01*
X78827380Y-44821457D01*
X79779761Y-43773838D02*
X79827380Y-43630980D01*
X79827380Y-43392885D01*
X79779761Y-43297647D01*
X79732142Y-43250028D01*
X79636904Y-43202409D01*
X79541666Y-43202409D01*
X79446428Y-43250028D01*
X79398809Y-43297647D01*
X79351190Y-43392885D01*
X79303571Y-43583361D01*
X79255952Y-43678600D01*
X79208333Y-43726219D01*
X79113095Y-43773838D01*
X79017857Y-43773838D01*
X78922619Y-43726219D01*
X78875000Y-43678600D01*
X78827380Y-43583361D01*
X78827380Y-43345266D01*
X78875000Y-43202409D01*
X79160714Y-42869076D02*
X79827380Y-42630980D01*
X79160714Y-42392885D02*
X79827380Y-42630980D01*
X80065476Y-42726219D01*
X80113095Y-42773838D01*
X80160714Y-42869076D01*
X79779761Y-42059552D02*
X79827380Y-41964314D01*
X79827380Y-41773838D01*
X79779761Y-41678600D01*
X79684523Y-41630980D01*
X79636904Y-41630980D01*
X79541666Y-41678600D01*
X79494047Y-41773838D01*
X79494047Y-41916695D01*
X79446428Y-42011933D01*
X79351190Y-42059552D01*
X79303571Y-42059552D01*
X79208333Y-42011933D01*
X79160714Y-41916695D01*
X79160714Y-41773838D01*
X79208333Y-41678600D01*
X79160714Y-41345266D02*
X79160714Y-40964314D01*
X78827380Y-41202409D02*
X79684523Y-41202409D01*
X79779761Y-41154790D01*
X79827380Y-41059552D01*
X79827380Y-40964314D01*
X79779761Y-40250028D02*
X79827380Y-40345266D01*
X79827380Y-40535742D01*
X79779761Y-40630980D01*
X79684523Y-40678600D01*
X79303571Y-40678600D01*
X79208333Y-40630980D01*
X79160714Y-40535742D01*
X79160714Y-40345266D01*
X79208333Y-40250028D01*
X79303571Y-40202409D01*
X79398809Y-40202409D01*
X79494047Y-40678600D01*
X79827380Y-39773838D02*
X79160714Y-39773838D01*
X79255952Y-39773838D02*
X79208333Y-39726219D01*
X79160714Y-39630980D01*
X79160714Y-39488123D01*
X79208333Y-39392885D01*
X79303571Y-39345266D01*
X79827380Y-39345266D01*
X79303571Y-39345266D02*
X79208333Y-39297647D01*
X79160714Y-39202409D01*
X79160714Y-39059552D01*
X79208333Y-38964314D01*
X79303571Y-38916695D01*
X79827380Y-38916695D01*
X79779761Y-38488123D02*
X79827380Y-38392885D01*
X79827380Y-38202409D01*
X79779761Y-38107171D01*
X79684523Y-38059552D01*
X79636904Y-38059552D01*
X79541666Y-38107171D01*
X79494047Y-38202409D01*
X79494047Y-38345266D01*
X79446428Y-38440504D01*
X79351190Y-38488123D01*
X79303571Y-38488123D01*
X79208333Y-38440504D01*
X79160714Y-38345266D01*
X79160714Y-38202409D01*
X79208333Y-38107171D01*
X77652571Y-48987980D02*
X77652571Y-48654647D01*
X78176380Y-48511790D02*
X78176380Y-48987980D01*
X77176380Y-48987980D01*
X77176380Y-48511790D01*
X78128761Y-48130838D02*
X78176380Y-47987980D01*
X78176380Y-47749885D01*
X78128761Y-47654647D01*
X78081142Y-47607028D01*
X77985904Y-47559409D01*
X77890666Y-47559409D01*
X77795428Y-47607028D01*
X77747809Y-47654647D01*
X77700190Y-47749885D01*
X77652571Y-47940361D01*
X77604952Y-48035600D01*
X77557333Y-48083219D01*
X77462095Y-48130838D01*
X77366857Y-48130838D01*
X77271619Y-48083219D01*
X77224000Y-48035600D01*
X77176380Y-47940361D01*
X77176380Y-47702266D01*
X77224000Y-47559409D01*
X78176380Y-47130838D02*
X77176380Y-47130838D01*
X77176380Y-46749885D01*
X77224000Y-46654647D01*
X77271619Y-46607028D01*
X77366857Y-46559409D01*
X77509714Y-46559409D01*
X77604952Y-46607028D01*
X77652571Y-46654647D01*
X77700190Y-46749885D01*
X77700190Y-47130838D01*
X77176380Y-46226076D02*
X77176380Y-45607028D01*
X77557333Y-45940361D01*
X77557333Y-45797504D01*
X77604952Y-45702266D01*
X77652571Y-45654647D01*
X77747809Y-45607028D01*
X77985904Y-45607028D01*
X78081142Y-45654647D01*
X78128761Y-45702266D01*
X78176380Y-45797504D01*
X78176380Y-46083219D01*
X78128761Y-46178457D01*
X78081142Y-46226076D01*
X77271619Y-45226076D02*
X77224000Y-45178457D01*
X77176380Y-45083219D01*
X77176380Y-44845123D01*
X77224000Y-44749885D01*
X77271619Y-44702266D01*
X77366857Y-44654647D01*
X77462095Y-44654647D01*
X77604952Y-44702266D01*
X78176380Y-45273695D01*
X78176380Y-44654647D01*
X77795428Y-44226076D02*
X77795428Y-43464171D01*
X77176380Y-43083219D02*
X78176380Y-42845123D01*
X77462095Y-42654647D01*
X78176380Y-42464171D01*
X77176380Y-42226076D01*
X78176380Y-41273695D02*
X77700190Y-41607028D01*
X78176380Y-41845123D02*
X77176380Y-41845123D01*
X77176380Y-41464171D01*
X77224000Y-41368933D01*
X77271619Y-41321314D01*
X77366857Y-41273695D01*
X77509714Y-41273695D01*
X77604952Y-41321314D01*
X77652571Y-41368933D01*
X77700190Y-41464171D01*
X77700190Y-41845123D01*
X77176380Y-40654647D02*
X77176380Y-40464171D01*
X77224000Y-40368933D01*
X77319238Y-40273695D01*
X77509714Y-40226076D01*
X77843047Y-40226076D01*
X78033523Y-40273695D01*
X78128761Y-40368933D01*
X78176380Y-40464171D01*
X78176380Y-40654647D01*
X78128761Y-40749885D01*
X78033523Y-40845123D01*
X77843047Y-40892742D01*
X77509714Y-40892742D01*
X77319238Y-40845123D01*
X77224000Y-40749885D01*
X77176380Y-40654647D01*
X77176380Y-39607028D02*
X77176380Y-39416552D01*
X77224000Y-39321314D01*
X77319238Y-39226076D01*
X77509714Y-39178457D01*
X77843047Y-39178457D01*
X78033523Y-39226076D01*
X78128761Y-39321314D01*
X78176380Y-39416552D01*
X78176380Y-39607028D01*
X78128761Y-39702266D01*
X78033523Y-39797504D01*
X77843047Y-39845123D01*
X77509714Y-39845123D01*
X77319238Y-39797504D01*
X77224000Y-39702266D01*
X77176380Y-39607028D01*
X78176380Y-38749885D02*
X77176380Y-38749885D01*
X77890666Y-38416552D01*
X77176380Y-38083219D01*
X78176380Y-38083219D01*
X52871266Y-58213561D02*
X53014123Y-58261180D01*
X53252219Y-58261180D01*
X53347457Y-58213561D01*
X53395076Y-58165942D01*
X53442695Y-58070704D01*
X53442695Y-57975466D01*
X53395076Y-57880228D01*
X53347457Y-57832609D01*
X53252219Y-57784990D01*
X53061742Y-57737371D01*
X52966504Y-57689752D01*
X52918885Y-57642133D01*
X52871266Y-57546895D01*
X52871266Y-57451657D01*
X52918885Y-57356419D01*
X52966504Y-57308800D01*
X53061742Y-57261180D01*
X53299838Y-57261180D01*
X53442695Y-57308800D01*
X53776028Y-57261180D02*
X54014123Y-58261180D01*
X54204600Y-57546895D01*
X54395076Y-58261180D01*
X54633171Y-57261180D01*
X54918885Y-57261180D02*
X55537933Y-57261180D01*
X55204600Y-57642133D01*
X55347457Y-57642133D01*
X55442695Y-57689752D01*
X55490314Y-57737371D01*
X55537933Y-57832609D01*
X55537933Y-58070704D01*
X55490314Y-58165942D01*
X55442695Y-58213561D01*
X55347457Y-58261180D01*
X55061742Y-58261180D01*
X54966504Y-58213561D01*
X54918885Y-58165942D01*
X42678028Y-43083680D02*
X42344695Y-42607490D01*
X42106600Y-43083680D02*
X42106600Y-42083680D01*
X42487552Y-42083680D01*
X42582790Y-42131300D01*
X42630409Y-42178919D01*
X42678028Y-42274157D01*
X42678028Y-42417014D01*
X42630409Y-42512252D01*
X42582790Y-42559871D01*
X42487552Y-42607490D01*
X42106600Y-42607490D01*
X43249457Y-43083680D02*
X43154219Y-43036061D01*
X43106600Y-42988442D01*
X43058980Y-42893204D01*
X43058980Y-42607490D01*
X43106600Y-42512252D01*
X43154219Y-42464633D01*
X43249457Y-42417014D01*
X43392314Y-42417014D01*
X43487552Y-42464633D01*
X43535171Y-42512252D01*
X43582790Y-42607490D01*
X43582790Y-42893204D01*
X43535171Y-42988442D01*
X43487552Y-43036061D01*
X43392314Y-43083680D01*
X43249457Y-43083680D01*
X43868504Y-42417014D02*
X44249457Y-42417014D01*
X44011361Y-42083680D02*
X44011361Y-42940823D01*
X44058980Y-43036061D01*
X44154219Y-43083680D01*
X44249457Y-43083680D01*
X45011361Y-43083680D02*
X45011361Y-42559871D01*
X44963742Y-42464633D01*
X44868504Y-42417014D01*
X44678028Y-42417014D01*
X44582790Y-42464633D01*
X45011361Y-43036061D02*
X44916123Y-43083680D01*
X44678028Y-43083680D01*
X44582790Y-43036061D01*
X44535171Y-42940823D01*
X44535171Y-42845585D01*
X44582790Y-42750347D01*
X44678028Y-42702728D01*
X44916123Y-42702728D01*
X45011361Y-42655109D01*
X45487552Y-43083680D02*
X45487552Y-42417014D01*
X45487552Y-42607490D02*
X45535171Y-42512252D01*
X45582790Y-42464633D01*
X45678028Y-42417014D01*
X45773266Y-42417014D01*
X46011361Y-42417014D02*
X46249457Y-43083680D01*
X46487552Y-42417014D02*
X46249457Y-43083680D01*
X46154219Y-43321776D01*
X46106600Y-43369395D01*
X46011361Y-43417014D01*
X46630409Y-43178919D02*
X47392314Y-43178919D01*
X47630409Y-42559871D02*
X47963742Y-42559871D01*
X48106600Y-43083680D02*
X47630409Y-43083680D01*
X47630409Y-42083680D01*
X48106600Y-42083680D01*
X48535171Y-42417014D02*
X48535171Y-43083680D01*
X48535171Y-42512252D02*
X48582790Y-42464633D01*
X48678028Y-42417014D01*
X48820885Y-42417014D01*
X48916123Y-42464633D01*
X48963742Y-42559871D01*
X48963742Y-43083680D01*
X49868504Y-43036061D02*
X49773266Y-43083680D01*
X49582790Y-43083680D01*
X49487552Y-43036061D01*
X49439933Y-42988442D01*
X49392314Y-42893204D01*
X49392314Y-42607490D01*
X49439933Y-42512252D01*
X49487552Y-42464633D01*
X49582790Y-42417014D01*
X49773266Y-42417014D01*
X49868504Y-42464633D01*
X50439933Y-43083680D02*
X50344695Y-43036061D01*
X50297076Y-42988442D01*
X50249457Y-42893204D01*
X50249457Y-42607490D01*
X50297076Y-42512252D01*
X50344695Y-42464633D01*
X50439933Y-42417014D01*
X50582790Y-42417014D01*
X50678028Y-42464633D01*
X50725647Y-42512252D01*
X50773266Y-42607490D01*
X50773266Y-42893204D01*
X50725647Y-42988442D01*
X50678028Y-43036061D01*
X50582790Y-43083680D01*
X50439933Y-43083680D01*
X51630409Y-43083680D02*
X51630409Y-42083680D01*
X51630409Y-43036061D02*
X51535171Y-43083680D01*
X51344695Y-43083680D01*
X51249457Y-43036061D01*
X51201838Y-42988442D01*
X51154219Y-42893204D01*
X51154219Y-42607490D01*
X51201838Y-42512252D01*
X51249457Y-42464633D01*
X51344695Y-42417014D01*
X51535171Y-42417014D01*
X51630409Y-42464633D01*
X52487552Y-43036061D02*
X52392314Y-43083680D01*
X52201838Y-43083680D01*
X52106600Y-43036061D01*
X52058980Y-42940823D01*
X52058980Y-42559871D01*
X52106600Y-42464633D01*
X52201838Y-42417014D01*
X52392314Y-42417014D01*
X52487552Y-42464633D01*
X52535171Y-42559871D01*
X52535171Y-42655109D01*
X52058980Y-42750347D01*
X52963742Y-43083680D02*
X52963742Y-42417014D01*
X52963742Y-42607490D02*
X53011361Y-42512252D01*
X53058980Y-42464633D01*
X53154219Y-42417014D01*
X53249457Y-42417014D01*
X80018095Y-80224380D02*
X80589523Y-80224380D01*
X80303809Y-81224380D02*
X80303809Y-80224380D01*
X80922857Y-81224380D02*
X80922857Y-80224380D01*
X81303809Y-80224380D01*
X81399047Y-80272000D01*
X81446666Y-80319619D01*
X81494285Y-80414857D01*
X81494285Y-80557714D01*
X81446666Y-80652952D01*
X81399047Y-80700571D01*
X81303809Y-80748190D01*
X80922857Y-80748190D01*
X82065714Y-80652952D02*
X81970476Y-80605333D01*
X81922857Y-80557714D01*
X81875238Y-80462476D01*
X81875238Y-80414857D01*
X81922857Y-80319619D01*
X81970476Y-80272000D01*
X82065714Y-80224380D01*
X82256190Y-80224380D01*
X82351428Y-80272000D01*
X82399047Y-80319619D01*
X82446666Y-80414857D01*
X82446666Y-80462476D01*
X82399047Y-80557714D01*
X82351428Y-80605333D01*
X82256190Y-80652952D01*
X82065714Y-80652952D01*
X81970476Y-80700571D01*
X81922857Y-80748190D01*
X81875238Y-80843428D01*
X81875238Y-81033904D01*
X81922857Y-81129142D01*
X81970476Y-81176761D01*
X82065714Y-81224380D01*
X82256190Y-81224380D01*
X82351428Y-81176761D01*
X82399047Y-81129142D01*
X82446666Y-81033904D01*
X82446666Y-80843428D01*
X82399047Y-80748190D01*
X82351428Y-80700571D01*
X82256190Y-80652952D01*
X79660952Y-84498380D02*
X79327619Y-84022190D01*
X79089523Y-84498380D02*
X79089523Y-83498380D01*
X79470476Y-83498380D01*
X79565714Y-83546000D01*
X79613333Y-83593619D01*
X79660952Y-83688857D01*
X79660952Y-83831714D01*
X79613333Y-83926952D01*
X79565714Y-83974571D01*
X79470476Y-84022190D01*
X79089523Y-84022190D01*
X80470476Y-84450761D02*
X80375238Y-84498380D01*
X80184761Y-84498380D01*
X80089523Y-84450761D01*
X80041904Y-84355523D01*
X80041904Y-83974571D01*
X80089523Y-83879333D01*
X80184761Y-83831714D01*
X80375238Y-83831714D01*
X80470476Y-83879333D01*
X80518095Y-83974571D01*
X80518095Y-84069809D01*
X80041904Y-84165047D01*
X80899047Y-84450761D02*
X80994285Y-84498380D01*
X81184761Y-84498380D01*
X81280000Y-84450761D01*
X81327619Y-84355523D01*
X81327619Y-84307904D01*
X81280000Y-84212666D01*
X81184761Y-84165047D01*
X81041904Y-84165047D01*
X80946666Y-84117428D01*
X80899047Y-84022190D01*
X80899047Y-83974571D01*
X80946666Y-83879333D01*
X81041904Y-83831714D01*
X81184761Y-83831714D01*
X81280000Y-83879333D01*
X81756190Y-84117428D02*
X82518095Y-84117428D01*
X82946666Y-83593619D02*
X82994285Y-83546000D01*
X83089523Y-83498380D01*
X83327619Y-83498380D01*
X83422857Y-83546000D01*
X83470476Y-83593619D01*
X83518095Y-83688857D01*
X83518095Y-83784095D01*
X83470476Y-83926952D01*
X82899047Y-84498380D01*
X83518095Y-84498380D01*
X80018095Y-85291680D02*
X80589523Y-85291680D01*
X80303809Y-86291680D02*
X80303809Y-85291680D01*
X80922857Y-86291680D02*
X80922857Y-85291680D01*
X81303809Y-85291680D01*
X81399047Y-85339300D01*
X81446666Y-85386919D01*
X81494285Y-85482157D01*
X81494285Y-85625014D01*
X81446666Y-85720252D01*
X81399047Y-85767871D01*
X81303809Y-85815490D01*
X80922857Y-85815490D01*
X81970476Y-86291680D02*
X82160952Y-86291680D01*
X82256190Y-86244061D01*
X82303809Y-86196442D01*
X82399047Y-86053585D01*
X82446666Y-85863109D01*
X82446666Y-85482157D01*
X82399047Y-85386919D01*
X82351428Y-85339300D01*
X82256190Y-85291680D01*
X82065714Y-85291680D01*
X81970476Y-85339300D01*
X81922857Y-85386919D01*
X81875238Y-85482157D01*
X81875238Y-85720252D01*
X81922857Y-85815490D01*
X81970476Y-85863109D01*
X82065714Y-85910728D01*
X82256190Y-85910728D01*
X82351428Y-85863109D01*
X82399047Y-85815490D01*
X82446666Y-85720252D01*
X79660952Y-89578380D02*
X79327619Y-89102190D01*
X79089523Y-89578380D02*
X79089523Y-88578380D01*
X79470476Y-88578380D01*
X79565714Y-88626000D01*
X79613333Y-88673619D01*
X79660952Y-88768857D01*
X79660952Y-88911714D01*
X79613333Y-89006952D01*
X79565714Y-89054571D01*
X79470476Y-89102190D01*
X79089523Y-89102190D01*
X80470476Y-89530761D02*
X80375238Y-89578380D01*
X80184761Y-89578380D01*
X80089523Y-89530761D01*
X80041904Y-89435523D01*
X80041904Y-89054571D01*
X80089523Y-88959333D01*
X80184761Y-88911714D01*
X80375238Y-88911714D01*
X80470476Y-88959333D01*
X80518095Y-89054571D01*
X80518095Y-89149809D01*
X80041904Y-89245047D01*
X80899047Y-89530761D02*
X80994285Y-89578380D01*
X81184761Y-89578380D01*
X81280000Y-89530761D01*
X81327619Y-89435523D01*
X81327619Y-89387904D01*
X81280000Y-89292666D01*
X81184761Y-89245047D01*
X81041904Y-89245047D01*
X80946666Y-89197428D01*
X80899047Y-89102190D01*
X80899047Y-89054571D01*
X80946666Y-88959333D01*
X81041904Y-88911714D01*
X81184761Y-88911714D01*
X81280000Y-88959333D01*
X81756190Y-89197428D02*
X82518095Y-89197428D01*
X83518095Y-89578380D02*
X82946666Y-89578380D01*
X83232380Y-89578380D02*
X83232380Y-88578380D01*
X83137142Y-88721238D01*
X83041904Y-88816476D01*
X82946666Y-88864095D01*
X58127142Y-105642380D02*
X58127142Y-104642380D01*
X58603333Y-105642380D02*
X58603333Y-104642380D01*
X59174761Y-105642380D01*
X59174761Y-104642380D01*
X59650952Y-105261428D02*
X60412857Y-105261428D01*
X60031904Y-105642380D02*
X60031904Y-104880476D01*
X73113142Y-105896380D02*
X73113142Y-104896380D01*
X73589333Y-105896380D02*
X73589333Y-104896380D01*
X74160761Y-105896380D01*
X74160761Y-104896380D01*
X74636952Y-105515428D02*
X75398857Y-105515428D01*
X58920952Y-71622380D02*
X59111428Y-71622380D01*
X59206666Y-71670000D01*
X59301904Y-71765238D01*
X59349523Y-71955714D01*
X59349523Y-72289047D01*
X59301904Y-72479523D01*
X59206666Y-72574761D01*
X59111428Y-72622380D01*
X58920952Y-72622380D01*
X58825714Y-72574761D01*
X58730476Y-72479523D01*
X58682857Y-72289047D01*
X58682857Y-71955714D01*
X58730476Y-71765238D01*
X58825714Y-71670000D01*
X58920952Y-71622380D01*
X59778095Y-71622380D02*
X59778095Y-72431904D01*
X59825714Y-72527142D01*
X59873333Y-72574761D01*
X59968571Y-72622380D01*
X60159047Y-72622380D01*
X60254285Y-72574761D01*
X60301904Y-72527142D01*
X60349523Y-72431904D01*
X60349523Y-71622380D01*
X60682857Y-71622380D02*
X61254285Y-71622380D01*
X60968571Y-72622380D02*
X60968571Y-71622380D01*
X61587619Y-72241428D02*
X62349523Y-72241428D01*
X61968571Y-72622380D02*
X61968571Y-71860476D01*
X75430952Y-71622380D02*
X75621428Y-71622380D01*
X75716666Y-71670000D01*
X75811904Y-71765238D01*
X75859523Y-71955714D01*
X75859523Y-72289047D01*
X75811904Y-72479523D01*
X75716666Y-72574761D01*
X75621428Y-72622380D01*
X75430952Y-72622380D01*
X75335714Y-72574761D01*
X75240476Y-72479523D01*
X75192857Y-72289047D01*
X75192857Y-71955714D01*
X75240476Y-71765238D01*
X75335714Y-71670000D01*
X75430952Y-71622380D01*
X76288095Y-71622380D02*
X76288095Y-72431904D01*
X76335714Y-72527142D01*
X76383333Y-72574761D01*
X76478571Y-72622380D01*
X76669047Y-72622380D01*
X76764285Y-72574761D01*
X76811904Y-72527142D01*
X76859523Y-72431904D01*
X76859523Y-71622380D01*
X77192857Y-71622380D02*
X77764285Y-71622380D01*
X77478571Y-72622380D02*
X77478571Y-71622380D01*
X78097619Y-72241428D02*
X78859523Y-72241428D01*
X74461904Y-111720380D02*
X75033333Y-111720380D01*
X74747619Y-112720380D02*
X74747619Y-111720380D01*
X75366666Y-112720380D02*
X75366666Y-111720380D01*
X75747619Y-111720380D01*
X75842857Y-111768000D01*
X75890476Y-111815619D01*
X75938095Y-111910857D01*
X75938095Y-112053714D01*
X75890476Y-112148952D01*
X75842857Y-112196571D01*
X75747619Y-112244190D01*
X75366666Y-112244190D01*
X76890476Y-112720380D02*
X76319047Y-112720380D01*
X76604761Y-112720380D02*
X76604761Y-111720380D01*
X76509523Y-111863238D01*
X76414285Y-111958476D01*
X76319047Y-112006095D01*
X77509523Y-111720380D02*
X77604761Y-111720380D01*
X77700000Y-111768000D01*
X77747619Y-111815619D01*
X77795238Y-111910857D01*
X77842857Y-112101333D01*
X77842857Y-112339428D01*
X77795238Y-112529904D01*
X77747619Y-112625142D01*
X77700000Y-112672761D01*
X77604761Y-112720380D01*
X77509523Y-112720380D01*
X77414285Y-112672761D01*
X77366666Y-112625142D01*
X77319047Y-112529904D01*
X77271428Y-112339428D01*
X77271428Y-112101333D01*
X77319047Y-111910857D01*
X77366666Y-111815619D01*
X77414285Y-111768000D01*
X77509523Y-111720380D01*
X74018095Y-116276428D02*
X74780000Y-116276428D01*
X74399047Y-116657380D02*
X74399047Y-115895476D01*
X75780000Y-116657380D02*
X75208571Y-116657380D01*
X75494285Y-116657380D02*
X75494285Y-115657380D01*
X75399047Y-115800238D01*
X75303809Y-115895476D01*
X75208571Y-115943095D01*
X76160952Y-115752619D02*
X76208571Y-115705000D01*
X76303809Y-115657380D01*
X76541904Y-115657380D01*
X76637142Y-115705000D01*
X76684761Y-115752619D01*
X76732380Y-115847857D01*
X76732380Y-115943095D01*
X76684761Y-116085952D01*
X76113333Y-116657380D01*
X76732380Y-116657380D01*
X77018095Y-115657380D02*
X77351428Y-116657380D01*
X77684761Y-115657380D01*
X79541904Y-95340380D02*
X80113333Y-95340380D01*
X79827619Y-96340380D02*
X79827619Y-95340380D01*
X80446666Y-96340380D02*
X80446666Y-95340380D01*
X80827619Y-95340380D01*
X80922857Y-95388000D01*
X80970476Y-95435619D01*
X81018095Y-95530857D01*
X81018095Y-95673714D01*
X80970476Y-95768952D01*
X80922857Y-95816571D01*
X80827619Y-95864190D01*
X80446666Y-95864190D01*
X81970476Y-96340380D02*
X81399047Y-96340380D01*
X81684761Y-96340380D02*
X81684761Y-95340380D01*
X81589523Y-95483238D01*
X81494285Y-95578476D01*
X81399047Y-95626095D01*
X82922857Y-96340380D02*
X82351428Y-96340380D01*
X82637142Y-96340380D02*
X82637142Y-95340380D01*
X82541904Y-95483238D01*
X82446666Y-95578476D01*
X82351428Y-95626095D01*
X75628952Y-99738380D02*
X75628952Y-98738380D01*
X76200380Y-99738380D01*
X76200380Y-98738380D01*
X77057523Y-99690761D02*
X76962285Y-99738380D01*
X76771809Y-99738380D01*
X76676571Y-99690761D01*
X76628952Y-99595523D01*
X76628952Y-99214571D01*
X76676571Y-99119333D01*
X76771809Y-99071714D01*
X76962285Y-99071714D01*
X77057523Y-99119333D01*
X77105142Y-99214571D01*
X77105142Y-99309809D01*
X76628952Y-99405047D01*
X77676571Y-99738380D02*
X77581333Y-99690761D01*
X77533714Y-99643142D01*
X77486095Y-99547904D01*
X77486095Y-99262190D01*
X77533714Y-99166952D01*
X77581333Y-99119333D01*
X77676571Y-99071714D01*
X77819428Y-99071714D01*
X77914666Y-99119333D01*
X77962285Y-99166952D01*
X78009904Y-99262190D01*
X78009904Y-99547904D01*
X77962285Y-99643142D01*
X77914666Y-99690761D01*
X77819428Y-99738380D01*
X77676571Y-99738380D01*
X78200380Y-99833619D02*
X78962285Y-99833619D01*
X79628952Y-99071714D02*
X79628952Y-99738380D01*
X79200380Y-99071714D02*
X79200380Y-99595523D01*
X79248000Y-99690761D01*
X79343238Y-99738380D01*
X79486095Y-99738380D01*
X79581333Y-99690761D01*
X79628952Y-99643142D01*
X80105142Y-99071714D02*
X80105142Y-99738380D01*
X80105142Y-99166952D02*
X80152761Y-99119333D01*
X80248000Y-99071714D01*
X80390857Y-99071714D01*
X80486095Y-99119333D01*
X80533714Y-99214571D01*
X80533714Y-99738380D01*
X80867047Y-99071714D02*
X81248000Y-99071714D01*
X81009904Y-98738380D02*
X81009904Y-99595523D01*
X81057523Y-99690761D01*
X81152761Y-99738380D01*
X81248000Y-99738380D01*
X81962285Y-99690761D02*
X81867047Y-99738380D01*
X81676571Y-99738380D01*
X81581333Y-99690761D01*
X81533714Y-99595523D01*
X81533714Y-99214571D01*
X81581333Y-99119333D01*
X81676571Y-99071714D01*
X81867047Y-99071714D01*
X81962285Y-99119333D01*
X82009904Y-99214571D01*
X82009904Y-99309809D01*
X81533714Y-99405047D01*
X82438476Y-99071714D02*
X82438476Y-99738380D01*
X82438476Y-99166952D02*
X82486095Y-99119333D01*
X82581333Y-99071714D01*
X82724190Y-99071714D01*
X82819428Y-99119333D01*
X82867047Y-99214571D01*
X82867047Y-99738380D01*
X79541904Y-90260380D02*
X80113333Y-90260380D01*
X79827619Y-91260380D02*
X79827619Y-90260380D01*
X80446666Y-91260380D02*
X80446666Y-90260380D01*
X80827619Y-90260380D01*
X80922857Y-90308000D01*
X80970476Y-90355619D01*
X81018095Y-90450857D01*
X81018095Y-90593714D01*
X80970476Y-90688952D01*
X80922857Y-90736571D01*
X80827619Y-90784190D01*
X80446666Y-90784190D01*
X81970476Y-91260380D02*
X81399047Y-91260380D01*
X81684761Y-91260380D02*
X81684761Y-90260380D01*
X81589523Y-90403238D01*
X81494285Y-90498476D01*
X81399047Y-90546095D01*
X82351428Y-90355619D02*
X82399047Y-90308000D01*
X82494285Y-90260380D01*
X82732380Y-90260380D01*
X82827619Y-90308000D01*
X82875238Y-90355619D01*
X82922857Y-90450857D01*
X82922857Y-90546095D01*
X82875238Y-90688952D01*
X82303809Y-91260380D01*
X82922857Y-91260380D01*
X76422666Y-94658380D02*
X76422666Y-93658380D01*
X76994095Y-94658380D01*
X76994095Y-93658380D01*
X77851238Y-94610761D02*
X77756000Y-94658380D01*
X77565523Y-94658380D01*
X77470285Y-94610761D01*
X77422666Y-94515523D01*
X77422666Y-94134571D01*
X77470285Y-94039333D01*
X77565523Y-93991714D01*
X77756000Y-93991714D01*
X77851238Y-94039333D01*
X77898857Y-94134571D01*
X77898857Y-94229809D01*
X77422666Y-94325047D01*
X78470285Y-94658380D02*
X78375047Y-94610761D01*
X78327428Y-94563142D01*
X78279809Y-94467904D01*
X78279809Y-94182190D01*
X78327428Y-94086952D01*
X78375047Y-94039333D01*
X78470285Y-93991714D01*
X78613142Y-93991714D01*
X78708380Y-94039333D01*
X78756000Y-94086952D01*
X78803619Y-94182190D01*
X78803619Y-94467904D01*
X78756000Y-94563142D01*
X78708380Y-94610761D01*
X78613142Y-94658380D01*
X78470285Y-94658380D01*
X78994095Y-94753619D02*
X79756000Y-94753619D01*
X80136952Y-94658380D02*
X80041714Y-94610761D01*
X79994095Y-94563142D01*
X79946476Y-94467904D01*
X79946476Y-94182190D01*
X79994095Y-94086952D01*
X80041714Y-94039333D01*
X80136952Y-93991714D01*
X80279809Y-93991714D01*
X80375047Y-94039333D01*
X80422666Y-94086952D01*
X80470285Y-94182190D01*
X80470285Y-94467904D01*
X80422666Y-94563142D01*
X80375047Y-94610761D01*
X80279809Y-94658380D01*
X80136952Y-94658380D01*
X80898857Y-94658380D02*
X80898857Y-93658380D01*
X80898857Y-94039333D02*
X80994095Y-93991714D01*
X81184571Y-93991714D01*
X81279809Y-94039333D01*
X81327428Y-94086952D01*
X81375047Y-94182190D01*
X81375047Y-94467904D01*
X81327428Y-94563142D01*
X81279809Y-94610761D01*
X81184571Y-94658380D01*
X80994095Y-94658380D01*
X80898857Y-94610761D01*
X82184571Y-94610761D02*
X82089333Y-94658380D01*
X81898857Y-94658380D01*
X81803619Y-94610761D01*
X81756000Y-94515523D01*
X81756000Y-94134571D01*
X81803619Y-94039333D01*
X81898857Y-93991714D01*
X82089333Y-93991714D01*
X82184571Y-94039333D01*
X82232190Y-94134571D01*
X82232190Y-94229809D01*
X81756000Y-94325047D01*
X82660761Y-93991714D02*
X82660761Y-94658380D01*
X82660761Y-94086952D02*
X82708380Y-94039333D01*
X82803619Y-93991714D01*
X82946476Y-93991714D01*
X83041714Y-94039333D01*
X83089333Y-94134571D01*
X83089333Y-94658380D01*
M02*
