%TF.GenerationSoftware,KiCad,Pcbnew,(5.0.1)-3*%
%TF.CreationDate,2018-11-18T09:55:05+01:00*%
%TF.ProjectId,ESP32-wood-beam-lamp,45535033322D776F6F642D6265616D2D,rev?*%
%TF.SameCoordinates,Original*%
%TF.FileFunction,Legend,Bot*%
%TF.FilePolarity,Positive*%
%FSLAX46Y46*%
G04 Gerber Fmt 4.6, Leading zero omitted, Abs format (unit mm)*
G04 Created by KiCad (PCBNEW (5.0.1)-3) date 18.11.2018 09:55:05*
%MOMM*%
%LPD*%
G01*
G04 APERTURE LIST*
%ADD10C,0.300000*%
%ADD11C,0.150000*%
%ADD12C,0.010000*%
G04 APERTURE END LIST*
D10*
X70298571Y-104690000D02*
X71798571Y-104190000D01*
X70298571Y-103690000D01*
X71798571Y-103190000D02*
X70798571Y-103190000D01*
X70298571Y-103190000D02*
X70370000Y-103261428D01*
X70441428Y-103190000D01*
X70370000Y-103118571D01*
X70298571Y-103190000D01*
X70441428Y-103190000D01*
X71798571Y-102475714D02*
X70298571Y-102475714D01*
X71227142Y-102332857D02*
X71798571Y-101904285D01*
X70798571Y-101904285D02*
X71370000Y-102475714D01*
X70798571Y-101475714D02*
X70798571Y-100904285D01*
X70298571Y-101261428D02*
X71584285Y-101261428D01*
X71727142Y-101190000D01*
X71798571Y-101047142D01*
X71798571Y-100904285D01*
X71798571Y-100190000D02*
X71727142Y-100332857D01*
X71655714Y-100404285D01*
X71512857Y-100475714D01*
X71084285Y-100475714D01*
X70941428Y-100404285D01*
X70870000Y-100332857D01*
X70798571Y-100190000D01*
X70798571Y-99975714D01*
X70870000Y-99832857D01*
X70941428Y-99761428D01*
X71084285Y-99690000D01*
X71512857Y-99690000D01*
X71655714Y-99761428D01*
X71727142Y-99832857D01*
X71798571Y-99975714D01*
X71798571Y-100190000D01*
X71798571Y-99047142D02*
X70798571Y-99047142D01*
X71084285Y-99047142D02*
X70941428Y-98975714D01*
X70870000Y-98904285D01*
X70798571Y-98761428D01*
X70798571Y-98618571D01*
X71798571Y-96118571D02*
X71084285Y-96618571D01*
X71798571Y-96975714D02*
X70298571Y-96975714D01*
X70298571Y-96404285D01*
X70370000Y-96261428D01*
X70441428Y-96190000D01*
X70584285Y-96118571D01*
X70798571Y-96118571D01*
X70941428Y-96190000D01*
X71012857Y-96261428D01*
X71084285Y-96404285D01*
X71084285Y-96975714D01*
X71727142Y-94904285D02*
X71798571Y-95047142D01*
X71798571Y-95332857D01*
X71727142Y-95475714D01*
X71584285Y-95547142D01*
X71012857Y-95547142D01*
X70870000Y-95475714D01*
X70798571Y-95332857D01*
X70798571Y-95047142D01*
X70870000Y-94904285D01*
X71012857Y-94832857D01*
X71155714Y-94832857D01*
X71298571Y-95547142D01*
X71727142Y-93618571D02*
X71798571Y-93761428D01*
X71798571Y-94047142D01*
X71727142Y-94190000D01*
X71584285Y-94261428D01*
X71012857Y-94261428D01*
X70870000Y-94190000D01*
X70798571Y-94047142D01*
X70798571Y-93761428D01*
X70870000Y-93618571D01*
X71012857Y-93547142D01*
X71155714Y-93547142D01*
X71298571Y-94261428D01*
X71727142Y-92975714D02*
X71798571Y-92832857D01*
X71798571Y-92547142D01*
X71727142Y-92404285D01*
X71584285Y-92332857D01*
X71512857Y-92332857D01*
X71370000Y-92404285D01*
X71298571Y-92547142D01*
X71298571Y-92761428D01*
X71227142Y-92904285D01*
X71084285Y-92975714D01*
X71012857Y-92975714D01*
X70870000Y-92904285D01*
X70798571Y-92761428D01*
X70798571Y-92547142D01*
X70870000Y-92404285D01*
X70441428Y-90618571D02*
X70370000Y-90547142D01*
X70298571Y-90404285D01*
X70298571Y-90047142D01*
X70370000Y-89904285D01*
X70441428Y-89832857D01*
X70584285Y-89761428D01*
X70727142Y-89761428D01*
X70941428Y-89832857D01*
X71798571Y-90690000D01*
X71798571Y-89761428D01*
X70298571Y-88832857D02*
X70298571Y-88690000D01*
X70370000Y-88547142D01*
X70441428Y-88475714D01*
X70584285Y-88404285D01*
X70870000Y-88332857D01*
X71227142Y-88332857D01*
X71512857Y-88404285D01*
X71655714Y-88475714D01*
X71727142Y-88547142D01*
X71798571Y-88690000D01*
X71798571Y-88832857D01*
X71727142Y-88975714D01*
X71655714Y-89047142D01*
X71512857Y-89118571D01*
X71227142Y-89190000D01*
X70870000Y-89190000D01*
X70584285Y-89118571D01*
X70441428Y-89047142D01*
X70370000Y-88975714D01*
X70298571Y-88832857D01*
X71798571Y-86904285D02*
X71798571Y-87761428D01*
X71798571Y-87332857D02*
X70298571Y-87332857D01*
X70512857Y-87475714D01*
X70655714Y-87618571D01*
X70727142Y-87761428D01*
X70941428Y-86047142D02*
X70870000Y-86190000D01*
X70798571Y-86261428D01*
X70655714Y-86332857D01*
X70584285Y-86332857D01*
X70441428Y-86261428D01*
X70370000Y-86190000D01*
X70298571Y-86047142D01*
X70298571Y-85761428D01*
X70370000Y-85618571D01*
X70441428Y-85547142D01*
X70584285Y-85475714D01*
X70655714Y-85475714D01*
X70798571Y-85547142D01*
X70870000Y-85618571D01*
X70941428Y-85761428D01*
X70941428Y-86047142D01*
X71012857Y-86190000D01*
X71084285Y-86261428D01*
X71227142Y-86332857D01*
X71512857Y-86332857D01*
X71655714Y-86261428D01*
X71727142Y-86190000D01*
X71798571Y-86047142D01*
X71798571Y-85761428D01*
X71727142Y-85618571D01*
X71655714Y-85547142D01*
X71512857Y-85475714D01*
X71227142Y-85475714D01*
X71084285Y-85547142D01*
X71012857Y-85618571D01*
X70941428Y-85761428D01*
X71655714Y-84832857D02*
X71727142Y-84761428D01*
X71798571Y-84832857D01*
X71727142Y-84904285D01*
X71655714Y-84832857D01*
X71798571Y-84832857D01*
X71798571Y-83332857D02*
X71798571Y-84190000D01*
X71798571Y-83761428D02*
X70298571Y-83761428D01*
X70512857Y-83904285D01*
X70655714Y-84047142D01*
X70727142Y-84190000D01*
X71798571Y-81904285D02*
X71798571Y-82761428D01*
X71798571Y-82332857D02*
X70298571Y-82332857D01*
X70512857Y-82475714D01*
X70655714Y-82618571D01*
X70727142Y-82761428D01*
X71655714Y-81261428D02*
X71727142Y-81190000D01*
X71798571Y-81261428D01*
X71727142Y-81332857D01*
X71655714Y-81261428D01*
X71798571Y-81261428D01*
X71798571Y-79761428D02*
X71798571Y-80618571D01*
X71798571Y-80190000D02*
X70298571Y-80190000D01*
X70512857Y-80332857D01*
X70655714Y-80475714D01*
X70727142Y-80618571D01*
X70298571Y-79261428D02*
X70298571Y-78261428D01*
X71798571Y-78904285D01*
X68472857Y-104610000D02*
X68472857Y-104110000D01*
X69258571Y-103895714D02*
X69258571Y-104610000D01*
X67758571Y-104610000D01*
X67758571Y-103895714D01*
X69187142Y-103324285D02*
X69258571Y-103110000D01*
X69258571Y-102752857D01*
X69187142Y-102610000D01*
X69115714Y-102538571D01*
X68972857Y-102467142D01*
X68830000Y-102467142D01*
X68687142Y-102538571D01*
X68615714Y-102610000D01*
X68544285Y-102752857D01*
X68472857Y-103038571D01*
X68401428Y-103181428D01*
X68330000Y-103252857D01*
X68187142Y-103324285D01*
X68044285Y-103324285D01*
X67901428Y-103252857D01*
X67830000Y-103181428D01*
X67758571Y-103038571D01*
X67758571Y-102681428D01*
X67830000Y-102467142D01*
X69258571Y-101824285D02*
X67758571Y-101824285D01*
X67758571Y-101252857D01*
X67830000Y-101110000D01*
X67901428Y-101038571D01*
X68044285Y-100967142D01*
X68258571Y-100967142D01*
X68401428Y-101038571D01*
X68472857Y-101110000D01*
X68544285Y-101252857D01*
X68544285Y-101824285D01*
X67758571Y-100467142D02*
X67758571Y-99538571D01*
X68330000Y-100038571D01*
X68330000Y-99824285D01*
X68401428Y-99681428D01*
X68472857Y-99610000D01*
X68615714Y-99538571D01*
X68972857Y-99538571D01*
X69115714Y-99610000D01*
X69187142Y-99681428D01*
X69258571Y-99824285D01*
X69258571Y-100252857D01*
X69187142Y-100395714D01*
X69115714Y-100467142D01*
X67901428Y-98967142D02*
X67830000Y-98895714D01*
X67758571Y-98752857D01*
X67758571Y-98395714D01*
X67830000Y-98252857D01*
X67901428Y-98181428D01*
X68044285Y-98110000D01*
X68187142Y-98110000D01*
X68401428Y-98181428D01*
X69258571Y-99038571D01*
X69258571Y-98110000D01*
X68687142Y-97467142D02*
X68687142Y-96324285D01*
X68258571Y-95752857D02*
X69258571Y-95467142D01*
X68544285Y-95181428D01*
X69258571Y-94895714D01*
X68258571Y-94610000D01*
X69258571Y-93824285D02*
X69187142Y-93967142D01*
X69115714Y-94038571D01*
X68972857Y-94110000D01*
X68544285Y-94110000D01*
X68401428Y-94038571D01*
X68330000Y-93967142D01*
X68258571Y-93824285D01*
X68258571Y-93610000D01*
X68330000Y-93467142D01*
X68401428Y-93395714D01*
X68544285Y-93324285D01*
X68972857Y-93324285D01*
X69115714Y-93395714D01*
X69187142Y-93467142D01*
X69258571Y-93610000D01*
X69258571Y-93824285D01*
X69258571Y-92467142D02*
X69187142Y-92610000D01*
X69115714Y-92681428D01*
X68972857Y-92752857D01*
X68544285Y-92752857D01*
X68401428Y-92681428D01*
X68330000Y-92610000D01*
X68258571Y-92467142D01*
X68258571Y-92252857D01*
X68330000Y-92110000D01*
X68401428Y-92038571D01*
X68544285Y-91967142D01*
X68972857Y-91967142D01*
X69115714Y-92038571D01*
X69187142Y-92110000D01*
X69258571Y-92252857D01*
X69258571Y-92467142D01*
X69258571Y-90681428D02*
X67758571Y-90681428D01*
X69187142Y-90681428D02*
X69258571Y-90824285D01*
X69258571Y-91110000D01*
X69187142Y-91252857D01*
X69115714Y-91324285D01*
X68972857Y-91395714D01*
X68544285Y-91395714D01*
X68401428Y-91324285D01*
X68330000Y-91252857D01*
X68258571Y-91110000D01*
X68258571Y-90824285D01*
X68330000Y-90681428D01*
X68687142Y-89967142D02*
X68687142Y-88824285D01*
X69258571Y-88110000D02*
X67758571Y-88110000D01*
X68330000Y-88110000D02*
X68258571Y-87967142D01*
X68258571Y-87681428D01*
X68330000Y-87538571D01*
X68401428Y-87467142D01*
X68544285Y-87395714D01*
X68972857Y-87395714D01*
X69115714Y-87467142D01*
X69187142Y-87538571D01*
X69258571Y-87681428D01*
X69258571Y-87967142D01*
X69187142Y-88110000D01*
X69187142Y-86181428D02*
X69258571Y-86324285D01*
X69258571Y-86610000D01*
X69187142Y-86752857D01*
X69044285Y-86824285D01*
X68472857Y-86824285D01*
X68330000Y-86752857D01*
X68258571Y-86610000D01*
X68258571Y-86324285D01*
X68330000Y-86181428D01*
X68472857Y-86110000D01*
X68615714Y-86110000D01*
X68758571Y-86824285D01*
X69258571Y-84824285D02*
X68472857Y-84824285D01*
X68330000Y-84895714D01*
X68258571Y-85038571D01*
X68258571Y-85324285D01*
X68330000Y-85467142D01*
X69187142Y-84824285D02*
X69258571Y-84967142D01*
X69258571Y-85324285D01*
X69187142Y-85467142D01*
X69044285Y-85538571D01*
X68901428Y-85538571D01*
X68758571Y-85467142D01*
X68687142Y-85324285D01*
X68687142Y-84967142D01*
X68615714Y-84824285D01*
X69258571Y-84110000D02*
X68258571Y-84110000D01*
X68401428Y-84110000D02*
X68330000Y-84038571D01*
X68258571Y-83895714D01*
X68258571Y-83681428D01*
X68330000Y-83538571D01*
X68472857Y-83467142D01*
X69258571Y-83467142D01*
X68472857Y-83467142D02*
X68330000Y-83395714D01*
X68258571Y-83252857D01*
X68258571Y-83038571D01*
X68330000Y-82895714D01*
X68472857Y-82824285D01*
X69258571Y-82824285D01*
X68687142Y-82110000D02*
X68687142Y-80967142D01*
X69258571Y-80038571D02*
X69187142Y-80181428D01*
X69044285Y-80252857D01*
X67758571Y-80252857D01*
X69258571Y-78824285D02*
X68472857Y-78824285D01*
X68330000Y-78895714D01*
X68258571Y-79038571D01*
X68258571Y-79324285D01*
X68330000Y-79467142D01*
X69187142Y-78824285D02*
X69258571Y-78967142D01*
X69258571Y-79324285D01*
X69187142Y-79467142D01*
X69044285Y-79538571D01*
X68901428Y-79538571D01*
X68758571Y-79467142D01*
X68687142Y-79324285D01*
X68687142Y-78967142D01*
X68615714Y-78824285D01*
X69258571Y-78110000D02*
X68258571Y-78110000D01*
X68401428Y-78110000D02*
X68330000Y-78038571D01*
X68258571Y-77895714D01*
X68258571Y-77681428D01*
X68330000Y-77538571D01*
X68472857Y-77467142D01*
X69258571Y-77467142D01*
X68472857Y-77467142D02*
X68330000Y-77395714D01*
X68258571Y-77252857D01*
X68258571Y-77038571D01*
X68330000Y-76895714D01*
X68472857Y-76824285D01*
X69258571Y-76824285D01*
X68258571Y-76110000D02*
X69758571Y-76110000D01*
X68330000Y-76110000D02*
X68258571Y-75967142D01*
X68258571Y-75681428D01*
X68330000Y-75538571D01*
X68401428Y-75467142D01*
X68544285Y-75395714D01*
X68972857Y-75395714D01*
X69115714Y-75467142D01*
X69187142Y-75538571D01*
X69258571Y-75681428D01*
X69258571Y-75967142D01*
X69187142Y-76110000D01*
X69258571Y-72752857D02*
X68544285Y-73252857D01*
X69258571Y-73610000D02*
X67758571Y-73610000D01*
X67758571Y-73038571D01*
X67830000Y-72895714D01*
X67901428Y-72824285D01*
X68044285Y-72752857D01*
X68258571Y-72752857D01*
X68401428Y-72824285D01*
X68472857Y-72895714D01*
X68544285Y-73038571D01*
X68544285Y-73610000D01*
X69258571Y-71324285D02*
X69258571Y-72181428D01*
X69258571Y-71752857D02*
X67758571Y-71752857D01*
X67972857Y-71895714D01*
X68115714Y-72038571D01*
X68187142Y-72181428D01*
X69115714Y-70681428D02*
X69187142Y-70610000D01*
X69258571Y-70681428D01*
X69187142Y-70752857D01*
X69115714Y-70681428D01*
X69258571Y-70681428D01*
X67758571Y-69681428D02*
X67758571Y-69538571D01*
X67830000Y-69395714D01*
X67901428Y-69324285D01*
X68044285Y-69252857D01*
X68330000Y-69181428D01*
X68687142Y-69181428D01*
X68972857Y-69252857D01*
X69115714Y-69324285D01*
X69187142Y-69395714D01*
X69258571Y-69538571D01*
X69258571Y-69681428D01*
X69187142Y-69824285D01*
X69115714Y-69895714D01*
X68972857Y-69967142D01*
X68687142Y-70038571D01*
X68330000Y-70038571D01*
X68044285Y-69967142D01*
X67901428Y-69895714D01*
X67830000Y-69824285D01*
X67758571Y-69681428D01*
D11*
X41666666Y-130000000D02*
G75*
G03X41666666Y-130000000I-1666666J0D01*
G01*
X37500000Y-130000000D02*
X42500000Y-130000000D01*
X40000000Y-127500000D02*
X40000000Y-132500000D01*
X40000000Y-130000000D02*
X40000000Y-30000000D01*
X100000000Y-130000000D02*
X40000000Y-130000000D01*
X100000000Y-30000000D02*
X100000000Y-130000000D01*
X40000000Y-30000000D02*
X100000000Y-30000000D01*
X70446900Y-44810680D02*
X70045580Y-45359320D01*
X70845680Y-44361100D02*
X70446900Y-44810680D01*
X71396860Y-44109640D02*
X70845680Y-44361100D01*
X71795640Y-44010580D02*
X71396860Y-44109640D01*
X72245220Y-44010580D02*
X71795640Y-44010580D01*
X72796400Y-44211240D02*
X72245220Y-44010580D01*
X73096120Y-44660820D02*
X72796400Y-44211240D01*
X73345040Y-45110400D02*
X73096120Y-44660820D01*
X73296780Y-45559980D02*
X73345040Y-45110400D01*
X73045320Y-46060360D02*
X73296780Y-45559980D01*
X72946260Y-46509940D02*
X73045320Y-46060360D01*
X73195180Y-47109380D02*
X72946260Y-46509940D01*
X68745100Y-45958760D02*
X67746880Y-46459140D01*
X68894960Y-46111160D02*
X68745100Y-45958760D01*
X68894960Y-46509940D02*
X68894960Y-46111160D01*
X69296280Y-45958760D02*
X69695060Y-46410880D01*
X69395340Y-45359320D02*
X69296280Y-45958760D01*
X70045580Y-45659040D02*
X69395340Y-45359320D01*
X71145400Y-46360080D02*
X70045580Y-45659040D01*
X71396860Y-46560740D02*
X71145400Y-46360080D01*
X71696580Y-47160180D02*
X71396860Y-46560740D01*
X71795640Y-47609760D02*
X71696580Y-47160180D01*
X71645780Y-48059340D02*
X71795640Y-47609760D01*
X71744840Y-48460660D02*
X71645780Y-48059340D01*
X71945500Y-48910240D02*
X71744840Y-48460660D01*
X71897240Y-49458880D02*
X71945500Y-48910240D01*
X71445120Y-50060860D02*
X71897240Y-49458880D01*
X70794880Y-50759360D02*
X71445120Y-50060860D01*
X69596000Y-51511200D02*
X70794880Y-50759360D01*
X69844920Y-52158900D02*
X69596000Y-51511200D01*
X70345300Y-52710080D02*
X69844920Y-52158900D01*
X71247000Y-53009800D02*
X70345300Y-52710080D01*
X71945500Y-52910740D02*
X71247000Y-53009800D01*
X72745600Y-52461160D02*
X71945500Y-52910740D01*
X73146920Y-51859180D02*
X72745600Y-52461160D01*
X73296780Y-51511200D02*
X73146920Y-51859180D01*
X73345040Y-51109880D02*
X73296780Y-51511200D01*
X73195180Y-50159920D02*
X73345040Y-51109880D01*
X73146920Y-49509680D02*
X73195180Y-50159920D01*
X73296780Y-49110900D02*
X73146920Y-49509680D01*
X72946260Y-49309020D02*
X73296780Y-49110900D01*
X72694800Y-49860200D02*
X72946260Y-49309020D01*
X72745600Y-50210720D02*
X72694800Y-49860200D01*
X72595740Y-50860960D02*
X72745600Y-50210720D01*
X72445880Y-51310540D02*
X72595740Y-50860960D01*
X72196960Y-51610260D02*
X72445880Y-51310540D01*
X71546720Y-51709320D02*
X72196960Y-51610260D01*
X71046340Y-51511200D02*
X71546720Y-51709320D01*
X70896480Y-51059080D02*
X71046340Y-51511200D01*
X71295260Y-50711100D02*
X70896480Y-51059080D01*
X71744840Y-50258980D02*
X71295260Y-50711100D01*
X72146160Y-49659540D02*
X71744840Y-50258980D01*
X72196960Y-49159160D02*
X72146160Y-49659540D01*
X72095360Y-48658780D02*
X72196960Y-49159160D01*
X71945500Y-48359060D02*
X72095360Y-48658780D01*
X71897240Y-48160940D02*
X71945500Y-48359060D01*
X72146160Y-47660560D02*
X71897240Y-48160940D01*
X72146160Y-47259240D02*
X72146160Y-47660560D01*
X71996300Y-46959520D02*
X72146160Y-47259240D01*
X71795640Y-46710600D02*
X71996300Y-46959520D01*
X71495920Y-46261020D02*
X71795640Y-46710600D01*
X71346060Y-45910500D02*
X71495920Y-46261020D01*
X71396860Y-45610780D02*
X71346060Y-45910500D01*
X71645780Y-45311060D02*
X71396860Y-45610780D01*
X71945500Y-45359320D02*
X71645780Y-45311060D01*
X72346820Y-45559980D02*
X71945500Y-45359320D01*
X72395080Y-45910500D02*
X72346820Y-45559980D01*
X72395080Y-46360080D02*
X72395080Y-45910500D01*
X72496680Y-46710600D02*
X72395080Y-46360080D01*
X73096120Y-47160180D02*
X72496680Y-46710600D01*
X70345300Y-49710340D02*
X70896480Y-49110900D01*
X69395340Y-49860200D02*
X70345300Y-49710340D01*
X69044820Y-50360580D02*
X69395340Y-49860200D01*
X68496180Y-51760120D02*
X69044820Y-50360580D01*
X69245480Y-51259740D02*
X68496180Y-51760120D01*
X69844920Y-51259740D02*
X69245480Y-51259740D01*
X71295260Y-47861220D02*
X71645780Y-47609760D01*
X71145400Y-48260000D02*
X71295260Y-47861220D01*
X69796660Y-48658780D02*
X69994780Y-48260000D01*
X69796660Y-49060100D02*
X69796660Y-48658780D01*
X70045580Y-49260760D02*
X69796660Y-49060100D01*
X70297040Y-49009300D02*
X70045580Y-49260760D01*
X70195440Y-48559720D02*
X70297040Y-49009300D01*
X70045580Y-48209200D02*
X70195440Y-48559720D01*
X69994780Y-46509940D02*
X70096380Y-46959520D01*
X70246240Y-46410880D02*
X69994780Y-46509940D01*
X70446900Y-46509940D02*
X70246240Y-46410880D01*
X70545960Y-46911260D02*
X70446900Y-46509940D01*
X70195440Y-47061120D02*
X70545960Y-46911260D01*
X68196460Y-47510700D02*
X68445380Y-47360840D01*
X68094860Y-47609760D02*
X68196460Y-47510700D01*
X68094860Y-47909480D02*
X68094860Y-47609760D01*
X68247260Y-48160940D02*
X68094860Y-47909480D01*
X68646040Y-48209200D02*
X68247260Y-48160940D01*
X68795900Y-47810420D02*
X68646040Y-48209200D01*
X68445380Y-47360840D02*
X68795900Y-47810420D01*
X68346320Y-46509940D02*
X68196460Y-46609000D01*
X69296280Y-47409100D02*
X69146420Y-47310040D01*
X69695060Y-47558960D02*
X69296280Y-47409100D01*
X70147180Y-47609760D02*
X69695060Y-47558960D01*
X69197220Y-48359060D02*
X69146420Y-48559720D01*
X69296280Y-48160940D02*
X69197220Y-48359060D01*
X69296280Y-48011080D02*
X69296280Y-48160940D01*
X69296280Y-47708820D02*
X69296280Y-48011080D01*
X69146420Y-47409100D02*
X69296280Y-47708820D01*
X68894960Y-46659800D02*
X68894960Y-46459140D01*
X68795900Y-46860460D02*
X68894960Y-46659800D01*
X68795900Y-47010320D02*
X68795900Y-46860460D01*
X68945760Y-47160180D02*
X68795900Y-47010320D01*
X69095620Y-47259240D02*
X68945760Y-47160180D01*
X69596000Y-46509940D02*
X68945760Y-46560740D01*
X67294760Y-46860460D02*
X67096640Y-46509940D01*
X67645280Y-47010320D02*
X67294760Y-46860460D01*
X67746880Y-46609000D02*
X67645280Y-47010320D01*
X67746880Y-46459140D02*
X67746880Y-46609000D01*
X68496180Y-49110900D02*
X68546980Y-49410620D01*
X68247260Y-48961040D02*
X68496180Y-49110900D01*
X67746880Y-48811180D02*
X68247260Y-48961040D01*
X67396360Y-48610520D02*
X67746880Y-48811180D01*
X67195700Y-48460660D02*
X67396360Y-48610520D01*
X67045840Y-48011080D02*
X67195700Y-48460660D01*
X66995040Y-47510700D02*
X67045840Y-48011080D01*
X66946780Y-47061120D02*
X66995040Y-47510700D01*
X67045840Y-46459140D02*
X66946780Y-47061120D01*
X66695320Y-47259240D02*
X66695320Y-47010320D01*
X66946780Y-47660560D02*
X66695320Y-47259240D01*
X64996060Y-46809660D02*
X64696340Y-46959520D01*
X65295780Y-46710600D02*
X64996060Y-46809660D01*
X65646300Y-46809660D02*
X65295780Y-46710600D01*
X65846960Y-47061120D02*
X65646300Y-46809660D01*
X66045080Y-47259240D02*
X65846960Y-47061120D01*
X66245740Y-47310040D02*
X66045080Y-47259240D01*
X66395600Y-47259240D02*
X66245740Y-47310040D01*
X66497200Y-46710600D02*
X66395600Y-47259240D01*
X66545460Y-46509940D02*
X66497200Y-46710600D01*
X66545460Y-46758860D02*
X66545460Y-46509940D01*
X66647060Y-47010320D02*
X66545460Y-46758860D01*
X64696340Y-46959520D02*
X64696340Y-46911260D01*
X64495680Y-47510700D02*
X64246760Y-47360840D01*
X64897000Y-47360840D02*
X64495680Y-47510700D01*
X65346580Y-47310040D02*
X64897000Y-47360840D01*
X65547240Y-47708820D02*
X65346580Y-47310040D01*
X65846960Y-48011080D02*
X65547240Y-47708820D01*
X66296540Y-47810420D02*
X65846960Y-48011080D01*
X63845440Y-48110140D02*
X63644780Y-47909480D01*
X64396620Y-48160940D02*
X63845440Y-48110140D01*
X64594740Y-48110140D02*
X64396620Y-48160940D01*
X64897000Y-48059340D02*
X64594740Y-48110140D01*
X65095120Y-48209200D02*
X64897000Y-48059340D01*
X65295780Y-48460660D02*
X65095120Y-48209200D01*
X65496440Y-48559720D02*
X65295780Y-48460660D01*
X65895220Y-48409860D02*
X65496440Y-48559720D01*
X63797180Y-48961040D02*
X63644780Y-48910240D01*
X64096900Y-48910240D02*
X63797180Y-48961040D01*
X64444880Y-49260760D02*
X64096900Y-48910240D01*
X64546480Y-48859440D02*
X64444880Y-49260760D01*
X64846200Y-48961040D02*
X64546480Y-48859440D01*
X65244980Y-49159160D02*
X64846200Y-48961040D01*
X63596520Y-48859440D02*
X63494920Y-48910240D01*
X65796160Y-49659540D02*
X65346580Y-49110900D01*
X66497200Y-49458880D02*
X65796160Y-49659540D01*
X66895980Y-50010060D02*
X66497200Y-49458880D01*
X67546220Y-49809400D02*
X66895980Y-50010060D01*
X67845940Y-50258980D02*
X67546220Y-49809400D01*
X68295520Y-50159920D02*
X67845940Y-50258980D01*
X68745100Y-50459640D02*
X68295520Y-50159920D01*
X65595500Y-50010060D02*
X65646300Y-49809400D01*
X68247260Y-51010820D02*
X68745100Y-51010820D01*
X67746880Y-51010820D02*
X68247260Y-51010820D01*
X67345560Y-50960020D02*
X67746880Y-51010820D01*
X66946780Y-50909220D02*
X67345560Y-50960020D01*
X66545460Y-50810160D02*
X66946780Y-50909220D01*
X66245740Y-50759360D02*
X66545460Y-50810160D01*
X65996820Y-50510440D02*
X66245740Y-50759360D01*
X65796160Y-50360580D02*
X65996820Y-50510440D01*
X65595500Y-50109120D02*
X65796160Y-50360580D01*
X71795640Y-49060100D02*
X71795640Y-48709580D01*
X71445120Y-49809400D02*
X71795640Y-49060100D01*
X71145400Y-50309780D02*
X71445120Y-49809400D01*
X71897240Y-47409100D02*
X71846440Y-47160180D01*
X73245980Y-45460920D02*
X72544940Y-46609000D01*
X72544940Y-45958760D02*
X73245980Y-45460920D01*
X72745600Y-44211240D02*
X72544940Y-45958760D01*
X72296020Y-45359320D02*
X72745600Y-44211240D01*
X71594980Y-44109640D02*
X72296020Y-45359320D01*
X71846440Y-45110400D02*
X71594980Y-44109640D01*
X70746620Y-44660820D02*
X71846440Y-45110400D01*
X71445120Y-45410120D02*
X70746620Y-44660820D01*
X70345300Y-45161200D02*
X71445120Y-45410120D01*
X71196200Y-46459140D02*
X70345300Y-45161200D01*
X71396860Y-46860460D02*
X71196200Y-46459140D01*
X71594980Y-47510700D02*
X71396860Y-46860460D01*
X73296780Y-51059080D02*
X72796400Y-49959260D01*
X72646540Y-51010820D02*
X73296780Y-51059080D01*
X72895460Y-52059840D02*
X72646540Y-51010820D01*
X72395080Y-51559460D02*
X72895460Y-52059840D01*
X71996300Y-52809140D02*
X72395080Y-51559460D01*
X71744840Y-51661060D02*
X71996300Y-52809140D01*
X71396860Y-52959000D02*
X71744840Y-51661060D01*
X70944740Y-52859940D02*
X71396860Y-52959000D01*
X71594980Y-51810920D02*
X70944740Y-52859940D01*
X70297040Y-52509420D02*
X71594980Y-51810920D01*
X71097140Y-51559460D02*
X70297040Y-52509420D01*
X69946520Y-52009040D02*
X71097140Y-51559460D01*
X70746620Y-51010820D02*
X69946520Y-52009040D01*
X63296800Y-53759100D02*
X63395860Y-54010560D01*
X62745620Y-53809900D02*
X63296800Y-53759100D01*
X62745620Y-54211220D02*
X62745620Y-53809900D01*
X62895480Y-54510940D02*
X62745620Y-54211220D01*
X63296800Y-54660800D02*
X62895480Y-54510940D01*
X63746380Y-54660800D02*
X63296800Y-54660800D01*
X64145160Y-54460140D02*
X63746380Y-54660800D01*
X64295020Y-54010560D02*
X64145160Y-54460140D01*
X64195960Y-53809900D02*
X64295020Y-54010560D01*
X62745620Y-52209700D02*
X64246760Y-52209700D01*
X64246760Y-53060600D02*
X62745620Y-52209700D01*
X62694820Y-53060600D02*
X64246760Y-53060600D01*
X63146940Y-50609500D02*
X64246760Y-50609500D01*
X62847220Y-50711100D02*
X63146940Y-50609500D01*
X62694820Y-51010820D02*
X62847220Y-50711100D01*
X62847220Y-51358800D02*
X62694820Y-51010820D01*
X63096140Y-51511200D02*
X62847220Y-51358800D01*
X64246760Y-51511200D02*
X63096140Y-51511200D01*
X63395860Y-45260260D02*
X63395860Y-45559980D01*
X62895480Y-45260260D02*
X63395860Y-45260260D01*
X62796420Y-45709840D02*
X62895480Y-45260260D01*
X62946280Y-46060360D02*
X62796420Y-45709840D01*
X63395860Y-46210220D02*
X62946280Y-46060360D01*
X63896240Y-46159420D02*
X63395860Y-46210220D01*
X64246760Y-45859700D02*
X63896240Y-46159420D01*
X64295020Y-45559980D02*
X64246760Y-45859700D01*
X64195960Y-45311060D02*
X64295020Y-45559980D01*
X63545720Y-44010580D02*
X63596520Y-44510960D01*
X63695580Y-43710860D02*
X63545720Y-44010580D01*
X64096900Y-43809920D02*
X63695580Y-43710860D01*
X64295020Y-44058840D02*
X64096900Y-43809920D01*
X64246760Y-44610020D02*
X64295020Y-44058840D01*
X62796420Y-44610020D02*
X64246760Y-44610020D01*
X62745620Y-43060620D02*
X62745620Y-42359580D01*
X64345820Y-43060620D02*
X62745620Y-43060620D01*
D12*
G36*
X54823002Y-108502986D02*
X54822137Y-108344994D01*
X54819795Y-108230653D01*
X54815238Y-108152593D01*
X54807730Y-108103446D01*
X54796534Y-108075841D01*
X54780912Y-108062408D01*
X54760127Y-108055779D01*
X54757437Y-108055135D01*
X54708887Y-108045065D01*
X54613095Y-108026425D01*
X54480257Y-108001155D01*
X54320569Y-107971193D01*
X54144226Y-107938478D01*
X54138033Y-107937336D01*
X53965218Y-107904567D01*
X53812531Y-107873907D01*
X53689129Y-107847336D01*
X53604169Y-107826833D01*
X53566810Y-107814374D01*
X53566148Y-107813780D01*
X53547905Y-107777081D01*
X53517503Y-107701414D01*
X53481507Y-107603122D01*
X53481315Y-107602575D01*
X53434778Y-107478767D01*
X53375496Y-107332804D01*
X53315891Y-107195219D01*
X53312944Y-107188707D01*
X53211235Y-106964610D01*
X53550103Y-106468381D01*
X53653408Y-106316154D01*
X53745763Y-106178259D01*
X53821916Y-106062685D01*
X53876615Y-105977421D01*
X53904607Y-105930456D01*
X53906683Y-105925996D01*
X53897440Y-105891866D01*
X53852844Y-105828119D01*
X53770791Y-105732269D01*
X53649179Y-105601831D01*
X53519795Y-105468672D01*
X53392298Y-105340306D01*
X53275954Y-105225419D01*
X53177948Y-105130927D01*
X53105464Y-105063747D01*
X53065687Y-105030794D01*
X53063639Y-105029568D01*
X53036344Y-105025926D01*
X52991766Y-105039650D01*
X52923888Y-105074131D01*
X52826689Y-105132761D01*
X52694149Y-105218930D01*
X52523524Y-105333800D01*
X52373345Y-105435746D01*
X52238650Y-105526877D01*
X52127260Y-105601927D01*
X52046995Y-105655631D01*
X52005675Y-105682720D01*
X52002870Y-105684426D01*
X51963279Y-105681118D01*
X51886331Y-105656047D01*
X51786568Y-105614202D01*
X51754709Y-105599288D01*
X51612774Y-105534214D01*
X51451727Y-105464788D01*
X51312379Y-105408391D01*
X51208956Y-105367753D01*
X51130358Y-105335474D01*
X51089280Y-105316822D01*
X51086115Y-105314503D01*
X51080872Y-105280197D01*
X51066506Y-105199331D01*
X51045063Y-105082657D01*
X51018587Y-104940925D01*
X50989123Y-104784890D01*
X50958717Y-104625302D01*
X50929412Y-104472915D01*
X50903255Y-104338479D01*
X50882290Y-104232748D01*
X50868561Y-104166474D01*
X50864680Y-104150218D01*
X50855100Y-104133427D01*
X50833464Y-104120751D01*
X50792469Y-104111622D01*
X50724811Y-104105469D01*
X50623188Y-104101720D01*
X50480297Y-104099808D01*
X50288835Y-104099160D01*
X50210355Y-104099126D01*
X49572094Y-104099126D01*
X49541840Y-104252402D01*
X49525436Y-104337678D01*
X49501491Y-104464930D01*
X49472893Y-104618685D01*
X49442533Y-104783466D01*
X49434194Y-104829011D01*
X49404630Y-104981068D01*
X49375558Y-105113532D01*
X49349671Y-105215286D01*
X49329663Y-105275212D01*
X49323699Y-105285195D01*
X49281466Y-105309707D01*
X49199630Y-105344852D01*
X49094317Y-105383827D01*
X49071632Y-105391558D01*
X48930982Y-105442640D01*
X48772286Y-105506046D01*
X48629775Y-105568096D01*
X48629114Y-105568402D01*
X48405560Y-105671733D01*
X47405768Y-104992039D01*
X46968700Y-105428379D01*
X46838619Y-105560351D01*
X46723952Y-105680721D01*
X46630819Y-105782727D01*
X46565342Y-105859609D01*
X46533643Y-105904607D01*
X46531632Y-105911062D01*
X46547471Y-105948960D01*
X46591504Y-106026292D01*
X46658510Y-106134611D01*
X46743266Y-106265468D01*
X46838184Y-106406948D01*
X46935002Y-106550539D01*
X47019249Y-106678565D01*
X47085742Y-106782895D01*
X47129298Y-106855400D01*
X47144736Y-106887842D01*
X47131672Y-106927424D01*
X47097250Y-107002481D01*
X47048620Y-107097532D01*
X47043215Y-107107608D01*
X46979020Y-107235609D01*
X46947537Y-107323382D01*
X46947202Y-107377972D01*
X46976452Y-107406425D01*
X46976862Y-107406590D01*
X47011502Y-107420812D01*
X47093731Y-107454731D01*
X47217186Y-107505716D01*
X47375502Y-107571138D01*
X47562314Y-107648366D01*
X47771258Y-107734771D01*
X47973554Y-107818449D01*
X48196800Y-107910412D01*
X48403608Y-107994850D01*
X48587638Y-108069231D01*
X48742549Y-108131026D01*
X48862004Y-108177703D01*
X48939661Y-108206732D01*
X48968644Y-108215678D01*
X49001890Y-108193244D01*
X49054877Y-108134561D01*
X49113296Y-108056311D01*
X49298048Y-107833466D01*
X49509818Y-107659282D01*
X49744144Y-107535846D01*
X49996566Y-107465246D01*
X50262623Y-107449569D01*
X50385425Y-107460964D01*
X50640207Y-107523050D01*
X50865199Y-107629977D01*
X51058183Y-107775111D01*
X51216939Y-107951822D01*
X51339250Y-108153478D01*
X51422895Y-108373446D01*
X51465656Y-108605094D01*
X51465313Y-108841791D01*
X51419648Y-109076905D01*
X51326441Y-109303804D01*
X51183473Y-109515856D01*
X51102617Y-109604364D01*
X50894993Y-109774111D01*
X50668105Y-109892301D01*
X50428567Y-109959722D01*
X50182993Y-109977160D01*
X49937997Y-109945402D01*
X49700192Y-109865235D01*
X49476193Y-109737445D01*
X49272613Y-109562820D01*
X49113296Y-109367688D01*
X49052398Y-109286409D01*
X48999985Y-109228991D01*
X48968594Y-109208322D01*
X48934361Y-109219144D01*
X48852581Y-109249923D01*
X48729593Y-109298126D01*
X48571737Y-109361222D01*
X48385351Y-109436678D01*
X48176774Y-109521962D01*
X47973504Y-109605781D01*
X47750067Y-109698255D01*
X47543016Y-109783911D01*
X47358714Y-109860118D01*
X47203525Y-109924247D01*
X47083812Y-109973668D01*
X47005939Y-110005752D01*
X46976862Y-110017641D01*
X46947323Y-110045726D01*
X46947409Y-110100051D01*
X46978674Y-110187605D01*
X47042671Y-110315381D01*
X47043215Y-110316392D01*
X47092879Y-110412598D01*
X47129055Y-110490369D01*
X47144592Y-110534223D01*
X47144736Y-110536158D01*
X47128976Y-110569171D01*
X47085150Y-110642054D01*
X47018443Y-110746678D01*
X46934036Y-110874910D01*
X46838184Y-111017052D01*
X46741133Y-111161767D01*
X46656730Y-111292196D01*
X46590199Y-111399890D01*
X46546762Y-111476402D01*
X46531632Y-111512938D01*
X46551518Y-111546582D01*
X46607097Y-111614224D01*
X46692246Y-111709107D01*
X46800847Y-111824470D01*
X46926779Y-111953555D01*
X46968851Y-111995771D01*
X47406069Y-112432261D01*
X47893660Y-112100023D01*
X48043395Y-111999054D01*
X48177780Y-111910438D01*
X48289031Y-111839146D01*
X48369361Y-111790150D01*
X48410986Y-111768422D01*
X48413947Y-111767785D01*
X48453182Y-111779240D01*
X48532105Y-111810051D01*
X48637491Y-111854884D01*
X48708046Y-111886353D01*
X48843124Y-111945192D01*
X48979591Y-112000604D01*
X49094897Y-112043564D01*
X49130023Y-112055234D01*
X49223826Y-112088389D01*
X49296306Y-112120799D01*
X49323699Y-112138601D01*
X49340464Y-112177886D01*
X49364230Y-112263626D01*
X49392303Y-112384697D01*
X49421991Y-112529973D01*
X49434194Y-112594988D01*
X49464532Y-112760087D01*
X49493907Y-112918448D01*
X49519431Y-113054596D01*
X49538215Y-113153057D01*
X49541840Y-113171598D01*
X49572094Y-113324873D01*
X50210355Y-113324873D01*
X50420230Y-113324529D01*
X50579020Y-113323116D01*
X50694027Y-113320064D01*
X50772554Y-113314803D01*
X50821904Y-113306763D01*
X50849381Y-113295373D01*
X50862287Y-113280063D01*
X50864680Y-113273782D01*
X50873167Y-113235896D01*
X50890100Y-113152195D01*
X50913434Y-113033433D01*
X50941125Y-112890361D01*
X50971127Y-112733732D01*
X51001396Y-112574297D01*
X51029885Y-112422809D01*
X51054551Y-112290019D01*
X51073349Y-112186681D01*
X51084233Y-112123545D01*
X51086115Y-112109497D01*
X51111296Y-112096770D01*
X51178378Y-112068600D01*
X51274667Y-112030252D01*
X51312379Y-112015609D01*
X51458079Y-111956548D01*
X51619049Y-111887000D01*
X51754709Y-111824712D01*
X51858439Y-111778879D01*
X51943674Y-111748387D01*
X51995874Y-111738208D01*
X52002870Y-111739831D01*
X52035898Y-111761343D01*
X52109357Y-111810465D01*
X52215423Y-111881923D01*
X52346274Y-111970445D01*
X52494088Y-112070759D01*
X52523266Y-112090594D01*
X52696137Y-112206988D01*
X52827774Y-112292548D01*
X52924239Y-112350684D01*
X52991592Y-112384808D01*
X53035894Y-112398331D01*
X53063206Y-112394664D01*
X53063380Y-112394570D01*
X53099254Y-112365707D01*
X53168609Y-112301867D01*
X53264255Y-112209969D01*
X53379001Y-112096933D01*
X53505659Y-111969679D01*
X53519795Y-111955328D01*
X53675097Y-111794957D01*
X53789130Y-111671195D01*
X53863998Y-111581555D01*
X53901804Y-111523552D01*
X53906683Y-111498004D01*
X53885397Y-111460718D01*
X53836227Y-111383343D01*
X53764425Y-111273867D01*
X53675245Y-111140280D01*
X53573937Y-110990570D01*
X53550103Y-110955618D01*
X53211235Y-110459390D01*
X53312944Y-110235293D01*
X53372217Y-110099011D01*
X53431830Y-109952724D01*
X53479360Y-109826965D01*
X53481315Y-109821425D01*
X53517323Y-109723057D01*
X53547771Y-109647229D01*
X53566095Y-109610282D01*
X53566148Y-109610220D01*
X53599271Y-109598496D01*
X53680733Y-109578568D01*
X53801375Y-109552413D01*
X53952041Y-109522010D01*
X54123572Y-109489337D01*
X54138033Y-109486664D01*
X54314765Y-109453890D01*
X54475190Y-109423802D01*
X54609112Y-109398339D01*
X54706337Y-109379441D01*
X54756668Y-109369047D01*
X54757437Y-109368865D01*
X54778847Y-109362539D01*
X54795012Y-109350239D01*
X54806669Y-109324594D01*
X54814555Y-109278235D01*
X54819407Y-109203792D01*
X54821961Y-109093895D01*
X54822955Y-108941175D01*
X54823126Y-108738262D01*
X54823126Y-108712000D01*
X54823002Y-108502986D01*
X54823002Y-108502986D01*
G37*
X54823002Y-108502986D02*
X54822137Y-108344994D01*
X54819795Y-108230653D01*
X54815238Y-108152593D01*
X54807730Y-108103446D01*
X54796534Y-108075841D01*
X54780912Y-108062408D01*
X54760127Y-108055779D01*
X54757437Y-108055135D01*
X54708887Y-108045065D01*
X54613095Y-108026425D01*
X54480257Y-108001155D01*
X54320569Y-107971193D01*
X54144226Y-107938478D01*
X54138033Y-107937336D01*
X53965218Y-107904567D01*
X53812531Y-107873907D01*
X53689129Y-107847336D01*
X53604169Y-107826833D01*
X53566810Y-107814374D01*
X53566148Y-107813780D01*
X53547905Y-107777081D01*
X53517503Y-107701414D01*
X53481507Y-107603122D01*
X53481315Y-107602575D01*
X53434778Y-107478767D01*
X53375496Y-107332804D01*
X53315891Y-107195219D01*
X53312944Y-107188707D01*
X53211235Y-106964610D01*
X53550103Y-106468381D01*
X53653408Y-106316154D01*
X53745763Y-106178259D01*
X53821916Y-106062685D01*
X53876615Y-105977421D01*
X53904607Y-105930456D01*
X53906683Y-105925996D01*
X53897440Y-105891866D01*
X53852844Y-105828119D01*
X53770791Y-105732269D01*
X53649179Y-105601831D01*
X53519795Y-105468672D01*
X53392298Y-105340306D01*
X53275954Y-105225419D01*
X53177948Y-105130927D01*
X53105464Y-105063747D01*
X53065687Y-105030794D01*
X53063639Y-105029568D01*
X53036344Y-105025926D01*
X52991766Y-105039650D01*
X52923888Y-105074131D01*
X52826689Y-105132761D01*
X52694149Y-105218930D01*
X52523524Y-105333800D01*
X52373345Y-105435746D01*
X52238650Y-105526877D01*
X52127260Y-105601927D01*
X52046995Y-105655631D01*
X52005675Y-105682720D01*
X52002870Y-105684426D01*
X51963279Y-105681118D01*
X51886331Y-105656047D01*
X51786568Y-105614202D01*
X51754709Y-105599288D01*
X51612774Y-105534214D01*
X51451727Y-105464788D01*
X51312379Y-105408391D01*
X51208956Y-105367753D01*
X51130358Y-105335474D01*
X51089280Y-105316822D01*
X51086115Y-105314503D01*
X51080872Y-105280197D01*
X51066506Y-105199331D01*
X51045063Y-105082657D01*
X51018587Y-104940925D01*
X50989123Y-104784890D01*
X50958717Y-104625302D01*
X50929412Y-104472915D01*
X50903255Y-104338479D01*
X50882290Y-104232748D01*
X50868561Y-104166474D01*
X50864680Y-104150218D01*
X50855100Y-104133427D01*
X50833464Y-104120751D01*
X50792469Y-104111622D01*
X50724811Y-104105469D01*
X50623188Y-104101720D01*
X50480297Y-104099808D01*
X50288835Y-104099160D01*
X50210355Y-104099126D01*
X49572094Y-104099126D01*
X49541840Y-104252402D01*
X49525436Y-104337678D01*
X49501491Y-104464930D01*
X49472893Y-104618685D01*
X49442533Y-104783466D01*
X49434194Y-104829011D01*
X49404630Y-104981068D01*
X49375558Y-105113532D01*
X49349671Y-105215286D01*
X49329663Y-105275212D01*
X49323699Y-105285195D01*
X49281466Y-105309707D01*
X49199630Y-105344852D01*
X49094317Y-105383827D01*
X49071632Y-105391558D01*
X48930982Y-105442640D01*
X48772286Y-105506046D01*
X48629775Y-105568096D01*
X48629114Y-105568402D01*
X48405560Y-105671733D01*
X47405768Y-104992039D01*
X46968700Y-105428379D01*
X46838619Y-105560351D01*
X46723952Y-105680721D01*
X46630819Y-105782727D01*
X46565342Y-105859609D01*
X46533643Y-105904607D01*
X46531632Y-105911062D01*
X46547471Y-105948960D01*
X46591504Y-106026292D01*
X46658510Y-106134611D01*
X46743266Y-106265468D01*
X46838184Y-106406948D01*
X46935002Y-106550539D01*
X47019249Y-106678565D01*
X47085742Y-106782895D01*
X47129298Y-106855400D01*
X47144736Y-106887842D01*
X47131672Y-106927424D01*
X47097250Y-107002481D01*
X47048620Y-107097532D01*
X47043215Y-107107608D01*
X46979020Y-107235609D01*
X46947537Y-107323382D01*
X46947202Y-107377972D01*
X46976452Y-107406425D01*
X46976862Y-107406590D01*
X47011502Y-107420812D01*
X47093731Y-107454731D01*
X47217186Y-107505716D01*
X47375502Y-107571138D01*
X47562314Y-107648366D01*
X47771258Y-107734771D01*
X47973554Y-107818449D01*
X48196800Y-107910412D01*
X48403608Y-107994850D01*
X48587638Y-108069231D01*
X48742549Y-108131026D01*
X48862004Y-108177703D01*
X48939661Y-108206732D01*
X48968644Y-108215678D01*
X49001890Y-108193244D01*
X49054877Y-108134561D01*
X49113296Y-108056311D01*
X49298048Y-107833466D01*
X49509818Y-107659282D01*
X49744144Y-107535846D01*
X49996566Y-107465246D01*
X50262623Y-107449569D01*
X50385425Y-107460964D01*
X50640207Y-107523050D01*
X50865199Y-107629977D01*
X51058183Y-107775111D01*
X51216939Y-107951822D01*
X51339250Y-108153478D01*
X51422895Y-108373446D01*
X51465656Y-108605094D01*
X51465313Y-108841791D01*
X51419648Y-109076905D01*
X51326441Y-109303804D01*
X51183473Y-109515856D01*
X51102617Y-109604364D01*
X50894993Y-109774111D01*
X50668105Y-109892301D01*
X50428567Y-109959722D01*
X50182993Y-109977160D01*
X49937997Y-109945402D01*
X49700192Y-109865235D01*
X49476193Y-109737445D01*
X49272613Y-109562820D01*
X49113296Y-109367688D01*
X49052398Y-109286409D01*
X48999985Y-109228991D01*
X48968594Y-109208322D01*
X48934361Y-109219144D01*
X48852581Y-109249923D01*
X48729593Y-109298126D01*
X48571737Y-109361222D01*
X48385351Y-109436678D01*
X48176774Y-109521962D01*
X47973504Y-109605781D01*
X47750067Y-109698255D01*
X47543016Y-109783911D01*
X47358714Y-109860118D01*
X47203525Y-109924247D01*
X47083812Y-109973668D01*
X47005939Y-110005752D01*
X46976862Y-110017641D01*
X46947323Y-110045726D01*
X46947409Y-110100051D01*
X46978674Y-110187605D01*
X47042671Y-110315381D01*
X47043215Y-110316392D01*
X47092879Y-110412598D01*
X47129055Y-110490369D01*
X47144592Y-110534223D01*
X47144736Y-110536158D01*
X47128976Y-110569171D01*
X47085150Y-110642054D01*
X47018443Y-110746678D01*
X46934036Y-110874910D01*
X46838184Y-111017052D01*
X46741133Y-111161767D01*
X46656730Y-111292196D01*
X46590199Y-111399890D01*
X46546762Y-111476402D01*
X46531632Y-111512938D01*
X46551518Y-111546582D01*
X46607097Y-111614224D01*
X46692246Y-111709107D01*
X46800847Y-111824470D01*
X46926779Y-111953555D01*
X46968851Y-111995771D01*
X47406069Y-112432261D01*
X47893660Y-112100023D01*
X48043395Y-111999054D01*
X48177780Y-111910438D01*
X48289031Y-111839146D01*
X48369361Y-111790150D01*
X48410986Y-111768422D01*
X48413947Y-111767785D01*
X48453182Y-111779240D01*
X48532105Y-111810051D01*
X48637491Y-111854884D01*
X48708046Y-111886353D01*
X48843124Y-111945192D01*
X48979591Y-112000604D01*
X49094897Y-112043564D01*
X49130023Y-112055234D01*
X49223826Y-112088389D01*
X49296306Y-112120799D01*
X49323699Y-112138601D01*
X49340464Y-112177886D01*
X49364230Y-112263626D01*
X49392303Y-112384697D01*
X49421991Y-112529973D01*
X49434194Y-112594988D01*
X49464532Y-112760087D01*
X49493907Y-112918448D01*
X49519431Y-113054596D01*
X49538215Y-113153057D01*
X49541840Y-113171598D01*
X49572094Y-113324873D01*
X50210355Y-113324873D01*
X50420230Y-113324529D01*
X50579020Y-113323116D01*
X50694027Y-113320064D01*
X50772554Y-113314803D01*
X50821904Y-113306763D01*
X50849381Y-113295373D01*
X50862287Y-113280063D01*
X50864680Y-113273782D01*
X50873167Y-113235896D01*
X50890100Y-113152195D01*
X50913434Y-113033433D01*
X50941125Y-112890361D01*
X50971127Y-112733732D01*
X51001396Y-112574297D01*
X51029885Y-112422809D01*
X51054551Y-112290019D01*
X51073349Y-112186681D01*
X51084233Y-112123545D01*
X51086115Y-112109497D01*
X51111296Y-112096770D01*
X51178378Y-112068600D01*
X51274667Y-112030252D01*
X51312379Y-112015609D01*
X51458079Y-111956548D01*
X51619049Y-111887000D01*
X51754709Y-111824712D01*
X51858439Y-111778879D01*
X51943674Y-111748387D01*
X51995874Y-111738208D01*
X52002870Y-111739831D01*
X52035898Y-111761343D01*
X52109357Y-111810465D01*
X52215423Y-111881923D01*
X52346274Y-111970445D01*
X52494088Y-112070759D01*
X52523266Y-112090594D01*
X52696137Y-112206988D01*
X52827774Y-112292548D01*
X52924239Y-112350684D01*
X52991592Y-112384808D01*
X53035894Y-112398331D01*
X53063206Y-112394664D01*
X53063380Y-112394570D01*
X53099254Y-112365707D01*
X53168609Y-112301867D01*
X53264255Y-112209969D01*
X53379001Y-112096933D01*
X53505659Y-111969679D01*
X53519795Y-111955328D01*
X53675097Y-111794957D01*
X53789130Y-111671195D01*
X53863998Y-111581555D01*
X53901804Y-111523552D01*
X53906683Y-111498004D01*
X53885397Y-111460718D01*
X53836227Y-111383343D01*
X53764425Y-111273867D01*
X53675245Y-111140280D01*
X53573937Y-110990570D01*
X53550103Y-110955618D01*
X53211235Y-110459390D01*
X53312944Y-110235293D01*
X53372217Y-110099011D01*
X53431830Y-109952724D01*
X53479360Y-109826965D01*
X53481315Y-109821425D01*
X53517323Y-109723057D01*
X53547771Y-109647229D01*
X53566095Y-109610282D01*
X53566148Y-109610220D01*
X53599271Y-109598496D01*
X53680733Y-109578568D01*
X53801375Y-109552413D01*
X53952041Y-109522010D01*
X54123572Y-109489337D01*
X54138033Y-109486664D01*
X54314765Y-109453890D01*
X54475190Y-109423802D01*
X54609112Y-109398339D01*
X54706337Y-109379441D01*
X54756668Y-109369047D01*
X54757437Y-109368865D01*
X54778847Y-109362539D01*
X54795012Y-109350239D01*
X54806669Y-109324594D01*
X54814555Y-109278235D01*
X54819407Y-109203792D01*
X54821961Y-109093895D01*
X54822955Y-108941175D01*
X54823126Y-108738262D01*
X54823126Y-108712000D01*
X54823002Y-108502986D01*
G36*
X45319460Y-102368561D02*
X45243966Y-102253050D01*
X45176383Y-102197336D01*
X45053745Y-102153196D01*
X44956702Y-102149691D01*
X44826944Y-102157632D01*
X44695961Y-102456885D01*
X44629042Y-102602389D01*
X44575210Y-102697463D01*
X44528584Y-102746899D01*
X44483280Y-102755489D01*
X44433418Y-102728028D01*
X44400368Y-102697747D01*
X44347367Y-102609637D01*
X44343653Y-102513804D01*
X44384959Y-102425788D01*
X44467017Y-102361131D01*
X44495992Y-102349567D01*
X44586491Y-102294175D01*
X44625060Y-102230447D01*
X44658054Y-102143034D01*
X44532966Y-102143034D01*
X44447844Y-102150762D01*
X44376062Y-102181034D01*
X44293644Y-102244482D01*
X44282934Y-102253912D01*
X44209609Y-102324487D01*
X44170258Y-102385153D01*
X44152155Y-102461050D01*
X44146226Y-102523970D01*
X44144749Y-102636513D01*
X44163465Y-102716630D01*
X44191253Y-102766610D01*
X44252359Y-102845162D01*
X44318446Y-102899537D01*
X44401559Y-102933948D01*
X44513746Y-102952612D01*
X44667054Y-102959744D01*
X44744864Y-102960313D01*
X44838147Y-102958378D01*
X44838147Y-102782101D01*
X44788104Y-102780056D01*
X44779908Y-102774961D01*
X44791042Y-102741334D01*
X44820507Y-102668970D01*
X44862399Y-102572253D01*
X44871403Y-102552027D01*
X44933558Y-102429797D01*
X44988185Y-102362453D01*
X45039351Y-102347652D01*
X45091124Y-102383053D01*
X45114000Y-102412289D01*
X45159750Y-102517784D01*
X45152192Y-102616524D01*
X45096349Y-102699188D01*
X44997247Y-102756452D01*
X44918586Y-102774812D01*
X44838147Y-102782101D01*
X44838147Y-102958378D01*
X44926649Y-102956541D01*
X45061147Y-102942641D01*
X45159084Y-102915106D01*
X45231189Y-102870428D01*
X45288187Y-102805099D01*
X45306607Y-102776617D01*
X45354578Y-102647237D01*
X45357597Y-102505588D01*
X45319460Y-102368561D01*
X45319460Y-102368561D01*
G37*
X45319460Y-102368561D02*
X45243966Y-102253050D01*
X45176383Y-102197336D01*
X45053745Y-102153196D01*
X44956702Y-102149691D01*
X44826944Y-102157632D01*
X44695961Y-102456885D01*
X44629042Y-102602389D01*
X44575210Y-102697463D01*
X44528584Y-102746899D01*
X44483280Y-102755489D01*
X44433418Y-102728028D01*
X44400368Y-102697747D01*
X44347367Y-102609637D01*
X44343653Y-102513804D01*
X44384959Y-102425788D01*
X44467017Y-102361131D01*
X44495992Y-102349567D01*
X44586491Y-102294175D01*
X44625060Y-102230447D01*
X44658054Y-102143034D01*
X44532966Y-102143034D01*
X44447844Y-102150762D01*
X44376062Y-102181034D01*
X44293644Y-102244482D01*
X44282934Y-102253912D01*
X44209609Y-102324487D01*
X44170258Y-102385153D01*
X44152155Y-102461050D01*
X44146226Y-102523970D01*
X44144749Y-102636513D01*
X44163465Y-102716630D01*
X44191253Y-102766610D01*
X44252359Y-102845162D01*
X44318446Y-102899537D01*
X44401559Y-102933948D01*
X44513746Y-102952612D01*
X44667054Y-102959744D01*
X44744864Y-102960313D01*
X44838147Y-102958378D01*
X44838147Y-102782101D01*
X44788104Y-102780056D01*
X44779908Y-102774961D01*
X44791042Y-102741334D01*
X44820507Y-102668970D01*
X44862399Y-102572253D01*
X44871403Y-102552027D01*
X44933558Y-102429797D01*
X44988185Y-102362453D01*
X45039351Y-102347652D01*
X45091124Y-102383053D01*
X45114000Y-102412289D01*
X45159750Y-102517784D01*
X45152192Y-102616524D01*
X45096349Y-102699188D01*
X44997247Y-102756452D01*
X44918586Y-102774812D01*
X44838147Y-102782101D01*
X44838147Y-102958378D01*
X44926649Y-102956541D01*
X45061147Y-102942641D01*
X45159084Y-102915106D01*
X45231189Y-102870428D01*
X45288187Y-102805099D01*
X45306607Y-102776617D01*
X45354578Y-102647237D01*
X45357597Y-102505588D01*
X45319460Y-102368561D01*
G36*
X45335982Y-103376310D02*
X45320731Y-103341415D01*
X45254765Y-103258123D01*
X45159382Y-103186897D01*
X45057594Y-103142847D01*
X45007413Y-103135678D01*
X44937353Y-103159715D01*
X44900283Y-103212439D01*
X44877836Y-103268969D01*
X44873700Y-103294854D01*
X44903717Y-103307458D01*
X44969039Y-103332346D01*
X44998555Y-103343265D01*
X45100652Y-103404492D01*
X45151577Y-103493139D01*
X45150011Y-103606807D01*
X45148006Y-103615226D01*
X45119233Y-103675912D01*
X45063141Y-103720526D01*
X44972837Y-103750998D01*
X44841429Y-103769256D01*
X44662026Y-103777229D01*
X44566567Y-103777977D01*
X44416087Y-103778348D01*
X44313505Y-103780777D01*
X44248328Y-103787240D01*
X44210062Y-103799712D01*
X44188215Y-103820167D01*
X44172293Y-103850581D01*
X44171491Y-103852339D01*
X44146728Y-103910909D01*
X44137609Y-103939925D01*
X44165178Y-103944384D01*
X44241380Y-103948201D01*
X44356459Y-103951101D01*
X44500659Y-103952809D01*
X44606186Y-103953149D01*
X44810387Y-103951412D01*
X44965303Y-103944618D01*
X45079976Y-103930393D01*
X45163449Y-103906362D01*
X45224764Y-103870152D01*
X45272966Y-103819388D01*
X45306607Y-103769261D01*
X45351381Y-103648725D01*
X45361479Y-103508443D01*
X45335982Y-103376310D01*
X45335982Y-103376310D01*
G37*
X45335982Y-103376310D02*
X45320731Y-103341415D01*
X45254765Y-103258123D01*
X45159382Y-103186897D01*
X45057594Y-103142847D01*
X45007413Y-103135678D01*
X44937353Y-103159715D01*
X44900283Y-103212439D01*
X44877836Y-103268969D01*
X44873700Y-103294854D01*
X44903717Y-103307458D01*
X44969039Y-103332346D01*
X44998555Y-103343265D01*
X45100652Y-103404492D01*
X45151577Y-103493139D01*
X45150011Y-103606807D01*
X45148006Y-103615226D01*
X45119233Y-103675912D01*
X45063141Y-103720526D01*
X44972837Y-103750998D01*
X44841429Y-103769256D01*
X44662026Y-103777229D01*
X44566567Y-103777977D01*
X44416087Y-103778348D01*
X44313505Y-103780777D01*
X44248328Y-103787240D01*
X44210062Y-103799712D01*
X44188215Y-103820167D01*
X44172293Y-103850581D01*
X44171491Y-103852339D01*
X44146728Y-103910909D01*
X44137609Y-103939925D01*
X44165178Y-103944384D01*
X44241380Y-103948201D01*
X44356459Y-103951101D01*
X44500659Y-103952809D01*
X44606186Y-103953149D01*
X44810387Y-103951412D01*
X44965303Y-103944618D01*
X45079976Y-103930393D01*
X45163449Y-103906362D01*
X45224764Y-103870152D01*
X45272966Y-103819388D01*
X45306607Y-103769261D01*
X45351381Y-103648725D01*
X45361479Y-103508443D01*
X45335982Y-103376310D01*
G36*
X45340844Y-104397594D02*
X45302607Y-104313531D01*
X45256274Y-104247550D01*
X45204468Y-104199206D01*
X45137637Y-104165828D01*
X45046231Y-104144747D01*
X44920699Y-104133293D01*
X44751492Y-104128797D01*
X44640067Y-104128322D01*
X44205373Y-104128322D01*
X44171491Y-104202684D01*
X44146728Y-104261254D01*
X44137609Y-104290270D01*
X44164743Y-104295821D01*
X44237906Y-104300225D01*
X44344737Y-104302922D01*
X44429563Y-104303494D01*
X44552113Y-104305954D01*
X44649332Y-104312588D01*
X44708866Y-104322274D01*
X44721517Y-104329968D01*
X44708598Y-104381689D01*
X44675461Y-104462883D01*
X44630539Y-104556898D01*
X44582265Y-104647083D01*
X44539072Y-104716785D01*
X44509392Y-104749352D01*
X44509071Y-104749481D01*
X44454143Y-104746680D01*
X44401708Y-104721561D01*
X44359119Y-104677459D01*
X44344874Y-104613091D01*
X44346534Y-104558079D01*
X44347755Y-104480165D01*
X44329502Y-104439268D01*
X44281274Y-104414705D01*
X44272180Y-104411608D01*
X44203402Y-104400960D01*
X44161640Y-104429435D01*
X44141737Y-104503656D01*
X44138056Y-104583832D01*
X44165342Y-104728110D01*
X44204310Y-104802797D01*
X44295852Y-104895037D01*
X44408218Y-104943957D01*
X44526949Y-104948346D01*
X44637589Y-104906999D01*
X44706920Y-104844803D01*
X44745735Y-104782706D01*
X44794875Y-104685105D01*
X44844708Y-104571368D01*
X44852323Y-104552410D01*
X44907455Y-104427479D01*
X44956046Y-104355461D01*
X45004353Y-104332300D01*
X45058630Y-104353936D01*
X45101057Y-104391080D01*
X45153298Y-104478873D01*
X45157216Y-104575470D01*
X45116959Y-104664056D01*
X45036674Y-104727814D01*
X45015960Y-104736183D01*
X44939775Y-104784904D01*
X44883215Y-104856035D01*
X44836799Y-104945793D01*
X44968416Y-104945793D01*
X45048832Y-104940510D01*
X45112214Y-104917858D01*
X45179837Y-104867633D01*
X45231924Y-104819418D01*
X45305678Y-104744446D01*
X45345298Y-104686194D01*
X45361190Y-104623628D01*
X45363816Y-104552807D01*
X45340844Y-104397594D01*
X45340844Y-104397594D01*
G37*
X45340844Y-104397594D02*
X45302607Y-104313531D01*
X45256274Y-104247550D01*
X45204468Y-104199206D01*
X45137637Y-104165828D01*
X45046231Y-104144747D01*
X44920699Y-104133293D01*
X44751492Y-104128797D01*
X44640067Y-104128322D01*
X44205373Y-104128322D01*
X44171491Y-104202684D01*
X44146728Y-104261254D01*
X44137609Y-104290270D01*
X44164743Y-104295821D01*
X44237906Y-104300225D01*
X44344737Y-104302922D01*
X44429563Y-104303494D01*
X44552113Y-104305954D01*
X44649332Y-104312588D01*
X44708866Y-104322274D01*
X44721517Y-104329968D01*
X44708598Y-104381689D01*
X44675461Y-104462883D01*
X44630539Y-104556898D01*
X44582265Y-104647083D01*
X44539072Y-104716785D01*
X44509392Y-104749352D01*
X44509071Y-104749481D01*
X44454143Y-104746680D01*
X44401708Y-104721561D01*
X44359119Y-104677459D01*
X44344874Y-104613091D01*
X44346534Y-104558079D01*
X44347755Y-104480165D01*
X44329502Y-104439268D01*
X44281274Y-104414705D01*
X44272180Y-104411608D01*
X44203402Y-104400960D01*
X44161640Y-104429435D01*
X44141737Y-104503656D01*
X44138056Y-104583832D01*
X44165342Y-104728110D01*
X44204310Y-104802797D01*
X44295852Y-104895037D01*
X44408218Y-104943957D01*
X44526949Y-104948346D01*
X44637589Y-104906999D01*
X44706920Y-104844803D01*
X44745735Y-104782706D01*
X44794875Y-104685105D01*
X44844708Y-104571368D01*
X44852323Y-104552410D01*
X44907455Y-104427479D01*
X44956046Y-104355461D01*
X45004353Y-104332300D01*
X45058630Y-104353936D01*
X45101057Y-104391080D01*
X45153298Y-104478873D01*
X45157216Y-104575470D01*
X45116959Y-104664056D01*
X45036674Y-104727814D01*
X45015960Y-104736183D01*
X44939775Y-104784904D01*
X44883215Y-104856035D01*
X44836799Y-104945793D01*
X44968416Y-104945793D01*
X45048832Y-104940510D01*
X45112214Y-104917858D01*
X45179837Y-104867633D01*
X45231924Y-104819418D01*
X45305678Y-104744446D01*
X45345298Y-104686194D01*
X45361190Y-104623628D01*
X45363816Y-104552807D01*
X45340844Y-104397594D01*
G36*
X45336160Y-105131876D02*
X45259347Y-105127421D01*
X45142609Y-105123929D01*
X44995179Y-105121685D01*
X44840545Y-105120965D01*
X44317273Y-105120965D01*
X44224883Y-105213355D01*
X44167953Y-105277022D01*
X44144893Y-105332911D01*
X44146353Y-105409298D01*
X44150066Y-105439620D01*
X44160874Y-105534390D01*
X44167067Y-105612778D01*
X44167639Y-105631885D01*
X44163898Y-105696301D01*
X44154506Y-105788429D01*
X44150066Y-105824150D01*
X44143199Y-105911886D01*
X44158115Y-105970847D01*
X44204165Y-106029310D01*
X44224883Y-106050415D01*
X44317273Y-106142805D01*
X45296053Y-106142805D01*
X45329934Y-106068442D01*
X45355030Y-106004410D01*
X45363816Y-105966948D01*
X45336050Y-105957343D01*
X45258470Y-105948365D01*
X45139652Y-105940614D01*
X44988172Y-105934686D01*
X44860195Y-105931827D01*
X44356575Y-105923839D01*
X44346722Y-105854152D01*
X44353611Y-105790771D01*
X44375917Y-105759714D01*
X44417621Y-105751033D01*
X44506456Y-105743622D01*
X44631166Y-105738069D01*
X44780493Y-105734964D01*
X44857339Y-105734516D01*
X45299713Y-105734069D01*
X45331765Y-105642126D01*
X45353557Y-105577051D01*
X45363719Y-105541653D01*
X45363816Y-105540632D01*
X45336191Y-105537080D01*
X45259589Y-105533177D01*
X45143421Y-105529249D01*
X44997096Y-105525624D01*
X44860195Y-105523092D01*
X44356575Y-105515103D01*
X44356575Y-105339931D01*
X44816035Y-105331893D01*
X45275495Y-105323854D01*
X45319656Y-105238457D01*
X45349981Y-105175407D01*
X45363742Y-105138090D01*
X45363816Y-105137013D01*
X45336160Y-105131876D01*
X45336160Y-105131876D01*
G37*
X45336160Y-105131876D02*
X45259347Y-105127421D01*
X45142609Y-105123929D01*
X44995179Y-105121685D01*
X44840545Y-105120965D01*
X44317273Y-105120965D01*
X44224883Y-105213355D01*
X44167953Y-105277022D01*
X44144893Y-105332911D01*
X44146353Y-105409298D01*
X44150066Y-105439620D01*
X44160874Y-105534390D01*
X44167067Y-105612778D01*
X44167639Y-105631885D01*
X44163898Y-105696301D01*
X44154506Y-105788429D01*
X44150066Y-105824150D01*
X44143199Y-105911886D01*
X44158115Y-105970847D01*
X44204165Y-106029310D01*
X44224883Y-106050415D01*
X44317273Y-106142805D01*
X45296053Y-106142805D01*
X45329934Y-106068442D01*
X45355030Y-106004410D01*
X45363816Y-105966948D01*
X45336050Y-105957343D01*
X45258470Y-105948365D01*
X45139652Y-105940614D01*
X44988172Y-105934686D01*
X44860195Y-105931827D01*
X44356575Y-105923839D01*
X44346722Y-105854152D01*
X44353611Y-105790771D01*
X44375917Y-105759714D01*
X44417621Y-105751033D01*
X44506456Y-105743622D01*
X44631166Y-105738069D01*
X44780493Y-105734964D01*
X44857339Y-105734516D01*
X45299713Y-105734069D01*
X45331765Y-105642126D01*
X45353557Y-105577051D01*
X45363719Y-105541653D01*
X45363816Y-105540632D01*
X45336191Y-105537080D01*
X45259589Y-105533177D01*
X45143421Y-105529249D01*
X44997096Y-105525624D01*
X44860195Y-105523092D01*
X44356575Y-105515103D01*
X44356575Y-105339931D01*
X44816035Y-105331893D01*
X45275495Y-105323854D01*
X45319656Y-105238457D01*
X45349981Y-105175407D01*
X45363742Y-105138090D01*
X45363816Y-105137013D01*
X45336160Y-105131876D01*
G36*
X45121545Y-106318086D02*
X44903339Y-106318457D01*
X44735481Y-106319892D01*
X44609930Y-106322998D01*
X44518645Y-106328378D01*
X44453585Y-106336638D01*
X44406709Y-106348384D01*
X44369976Y-106364219D01*
X44349009Y-106376210D01*
X44235306Y-106475510D01*
X44164035Y-106601412D01*
X44138462Y-106740709D01*
X44161850Y-106880195D01*
X44203881Y-106963257D01*
X44276589Y-107050455D01*
X44365388Y-107109883D01*
X44481680Y-107145739D01*
X44636865Y-107162219D01*
X44750713Y-107164553D01*
X44758894Y-107164239D01*
X44758894Y-106960276D01*
X44628343Y-106959030D01*
X44541920Y-106953322D01*
X44485382Y-106940196D01*
X44444486Y-106916694D01*
X44413638Y-106888614D01*
X44354095Y-106794312D01*
X44349008Y-106693060D01*
X44398721Y-106597364D01*
X44405457Y-106589916D01*
X44440498Y-106558126D01*
X44482189Y-106538192D01*
X44544238Y-106527400D01*
X44640356Y-106523035D01*
X44746621Y-106522345D01*
X44880120Y-106523841D01*
X44969178Y-106530036D01*
X45027707Y-106543486D01*
X45069618Y-106566749D01*
X45091877Y-106585825D01*
X45148015Y-106674437D01*
X45154765Y-106776492D01*
X45111886Y-106873905D01*
X45095968Y-106892704D01*
X45060618Y-106924707D01*
X45018498Y-106944682D01*
X44955749Y-106955407D01*
X44858513Y-106959661D01*
X44758894Y-106960276D01*
X44758894Y-107164239D01*
X44934053Y-107157496D01*
X45071805Y-107133528D01*
X45175368Y-107088452D01*
X45256144Y-107018072D01*
X45297545Y-106963257D01*
X45342272Y-106863624D01*
X45363033Y-106748145D01*
X45357475Y-106640801D01*
X45335057Y-106580736D01*
X45328677Y-106557165D01*
X45352465Y-106541523D01*
X45416212Y-106530605D01*
X45513313Y-106522345D01*
X45621459Y-106513301D01*
X45686525Y-106500739D01*
X45723732Y-106477881D01*
X45748301Y-106437949D01*
X45759181Y-106412862D01*
X45798928Y-106317977D01*
X45121545Y-106318086D01*
X45121545Y-106318086D01*
G37*
X45121545Y-106318086D02*
X44903339Y-106318457D01*
X44735481Y-106319892D01*
X44609930Y-106322998D01*
X44518645Y-106328378D01*
X44453585Y-106336638D01*
X44406709Y-106348384D01*
X44369976Y-106364219D01*
X44349009Y-106376210D01*
X44235306Y-106475510D01*
X44164035Y-106601412D01*
X44138462Y-106740709D01*
X44161850Y-106880195D01*
X44203881Y-106963257D01*
X44276589Y-107050455D01*
X44365388Y-107109883D01*
X44481680Y-107145739D01*
X44636865Y-107162219D01*
X44750713Y-107164553D01*
X44758894Y-107164239D01*
X44758894Y-106960276D01*
X44628343Y-106959030D01*
X44541920Y-106953322D01*
X44485382Y-106940196D01*
X44444486Y-106916694D01*
X44413638Y-106888614D01*
X44354095Y-106794312D01*
X44349008Y-106693060D01*
X44398721Y-106597364D01*
X44405457Y-106589916D01*
X44440498Y-106558126D01*
X44482189Y-106538192D01*
X44544238Y-106527400D01*
X44640356Y-106523035D01*
X44746621Y-106522345D01*
X44880120Y-106523841D01*
X44969178Y-106530036D01*
X45027707Y-106543486D01*
X45069618Y-106566749D01*
X45091877Y-106585825D01*
X45148015Y-106674437D01*
X45154765Y-106776492D01*
X45111886Y-106873905D01*
X45095968Y-106892704D01*
X45060618Y-106924707D01*
X45018498Y-106944682D01*
X44955749Y-106955407D01*
X44858513Y-106959661D01*
X44758894Y-106960276D01*
X44758894Y-107164239D01*
X44934053Y-107157496D01*
X45071805Y-107133528D01*
X45175368Y-107088452D01*
X45256144Y-107018072D01*
X45297545Y-106963257D01*
X45342272Y-106863624D01*
X45363033Y-106748145D01*
X45357475Y-106640801D01*
X45335057Y-106580736D01*
X45328677Y-106557165D01*
X45352465Y-106541523D01*
X45416212Y-106530605D01*
X45513313Y-106522345D01*
X45621459Y-106513301D01*
X45686525Y-106500739D01*
X45723732Y-106477881D01*
X45748301Y-106437949D01*
X45759181Y-106412862D01*
X45798928Y-106317977D01*
X45121545Y-106318086D01*
G36*
X45354080Y-107646057D02*
X45305141Y-107513435D01*
X45218581Y-107405990D01*
X45157648Y-107363968D01*
X45045839Y-107318157D01*
X44964994Y-107319109D01*
X44910622Y-107367192D01*
X44901376Y-107384983D01*
X44872550Y-107461796D01*
X44879935Y-107501024D01*
X44928342Y-107514311D01*
X44955080Y-107514988D01*
X45053452Y-107539314D01*
X45122266Y-107602719D01*
X45155502Y-107690846D01*
X45147139Y-107789337D01*
X45103704Y-107869398D01*
X45078928Y-107896439D01*
X45048871Y-107915606D01*
X45003435Y-107928554D01*
X44932524Y-107936936D01*
X44826040Y-107942407D01*
X44673888Y-107946622D01*
X44625713Y-107947713D01*
X44460905Y-107951693D01*
X44344912Y-107956219D01*
X44268167Y-107963005D01*
X44221107Y-107973769D01*
X44194165Y-107990227D01*
X44177777Y-108014094D01*
X44170537Y-108029374D01*
X44145780Y-108094267D01*
X44137609Y-108132466D01*
X44164897Y-108145088D01*
X44247397Y-108152792D01*
X44386059Y-108155620D01*
X44581838Y-108153614D01*
X44612035Y-108152989D01*
X44790651Y-108148579D01*
X44921077Y-108143365D01*
X45013508Y-108135945D01*
X45078142Y-108124918D01*
X45125175Y-108108883D01*
X45164804Y-108086439D01*
X45181785Y-108074698D01*
X45256920Y-108007381D01*
X45315362Y-107932090D01*
X45320464Y-107922872D01*
X45360740Y-107787867D01*
X45354080Y-107646057D01*
X45354080Y-107646057D01*
G37*
X45354080Y-107646057D02*
X45305141Y-107513435D01*
X45218581Y-107405990D01*
X45157648Y-107363968D01*
X45045839Y-107318157D01*
X44964994Y-107319109D01*
X44910622Y-107367192D01*
X44901376Y-107384983D01*
X44872550Y-107461796D01*
X44879935Y-107501024D01*
X44928342Y-107514311D01*
X44955080Y-107514988D01*
X45053452Y-107539314D01*
X45122266Y-107602719D01*
X45155502Y-107690846D01*
X45147139Y-107789337D01*
X45103704Y-107869398D01*
X45078928Y-107896439D01*
X45048871Y-107915606D01*
X45003435Y-107928554D01*
X44932524Y-107936936D01*
X44826040Y-107942407D01*
X44673888Y-107946622D01*
X44625713Y-107947713D01*
X44460905Y-107951693D01*
X44344912Y-107956219D01*
X44268167Y-107963005D01*
X44221107Y-107973769D01*
X44194165Y-107990227D01*
X44177777Y-108014094D01*
X44170537Y-108029374D01*
X44145780Y-108094267D01*
X44137609Y-108132466D01*
X44164897Y-108145088D01*
X44247397Y-108152792D01*
X44386059Y-108155620D01*
X44581838Y-108153614D01*
X44612035Y-108152989D01*
X44790651Y-108148579D01*
X44921077Y-108143365D01*
X45013508Y-108135945D01*
X45078142Y-108124918D01*
X45125175Y-108108883D01*
X45164804Y-108086439D01*
X45181785Y-108074698D01*
X45256920Y-108007381D01*
X45315362Y-107932090D01*
X45320464Y-107922872D01*
X45360740Y-107787867D01*
X45354080Y-107646057D01*
G36*
X45351640Y-108632056D02*
X45309158Y-108517657D01*
X45308342Y-108516348D01*
X45256270Y-108445597D01*
X45195416Y-108393364D01*
X45116113Y-108356629D01*
X45008691Y-108332366D01*
X44863483Y-108317555D01*
X44670821Y-108309171D01*
X44643372Y-108308436D01*
X44229479Y-108297880D01*
X44183544Y-108386709D01*
X44152502Y-108450982D01*
X44137794Y-108489790D01*
X44137609Y-108491585D01*
X44164750Y-108498300D01*
X44237959Y-108503635D01*
X44344919Y-108506917D01*
X44431531Y-108507632D01*
X44571838Y-108507649D01*
X44659949Y-108514063D01*
X44701975Y-108536420D01*
X44704025Y-108584268D01*
X44672210Y-108667151D01*
X44613728Y-108792287D01*
X44565155Y-108884303D01*
X44523014Y-108931629D01*
X44477084Y-108945542D01*
X44474811Y-108945563D01*
X44395689Y-108922605D01*
X44352945Y-108854630D01*
X44346754Y-108750602D01*
X44347828Y-108675670D01*
X44326247Y-108636161D01*
X44274409Y-108611522D01*
X44208368Y-108597341D01*
X44170896Y-108617777D01*
X44165533Y-108625472D01*
X44143994Y-108697917D01*
X44140945Y-108799367D01*
X44155222Y-108903843D01*
X44181312Y-108977875D01*
X44268215Y-109080228D01*
X44389184Y-109138409D01*
X44483692Y-109149931D01*
X44568938Y-109141138D01*
X44638524Y-109109320D01*
X44700328Y-109046316D01*
X44762228Y-108943969D01*
X44832103Y-108794118D01*
X44836052Y-108784988D01*
X44898412Y-108650003D01*
X44949554Y-108566706D01*
X44995512Y-108531003D01*
X45042317Y-108538797D01*
X45096002Y-108585993D01*
X45108356Y-108600106D01*
X45156259Y-108694641D01*
X45154242Y-108792594D01*
X45107276Y-108877903D01*
X45020331Y-108934504D01*
X45003266Y-108939763D01*
X44920496Y-108990977D01*
X44880628Y-109055963D01*
X44841118Y-109149931D01*
X44943342Y-109149931D01*
X45091928Y-109121347D01*
X45228216Y-109036505D01*
X45273809Y-108992355D01*
X45332326Y-108891995D01*
X45358816Y-108764365D01*
X45351640Y-108632056D01*
X45351640Y-108632056D01*
G37*
X45351640Y-108632056D02*
X45309158Y-108517657D01*
X45308342Y-108516348D01*
X45256270Y-108445597D01*
X45195416Y-108393364D01*
X45116113Y-108356629D01*
X45008691Y-108332366D01*
X44863483Y-108317555D01*
X44670821Y-108309171D01*
X44643372Y-108308436D01*
X44229479Y-108297880D01*
X44183544Y-108386709D01*
X44152502Y-108450982D01*
X44137794Y-108489790D01*
X44137609Y-108491585D01*
X44164750Y-108498300D01*
X44237959Y-108503635D01*
X44344919Y-108506917D01*
X44431531Y-108507632D01*
X44571838Y-108507649D01*
X44659949Y-108514063D01*
X44701975Y-108536420D01*
X44704025Y-108584268D01*
X44672210Y-108667151D01*
X44613728Y-108792287D01*
X44565155Y-108884303D01*
X44523014Y-108931629D01*
X44477084Y-108945542D01*
X44474811Y-108945563D01*
X44395689Y-108922605D01*
X44352945Y-108854630D01*
X44346754Y-108750602D01*
X44347828Y-108675670D01*
X44326247Y-108636161D01*
X44274409Y-108611522D01*
X44208368Y-108597341D01*
X44170896Y-108617777D01*
X44165533Y-108625472D01*
X44143994Y-108697917D01*
X44140945Y-108799367D01*
X44155222Y-108903843D01*
X44181312Y-108977875D01*
X44268215Y-109080228D01*
X44389184Y-109138409D01*
X44483692Y-109149931D01*
X44568938Y-109141138D01*
X44638524Y-109109320D01*
X44700328Y-109046316D01*
X44762228Y-108943969D01*
X44832103Y-108794118D01*
X44836052Y-108784988D01*
X44898412Y-108650003D01*
X44949554Y-108566706D01*
X44995512Y-108531003D01*
X45042317Y-108538797D01*
X45096002Y-108585993D01*
X45108356Y-108600106D01*
X45156259Y-108694641D01*
X45154242Y-108792594D01*
X45107276Y-108877903D01*
X45020331Y-108934504D01*
X45003266Y-108939763D01*
X44920496Y-108990977D01*
X44880628Y-109055963D01*
X44841118Y-109149931D01*
X44943342Y-109149931D01*
X45091928Y-109121347D01*
X45228216Y-109036505D01*
X45273809Y-108992355D01*
X45332326Y-108891995D01*
X45358816Y-108764365D01*
X45351640Y-108632056D01*
G36*
X45552143Y-109967402D02*
X45432812Y-109958846D01*
X45362494Y-109949019D01*
X45331821Y-109935401D01*
X45331429Y-109915473D01*
X45335090Y-109909011D01*
X45361602Y-109823060D01*
X45360054Y-109711255D01*
X45332801Y-109597586D01*
X45297545Y-109526490D01*
X45241222Y-109453595D01*
X45177481Y-109400307D01*
X45096490Y-109363725D01*
X44988414Y-109340950D01*
X44843420Y-109329081D01*
X44651674Y-109325218D01*
X44614891Y-109325149D01*
X44201712Y-109325103D01*
X44169661Y-109417046D01*
X44147856Y-109482348D01*
X44137703Y-109518176D01*
X44137609Y-109519230D01*
X44165140Y-109522758D01*
X44241077Y-109525761D01*
X44355435Y-109528010D01*
X44498231Y-109529276D01*
X44585049Y-109529471D01*
X44756227Y-109529877D01*
X44878912Y-109531968D01*
X44963000Y-109537053D01*
X45018386Y-109546440D01*
X45054968Y-109561439D01*
X45082641Y-109583358D01*
X45095968Y-109597043D01*
X45149672Y-109691051D01*
X45153693Y-109793636D01*
X45108275Y-109886710D01*
X45091877Y-109903922D01*
X45061043Y-109929168D01*
X45024469Y-109946680D01*
X44971585Y-109957858D01*
X44891823Y-109964104D01*
X44774615Y-109966818D01*
X44613009Y-109967402D01*
X44201712Y-109967402D01*
X44169661Y-110059345D01*
X44147856Y-110124647D01*
X44137703Y-110160475D01*
X44137609Y-110161529D01*
X44165552Y-110164225D01*
X44244370Y-110166655D01*
X44366547Y-110168722D01*
X44524568Y-110170329D01*
X44710917Y-110171377D01*
X44918080Y-110171769D01*
X44927294Y-110171770D01*
X45716980Y-110171770D01*
X45757003Y-110076885D01*
X45797027Y-109982000D01*
X45552143Y-109967402D01*
X45552143Y-109967402D01*
G37*
X45552143Y-109967402D02*
X45432812Y-109958846D01*
X45362494Y-109949019D01*
X45331821Y-109935401D01*
X45331429Y-109915473D01*
X45335090Y-109909011D01*
X45361602Y-109823060D01*
X45360054Y-109711255D01*
X45332801Y-109597586D01*
X45297545Y-109526490D01*
X45241222Y-109453595D01*
X45177481Y-109400307D01*
X45096490Y-109363725D01*
X44988414Y-109340950D01*
X44843420Y-109329081D01*
X44651674Y-109325218D01*
X44614891Y-109325149D01*
X44201712Y-109325103D01*
X44169661Y-109417046D01*
X44147856Y-109482348D01*
X44137703Y-109518176D01*
X44137609Y-109519230D01*
X44165140Y-109522758D01*
X44241077Y-109525761D01*
X44355435Y-109528010D01*
X44498231Y-109529276D01*
X44585049Y-109529471D01*
X44756227Y-109529877D01*
X44878912Y-109531968D01*
X44963000Y-109537053D01*
X45018386Y-109546440D01*
X45054968Y-109561439D01*
X45082641Y-109583358D01*
X45095968Y-109597043D01*
X45149672Y-109691051D01*
X45153693Y-109793636D01*
X45108275Y-109886710D01*
X45091877Y-109903922D01*
X45061043Y-109929168D01*
X45024469Y-109946680D01*
X44971585Y-109957858D01*
X44891823Y-109964104D01*
X44774615Y-109966818D01*
X44613009Y-109967402D01*
X44201712Y-109967402D01*
X44169661Y-110059345D01*
X44147856Y-110124647D01*
X44137703Y-110160475D01*
X44137609Y-110161529D01*
X44165552Y-110164225D01*
X44244370Y-110166655D01*
X44366547Y-110168722D01*
X44524568Y-110170329D01*
X44710917Y-110171377D01*
X44918080Y-110171769D01*
X44927294Y-110171770D01*
X45716980Y-110171770D01*
X45757003Y-110076885D01*
X45797027Y-109982000D01*
X45552143Y-109967402D01*
G36*
X45391324Y-112396448D02*
X45313889Y-112281342D01*
X45202051Y-112192389D01*
X45059735Y-112139251D01*
X44954985Y-112128503D01*
X44911274Y-112129724D01*
X44877806Y-112139944D01*
X44847821Y-112168039D01*
X44814560Y-112222884D01*
X44771262Y-112313355D01*
X44711167Y-112448328D01*
X44710866Y-112449011D01*
X44653963Y-112573249D01*
X44603435Y-112675127D01*
X44564720Y-112744233D01*
X44543260Y-112770154D01*
X44543087Y-112770161D01*
X44496356Y-112747315D01*
X44444846Y-112693891D01*
X44407739Y-112632558D01*
X44400368Y-112601485D01*
X44425862Y-112516711D01*
X44489709Y-112443707D01*
X44559906Y-112408087D01*
X44611657Y-112373820D01*
X44670591Y-112306697D01*
X44721504Y-112227792D01*
X44749191Y-112158179D01*
X44750713Y-112143623D01*
X44725679Y-112127237D01*
X44661689Y-112126250D01*
X44575407Y-112138292D01*
X44483499Y-112160993D01*
X44402631Y-112191986D01*
X44399491Y-112193552D01*
X44269266Y-112286819D01*
X44180689Y-112407696D01*
X44137214Y-112544973D01*
X44142294Y-112687440D01*
X44199384Y-112823888D01*
X44203398Y-112829955D01*
X44300674Y-112937290D01*
X44427591Y-113007868D01*
X44594474Y-113046926D01*
X44641361Y-113052168D01*
X44862671Y-113061452D01*
X44965876Y-113050322D01*
X44965876Y-112770161D01*
X44901497Y-112766521D01*
X44882709Y-112746611D01*
X44896765Y-112696974D01*
X44929991Y-112618733D01*
X44971641Y-112531274D01*
X44972744Y-112529101D01*
X45011735Y-112454970D01*
X45037756Y-112425219D01*
X45065035Y-112432555D01*
X45100879Y-112463447D01*
X45152749Y-112542040D01*
X45156561Y-112626677D01*
X45118811Y-112702597D01*
X45045999Y-112755035D01*
X44965876Y-112770161D01*
X44965876Y-113050322D01*
X45039739Y-113042356D01*
X45180171Y-112993366D01*
X45278553Y-112925164D01*
X45377970Y-112802065D01*
X45427289Y-112666472D01*
X45430432Y-112528045D01*
X45391324Y-112396448D01*
X45391324Y-112396448D01*
G37*
X45391324Y-112396448D02*
X45313889Y-112281342D01*
X45202051Y-112192389D01*
X45059735Y-112139251D01*
X44954985Y-112128503D01*
X44911274Y-112129724D01*
X44877806Y-112139944D01*
X44847821Y-112168039D01*
X44814560Y-112222884D01*
X44771262Y-112313355D01*
X44711167Y-112448328D01*
X44710866Y-112449011D01*
X44653963Y-112573249D01*
X44603435Y-112675127D01*
X44564720Y-112744233D01*
X44543260Y-112770154D01*
X44543087Y-112770161D01*
X44496356Y-112747315D01*
X44444846Y-112693891D01*
X44407739Y-112632558D01*
X44400368Y-112601485D01*
X44425862Y-112516711D01*
X44489709Y-112443707D01*
X44559906Y-112408087D01*
X44611657Y-112373820D01*
X44670591Y-112306697D01*
X44721504Y-112227792D01*
X44749191Y-112158179D01*
X44750713Y-112143623D01*
X44725679Y-112127237D01*
X44661689Y-112126250D01*
X44575407Y-112138292D01*
X44483499Y-112160993D01*
X44402631Y-112191986D01*
X44399491Y-112193552D01*
X44269266Y-112286819D01*
X44180689Y-112407696D01*
X44137214Y-112544973D01*
X44142294Y-112687440D01*
X44199384Y-112823888D01*
X44203398Y-112829955D01*
X44300674Y-112937290D01*
X44427591Y-113007868D01*
X44594474Y-113046926D01*
X44641361Y-113052168D01*
X44862671Y-113061452D01*
X44965876Y-113050322D01*
X44965876Y-112770161D01*
X44901497Y-112766521D01*
X44882709Y-112746611D01*
X44896765Y-112696974D01*
X44929991Y-112618733D01*
X44971641Y-112531274D01*
X44972744Y-112529101D01*
X45011735Y-112454970D01*
X45037756Y-112425219D01*
X45065035Y-112432555D01*
X45100879Y-112463447D01*
X45152749Y-112542040D01*
X45156561Y-112626677D01*
X45118811Y-112702597D01*
X45045999Y-112755035D01*
X44965876Y-112770161D01*
X44965876Y-113050322D01*
X45039739Y-113042356D01*
X45180171Y-112993366D01*
X45278553Y-112925164D01*
X45377970Y-112802065D01*
X45427289Y-112666472D01*
X45430432Y-112528045D01*
X45391324Y-112396448D01*
G36*
X45409985Y-114663779D02*
X45338032Y-114526939D01*
X45222234Y-114425949D01*
X45147787Y-114390075D01*
X45036008Y-114362161D01*
X44894773Y-114347871D01*
X44740629Y-114346516D01*
X44590121Y-114357405D01*
X44459795Y-114379847D01*
X44366197Y-114413150D01*
X44350078Y-114423385D01*
X44229751Y-114544618D01*
X44157683Y-114688613D01*
X44136592Y-114844861D01*
X44169198Y-115002852D01*
X44188747Y-115046820D01*
X44248988Y-115132444D01*
X44328865Y-115207592D01*
X44338996Y-115214694D01*
X44387819Y-115243561D01*
X44440010Y-115262643D01*
X44508715Y-115273916D01*
X44607082Y-115279355D01*
X44748256Y-115280938D01*
X44779908Y-115280965D01*
X44789981Y-115280893D01*
X44789981Y-114989011D01*
X44656744Y-114987313D01*
X44568326Y-114980628D01*
X44511215Y-114966575D01*
X44471898Y-114942771D01*
X44458759Y-114930621D01*
X44408828Y-114860764D01*
X44411105Y-114792941D01*
X44454416Y-114724365D01*
X44500654Y-114683465D01*
X44568143Y-114659242D01*
X44674567Y-114645639D01*
X44686980Y-114644706D01*
X44879853Y-114642384D01*
X45023100Y-114666650D01*
X45115840Y-114717176D01*
X45157193Y-114793632D01*
X45159448Y-114820924D01*
X45148107Y-114892589D01*
X45108816Y-114941610D01*
X45033674Y-114971582D01*
X44914778Y-114986101D01*
X44789981Y-114989011D01*
X44789981Y-115280893D01*
X44930341Y-115279878D01*
X45035451Y-115275312D01*
X45108286Y-115265312D01*
X45161892Y-115247921D01*
X45209319Y-115221184D01*
X45218136Y-115215276D01*
X45336993Y-115115968D01*
X45405992Y-115007758D01*
X45433381Y-114876019D01*
X45434719Y-114831283D01*
X45409985Y-114663779D01*
X45409985Y-114663779D01*
G37*
X45409985Y-114663779D02*
X45338032Y-114526939D01*
X45222234Y-114425949D01*
X45147787Y-114390075D01*
X45036008Y-114362161D01*
X44894773Y-114347871D01*
X44740629Y-114346516D01*
X44590121Y-114357405D01*
X44459795Y-114379847D01*
X44366197Y-114413150D01*
X44350078Y-114423385D01*
X44229751Y-114544618D01*
X44157683Y-114688613D01*
X44136592Y-114844861D01*
X44169198Y-115002852D01*
X44188747Y-115046820D01*
X44248988Y-115132444D01*
X44328865Y-115207592D01*
X44338996Y-115214694D01*
X44387819Y-115243561D01*
X44440010Y-115262643D01*
X44508715Y-115273916D01*
X44607082Y-115279355D01*
X44748256Y-115280938D01*
X44779908Y-115280965D01*
X44789981Y-115280893D01*
X44789981Y-114989011D01*
X44656744Y-114987313D01*
X44568326Y-114980628D01*
X44511215Y-114966575D01*
X44471898Y-114942771D01*
X44458759Y-114930621D01*
X44408828Y-114860764D01*
X44411105Y-114792941D01*
X44454416Y-114724365D01*
X44500654Y-114683465D01*
X44568143Y-114659242D01*
X44674567Y-114645639D01*
X44686980Y-114644706D01*
X44879853Y-114642384D01*
X45023100Y-114666650D01*
X45115840Y-114717176D01*
X45157193Y-114793632D01*
X45159448Y-114820924D01*
X45148107Y-114892589D01*
X45108816Y-114941610D01*
X45033674Y-114971582D01*
X44914778Y-114986101D01*
X44789981Y-114989011D01*
X44789981Y-115280893D01*
X44930341Y-115279878D01*
X45035451Y-115275312D01*
X45108286Y-115265312D01*
X45161892Y-115247921D01*
X45209319Y-115221184D01*
X45218136Y-115215276D01*
X45336993Y-115115968D01*
X45405992Y-115007758D01*
X45433381Y-114876019D01*
X45434719Y-114831283D01*
X45409985Y-114663779D01*
G36*
X45398281Y-111294571D02*
X45344086Y-111200877D01*
X45290293Y-111135736D01*
X45233934Y-111088093D01*
X45165013Y-111055272D01*
X45073532Y-111034594D01*
X44949494Y-111023380D01*
X44782902Y-111018951D01*
X44663149Y-111018437D01*
X44222341Y-111018437D01*
X44166717Y-111142517D01*
X44111093Y-111266598D01*
X44593905Y-111281195D01*
X44774221Y-111287227D01*
X44905099Y-111293555D01*
X44995489Y-111301394D01*
X45054336Y-111311963D01*
X45090587Y-111326477D01*
X45113190Y-111346152D01*
X45118083Y-111352465D01*
X45156294Y-111448112D01*
X45141173Y-111544793D01*
X45101057Y-111602345D01*
X45072630Y-111625755D01*
X45035328Y-111641961D01*
X44978777Y-111652259D01*
X44892606Y-111657951D01*
X44766442Y-111660336D01*
X44634958Y-111660736D01*
X44470001Y-111660814D01*
X44353239Y-111663639D01*
X44274490Y-111673093D01*
X44223569Y-111693060D01*
X44190294Y-111727424D01*
X44164480Y-111780068D01*
X44137656Y-111850383D01*
X44108458Y-111927180D01*
X44626654Y-111918038D01*
X44813461Y-111914357D01*
X44951510Y-111910050D01*
X45050432Y-111903877D01*
X45119855Y-111894598D01*
X45169410Y-111880973D01*
X45208727Y-111861761D01*
X45243416Y-111838598D01*
X45354230Y-111726848D01*
X45418311Y-111590487D01*
X45433661Y-111442175D01*
X45398281Y-111294571D01*
X45398281Y-111294571D01*
G37*
X45398281Y-111294571D02*
X45344086Y-111200877D01*
X45290293Y-111135736D01*
X45233934Y-111088093D01*
X45165013Y-111055272D01*
X45073532Y-111034594D01*
X44949494Y-111023380D01*
X44782902Y-111018951D01*
X44663149Y-111018437D01*
X44222341Y-111018437D01*
X44166717Y-111142517D01*
X44111093Y-111266598D01*
X44593905Y-111281195D01*
X44774221Y-111287227D01*
X44905099Y-111293555D01*
X44995489Y-111301394D01*
X45054336Y-111311963D01*
X45090587Y-111326477D01*
X45113190Y-111346152D01*
X45118083Y-111352465D01*
X45156294Y-111448112D01*
X45141173Y-111544793D01*
X45101057Y-111602345D01*
X45072630Y-111625755D01*
X45035328Y-111641961D01*
X44978777Y-111652259D01*
X44892606Y-111657951D01*
X44766442Y-111660336D01*
X44634958Y-111660736D01*
X44470001Y-111660814D01*
X44353239Y-111663639D01*
X44274490Y-111673093D01*
X44223569Y-111693060D01*
X44190294Y-111727424D01*
X44164480Y-111780068D01*
X44137656Y-111850383D01*
X44108458Y-111927180D01*
X44626654Y-111918038D01*
X44813461Y-111914357D01*
X44951510Y-111910050D01*
X45050432Y-111903877D01*
X45119855Y-111894598D01*
X45169410Y-111880973D01*
X45208727Y-111861761D01*
X45243416Y-111838598D01*
X45354230Y-111726848D01*
X45418311Y-111590487D01*
X45433661Y-111442175D01*
X45398281Y-111294571D01*
G36*
X45414097Y-113540100D02*
X45358478Y-113428550D01*
X45256069Y-113330092D01*
X45218136Y-113302977D01*
X45168500Y-113273438D01*
X45114588Y-113254272D01*
X45042636Y-113243307D01*
X44938878Y-113238371D01*
X44801899Y-113237287D01*
X44614185Y-113242182D01*
X44473242Y-113259196D01*
X44368092Y-113291823D01*
X44287757Y-113343558D01*
X44221259Y-113417896D01*
X44217322Y-113423358D01*
X44177047Y-113496620D01*
X44157120Y-113584840D01*
X44152207Y-113697038D01*
X44152207Y-113879433D01*
X43975143Y-113879509D01*
X43876530Y-113881207D01*
X43818686Y-113891550D01*
X43783994Y-113918578D01*
X43754836Y-113970332D01*
X43748879Y-113982761D01*
X43720961Y-114040923D01*
X43703328Y-114085956D01*
X43701806Y-114119441D01*
X43722219Y-114142962D01*
X43770393Y-114158100D01*
X43852154Y-114166437D01*
X43973328Y-114169556D01*
X44139740Y-114169040D01*
X44357215Y-114166471D01*
X44422264Y-114165668D01*
X44646498Y-114162778D01*
X44793179Y-114160188D01*
X44793179Y-113879586D01*
X44668674Y-113878009D01*
X44587213Y-113871000D01*
X44533485Y-113855142D01*
X44492177Y-113827019D01*
X44472029Y-113807925D01*
X44413079Y-113729865D01*
X44408280Y-113660753D01*
X44456962Y-113589440D01*
X44458759Y-113587632D01*
X44496382Y-113558617D01*
X44547516Y-113540967D01*
X44626262Y-113532064D01*
X44746724Y-113529291D01*
X44773412Y-113529241D01*
X44939417Y-113535942D01*
X45054495Y-113557752D01*
X45124746Y-113597235D01*
X45156271Y-113656956D01*
X45159448Y-113691472D01*
X45144540Y-113773389D01*
X45095452Y-113829579D01*
X45005638Y-113863402D01*
X44868555Y-113878220D01*
X44793179Y-113879586D01*
X44793179Y-114160188D01*
X44820048Y-114159713D01*
X44950618Y-114155753D01*
X45045913Y-114150174D01*
X45113636Y-114142254D01*
X45161493Y-114131269D01*
X45197187Y-114116499D01*
X45228422Y-114097218D01*
X45240176Y-114088951D01*
X45351203Y-113979288D01*
X45414153Y-113840635D01*
X45431703Y-113680246D01*
X45414097Y-113540100D01*
X45414097Y-113540100D01*
G37*
X45414097Y-113540100D02*
X45358478Y-113428550D01*
X45256069Y-113330092D01*
X45218136Y-113302977D01*
X45168500Y-113273438D01*
X45114588Y-113254272D01*
X45042636Y-113243307D01*
X44938878Y-113238371D01*
X44801899Y-113237287D01*
X44614185Y-113242182D01*
X44473242Y-113259196D01*
X44368092Y-113291823D01*
X44287757Y-113343558D01*
X44221259Y-113417896D01*
X44217322Y-113423358D01*
X44177047Y-113496620D01*
X44157120Y-113584840D01*
X44152207Y-113697038D01*
X44152207Y-113879433D01*
X43975143Y-113879509D01*
X43876530Y-113881207D01*
X43818686Y-113891550D01*
X43783994Y-113918578D01*
X43754836Y-113970332D01*
X43748879Y-113982761D01*
X43720961Y-114040923D01*
X43703328Y-114085956D01*
X43701806Y-114119441D01*
X43722219Y-114142962D01*
X43770393Y-114158100D01*
X43852154Y-114166437D01*
X43973328Y-114169556D01*
X44139740Y-114169040D01*
X44357215Y-114166471D01*
X44422264Y-114165668D01*
X44646498Y-114162778D01*
X44793179Y-114160188D01*
X44793179Y-113879586D01*
X44668674Y-113878009D01*
X44587213Y-113871000D01*
X44533485Y-113855142D01*
X44492177Y-113827019D01*
X44472029Y-113807925D01*
X44413079Y-113729865D01*
X44408280Y-113660753D01*
X44456962Y-113589440D01*
X44458759Y-113587632D01*
X44496382Y-113558617D01*
X44547516Y-113540967D01*
X44626262Y-113532064D01*
X44746724Y-113529291D01*
X44773412Y-113529241D01*
X44939417Y-113535942D01*
X45054495Y-113557752D01*
X45124746Y-113597235D01*
X45156271Y-113656956D01*
X45159448Y-113691472D01*
X45144540Y-113773389D01*
X45095452Y-113829579D01*
X45005638Y-113863402D01*
X44868555Y-113878220D01*
X44793179Y-113879586D01*
X44793179Y-114160188D01*
X44820048Y-114159713D01*
X44950618Y-114155753D01*
X45045913Y-114150174D01*
X45113636Y-114142254D01*
X45161493Y-114131269D01*
X45197187Y-114116499D01*
X45228422Y-114097218D01*
X45240176Y-114088951D01*
X45351203Y-113979288D01*
X45414153Y-113840635D01*
X45431703Y-113680246D01*
X45414097Y-113540100D01*
D11*
X76098660Y-46926666D02*
X75622470Y-46593333D01*
X76098660Y-46355238D02*
X75098660Y-46355238D01*
X75098660Y-46736190D01*
X75146280Y-46831428D01*
X75193899Y-46879047D01*
X75289137Y-46926666D01*
X75431994Y-46926666D01*
X75527232Y-46879047D01*
X75574851Y-46831428D01*
X75622470Y-46736190D01*
X75622470Y-46355238D01*
X75574851Y-47355238D02*
X75574851Y-47688571D01*
X76098660Y-47831428D02*
X76098660Y-47355238D01*
X75098660Y-47355238D01*
X75098660Y-47831428D01*
X75574851Y-48593333D02*
X75574851Y-48260000D01*
X76098660Y-48260000D02*
X75098660Y-48260000D01*
X75098660Y-48736190D01*
X75098660Y-49260000D02*
X75336756Y-49260000D01*
X75241518Y-49021904D02*
X75336756Y-49260000D01*
X75241518Y-49498095D01*
X75527232Y-49117142D02*
X75336756Y-49260000D01*
X75527232Y-49402857D01*
X75098660Y-50021904D02*
X75336756Y-50021904D01*
X75241518Y-49783809D02*
X75336756Y-50021904D01*
X75241518Y-50260000D01*
X75527232Y-49879047D02*
X75336756Y-50021904D01*
X75527232Y-50164761D01*
M02*
