%TF.GenerationSoftware,KiCad,Pcbnew,(5.0.1)-3*%
%TF.CreationDate,2018-11-18T09:55:05+01:00*%
%TF.ProjectId,ESP32-wood-beam-lamp,45535033322D776F6F642D6265616D2D,rev?*%
%TF.SameCoordinates,Original*%
%TF.FileFunction,Soldermask,Bot*%
%TF.FilePolarity,Negative*%
%FSLAX46Y46*%
G04 Gerber Fmt 4.6, Leading zero omitted, Abs format (unit mm)*
G04 Created by KiCad (PCBNEW (5.0.1)-3) date 18.11.2018 09:55:05*
%MOMM*%
%LPD*%
G01*
G04 APERTURE LIST*
%ADD10C,0.150000*%
G04 APERTURE END LIST*
D10*
X41666666Y-130000000D02*
G75*
G03X41666666Y-130000000I-1666666J0D01*
G01*
X37500000Y-130000000D02*
X42500000Y-130000000D01*
X40000000Y-127500000D02*
X40000000Y-132500000D01*
X40000000Y-130000000D02*
X40000000Y-30000000D01*
X100000000Y-130000000D02*
X40000000Y-130000000D01*
X100000000Y-30000000D02*
X100000000Y-130000000D01*
X40000000Y-30000000D02*
X100000000Y-30000000D01*
G36*
X83999503Y-126758615D02*
X84118255Y-126794639D01*
X84118257Y-126794640D01*
X84227703Y-126853140D01*
X84323633Y-126931867D01*
X84402360Y-127027797D01*
X84402361Y-127027799D01*
X84460861Y-127137245D01*
X84496885Y-127255997D01*
X84506000Y-127348550D01*
X84506000Y-128110450D01*
X84496885Y-128203003D01*
X84460861Y-128321754D01*
X84460860Y-128321757D01*
X84402360Y-128431203D01*
X84323633Y-128527133D01*
X84323631Y-128527135D01*
X84227703Y-128605860D01*
X84118254Y-128664361D01*
X83999502Y-128700385D01*
X83876000Y-128712548D01*
X83752497Y-128700385D01*
X83633745Y-128664361D01*
X83524299Y-128605861D01*
X83524297Y-128605860D01*
X83428367Y-128527133D01*
X83428365Y-128527131D01*
X83349640Y-128431203D01*
X83291139Y-128321754D01*
X83255115Y-128203002D01*
X83246000Y-128110449D01*
X83246000Y-127348550D01*
X83255115Y-127255999D01*
X83291139Y-127137246D01*
X83291140Y-127137243D01*
X83349641Y-127027797D01*
X83428368Y-126931867D01*
X83524298Y-126853140D01*
X83633744Y-126794640D01*
X83633746Y-126794639D01*
X83752498Y-126758615D01*
X83876000Y-126746452D01*
X83999503Y-126758615D01*
X83999503Y-126758615D01*
G37*
G36*
X90999502Y-126758615D02*
X91118254Y-126794639D01*
X91227703Y-126853140D01*
X91323631Y-126931865D01*
X91323633Y-126931867D01*
X91402360Y-127027797D01*
X91402361Y-127027799D01*
X91460861Y-127137245D01*
X91496885Y-127255997D01*
X91506000Y-127348550D01*
X91506000Y-128110450D01*
X91496885Y-128203003D01*
X91460861Y-128321754D01*
X91460860Y-128321757D01*
X91402360Y-128431203D01*
X91323633Y-128527133D01*
X91227703Y-128605860D01*
X91227701Y-128605861D01*
X91118255Y-128664361D01*
X90999503Y-128700385D01*
X90876000Y-128712548D01*
X90752498Y-128700385D01*
X90633746Y-128664361D01*
X90524300Y-128605861D01*
X90524298Y-128605860D01*
X90428368Y-128527133D01*
X90349641Y-128431203D01*
X90291140Y-128321757D01*
X90255116Y-128203003D01*
X90255115Y-128203001D01*
X90246000Y-128110450D01*
X90246000Y-127348551D01*
X90255115Y-127255998D01*
X90291139Y-127137246D01*
X90349640Y-127027797D01*
X90428365Y-126931869D01*
X90428367Y-126931867D01*
X90524297Y-126853140D01*
X90633743Y-126794640D01*
X90633745Y-126794639D01*
X90752497Y-126758615D01*
X90876000Y-126746452D01*
X90999502Y-126758615D01*
X90999502Y-126758615D01*
G37*
G36*
X44475451Y-124432639D02*
X44500597Y-124443055D01*
X44772095Y-124555513D01*
X45039065Y-124733896D01*
X45266104Y-124960935D01*
X45361604Y-125103862D01*
X45444487Y-125227905D01*
X45567361Y-125524549D01*
X45630000Y-125839458D01*
X45630000Y-126160542D01*
X45567361Y-126475451D01*
X45567360Y-126475453D01*
X45444487Y-126772095D01*
X45266104Y-127039065D01*
X45039065Y-127266104D01*
X44836849Y-127401220D01*
X44772095Y-127444487D01*
X44475451Y-127567361D01*
X44160542Y-127630000D01*
X43839458Y-127630000D01*
X43524549Y-127567361D01*
X43227905Y-127444487D01*
X43163151Y-127401220D01*
X42960935Y-127266104D01*
X42733896Y-127039065D01*
X42555513Y-126772095D01*
X42432640Y-126475453D01*
X42432639Y-126475451D01*
X42370000Y-126160542D01*
X42370000Y-125839458D01*
X42432639Y-125524549D01*
X42555513Y-125227905D01*
X42638396Y-125103862D01*
X42733896Y-124960935D01*
X42960935Y-124733896D01*
X43227905Y-124555513D01*
X43499403Y-124443055D01*
X43524549Y-124432639D01*
X43839458Y-124370000D01*
X44160542Y-124370000D01*
X44475451Y-124432639D01*
X44475451Y-124432639D01*
G37*
G36*
X96475451Y-124432639D02*
X96500597Y-124443055D01*
X96772095Y-124555513D01*
X97039065Y-124733896D01*
X97266104Y-124960935D01*
X97361604Y-125103862D01*
X97444487Y-125227905D01*
X97567361Y-125524549D01*
X97630000Y-125839458D01*
X97630000Y-126160542D01*
X97567361Y-126475451D01*
X97567360Y-126475453D01*
X97444487Y-126772095D01*
X97266104Y-127039065D01*
X97039065Y-127266104D01*
X96836849Y-127401220D01*
X96772095Y-127444487D01*
X96475451Y-127567361D01*
X96160542Y-127630000D01*
X95839458Y-127630000D01*
X95524549Y-127567361D01*
X95227905Y-127444487D01*
X95163151Y-127401220D01*
X94960935Y-127266104D01*
X94733896Y-127039065D01*
X94555513Y-126772095D01*
X94432640Y-126475453D01*
X94432639Y-126475451D01*
X94370000Y-126160542D01*
X94370000Y-125839458D01*
X94432639Y-125524549D01*
X94555513Y-125227905D01*
X94638396Y-125103862D01*
X94733896Y-124960935D01*
X94960935Y-124733896D01*
X95227905Y-124555513D01*
X95499403Y-124443055D01*
X95524549Y-124432639D01*
X95839458Y-124370000D01*
X96160542Y-124370000D01*
X96475451Y-124432639D01*
X96475451Y-124432639D01*
G37*
G36*
X77679756Y-123915482D02*
X77786794Y-123947952D01*
X77881455Y-123976667D01*
X78067336Y-124076022D01*
X78230265Y-124209735D01*
X78363978Y-124372663D01*
X78463333Y-124558544D01*
X78479254Y-124611029D01*
X78524518Y-124760243D01*
X78540000Y-124917436D01*
X78540000Y-126542564D01*
X78524518Y-126699757D01*
X78495735Y-126794640D01*
X78463333Y-126901456D01*
X78363978Y-127087337D01*
X78230265Y-127250265D01*
X78067337Y-127383978D01*
X77881456Y-127483333D01*
X77828971Y-127499254D01*
X77679757Y-127544518D01*
X77470000Y-127565177D01*
X77260244Y-127544518D01*
X77111030Y-127499254D01*
X77058545Y-127483333D01*
X76872664Y-127383978D01*
X76709736Y-127250265D01*
X76576023Y-127087337D01*
X76476666Y-126901452D01*
X76415482Y-126699758D01*
X76400000Y-126542565D01*
X76400000Y-124917436D01*
X76415482Y-124760246D01*
X76415482Y-124760244D01*
X76476666Y-124558549D01*
X76476667Y-124558545D01*
X76576022Y-124372664D01*
X76709735Y-124209735D01*
X76872663Y-124076022D01*
X77058544Y-123976667D01*
X77153205Y-123947952D01*
X77260243Y-123915482D01*
X77470000Y-123894823D01*
X77679756Y-123915482D01*
X77679756Y-123915482D01*
G37*
G36*
X72599756Y-123915482D02*
X72706794Y-123947952D01*
X72801455Y-123976667D01*
X72987336Y-124076022D01*
X73150265Y-124209735D01*
X73283978Y-124372663D01*
X73383333Y-124558544D01*
X73399254Y-124611029D01*
X73444518Y-124760243D01*
X73460000Y-124917436D01*
X73460000Y-126542564D01*
X73444518Y-126699757D01*
X73415735Y-126794640D01*
X73383333Y-126901456D01*
X73283978Y-127087337D01*
X73150265Y-127250265D01*
X72987337Y-127383978D01*
X72801456Y-127483333D01*
X72748971Y-127499254D01*
X72599757Y-127544518D01*
X72390000Y-127565177D01*
X72180244Y-127544518D01*
X72031030Y-127499254D01*
X71978545Y-127483333D01*
X71792664Y-127383978D01*
X71629736Y-127250265D01*
X71496023Y-127087337D01*
X71396666Y-126901452D01*
X71335482Y-126699758D01*
X71320000Y-126542565D01*
X71320000Y-124917436D01*
X71335482Y-124760246D01*
X71335482Y-124760244D01*
X71396666Y-124558549D01*
X71396667Y-124558545D01*
X71496022Y-124372664D01*
X71629735Y-124209735D01*
X71792663Y-124076022D01*
X71978544Y-123976667D01*
X72073205Y-123947952D01*
X72180243Y-123915482D01*
X72390000Y-123894823D01*
X72599756Y-123915482D01*
X72599756Y-123915482D01*
G37*
G36*
X67519756Y-123915482D02*
X67626794Y-123947952D01*
X67721455Y-123976667D01*
X67907336Y-124076022D01*
X68070265Y-124209735D01*
X68203978Y-124372663D01*
X68303333Y-124558544D01*
X68319254Y-124611029D01*
X68364518Y-124760243D01*
X68380000Y-124917436D01*
X68380000Y-126542564D01*
X68364518Y-126699757D01*
X68335735Y-126794640D01*
X68303333Y-126901456D01*
X68203978Y-127087337D01*
X68070265Y-127250265D01*
X67907337Y-127383978D01*
X67721456Y-127483333D01*
X67668971Y-127499254D01*
X67519757Y-127544518D01*
X67310000Y-127565177D01*
X67100244Y-127544518D01*
X66951030Y-127499254D01*
X66898545Y-127483333D01*
X66712664Y-127383978D01*
X66549736Y-127250265D01*
X66416023Y-127087337D01*
X66316666Y-126901452D01*
X66255482Y-126699758D01*
X66240000Y-126542565D01*
X66240000Y-124917436D01*
X66255482Y-124760246D01*
X66255482Y-124760244D01*
X66316666Y-124558549D01*
X66316667Y-124558545D01*
X66416022Y-124372664D01*
X66549735Y-124209735D01*
X66712663Y-124076022D01*
X66898544Y-123976667D01*
X66993205Y-123947952D01*
X67100243Y-123915482D01*
X67310000Y-123894823D01*
X67519756Y-123915482D01*
X67519756Y-123915482D01*
G37*
G36*
X57359756Y-123915482D02*
X57466794Y-123947952D01*
X57561455Y-123976667D01*
X57747336Y-124076022D01*
X57910265Y-124209735D01*
X58043978Y-124372663D01*
X58143333Y-124558544D01*
X58159254Y-124611029D01*
X58204518Y-124760243D01*
X58220000Y-124917436D01*
X58220000Y-126542564D01*
X58204518Y-126699757D01*
X58175735Y-126794640D01*
X58143333Y-126901456D01*
X58043978Y-127087337D01*
X57910265Y-127250265D01*
X57747337Y-127383978D01*
X57561456Y-127483333D01*
X57508971Y-127499254D01*
X57359757Y-127544518D01*
X57150000Y-127565177D01*
X56940244Y-127544518D01*
X56791030Y-127499254D01*
X56738545Y-127483333D01*
X56552664Y-127383978D01*
X56389736Y-127250265D01*
X56256023Y-127087337D01*
X56156666Y-126901452D01*
X56095482Y-126699758D01*
X56080000Y-126542565D01*
X56080000Y-124917436D01*
X56095482Y-124760246D01*
X56095482Y-124760244D01*
X56156666Y-124558549D01*
X56156667Y-124558545D01*
X56256022Y-124372664D01*
X56389735Y-124209735D01*
X56552663Y-124076022D01*
X56738544Y-123976667D01*
X56833205Y-123947952D01*
X56940243Y-123915482D01*
X57150000Y-123894823D01*
X57359756Y-123915482D01*
X57359756Y-123915482D01*
G37*
G36*
X62439756Y-123915482D02*
X62546794Y-123947952D01*
X62641455Y-123976667D01*
X62827336Y-124076022D01*
X62990265Y-124209735D01*
X63123978Y-124372663D01*
X63223333Y-124558544D01*
X63239254Y-124611029D01*
X63284518Y-124760243D01*
X63300000Y-124917436D01*
X63300000Y-126542564D01*
X63284518Y-126699757D01*
X63255735Y-126794640D01*
X63223333Y-126901456D01*
X63123978Y-127087337D01*
X62990265Y-127250265D01*
X62827337Y-127383978D01*
X62641456Y-127483333D01*
X62588971Y-127499254D01*
X62439757Y-127544518D01*
X62230000Y-127565177D01*
X62020244Y-127544518D01*
X61871030Y-127499254D01*
X61818545Y-127483333D01*
X61632664Y-127383978D01*
X61469736Y-127250265D01*
X61336023Y-127087337D01*
X61236666Y-126901452D01*
X61175482Y-126699758D01*
X61160000Y-126542565D01*
X61160000Y-124917436D01*
X61175482Y-124760246D01*
X61175482Y-124760244D01*
X61236666Y-124558549D01*
X61236667Y-124558545D01*
X61336022Y-124372664D01*
X61469735Y-124209735D01*
X61632663Y-124076022D01*
X61818544Y-123976667D01*
X61913205Y-123947952D01*
X62020243Y-123915482D01*
X62230000Y-123894823D01*
X62439756Y-123915482D01*
X62439756Y-123915482D01*
G37*
G36*
X53009279Y-123903711D02*
X53039602Y-123912909D01*
X53067555Y-123927851D01*
X53092048Y-123947952D01*
X53112149Y-123972445D01*
X53127091Y-124000398D01*
X53136289Y-124030721D01*
X53140000Y-124068399D01*
X53140000Y-127391601D01*
X53136289Y-127429279D01*
X53127091Y-127459602D01*
X53112149Y-127487555D01*
X53092048Y-127512048D01*
X53067555Y-127532149D01*
X53039602Y-127547091D01*
X53009279Y-127556289D01*
X52971601Y-127560000D01*
X51168399Y-127560000D01*
X51130721Y-127556289D01*
X51100398Y-127547091D01*
X51072445Y-127532149D01*
X51047952Y-127512048D01*
X51027851Y-127487555D01*
X51012909Y-127459602D01*
X51003711Y-127429279D01*
X51000000Y-127391601D01*
X51000000Y-124068399D01*
X51003711Y-124030721D01*
X51012909Y-124000398D01*
X51027851Y-123972445D01*
X51047952Y-123947952D01*
X51072445Y-123927851D01*
X51100398Y-123912909D01*
X51130721Y-123903711D01*
X51168399Y-123900000D01*
X52971601Y-123900000D01*
X53009279Y-123903711D01*
X53009279Y-123903711D01*
G37*
G36*
X85096225Y-124303514D02*
X85233627Y-124360428D01*
X85251938Y-124372663D01*
X85357287Y-124443055D01*
X85462445Y-124548213D01*
X85545073Y-124671875D01*
X85601986Y-124809275D01*
X85631000Y-124955138D01*
X85631000Y-125103862D01*
X85601986Y-125249725D01*
X85545073Y-125387125D01*
X85462445Y-125510787D01*
X85357287Y-125615945D01*
X85357284Y-125615947D01*
X85233627Y-125698572D01*
X85233626Y-125698573D01*
X85233625Y-125698573D01*
X85096225Y-125755486D01*
X84950362Y-125784500D01*
X84801638Y-125784500D01*
X84655775Y-125755486D01*
X84518375Y-125698573D01*
X84518374Y-125698573D01*
X84518373Y-125698572D01*
X84394716Y-125615947D01*
X84394713Y-125615945D01*
X84289555Y-125510787D01*
X84206927Y-125387125D01*
X84150014Y-125249725D01*
X84121000Y-125103862D01*
X84121000Y-124955138D01*
X84150014Y-124809275D01*
X84206927Y-124671875D01*
X84289555Y-124548213D01*
X84394713Y-124443055D01*
X84500062Y-124372663D01*
X84518373Y-124360428D01*
X84655775Y-124303514D01*
X84801638Y-124274500D01*
X84950362Y-124274500D01*
X85096225Y-124303514D01*
X85096225Y-124303514D01*
G37*
G36*
X90096225Y-124303514D02*
X90233627Y-124360428D01*
X90251938Y-124372663D01*
X90357287Y-124443055D01*
X90462445Y-124548213D01*
X90545073Y-124671875D01*
X90601986Y-124809275D01*
X90631000Y-124955138D01*
X90631000Y-125103862D01*
X90601986Y-125249725D01*
X90545073Y-125387125D01*
X90462445Y-125510787D01*
X90357287Y-125615945D01*
X90357284Y-125615947D01*
X90233627Y-125698572D01*
X90233626Y-125698573D01*
X90233625Y-125698573D01*
X90096225Y-125755486D01*
X89950362Y-125784500D01*
X89801638Y-125784500D01*
X89655775Y-125755486D01*
X89518375Y-125698573D01*
X89518374Y-125698573D01*
X89518373Y-125698572D01*
X89394716Y-125615947D01*
X89394713Y-125615945D01*
X89289555Y-125510787D01*
X89206927Y-125387125D01*
X89150014Y-125249725D01*
X89121000Y-125103862D01*
X89121000Y-124955138D01*
X89150014Y-124809275D01*
X89206927Y-124671875D01*
X89289555Y-124548213D01*
X89394713Y-124443055D01*
X89500062Y-124372663D01*
X89518373Y-124360428D01*
X89655775Y-124303514D01*
X89801638Y-124274500D01*
X89950362Y-124274500D01*
X90096225Y-124303514D01*
X90096225Y-124303514D01*
G37*
G36*
X85516506Y-121052733D02*
X85516509Y-121052734D01*
X85516510Y-121052734D01*
X85682391Y-121103053D01*
X85682394Y-121103055D01*
X85682395Y-121103055D01*
X85835267Y-121184766D01*
X85969264Y-121294736D01*
X86079234Y-121428733D01*
X86160945Y-121581605D01*
X86160947Y-121581609D01*
X86211266Y-121747490D01*
X86211267Y-121747494D01*
X86228257Y-121920000D01*
X86211267Y-122092506D01*
X86211266Y-122092509D01*
X86211266Y-122092510D01*
X86160947Y-122258391D01*
X86160945Y-122258394D01*
X86160945Y-122258395D01*
X86079234Y-122411267D01*
X85969264Y-122545264D01*
X85835267Y-122655234D01*
X85682395Y-122736945D01*
X85682391Y-122736947D01*
X85516510Y-122787266D01*
X85516509Y-122787266D01*
X85516506Y-122787267D01*
X85387225Y-122800000D01*
X85300775Y-122800000D01*
X85171494Y-122787267D01*
X85171491Y-122787266D01*
X85171490Y-122787266D01*
X85005609Y-122736947D01*
X85005605Y-122736945D01*
X84852733Y-122655234D01*
X84718736Y-122545264D01*
X84608766Y-122411267D01*
X84527055Y-122258395D01*
X84527055Y-122258394D01*
X84527053Y-122258391D01*
X84476734Y-122092510D01*
X84476734Y-122092509D01*
X84476733Y-122092506D01*
X84459743Y-121920000D01*
X84476733Y-121747494D01*
X84476734Y-121747490D01*
X84527053Y-121581609D01*
X84527055Y-121581605D01*
X84608766Y-121428733D01*
X84718736Y-121294736D01*
X84852733Y-121184766D01*
X85005605Y-121103055D01*
X85005606Y-121103055D01*
X85005609Y-121103053D01*
X85171490Y-121052734D01*
X85171491Y-121052734D01*
X85171494Y-121052733D01*
X85300775Y-121040000D01*
X85387225Y-121040000D01*
X85516506Y-121052733D01*
X85516506Y-121052733D01*
G37*
G36*
X92320000Y-122800000D02*
X90560000Y-122800000D01*
X90560000Y-121040000D01*
X92320000Y-121040000D01*
X92320000Y-122800000D01*
X92320000Y-122800000D01*
G37*
G36*
X89072506Y-121052733D02*
X89072509Y-121052734D01*
X89072510Y-121052734D01*
X89238391Y-121103053D01*
X89238394Y-121103055D01*
X89238395Y-121103055D01*
X89391267Y-121184766D01*
X89525264Y-121294736D01*
X89635234Y-121428733D01*
X89716945Y-121581605D01*
X89716947Y-121581609D01*
X89767266Y-121747490D01*
X89767267Y-121747494D01*
X89784257Y-121920000D01*
X89767267Y-122092506D01*
X89767266Y-122092509D01*
X89767266Y-122092510D01*
X89716947Y-122258391D01*
X89716945Y-122258394D01*
X89716945Y-122258395D01*
X89635234Y-122411267D01*
X89525264Y-122545264D01*
X89391267Y-122655234D01*
X89238395Y-122736945D01*
X89238391Y-122736947D01*
X89072510Y-122787266D01*
X89072509Y-122787266D01*
X89072506Y-122787267D01*
X88943225Y-122800000D01*
X88856775Y-122800000D01*
X88727494Y-122787267D01*
X88727491Y-122787266D01*
X88727490Y-122787266D01*
X88561609Y-122736947D01*
X88561605Y-122736945D01*
X88408733Y-122655234D01*
X88274736Y-122545264D01*
X88164766Y-122411267D01*
X88083055Y-122258395D01*
X88083055Y-122258394D01*
X88083053Y-122258391D01*
X88032734Y-122092510D01*
X88032734Y-122092509D01*
X88032733Y-122092506D01*
X88015743Y-121920000D01*
X88032733Y-121747494D01*
X88032734Y-121747490D01*
X88083053Y-121581609D01*
X88083055Y-121581605D01*
X88164766Y-121428733D01*
X88274736Y-121294736D01*
X88408733Y-121184766D01*
X88561605Y-121103055D01*
X88561606Y-121103055D01*
X88561609Y-121103053D01*
X88727490Y-121052734D01*
X88727491Y-121052734D01*
X88727494Y-121052733D01*
X88856775Y-121040000D01*
X88943225Y-121040000D01*
X89072506Y-121052733D01*
X89072506Y-121052733D01*
G37*
G36*
X83684000Y-122800000D02*
X81924000Y-122800000D01*
X81924000Y-121040000D01*
X83684000Y-121040000D01*
X83684000Y-122800000D01*
X83684000Y-122800000D01*
G37*
G36*
X78277506Y-117242733D02*
X78277509Y-117242734D01*
X78277510Y-117242734D01*
X78443391Y-117293053D01*
X78443394Y-117293055D01*
X78443395Y-117293055D01*
X78596267Y-117374766D01*
X78730264Y-117484736D01*
X78840234Y-117618733D01*
X78921945Y-117771605D01*
X78921947Y-117771609D01*
X78972266Y-117937490D01*
X78972267Y-117937494D01*
X78989257Y-118110000D01*
X78972267Y-118282506D01*
X78972266Y-118282509D01*
X78972266Y-118282510D01*
X78921947Y-118448391D01*
X78921945Y-118448394D01*
X78921945Y-118448395D01*
X78840234Y-118601267D01*
X78730264Y-118735264D01*
X78596267Y-118845234D01*
X78443395Y-118926945D01*
X78443391Y-118926947D01*
X78277510Y-118977266D01*
X78277509Y-118977266D01*
X78277506Y-118977267D01*
X78148225Y-118990000D01*
X78061775Y-118990000D01*
X77932494Y-118977267D01*
X77932491Y-118977266D01*
X77932490Y-118977266D01*
X77766609Y-118926947D01*
X77766605Y-118926945D01*
X77613733Y-118845234D01*
X77479736Y-118735264D01*
X77369766Y-118601267D01*
X77288055Y-118448395D01*
X77288055Y-118448394D01*
X77288053Y-118448391D01*
X77237734Y-118282510D01*
X77237734Y-118282509D01*
X77237733Y-118282506D01*
X77220743Y-118110000D01*
X77237733Y-117937494D01*
X77237734Y-117937490D01*
X77288053Y-117771609D01*
X77288055Y-117771605D01*
X77369766Y-117618733D01*
X77479736Y-117484736D01*
X77613733Y-117374766D01*
X77766605Y-117293055D01*
X77766606Y-117293055D01*
X77766609Y-117293053D01*
X77932490Y-117242734D01*
X77932491Y-117242734D01*
X77932494Y-117242733D01*
X78061775Y-117230000D01*
X78148225Y-117230000D01*
X78277506Y-117242733D01*
X78277506Y-117242733D01*
G37*
G36*
X76445000Y-118990000D02*
X74685000Y-118990000D01*
X74685000Y-117230000D01*
X76445000Y-117230000D01*
X76445000Y-118990000D01*
X76445000Y-118990000D01*
G37*
G36*
X88206000Y-118178000D02*
X86546000Y-118178000D01*
X86546000Y-116518000D01*
X88206000Y-116518000D01*
X88206000Y-118178000D01*
X88206000Y-118178000D01*
G37*
G36*
X87537925Y-114033948D02*
X87618102Y-114049896D01*
X87680669Y-114075813D01*
X87769151Y-114112463D01*
X87905097Y-114203299D01*
X88020701Y-114318903D01*
X88111537Y-114454849D01*
X88174104Y-114605899D01*
X88206000Y-114766251D01*
X88206000Y-114929749D01*
X88174104Y-115090101D01*
X88111537Y-115241151D01*
X88020701Y-115377097D01*
X87905097Y-115492701D01*
X87769151Y-115583537D01*
X87680669Y-115620187D01*
X87618102Y-115646104D01*
X87537925Y-115662052D01*
X87457749Y-115678000D01*
X87294251Y-115678000D01*
X87214075Y-115662052D01*
X87133898Y-115646104D01*
X87071331Y-115620187D01*
X86982849Y-115583537D01*
X86846903Y-115492701D01*
X86731299Y-115377097D01*
X86640463Y-115241151D01*
X86577896Y-115090101D01*
X86546000Y-114929749D01*
X86546000Y-114766251D01*
X86577896Y-114605899D01*
X86640463Y-114454849D01*
X86731299Y-114318903D01*
X86846903Y-114203299D01*
X86982849Y-114112463D01*
X87071331Y-114075813D01*
X87133898Y-114049896D01*
X87214075Y-114033948D01*
X87294251Y-114018000D01*
X87457749Y-114018000D01*
X87537925Y-114033948D01*
X87537925Y-114033948D01*
G37*
G36*
X96252100Y-111299716D02*
X96252103Y-111299717D01*
X96252104Y-111299717D01*
X96437305Y-111355897D01*
X96437307Y-111355898D01*
X96437310Y-111355899D01*
X96607986Y-111447126D01*
X96757593Y-111569907D01*
X96880374Y-111719514D01*
X96971601Y-111890190D01*
X97027784Y-112075400D01*
X97046753Y-112268000D01*
X97027784Y-112460600D01*
X96971601Y-112645810D01*
X96880374Y-112816486D01*
X96757593Y-112966093D01*
X96607986Y-113088874D01*
X96437310Y-113180101D01*
X96437307Y-113180102D01*
X96437305Y-113180103D01*
X96252104Y-113236283D01*
X96252103Y-113236283D01*
X96252100Y-113236284D01*
X96107761Y-113250500D01*
X95916239Y-113250500D01*
X95771900Y-113236284D01*
X95771897Y-113236283D01*
X95771896Y-113236283D01*
X95586695Y-113180103D01*
X95586693Y-113180102D01*
X95586690Y-113180101D01*
X95416014Y-113088874D01*
X95266407Y-112966093D01*
X95143626Y-112816486D01*
X95052399Y-112645810D01*
X94996216Y-112460600D01*
X94977247Y-112268000D01*
X94996216Y-112075400D01*
X95052399Y-111890190D01*
X95143626Y-111719514D01*
X95266407Y-111569907D01*
X95416014Y-111447126D01*
X95586690Y-111355899D01*
X95586693Y-111355898D01*
X95586695Y-111355897D01*
X95771896Y-111299717D01*
X95771897Y-111299717D01*
X95771900Y-111299716D01*
X95916239Y-111285500D01*
X96107761Y-111285500D01*
X96252100Y-111299716D01*
X96252100Y-111299716D01*
G37*
G36*
X96252100Y-108759716D02*
X96252103Y-108759717D01*
X96252104Y-108759717D01*
X96437305Y-108815897D01*
X96437307Y-108815898D01*
X96437310Y-108815899D01*
X96607986Y-108907126D01*
X96757593Y-109029907D01*
X96880374Y-109179514D01*
X96971601Y-109350190D01*
X97027784Y-109535400D01*
X97046753Y-109728000D01*
X97027784Y-109920600D01*
X96971601Y-110105810D01*
X96880374Y-110276486D01*
X96757593Y-110426093D01*
X96607986Y-110548874D01*
X96437310Y-110640101D01*
X96437307Y-110640102D01*
X96437305Y-110640103D01*
X96252104Y-110696283D01*
X96252103Y-110696283D01*
X96252100Y-110696284D01*
X96107761Y-110710500D01*
X95916239Y-110710500D01*
X95771900Y-110696284D01*
X95771897Y-110696283D01*
X95771896Y-110696283D01*
X95586695Y-110640103D01*
X95586693Y-110640102D01*
X95586690Y-110640101D01*
X95416014Y-110548874D01*
X95266407Y-110426093D01*
X95143626Y-110276486D01*
X95052399Y-110105810D01*
X94996216Y-109920600D01*
X94977247Y-109728000D01*
X94996216Y-109535400D01*
X95052399Y-109350190D01*
X95143626Y-109179514D01*
X95266407Y-109029907D01*
X95416014Y-108907126D01*
X95586690Y-108815899D01*
X95586693Y-108815898D01*
X95586695Y-108815897D01*
X95771896Y-108759717D01*
X95771897Y-108759717D01*
X95771900Y-108759716D01*
X95916239Y-108745500D01*
X96107761Y-108745500D01*
X96252100Y-108759716D01*
X96252100Y-108759716D01*
G37*
G36*
X60550000Y-109010000D02*
X57990000Y-109010000D01*
X57990000Y-106450000D01*
X60550000Y-106450000D01*
X60550000Y-109010000D01*
X60550000Y-109010000D01*
G37*
G36*
X78330000Y-109010000D02*
X75770000Y-109010000D01*
X75770000Y-106450000D01*
X78330000Y-106450000D01*
X78330000Y-109010000D01*
X78330000Y-109010000D01*
G37*
G36*
X90091279Y-106629711D02*
X90121602Y-106638909D01*
X90149555Y-106653851D01*
X90174048Y-106673952D01*
X90194149Y-106698445D01*
X90209091Y-106726398D01*
X90218289Y-106756721D01*
X90222000Y-106794399D01*
X90222000Y-108597601D01*
X90218289Y-108635279D01*
X90209091Y-108665602D01*
X90194149Y-108693555D01*
X90174048Y-108718048D01*
X90149555Y-108738149D01*
X90121602Y-108753091D01*
X90091279Y-108762289D01*
X90053601Y-108766000D01*
X86730399Y-108766000D01*
X86692721Y-108762289D01*
X86662398Y-108753091D01*
X86634445Y-108738149D01*
X86609952Y-108718048D01*
X86589851Y-108693555D01*
X86574909Y-108665602D01*
X86565711Y-108635279D01*
X86562000Y-108597601D01*
X86562000Y-106794399D01*
X86565711Y-106756721D01*
X86574909Y-106726398D01*
X86589851Y-106698445D01*
X86609952Y-106673952D01*
X86634445Y-106653851D01*
X86662398Y-106638909D01*
X86692721Y-106629711D01*
X86730399Y-106626000D01*
X90053601Y-106626000D01*
X90091279Y-106629711D01*
X90091279Y-106629711D01*
G37*
G36*
X97042000Y-108170500D02*
X94982000Y-108170500D01*
X94982000Y-106205500D01*
X97042000Y-106205500D01*
X97042000Y-108170500D01*
X97042000Y-108170500D01*
G37*
G36*
X89256962Y-101551161D02*
X89361757Y-101561482D01*
X89510971Y-101606746D01*
X89563456Y-101622667D01*
X89749337Y-101722022D01*
X89912265Y-101855735D01*
X90045978Y-102018663D01*
X90145333Y-102204544D01*
X90145334Y-102204548D01*
X90206518Y-102406243D01*
X90227177Y-102616000D01*
X90206518Y-102825757D01*
X90161254Y-102974971D01*
X90145333Y-103027456D01*
X90045978Y-103213337D01*
X89912265Y-103376265D01*
X89749337Y-103509978D01*
X89563456Y-103609333D01*
X89510971Y-103625254D01*
X89361757Y-103670518D01*
X89256962Y-103680839D01*
X89204565Y-103686000D01*
X87579435Y-103686000D01*
X87527038Y-103680839D01*
X87422243Y-103670518D01*
X87273029Y-103625254D01*
X87220544Y-103609333D01*
X87034663Y-103509978D01*
X86871735Y-103376265D01*
X86738022Y-103213337D01*
X86638667Y-103027456D01*
X86622746Y-102974971D01*
X86577482Y-102825757D01*
X86556823Y-102616000D01*
X86577482Y-102406243D01*
X86638666Y-102204548D01*
X86638667Y-102204544D01*
X86738022Y-102018663D01*
X86871735Y-101855735D01*
X87034663Y-101722022D01*
X87220544Y-101622667D01*
X87273029Y-101606746D01*
X87422243Y-101561482D01*
X87527038Y-101551161D01*
X87579435Y-101546000D01*
X89204565Y-101546000D01*
X89256962Y-101551161D01*
X89256962Y-101551161D01*
G37*
G36*
X96252100Y-99107716D02*
X96252103Y-99107717D01*
X96252104Y-99107717D01*
X96437305Y-99163897D01*
X96437307Y-99163898D01*
X96437310Y-99163899D01*
X96607986Y-99255126D01*
X96757593Y-99377907D01*
X96880374Y-99527514D01*
X96971601Y-99698190D01*
X97027784Y-99883400D01*
X97046753Y-100076000D01*
X97027784Y-100268600D01*
X96971601Y-100453810D01*
X96880374Y-100624486D01*
X96757593Y-100774093D01*
X96607986Y-100896874D01*
X96437310Y-100988101D01*
X96437307Y-100988102D01*
X96437305Y-100988103D01*
X96252104Y-101044283D01*
X96252103Y-101044283D01*
X96252100Y-101044284D01*
X96107761Y-101058500D01*
X95916239Y-101058500D01*
X95771900Y-101044284D01*
X95771897Y-101044283D01*
X95771896Y-101044283D01*
X95586695Y-100988103D01*
X95586693Y-100988102D01*
X95586690Y-100988101D01*
X95416014Y-100896874D01*
X95266407Y-100774093D01*
X95143626Y-100624486D01*
X95052399Y-100453810D01*
X94996216Y-100268600D01*
X94977247Y-100076000D01*
X94996216Y-99883400D01*
X95052399Y-99698190D01*
X95143626Y-99527514D01*
X95266407Y-99377907D01*
X95416014Y-99255126D01*
X95586690Y-99163899D01*
X95586693Y-99163898D01*
X95586695Y-99163897D01*
X95771896Y-99107717D01*
X95771897Y-99107717D01*
X95771900Y-99107716D01*
X95916239Y-99093500D01*
X96107761Y-99093500D01*
X96252100Y-99107716D01*
X96252100Y-99107716D01*
G37*
G36*
X89256962Y-96471161D02*
X89361757Y-96481482D01*
X89488733Y-96520000D01*
X89563456Y-96542667D01*
X89749337Y-96642022D01*
X89912265Y-96775735D01*
X90045978Y-96938663D01*
X90145333Y-97124544D01*
X90145334Y-97124548D01*
X90206518Y-97326243D01*
X90227177Y-97536000D01*
X90206518Y-97745757D01*
X90161254Y-97894971D01*
X90145333Y-97947456D01*
X90045978Y-98133337D01*
X89912265Y-98296265D01*
X89749337Y-98429978D01*
X89563456Y-98529333D01*
X89510971Y-98545254D01*
X89361757Y-98590518D01*
X89256962Y-98600839D01*
X89204565Y-98606000D01*
X87579435Y-98606000D01*
X87527038Y-98600839D01*
X87422243Y-98590518D01*
X87273029Y-98545254D01*
X87220544Y-98529333D01*
X87034663Y-98429978D01*
X86871735Y-98296265D01*
X86738022Y-98133337D01*
X86638667Y-97947456D01*
X86622746Y-97894971D01*
X86577482Y-97745757D01*
X86556823Y-97536000D01*
X86577482Y-97326243D01*
X86638666Y-97124548D01*
X86638667Y-97124544D01*
X86738022Y-96938663D01*
X86871735Y-96775735D01*
X87034663Y-96642022D01*
X87220544Y-96542667D01*
X87295267Y-96520000D01*
X87422243Y-96481482D01*
X87527038Y-96471161D01*
X87579435Y-96466000D01*
X89204565Y-96466000D01*
X89256962Y-96471161D01*
X89256962Y-96471161D01*
G37*
G36*
X96252100Y-96567716D02*
X96252103Y-96567717D01*
X96252104Y-96567717D01*
X96437305Y-96623897D01*
X96437307Y-96623898D01*
X96437310Y-96623899D01*
X96607986Y-96715126D01*
X96757593Y-96837907D01*
X96880374Y-96987514D01*
X96971601Y-97158190D01*
X96971602Y-97158193D01*
X96971603Y-97158195D01*
X97027783Y-97343396D01*
X97027784Y-97343400D01*
X97046753Y-97536000D01*
X97027784Y-97728600D01*
X97027783Y-97728603D01*
X97027783Y-97728604D01*
X97022580Y-97745757D01*
X96971601Y-97913810D01*
X96880374Y-98084486D01*
X96757593Y-98234093D01*
X96607986Y-98356874D01*
X96437310Y-98448101D01*
X96437307Y-98448102D01*
X96437305Y-98448103D01*
X96252104Y-98504283D01*
X96252103Y-98504283D01*
X96252100Y-98504284D01*
X96107761Y-98518500D01*
X95916239Y-98518500D01*
X95771900Y-98504284D01*
X95771897Y-98504283D01*
X95771896Y-98504283D01*
X95586695Y-98448103D01*
X95586693Y-98448102D01*
X95586690Y-98448101D01*
X95416014Y-98356874D01*
X95266407Y-98234093D01*
X95143626Y-98084486D01*
X95052399Y-97913810D01*
X95001421Y-97745757D01*
X94996217Y-97728604D01*
X94996217Y-97728603D01*
X94996216Y-97728600D01*
X94977247Y-97536000D01*
X94996216Y-97343400D01*
X94996217Y-97343396D01*
X95052397Y-97158195D01*
X95052398Y-97158193D01*
X95052399Y-97158190D01*
X95143626Y-96987514D01*
X95266407Y-96837907D01*
X95416014Y-96715126D01*
X95586690Y-96623899D01*
X95586693Y-96623898D01*
X95586695Y-96623897D01*
X95771896Y-96567717D01*
X95771897Y-96567717D01*
X95771900Y-96567716D01*
X95916239Y-96553500D01*
X96107761Y-96553500D01*
X96252100Y-96567716D01*
X96252100Y-96567716D01*
G37*
G36*
X43352506Y-95652733D02*
X43352509Y-95652734D01*
X43352510Y-95652734D01*
X43518391Y-95703053D01*
X43518394Y-95703055D01*
X43518395Y-95703055D01*
X43671267Y-95784766D01*
X43805264Y-95894736D01*
X43915234Y-96028733D01*
X43996945Y-96181605D01*
X43996947Y-96181609D01*
X44047266Y-96347490D01*
X44047267Y-96347494D01*
X44064257Y-96520000D01*
X44047267Y-96692506D01*
X44047266Y-96692509D01*
X44047266Y-96692510D01*
X43996947Y-96858391D01*
X43996945Y-96858394D01*
X43996945Y-96858395D01*
X43915234Y-97011267D01*
X43805264Y-97145264D01*
X43671267Y-97255234D01*
X43538417Y-97326243D01*
X43518391Y-97336947D01*
X43352510Y-97387266D01*
X43352509Y-97387266D01*
X43352506Y-97387267D01*
X43223225Y-97400000D01*
X43136775Y-97400000D01*
X43007494Y-97387267D01*
X43007491Y-97387266D01*
X43007490Y-97387266D01*
X42841609Y-97336947D01*
X42821583Y-97326243D01*
X42688733Y-97255234D01*
X42554736Y-97145264D01*
X42444766Y-97011267D01*
X42363055Y-96858395D01*
X42363055Y-96858394D01*
X42363053Y-96858391D01*
X42312734Y-96692510D01*
X42312734Y-96692509D01*
X42312733Y-96692506D01*
X42295743Y-96520000D01*
X42312733Y-96347494D01*
X42312734Y-96347490D01*
X42363053Y-96181609D01*
X42363055Y-96181605D01*
X42444766Y-96028733D01*
X42554736Y-95894736D01*
X42688733Y-95784766D01*
X42841605Y-95703055D01*
X42841606Y-95703055D01*
X42841609Y-95703053D01*
X43007490Y-95652734D01*
X43007491Y-95652734D01*
X43007494Y-95652733D01*
X43136775Y-95640000D01*
X43223225Y-95640000D01*
X43352506Y-95652733D01*
X43352506Y-95652733D01*
G37*
G36*
X56052506Y-95652733D02*
X56052509Y-95652734D01*
X56052510Y-95652734D01*
X56218391Y-95703053D01*
X56218394Y-95703055D01*
X56218395Y-95703055D01*
X56371267Y-95784766D01*
X56505264Y-95894736D01*
X56615234Y-96028733D01*
X56696945Y-96181605D01*
X56696947Y-96181609D01*
X56747266Y-96347490D01*
X56747267Y-96347494D01*
X56764257Y-96520000D01*
X56747267Y-96692506D01*
X56747266Y-96692509D01*
X56747266Y-96692510D01*
X56696947Y-96858391D01*
X56696945Y-96858394D01*
X56696945Y-96858395D01*
X56615234Y-97011267D01*
X56505264Y-97145264D01*
X56371267Y-97255234D01*
X56238417Y-97326243D01*
X56218391Y-97336947D01*
X56052510Y-97387266D01*
X56052509Y-97387266D01*
X56052506Y-97387267D01*
X55923225Y-97400000D01*
X55836775Y-97400000D01*
X55707494Y-97387267D01*
X55707491Y-97387266D01*
X55707490Y-97387266D01*
X55541609Y-97336947D01*
X55521583Y-97326243D01*
X55388733Y-97255234D01*
X55254736Y-97145264D01*
X55144766Y-97011267D01*
X55063055Y-96858395D01*
X55063055Y-96858394D01*
X55063053Y-96858391D01*
X55012734Y-96692510D01*
X55012734Y-96692509D01*
X55012733Y-96692506D01*
X54995743Y-96520000D01*
X55012733Y-96347494D01*
X55012734Y-96347490D01*
X55063053Y-96181609D01*
X55063055Y-96181605D01*
X55144766Y-96028733D01*
X55254736Y-95894736D01*
X55388733Y-95784766D01*
X55541605Y-95703055D01*
X55541606Y-95703055D01*
X55541609Y-95703053D01*
X55707490Y-95652734D01*
X55707491Y-95652734D01*
X55707494Y-95652733D01*
X55836775Y-95640000D01*
X55923225Y-95640000D01*
X56052506Y-95652733D01*
X56052506Y-95652733D01*
G37*
G36*
X53512506Y-95652733D02*
X53512509Y-95652734D01*
X53512510Y-95652734D01*
X53678391Y-95703053D01*
X53678394Y-95703055D01*
X53678395Y-95703055D01*
X53831267Y-95784766D01*
X53965264Y-95894736D01*
X54075234Y-96028733D01*
X54156945Y-96181605D01*
X54156947Y-96181609D01*
X54207266Y-96347490D01*
X54207267Y-96347494D01*
X54224257Y-96520000D01*
X54207267Y-96692506D01*
X54207266Y-96692509D01*
X54207266Y-96692510D01*
X54156947Y-96858391D01*
X54156945Y-96858394D01*
X54156945Y-96858395D01*
X54075234Y-97011267D01*
X53965264Y-97145264D01*
X53831267Y-97255234D01*
X53698417Y-97326243D01*
X53678391Y-97336947D01*
X53512510Y-97387266D01*
X53512509Y-97387266D01*
X53512506Y-97387267D01*
X53383225Y-97400000D01*
X53296775Y-97400000D01*
X53167494Y-97387267D01*
X53167491Y-97387266D01*
X53167490Y-97387266D01*
X53001609Y-97336947D01*
X52981583Y-97326243D01*
X52848733Y-97255234D01*
X52714736Y-97145264D01*
X52604766Y-97011267D01*
X52523055Y-96858395D01*
X52523055Y-96858394D01*
X52523053Y-96858391D01*
X52472734Y-96692510D01*
X52472734Y-96692509D01*
X52472733Y-96692506D01*
X52455743Y-96520000D01*
X52472733Y-96347494D01*
X52472734Y-96347490D01*
X52523053Y-96181609D01*
X52523055Y-96181605D01*
X52604766Y-96028733D01*
X52714736Y-95894736D01*
X52848733Y-95784766D01*
X53001605Y-95703055D01*
X53001606Y-95703055D01*
X53001609Y-95703053D01*
X53167490Y-95652734D01*
X53167491Y-95652734D01*
X53167494Y-95652733D01*
X53296775Y-95640000D01*
X53383225Y-95640000D01*
X53512506Y-95652733D01*
X53512506Y-95652733D01*
G37*
G36*
X48432506Y-95652733D02*
X48432509Y-95652734D01*
X48432510Y-95652734D01*
X48598391Y-95703053D01*
X48598394Y-95703055D01*
X48598395Y-95703055D01*
X48751267Y-95784766D01*
X48885264Y-95894736D01*
X48995234Y-96028733D01*
X49076945Y-96181605D01*
X49076947Y-96181609D01*
X49127266Y-96347490D01*
X49127267Y-96347494D01*
X49144257Y-96520000D01*
X49127267Y-96692506D01*
X49127266Y-96692509D01*
X49127266Y-96692510D01*
X49076947Y-96858391D01*
X49076945Y-96858394D01*
X49076945Y-96858395D01*
X48995234Y-97011267D01*
X48885264Y-97145264D01*
X48751267Y-97255234D01*
X48618417Y-97326243D01*
X48598391Y-97336947D01*
X48432510Y-97387266D01*
X48432509Y-97387266D01*
X48432506Y-97387267D01*
X48303225Y-97400000D01*
X48216775Y-97400000D01*
X48087494Y-97387267D01*
X48087491Y-97387266D01*
X48087490Y-97387266D01*
X47921609Y-97336947D01*
X47901583Y-97326243D01*
X47768733Y-97255234D01*
X47634736Y-97145264D01*
X47524766Y-97011267D01*
X47443055Y-96858395D01*
X47443055Y-96858394D01*
X47443053Y-96858391D01*
X47392734Y-96692510D01*
X47392734Y-96692509D01*
X47392733Y-96692506D01*
X47375743Y-96520000D01*
X47392733Y-96347494D01*
X47392734Y-96347490D01*
X47443053Y-96181609D01*
X47443055Y-96181605D01*
X47524766Y-96028733D01*
X47634736Y-95894736D01*
X47768733Y-95784766D01*
X47921605Y-95703055D01*
X47921606Y-95703055D01*
X47921609Y-95703053D01*
X48087490Y-95652734D01*
X48087491Y-95652734D01*
X48087494Y-95652733D01*
X48216775Y-95640000D01*
X48303225Y-95640000D01*
X48432506Y-95652733D01*
X48432506Y-95652733D01*
G37*
G36*
X45892506Y-95652733D02*
X45892509Y-95652734D01*
X45892510Y-95652734D01*
X46058391Y-95703053D01*
X46058394Y-95703055D01*
X46058395Y-95703055D01*
X46211267Y-95784766D01*
X46345264Y-95894736D01*
X46455234Y-96028733D01*
X46536945Y-96181605D01*
X46536947Y-96181609D01*
X46587266Y-96347490D01*
X46587267Y-96347494D01*
X46604257Y-96520000D01*
X46587267Y-96692506D01*
X46587266Y-96692509D01*
X46587266Y-96692510D01*
X46536947Y-96858391D01*
X46536945Y-96858394D01*
X46536945Y-96858395D01*
X46455234Y-97011267D01*
X46345264Y-97145264D01*
X46211267Y-97255234D01*
X46078417Y-97326243D01*
X46058391Y-97336947D01*
X45892510Y-97387266D01*
X45892509Y-97387266D01*
X45892506Y-97387267D01*
X45763225Y-97400000D01*
X45676775Y-97400000D01*
X45547494Y-97387267D01*
X45547491Y-97387266D01*
X45547490Y-97387266D01*
X45381609Y-97336947D01*
X45361583Y-97326243D01*
X45228733Y-97255234D01*
X45094736Y-97145264D01*
X44984766Y-97011267D01*
X44903055Y-96858395D01*
X44903055Y-96858394D01*
X44903053Y-96858391D01*
X44852734Y-96692510D01*
X44852734Y-96692509D01*
X44852733Y-96692506D01*
X44835743Y-96520000D01*
X44852733Y-96347494D01*
X44852734Y-96347490D01*
X44903053Y-96181609D01*
X44903055Y-96181605D01*
X44984766Y-96028733D01*
X45094736Y-95894736D01*
X45228733Y-95784766D01*
X45381605Y-95703055D01*
X45381606Y-95703055D01*
X45381609Y-95703053D01*
X45547490Y-95652734D01*
X45547491Y-95652734D01*
X45547494Y-95652733D01*
X45676775Y-95640000D01*
X45763225Y-95640000D01*
X45892506Y-95652733D01*
X45892506Y-95652733D01*
G37*
G36*
X50972506Y-95652733D02*
X50972509Y-95652734D01*
X50972510Y-95652734D01*
X51138391Y-95703053D01*
X51138394Y-95703055D01*
X51138395Y-95703055D01*
X51291267Y-95784766D01*
X51425264Y-95894736D01*
X51535234Y-96028733D01*
X51616945Y-96181605D01*
X51616947Y-96181609D01*
X51667266Y-96347490D01*
X51667267Y-96347494D01*
X51684257Y-96520000D01*
X51667267Y-96692506D01*
X51667266Y-96692509D01*
X51667266Y-96692510D01*
X51616947Y-96858391D01*
X51616945Y-96858394D01*
X51616945Y-96858395D01*
X51535234Y-97011267D01*
X51425264Y-97145264D01*
X51291267Y-97255234D01*
X51158417Y-97326243D01*
X51138391Y-97336947D01*
X50972510Y-97387266D01*
X50972509Y-97387266D01*
X50972506Y-97387267D01*
X50843225Y-97400000D01*
X50756775Y-97400000D01*
X50627494Y-97387267D01*
X50627491Y-97387266D01*
X50627490Y-97387266D01*
X50461609Y-97336947D01*
X50441583Y-97326243D01*
X50308733Y-97255234D01*
X50174736Y-97145264D01*
X50064766Y-97011267D01*
X49983055Y-96858395D01*
X49983055Y-96858394D01*
X49983053Y-96858391D01*
X49932734Y-96692510D01*
X49932734Y-96692509D01*
X49932733Y-96692506D01*
X49915743Y-96520000D01*
X49932733Y-96347494D01*
X49932734Y-96347490D01*
X49983053Y-96181609D01*
X49983055Y-96181605D01*
X50064766Y-96028733D01*
X50174736Y-95894736D01*
X50308733Y-95784766D01*
X50461605Y-95703055D01*
X50461606Y-95703055D01*
X50461609Y-95703053D01*
X50627490Y-95652734D01*
X50627491Y-95652734D01*
X50627494Y-95652733D01*
X50756775Y-95640000D01*
X50843225Y-95640000D01*
X50972506Y-95652733D01*
X50972506Y-95652733D01*
G37*
G36*
X97042000Y-95978500D02*
X94982000Y-95978500D01*
X94982000Y-94013500D01*
X97042000Y-94013500D01*
X97042000Y-95978500D01*
X97042000Y-95978500D01*
G37*
G36*
X45892506Y-93112733D02*
X45892509Y-93112734D01*
X45892510Y-93112734D01*
X46058391Y-93163053D01*
X46058394Y-93163055D01*
X46058395Y-93163055D01*
X46211267Y-93244766D01*
X46345264Y-93354736D01*
X46455234Y-93488733D01*
X46475153Y-93526000D01*
X46536947Y-93641609D01*
X46587266Y-93807490D01*
X46587267Y-93807494D01*
X46604257Y-93980000D01*
X46587267Y-94152506D01*
X46587266Y-94152509D01*
X46587266Y-94152510D01*
X46536947Y-94318391D01*
X46536945Y-94318394D01*
X46536945Y-94318395D01*
X46455234Y-94471267D01*
X46345264Y-94605264D01*
X46211267Y-94715234D01*
X46058395Y-94796945D01*
X46058391Y-94796947D01*
X45892510Y-94847266D01*
X45892509Y-94847266D01*
X45892506Y-94847267D01*
X45763225Y-94860000D01*
X45676775Y-94860000D01*
X45547494Y-94847267D01*
X45547491Y-94847266D01*
X45547490Y-94847266D01*
X45381609Y-94796947D01*
X45381605Y-94796945D01*
X45228733Y-94715234D01*
X45094736Y-94605264D01*
X44984766Y-94471267D01*
X44903055Y-94318395D01*
X44903055Y-94318394D01*
X44903053Y-94318391D01*
X44852734Y-94152510D01*
X44852734Y-94152509D01*
X44852733Y-94152506D01*
X44835743Y-93980000D01*
X44852733Y-93807494D01*
X44852734Y-93807490D01*
X44903053Y-93641609D01*
X44964847Y-93526000D01*
X44984766Y-93488733D01*
X45094736Y-93354736D01*
X45228733Y-93244766D01*
X45381605Y-93163055D01*
X45381606Y-93163055D01*
X45381609Y-93163053D01*
X45547490Y-93112734D01*
X45547491Y-93112734D01*
X45547494Y-93112733D01*
X45676775Y-93100000D01*
X45763225Y-93100000D01*
X45892506Y-93112733D01*
X45892506Y-93112733D01*
G37*
G36*
X50972506Y-93112733D02*
X50972509Y-93112734D01*
X50972510Y-93112734D01*
X51138391Y-93163053D01*
X51138394Y-93163055D01*
X51138395Y-93163055D01*
X51291267Y-93244766D01*
X51425264Y-93354736D01*
X51535234Y-93488733D01*
X51555153Y-93526000D01*
X51616947Y-93641609D01*
X51667266Y-93807490D01*
X51667267Y-93807494D01*
X51684257Y-93980000D01*
X51667267Y-94152506D01*
X51667266Y-94152509D01*
X51667266Y-94152510D01*
X51616947Y-94318391D01*
X51616945Y-94318394D01*
X51616945Y-94318395D01*
X51535234Y-94471267D01*
X51425264Y-94605264D01*
X51291267Y-94715234D01*
X51138395Y-94796945D01*
X51138391Y-94796947D01*
X50972510Y-94847266D01*
X50972509Y-94847266D01*
X50972506Y-94847267D01*
X50843225Y-94860000D01*
X50756775Y-94860000D01*
X50627494Y-94847267D01*
X50627491Y-94847266D01*
X50627490Y-94847266D01*
X50461609Y-94796947D01*
X50461605Y-94796945D01*
X50308733Y-94715234D01*
X50174736Y-94605264D01*
X50064766Y-94471267D01*
X49983055Y-94318395D01*
X49983055Y-94318394D01*
X49983053Y-94318391D01*
X49932734Y-94152510D01*
X49932734Y-94152509D01*
X49932733Y-94152506D01*
X49915743Y-93980000D01*
X49932733Y-93807494D01*
X49932734Y-93807490D01*
X49983053Y-93641609D01*
X50044847Y-93526000D01*
X50064766Y-93488733D01*
X50174736Y-93354736D01*
X50308733Y-93244766D01*
X50461605Y-93163055D01*
X50461606Y-93163055D01*
X50461609Y-93163053D01*
X50627490Y-93112734D01*
X50627491Y-93112734D01*
X50627494Y-93112733D01*
X50756775Y-93100000D01*
X50843225Y-93100000D01*
X50972506Y-93112733D01*
X50972506Y-93112733D01*
G37*
G36*
X48432506Y-93112733D02*
X48432509Y-93112734D01*
X48432510Y-93112734D01*
X48598391Y-93163053D01*
X48598394Y-93163055D01*
X48598395Y-93163055D01*
X48751267Y-93244766D01*
X48885264Y-93354736D01*
X48995234Y-93488733D01*
X49015153Y-93526000D01*
X49076947Y-93641609D01*
X49127266Y-93807490D01*
X49127267Y-93807494D01*
X49144257Y-93980000D01*
X49127267Y-94152506D01*
X49127266Y-94152509D01*
X49127266Y-94152510D01*
X49076947Y-94318391D01*
X49076945Y-94318394D01*
X49076945Y-94318395D01*
X48995234Y-94471267D01*
X48885264Y-94605264D01*
X48751267Y-94715234D01*
X48598395Y-94796945D01*
X48598391Y-94796947D01*
X48432510Y-94847266D01*
X48432509Y-94847266D01*
X48432506Y-94847267D01*
X48303225Y-94860000D01*
X48216775Y-94860000D01*
X48087494Y-94847267D01*
X48087491Y-94847266D01*
X48087490Y-94847266D01*
X47921609Y-94796947D01*
X47921605Y-94796945D01*
X47768733Y-94715234D01*
X47634736Y-94605264D01*
X47524766Y-94471267D01*
X47443055Y-94318395D01*
X47443055Y-94318394D01*
X47443053Y-94318391D01*
X47392734Y-94152510D01*
X47392734Y-94152509D01*
X47392733Y-94152506D01*
X47375743Y-93980000D01*
X47392733Y-93807494D01*
X47392734Y-93807490D01*
X47443053Y-93641609D01*
X47504847Y-93526000D01*
X47524766Y-93488733D01*
X47634736Y-93354736D01*
X47768733Y-93244766D01*
X47921605Y-93163055D01*
X47921606Y-93163055D01*
X47921609Y-93163053D01*
X48087490Y-93112734D01*
X48087491Y-93112734D01*
X48087494Y-93112733D01*
X48216775Y-93100000D01*
X48303225Y-93100000D01*
X48432506Y-93112733D01*
X48432506Y-93112733D01*
G37*
G36*
X56052506Y-93112733D02*
X56052509Y-93112734D01*
X56052510Y-93112734D01*
X56218391Y-93163053D01*
X56218394Y-93163055D01*
X56218395Y-93163055D01*
X56371267Y-93244766D01*
X56505264Y-93354736D01*
X56615234Y-93488733D01*
X56635153Y-93526000D01*
X56696947Y-93641609D01*
X56747266Y-93807490D01*
X56747267Y-93807494D01*
X56764257Y-93980000D01*
X56747267Y-94152506D01*
X56747266Y-94152509D01*
X56747266Y-94152510D01*
X56696947Y-94318391D01*
X56696945Y-94318394D01*
X56696945Y-94318395D01*
X56615234Y-94471267D01*
X56505264Y-94605264D01*
X56371267Y-94715234D01*
X56218395Y-94796945D01*
X56218391Y-94796947D01*
X56052510Y-94847266D01*
X56052509Y-94847266D01*
X56052506Y-94847267D01*
X55923225Y-94860000D01*
X55836775Y-94860000D01*
X55707494Y-94847267D01*
X55707491Y-94847266D01*
X55707490Y-94847266D01*
X55541609Y-94796947D01*
X55541605Y-94796945D01*
X55388733Y-94715234D01*
X55254736Y-94605264D01*
X55144766Y-94471267D01*
X55063055Y-94318395D01*
X55063055Y-94318394D01*
X55063053Y-94318391D01*
X55012734Y-94152510D01*
X55012734Y-94152509D01*
X55012733Y-94152506D01*
X54995743Y-93980000D01*
X55012733Y-93807494D01*
X55012734Y-93807490D01*
X55063053Y-93641609D01*
X55124847Y-93526000D01*
X55144766Y-93488733D01*
X55254736Y-93354736D01*
X55388733Y-93244766D01*
X55541605Y-93163055D01*
X55541606Y-93163055D01*
X55541609Y-93163053D01*
X55707490Y-93112734D01*
X55707491Y-93112734D01*
X55707494Y-93112733D01*
X55836775Y-93100000D01*
X55923225Y-93100000D01*
X56052506Y-93112733D01*
X56052506Y-93112733D01*
G37*
G36*
X53512506Y-93112733D02*
X53512509Y-93112734D01*
X53512510Y-93112734D01*
X53678391Y-93163053D01*
X53678394Y-93163055D01*
X53678395Y-93163055D01*
X53831267Y-93244766D01*
X53965264Y-93354736D01*
X54075234Y-93488733D01*
X54095153Y-93526000D01*
X54156947Y-93641609D01*
X54207266Y-93807490D01*
X54207267Y-93807494D01*
X54224257Y-93980000D01*
X54207267Y-94152506D01*
X54207266Y-94152509D01*
X54207266Y-94152510D01*
X54156947Y-94318391D01*
X54156945Y-94318394D01*
X54156945Y-94318395D01*
X54075234Y-94471267D01*
X53965264Y-94605264D01*
X53831267Y-94715234D01*
X53678395Y-94796945D01*
X53678391Y-94796947D01*
X53512510Y-94847266D01*
X53512509Y-94847266D01*
X53512506Y-94847267D01*
X53383225Y-94860000D01*
X53296775Y-94860000D01*
X53167494Y-94847267D01*
X53167491Y-94847266D01*
X53167490Y-94847266D01*
X53001609Y-94796947D01*
X53001605Y-94796945D01*
X52848733Y-94715234D01*
X52714736Y-94605264D01*
X52604766Y-94471267D01*
X52523055Y-94318395D01*
X52523055Y-94318394D01*
X52523053Y-94318391D01*
X52472734Y-94152510D01*
X52472734Y-94152509D01*
X52472733Y-94152506D01*
X52455743Y-93980000D01*
X52472733Y-93807494D01*
X52472734Y-93807490D01*
X52523053Y-93641609D01*
X52584847Y-93526000D01*
X52604766Y-93488733D01*
X52714736Y-93354736D01*
X52848733Y-93244766D01*
X53001605Y-93163055D01*
X53001606Y-93163055D01*
X53001609Y-93163053D01*
X53167490Y-93112734D01*
X53167491Y-93112734D01*
X53167494Y-93112733D01*
X53296775Y-93100000D01*
X53383225Y-93100000D01*
X53512506Y-93112733D01*
X53512506Y-93112733D01*
G37*
G36*
X43352506Y-93112733D02*
X43352509Y-93112734D01*
X43352510Y-93112734D01*
X43518391Y-93163053D01*
X43518394Y-93163055D01*
X43518395Y-93163055D01*
X43671267Y-93244766D01*
X43805264Y-93354736D01*
X43915234Y-93488733D01*
X43935153Y-93526000D01*
X43996947Y-93641609D01*
X44047266Y-93807490D01*
X44047267Y-93807494D01*
X44064257Y-93980000D01*
X44047267Y-94152506D01*
X44047266Y-94152509D01*
X44047266Y-94152510D01*
X43996947Y-94318391D01*
X43996945Y-94318394D01*
X43996945Y-94318395D01*
X43915234Y-94471267D01*
X43805264Y-94605264D01*
X43671267Y-94715234D01*
X43518395Y-94796945D01*
X43518391Y-94796947D01*
X43352510Y-94847266D01*
X43352509Y-94847266D01*
X43352506Y-94847267D01*
X43223225Y-94860000D01*
X43136775Y-94860000D01*
X43007494Y-94847267D01*
X43007491Y-94847266D01*
X43007490Y-94847266D01*
X42841609Y-94796947D01*
X42841605Y-94796945D01*
X42688733Y-94715234D01*
X42554736Y-94605264D01*
X42444766Y-94471267D01*
X42363055Y-94318395D01*
X42363055Y-94318394D01*
X42363053Y-94318391D01*
X42312734Y-94152510D01*
X42312734Y-94152509D01*
X42312733Y-94152506D01*
X42295743Y-93980000D01*
X42312733Y-93807494D01*
X42312734Y-93807490D01*
X42363053Y-93641609D01*
X42424847Y-93526000D01*
X42444766Y-93488733D01*
X42554736Y-93354736D01*
X42688733Y-93244766D01*
X42841605Y-93163055D01*
X42841606Y-93163055D01*
X42841609Y-93163053D01*
X43007490Y-93112734D01*
X43007491Y-93112734D01*
X43007494Y-93112733D01*
X43136775Y-93100000D01*
X43223225Y-93100000D01*
X43352506Y-93112733D01*
X43352506Y-93112733D01*
G37*
G36*
X89256962Y-91391161D02*
X89361757Y-91401482D01*
X89488733Y-91440000D01*
X89563456Y-91462667D01*
X89749337Y-91562022D01*
X89912265Y-91695735D01*
X90045978Y-91858663D01*
X90145333Y-92044544D01*
X90145334Y-92044548D01*
X90206518Y-92246243D01*
X90227177Y-92456000D01*
X90206518Y-92665757D01*
X90161254Y-92814971D01*
X90145333Y-92867456D01*
X90045978Y-93053337D01*
X89912265Y-93216265D01*
X89749337Y-93349978D01*
X89563456Y-93449333D01*
X89510971Y-93465254D01*
X89361757Y-93510518D01*
X89256962Y-93520839D01*
X89204565Y-93526000D01*
X87579435Y-93526000D01*
X87527038Y-93520839D01*
X87422243Y-93510518D01*
X87273029Y-93465254D01*
X87220544Y-93449333D01*
X87034663Y-93349978D01*
X86871735Y-93216265D01*
X86738022Y-93053337D01*
X86638667Y-92867456D01*
X86622746Y-92814971D01*
X86577482Y-92665757D01*
X86556823Y-92456000D01*
X86577482Y-92246243D01*
X86638666Y-92044548D01*
X86638667Y-92044544D01*
X86738022Y-91858663D01*
X86871735Y-91695735D01*
X87034663Y-91562022D01*
X87220544Y-91462667D01*
X87295267Y-91440000D01*
X87422243Y-91401482D01*
X87527038Y-91391161D01*
X87579435Y-91386000D01*
X89204565Y-91386000D01*
X89256962Y-91391161D01*
X89256962Y-91391161D01*
G37*
G36*
X56052506Y-90572733D02*
X56052509Y-90572734D01*
X56052510Y-90572734D01*
X56218391Y-90623053D01*
X56218394Y-90623055D01*
X56218395Y-90623055D01*
X56371267Y-90704766D01*
X56505264Y-90814736D01*
X56615234Y-90948733D01*
X56696945Y-91101605D01*
X56696947Y-91101609D01*
X56747266Y-91267490D01*
X56747267Y-91267494D01*
X56764257Y-91440000D01*
X56747267Y-91612506D01*
X56747266Y-91612509D01*
X56747266Y-91612510D01*
X56696947Y-91778391D01*
X56696945Y-91778394D01*
X56696945Y-91778395D01*
X56615234Y-91931267D01*
X56505264Y-92065264D01*
X56371267Y-92175234D01*
X56238417Y-92246243D01*
X56218391Y-92256947D01*
X56052510Y-92307266D01*
X56052509Y-92307266D01*
X56052506Y-92307267D01*
X55923225Y-92320000D01*
X55836775Y-92320000D01*
X55707494Y-92307267D01*
X55707491Y-92307266D01*
X55707490Y-92307266D01*
X55541609Y-92256947D01*
X55521583Y-92246243D01*
X55388733Y-92175234D01*
X55254736Y-92065264D01*
X55144766Y-91931267D01*
X55063055Y-91778395D01*
X55063055Y-91778394D01*
X55063053Y-91778391D01*
X55012734Y-91612510D01*
X55012734Y-91612509D01*
X55012733Y-91612506D01*
X54995743Y-91440000D01*
X55012733Y-91267494D01*
X55012734Y-91267490D01*
X55063053Y-91101609D01*
X55063055Y-91101605D01*
X55144766Y-90948733D01*
X55254736Y-90814736D01*
X55388733Y-90704766D01*
X55541605Y-90623055D01*
X55541606Y-90623055D01*
X55541609Y-90623053D01*
X55707490Y-90572734D01*
X55707491Y-90572734D01*
X55707494Y-90572733D01*
X55836775Y-90560000D01*
X55923225Y-90560000D01*
X56052506Y-90572733D01*
X56052506Y-90572733D01*
G37*
G36*
X43352506Y-90572733D02*
X43352509Y-90572734D01*
X43352510Y-90572734D01*
X43518391Y-90623053D01*
X43518394Y-90623055D01*
X43518395Y-90623055D01*
X43671267Y-90704766D01*
X43805264Y-90814736D01*
X43915234Y-90948733D01*
X43996945Y-91101605D01*
X43996947Y-91101609D01*
X44047266Y-91267490D01*
X44047267Y-91267494D01*
X44064257Y-91440000D01*
X44047267Y-91612506D01*
X44047266Y-91612509D01*
X44047266Y-91612510D01*
X43996947Y-91778391D01*
X43996945Y-91778394D01*
X43996945Y-91778395D01*
X43915234Y-91931267D01*
X43805264Y-92065264D01*
X43671267Y-92175234D01*
X43538417Y-92246243D01*
X43518391Y-92256947D01*
X43352510Y-92307266D01*
X43352509Y-92307266D01*
X43352506Y-92307267D01*
X43223225Y-92320000D01*
X43136775Y-92320000D01*
X43007494Y-92307267D01*
X43007491Y-92307266D01*
X43007490Y-92307266D01*
X42841609Y-92256947D01*
X42821583Y-92246243D01*
X42688733Y-92175234D01*
X42554736Y-92065264D01*
X42444766Y-91931267D01*
X42363055Y-91778395D01*
X42363055Y-91778394D01*
X42363053Y-91778391D01*
X42312734Y-91612510D01*
X42312734Y-91612509D01*
X42312733Y-91612506D01*
X42295743Y-91440000D01*
X42312733Y-91267494D01*
X42312734Y-91267490D01*
X42363053Y-91101609D01*
X42363055Y-91101605D01*
X42444766Y-90948733D01*
X42554736Y-90814736D01*
X42688733Y-90704766D01*
X42841605Y-90623055D01*
X42841606Y-90623055D01*
X42841609Y-90623053D01*
X43007490Y-90572734D01*
X43007491Y-90572734D01*
X43007494Y-90572733D01*
X43136775Y-90560000D01*
X43223225Y-90560000D01*
X43352506Y-90572733D01*
X43352506Y-90572733D01*
G37*
G36*
X53512506Y-90572733D02*
X53512509Y-90572734D01*
X53512510Y-90572734D01*
X53678391Y-90623053D01*
X53678394Y-90623055D01*
X53678395Y-90623055D01*
X53831267Y-90704766D01*
X53965264Y-90814736D01*
X54075234Y-90948733D01*
X54156945Y-91101605D01*
X54156947Y-91101609D01*
X54207266Y-91267490D01*
X54207267Y-91267494D01*
X54224257Y-91440000D01*
X54207267Y-91612506D01*
X54207266Y-91612509D01*
X54207266Y-91612510D01*
X54156947Y-91778391D01*
X54156945Y-91778394D01*
X54156945Y-91778395D01*
X54075234Y-91931267D01*
X53965264Y-92065264D01*
X53831267Y-92175234D01*
X53698417Y-92246243D01*
X53678391Y-92256947D01*
X53512510Y-92307266D01*
X53512509Y-92307266D01*
X53512506Y-92307267D01*
X53383225Y-92320000D01*
X53296775Y-92320000D01*
X53167494Y-92307267D01*
X53167491Y-92307266D01*
X53167490Y-92307266D01*
X53001609Y-92256947D01*
X52981583Y-92246243D01*
X52848733Y-92175234D01*
X52714736Y-92065264D01*
X52604766Y-91931267D01*
X52523055Y-91778395D01*
X52523055Y-91778394D01*
X52523053Y-91778391D01*
X52472734Y-91612510D01*
X52472734Y-91612509D01*
X52472733Y-91612506D01*
X52455743Y-91440000D01*
X52472733Y-91267494D01*
X52472734Y-91267490D01*
X52523053Y-91101609D01*
X52523055Y-91101605D01*
X52604766Y-90948733D01*
X52714736Y-90814736D01*
X52848733Y-90704766D01*
X53001605Y-90623055D01*
X53001606Y-90623055D01*
X53001609Y-90623053D01*
X53167490Y-90572734D01*
X53167491Y-90572734D01*
X53167494Y-90572733D01*
X53296775Y-90560000D01*
X53383225Y-90560000D01*
X53512506Y-90572733D01*
X53512506Y-90572733D01*
G37*
G36*
X45892506Y-90572733D02*
X45892509Y-90572734D01*
X45892510Y-90572734D01*
X46058391Y-90623053D01*
X46058394Y-90623055D01*
X46058395Y-90623055D01*
X46211267Y-90704766D01*
X46345264Y-90814736D01*
X46455234Y-90948733D01*
X46536945Y-91101605D01*
X46536947Y-91101609D01*
X46587266Y-91267490D01*
X46587267Y-91267494D01*
X46604257Y-91440000D01*
X46587267Y-91612506D01*
X46587266Y-91612509D01*
X46587266Y-91612510D01*
X46536947Y-91778391D01*
X46536945Y-91778394D01*
X46536945Y-91778395D01*
X46455234Y-91931267D01*
X46345264Y-92065264D01*
X46211267Y-92175234D01*
X46078417Y-92246243D01*
X46058391Y-92256947D01*
X45892510Y-92307266D01*
X45892509Y-92307266D01*
X45892506Y-92307267D01*
X45763225Y-92320000D01*
X45676775Y-92320000D01*
X45547494Y-92307267D01*
X45547491Y-92307266D01*
X45547490Y-92307266D01*
X45381609Y-92256947D01*
X45361583Y-92246243D01*
X45228733Y-92175234D01*
X45094736Y-92065264D01*
X44984766Y-91931267D01*
X44903055Y-91778395D01*
X44903055Y-91778394D01*
X44903053Y-91778391D01*
X44852734Y-91612510D01*
X44852734Y-91612509D01*
X44852733Y-91612506D01*
X44835743Y-91440000D01*
X44852733Y-91267494D01*
X44852734Y-91267490D01*
X44903053Y-91101609D01*
X44903055Y-91101605D01*
X44984766Y-90948733D01*
X45094736Y-90814736D01*
X45228733Y-90704766D01*
X45381605Y-90623055D01*
X45381606Y-90623055D01*
X45381609Y-90623053D01*
X45547490Y-90572734D01*
X45547491Y-90572734D01*
X45547494Y-90572733D01*
X45676775Y-90560000D01*
X45763225Y-90560000D01*
X45892506Y-90572733D01*
X45892506Y-90572733D01*
G37*
G36*
X50972506Y-90572733D02*
X50972509Y-90572734D01*
X50972510Y-90572734D01*
X51138391Y-90623053D01*
X51138394Y-90623055D01*
X51138395Y-90623055D01*
X51291267Y-90704766D01*
X51425264Y-90814736D01*
X51535234Y-90948733D01*
X51616945Y-91101605D01*
X51616947Y-91101609D01*
X51667266Y-91267490D01*
X51667267Y-91267494D01*
X51684257Y-91440000D01*
X51667267Y-91612506D01*
X51667266Y-91612509D01*
X51667266Y-91612510D01*
X51616947Y-91778391D01*
X51616945Y-91778394D01*
X51616945Y-91778395D01*
X51535234Y-91931267D01*
X51425264Y-92065264D01*
X51291267Y-92175234D01*
X51158417Y-92246243D01*
X51138391Y-92256947D01*
X50972510Y-92307266D01*
X50972509Y-92307266D01*
X50972506Y-92307267D01*
X50843225Y-92320000D01*
X50756775Y-92320000D01*
X50627494Y-92307267D01*
X50627491Y-92307266D01*
X50627490Y-92307266D01*
X50461609Y-92256947D01*
X50441583Y-92246243D01*
X50308733Y-92175234D01*
X50174736Y-92065264D01*
X50064766Y-91931267D01*
X49983055Y-91778395D01*
X49983055Y-91778394D01*
X49983053Y-91778391D01*
X49932734Y-91612510D01*
X49932734Y-91612509D01*
X49932733Y-91612506D01*
X49915743Y-91440000D01*
X49932733Y-91267494D01*
X49932734Y-91267490D01*
X49983053Y-91101609D01*
X49983055Y-91101605D01*
X50064766Y-90948733D01*
X50174736Y-90814736D01*
X50308733Y-90704766D01*
X50461605Y-90623055D01*
X50461606Y-90623055D01*
X50461609Y-90623053D01*
X50627490Y-90572734D01*
X50627491Y-90572734D01*
X50627494Y-90572733D01*
X50756775Y-90560000D01*
X50843225Y-90560000D01*
X50972506Y-90572733D01*
X50972506Y-90572733D01*
G37*
G36*
X48432506Y-90572733D02*
X48432509Y-90572734D01*
X48432510Y-90572734D01*
X48598391Y-90623053D01*
X48598394Y-90623055D01*
X48598395Y-90623055D01*
X48751267Y-90704766D01*
X48885264Y-90814736D01*
X48995234Y-90948733D01*
X49076945Y-91101605D01*
X49076947Y-91101609D01*
X49127266Y-91267490D01*
X49127267Y-91267494D01*
X49144257Y-91440000D01*
X49127267Y-91612506D01*
X49127266Y-91612509D01*
X49127266Y-91612510D01*
X49076947Y-91778391D01*
X49076945Y-91778394D01*
X49076945Y-91778395D01*
X48995234Y-91931267D01*
X48885264Y-92065264D01*
X48751267Y-92175234D01*
X48618417Y-92246243D01*
X48598391Y-92256947D01*
X48432510Y-92307266D01*
X48432509Y-92307266D01*
X48432506Y-92307267D01*
X48303225Y-92320000D01*
X48216775Y-92320000D01*
X48087494Y-92307267D01*
X48087491Y-92307266D01*
X48087490Y-92307266D01*
X47921609Y-92256947D01*
X47901583Y-92246243D01*
X47768733Y-92175234D01*
X47634736Y-92065264D01*
X47524766Y-91931267D01*
X47443055Y-91778395D01*
X47443055Y-91778394D01*
X47443053Y-91778391D01*
X47392734Y-91612510D01*
X47392734Y-91612509D01*
X47392733Y-91612506D01*
X47375743Y-91440000D01*
X47392733Y-91267494D01*
X47392734Y-91267490D01*
X47443053Y-91101609D01*
X47443055Y-91101605D01*
X47524766Y-90948733D01*
X47634736Y-90814736D01*
X47768733Y-90704766D01*
X47921605Y-90623055D01*
X47921606Y-90623055D01*
X47921609Y-90623053D01*
X48087490Y-90572734D01*
X48087491Y-90572734D01*
X48087494Y-90572733D01*
X48216775Y-90560000D01*
X48303225Y-90560000D01*
X48432506Y-90572733D01*
X48432506Y-90572733D01*
G37*
G36*
X50972506Y-88032733D02*
X50972509Y-88032734D01*
X50972510Y-88032734D01*
X51138391Y-88083053D01*
X51138394Y-88083055D01*
X51138395Y-88083055D01*
X51291267Y-88164766D01*
X51425264Y-88274736D01*
X51535234Y-88408733D01*
X51555153Y-88446000D01*
X51616947Y-88561609D01*
X51667266Y-88727490D01*
X51667267Y-88727494D01*
X51684257Y-88900000D01*
X51667267Y-89072506D01*
X51667266Y-89072509D01*
X51667266Y-89072510D01*
X51616947Y-89238391D01*
X51616945Y-89238394D01*
X51616945Y-89238395D01*
X51535234Y-89391267D01*
X51425264Y-89525264D01*
X51291267Y-89635234D01*
X51138395Y-89716945D01*
X51138391Y-89716947D01*
X50972510Y-89767266D01*
X50972509Y-89767266D01*
X50972506Y-89767267D01*
X50843225Y-89780000D01*
X50756775Y-89780000D01*
X50627494Y-89767267D01*
X50627491Y-89767266D01*
X50627490Y-89767266D01*
X50461609Y-89716947D01*
X50461605Y-89716945D01*
X50308733Y-89635234D01*
X50174736Y-89525264D01*
X50064766Y-89391267D01*
X49983055Y-89238395D01*
X49983055Y-89238394D01*
X49983053Y-89238391D01*
X49932734Y-89072510D01*
X49932734Y-89072509D01*
X49932733Y-89072506D01*
X49915743Y-88900000D01*
X49932733Y-88727494D01*
X49932734Y-88727490D01*
X49983053Y-88561609D01*
X50044847Y-88446000D01*
X50064766Y-88408733D01*
X50174736Y-88274736D01*
X50308733Y-88164766D01*
X50461605Y-88083055D01*
X50461606Y-88083055D01*
X50461609Y-88083053D01*
X50627490Y-88032734D01*
X50627491Y-88032734D01*
X50627494Y-88032733D01*
X50756775Y-88020000D01*
X50843225Y-88020000D01*
X50972506Y-88032733D01*
X50972506Y-88032733D01*
G37*
G36*
X56052506Y-88032733D02*
X56052509Y-88032734D01*
X56052510Y-88032734D01*
X56218391Y-88083053D01*
X56218394Y-88083055D01*
X56218395Y-88083055D01*
X56371267Y-88164766D01*
X56505264Y-88274736D01*
X56615234Y-88408733D01*
X56635153Y-88446000D01*
X56696947Y-88561609D01*
X56747266Y-88727490D01*
X56747267Y-88727494D01*
X56764257Y-88900000D01*
X56747267Y-89072506D01*
X56747266Y-89072509D01*
X56747266Y-89072510D01*
X56696947Y-89238391D01*
X56696945Y-89238394D01*
X56696945Y-89238395D01*
X56615234Y-89391267D01*
X56505264Y-89525264D01*
X56371267Y-89635234D01*
X56218395Y-89716945D01*
X56218391Y-89716947D01*
X56052510Y-89767266D01*
X56052509Y-89767266D01*
X56052506Y-89767267D01*
X55923225Y-89780000D01*
X55836775Y-89780000D01*
X55707494Y-89767267D01*
X55707491Y-89767266D01*
X55707490Y-89767266D01*
X55541609Y-89716947D01*
X55541605Y-89716945D01*
X55388733Y-89635234D01*
X55254736Y-89525264D01*
X55144766Y-89391267D01*
X55063055Y-89238395D01*
X55063055Y-89238394D01*
X55063053Y-89238391D01*
X55012734Y-89072510D01*
X55012734Y-89072509D01*
X55012733Y-89072506D01*
X54995743Y-88900000D01*
X55012733Y-88727494D01*
X55012734Y-88727490D01*
X55063053Y-88561609D01*
X55124847Y-88446000D01*
X55144766Y-88408733D01*
X55254736Y-88274736D01*
X55388733Y-88164766D01*
X55541605Y-88083055D01*
X55541606Y-88083055D01*
X55541609Y-88083053D01*
X55707490Y-88032734D01*
X55707491Y-88032734D01*
X55707494Y-88032733D01*
X55836775Y-88020000D01*
X55923225Y-88020000D01*
X56052506Y-88032733D01*
X56052506Y-88032733D01*
G37*
G36*
X43352506Y-88032733D02*
X43352509Y-88032734D01*
X43352510Y-88032734D01*
X43518391Y-88083053D01*
X43518394Y-88083055D01*
X43518395Y-88083055D01*
X43671267Y-88164766D01*
X43805264Y-88274736D01*
X43915234Y-88408733D01*
X43935153Y-88446000D01*
X43996947Y-88561609D01*
X44047266Y-88727490D01*
X44047267Y-88727494D01*
X44064257Y-88900000D01*
X44047267Y-89072506D01*
X44047266Y-89072509D01*
X44047266Y-89072510D01*
X43996947Y-89238391D01*
X43996945Y-89238394D01*
X43996945Y-89238395D01*
X43915234Y-89391267D01*
X43805264Y-89525264D01*
X43671267Y-89635234D01*
X43518395Y-89716945D01*
X43518391Y-89716947D01*
X43352510Y-89767266D01*
X43352509Y-89767266D01*
X43352506Y-89767267D01*
X43223225Y-89780000D01*
X43136775Y-89780000D01*
X43007494Y-89767267D01*
X43007491Y-89767266D01*
X43007490Y-89767266D01*
X42841609Y-89716947D01*
X42841605Y-89716945D01*
X42688733Y-89635234D01*
X42554736Y-89525264D01*
X42444766Y-89391267D01*
X42363055Y-89238395D01*
X42363055Y-89238394D01*
X42363053Y-89238391D01*
X42312734Y-89072510D01*
X42312734Y-89072509D01*
X42312733Y-89072506D01*
X42295743Y-88900000D01*
X42312733Y-88727494D01*
X42312734Y-88727490D01*
X42363053Y-88561609D01*
X42424847Y-88446000D01*
X42444766Y-88408733D01*
X42554736Y-88274736D01*
X42688733Y-88164766D01*
X42841605Y-88083055D01*
X42841606Y-88083055D01*
X42841609Y-88083053D01*
X43007490Y-88032734D01*
X43007491Y-88032734D01*
X43007494Y-88032733D01*
X43136775Y-88020000D01*
X43223225Y-88020000D01*
X43352506Y-88032733D01*
X43352506Y-88032733D01*
G37*
G36*
X45892506Y-88032733D02*
X45892509Y-88032734D01*
X45892510Y-88032734D01*
X46058391Y-88083053D01*
X46058394Y-88083055D01*
X46058395Y-88083055D01*
X46211267Y-88164766D01*
X46345264Y-88274736D01*
X46455234Y-88408733D01*
X46475153Y-88446000D01*
X46536947Y-88561609D01*
X46587266Y-88727490D01*
X46587267Y-88727494D01*
X46604257Y-88900000D01*
X46587267Y-89072506D01*
X46587266Y-89072509D01*
X46587266Y-89072510D01*
X46536947Y-89238391D01*
X46536945Y-89238394D01*
X46536945Y-89238395D01*
X46455234Y-89391267D01*
X46345264Y-89525264D01*
X46211267Y-89635234D01*
X46058395Y-89716945D01*
X46058391Y-89716947D01*
X45892510Y-89767266D01*
X45892509Y-89767266D01*
X45892506Y-89767267D01*
X45763225Y-89780000D01*
X45676775Y-89780000D01*
X45547494Y-89767267D01*
X45547491Y-89767266D01*
X45547490Y-89767266D01*
X45381609Y-89716947D01*
X45381605Y-89716945D01*
X45228733Y-89635234D01*
X45094736Y-89525264D01*
X44984766Y-89391267D01*
X44903055Y-89238395D01*
X44903055Y-89238394D01*
X44903053Y-89238391D01*
X44852734Y-89072510D01*
X44852734Y-89072509D01*
X44852733Y-89072506D01*
X44835743Y-88900000D01*
X44852733Y-88727494D01*
X44852734Y-88727490D01*
X44903053Y-88561609D01*
X44964847Y-88446000D01*
X44984766Y-88408733D01*
X45094736Y-88274736D01*
X45228733Y-88164766D01*
X45381605Y-88083055D01*
X45381606Y-88083055D01*
X45381609Y-88083053D01*
X45547490Y-88032734D01*
X45547491Y-88032734D01*
X45547494Y-88032733D01*
X45676775Y-88020000D01*
X45763225Y-88020000D01*
X45892506Y-88032733D01*
X45892506Y-88032733D01*
G37*
G36*
X48432506Y-88032733D02*
X48432509Y-88032734D01*
X48432510Y-88032734D01*
X48598391Y-88083053D01*
X48598394Y-88083055D01*
X48598395Y-88083055D01*
X48751267Y-88164766D01*
X48885264Y-88274736D01*
X48995234Y-88408733D01*
X49015153Y-88446000D01*
X49076947Y-88561609D01*
X49127266Y-88727490D01*
X49127267Y-88727494D01*
X49144257Y-88900000D01*
X49127267Y-89072506D01*
X49127266Y-89072509D01*
X49127266Y-89072510D01*
X49076947Y-89238391D01*
X49076945Y-89238394D01*
X49076945Y-89238395D01*
X48995234Y-89391267D01*
X48885264Y-89525264D01*
X48751267Y-89635234D01*
X48598395Y-89716945D01*
X48598391Y-89716947D01*
X48432510Y-89767266D01*
X48432509Y-89767266D01*
X48432506Y-89767267D01*
X48303225Y-89780000D01*
X48216775Y-89780000D01*
X48087494Y-89767267D01*
X48087491Y-89767266D01*
X48087490Y-89767266D01*
X47921609Y-89716947D01*
X47921605Y-89716945D01*
X47768733Y-89635234D01*
X47634736Y-89525264D01*
X47524766Y-89391267D01*
X47443055Y-89238395D01*
X47443055Y-89238394D01*
X47443053Y-89238391D01*
X47392734Y-89072510D01*
X47392734Y-89072509D01*
X47392733Y-89072506D01*
X47375743Y-88900000D01*
X47392733Y-88727494D01*
X47392734Y-88727490D01*
X47443053Y-88561609D01*
X47504847Y-88446000D01*
X47524766Y-88408733D01*
X47634736Y-88274736D01*
X47768733Y-88164766D01*
X47921605Y-88083055D01*
X47921606Y-88083055D01*
X47921609Y-88083053D01*
X48087490Y-88032734D01*
X48087491Y-88032734D01*
X48087494Y-88032733D01*
X48216775Y-88020000D01*
X48303225Y-88020000D01*
X48432506Y-88032733D01*
X48432506Y-88032733D01*
G37*
G36*
X53512506Y-88032733D02*
X53512509Y-88032734D01*
X53512510Y-88032734D01*
X53678391Y-88083053D01*
X53678394Y-88083055D01*
X53678395Y-88083055D01*
X53831267Y-88164766D01*
X53965264Y-88274736D01*
X54075234Y-88408733D01*
X54095153Y-88446000D01*
X54156947Y-88561609D01*
X54207266Y-88727490D01*
X54207267Y-88727494D01*
X54224257Y-88900000D01*
X54207267Y-89072506D01*
X54207266Y-89072509D01*
X54207266Y-89072510D01*
X54156947Y-89238391D01*
X54156945Y-89238394D01*
X54156945Y-89238395D01*
X54075234Y-89391267D01*
X53965264Y-89525264D01*
X53831267Y-89635234D01*
X53678395Y-89716945D01*
X53678391Y-89716947D01*
X53512510Y-89767266D01*
X53512509Y-89767266D01*
X53512506Y-89767267D01*
X53383225Y-89780000D01*
X53296775Y-89780000D01*
X53167494Y-89767267D01*
X53167491Y-89767266D01*
X53167490Y-89767266D01*
X53001609Y-89716947D01*
X53001605Y-89716945D01*
X52848733Y-89635234D01*
X52714736Y-89525264D01*
X52604766Y-89391267D01*
X52523055Y-89238395D01*
X52523055Y-89238394D01*
X52523053Y-89238391D01*
X52472734Y-89072510D01*
X52472734Y-89072509D01*
X52472733Y-89072506D01*
X52455743Y-88900000D01*
X52472733Y-88727494D01*
X52472734Y-88727490D01*
X52523053Y-88561609D01*
X52584847Y-88446000D01*
X52604766Y-88408733D01*
X52714736Y-88274736D01*
X52848733Y-88164766D01*
X53001605Y-88083055D01*
X53001606Y-88083055D01*
X53001609Y-88083053D01*
X53167490Y-88032734D01*
X53167491Y-88032734D01*
X53167494Y-88032733D01*
X53296775Y-88020000D01*
X53383225Y-88020000D01*
X53512506Y-88032733D01*
X53512506Y-88032733D01*
G37*
G36*
X89256962Y-86311161D02*
X89361757Y-86321482D01*
X89488733Y-86360000D01*
X89563456Y-86382667D01*
X89749337Y-86482022D01*
X89912265Y-86615735D01*
X90045978Y-86778663D01*
X90145333Y-86964544D01*
X90145334Y-86964548D01*
X90206518Y-87166243D01*
X90227177Y-87376000D01*
X90206518Y-87585757D01*
X90161254Y-87734971D01*
X90145333Y-87787456D01*
X90045978Y-87973337D01*
X89912265Y-88136265D01*
X89749337Y-88269978D01*
X89563456Y-88369333D01*
X89510971Y-88385254D01*
X89361757Y-88430518D01*
X89256962Y-88440839D01*
X89204565Y-88446000D01*
X87579435Y-88446000D01*
X87527038Y-88440839D01*
X87422243Y-88430518D01*
X87273029Y-88385254D01*
X87220544Y-88369333D01*
X87034663Y-88269978D01*
X86871735Y-88136265D01*
X86738022Y-87973337D01*
X86638667Y-87787456D01*
X86622746Y-87734971D01*
X86577482Y-87585757D01*
X86556823Y-87376000D01*
X86577482Y-87166243D01*
X86638666Y-86964548D01*
X86638667Y-86964544D01*
X86738022Y-86778663D01*
X86871735Y-86615735D01*
X87034663Y-86482022D01*
X87220544Y-86382667D01*
X87295267Y-86360000D01*
X87422243Y-86321482D01*
X87527038Y-86311161D01*
X87579435Y-86306000D01*
X89204565Y-86306000D01*
X89256962Y-86311161D01*
X89256962Y-86311161D01*
G37*
G36*
X48432506Y-85492733D02*
X48432509Y-85492734D01*
X48432510Y-85492734D01*
X48598391Y-85543053D01*
X48598394Y-85543055D01*
X48598395Y-85543055D01*
X48751267Y-85624766D01*
X48885264Y-85734736D01*
X48995234Y-85868733D01*
X49076945Y-86021605D01*
X49076947Y-86021609D01*
X49127266Y-86187490D01*
X49127267Y-86187494D01*
X49144257Y-86360000D01*
X49127267Y-86532506D01*
X49127266Y-86532509D01*
X49127266Y-86532510D01*
X49076947Y-86698391D01*
X49076945Y-86698394D01*
X49076945Y-86698395D01*
X48995234Y-86851267D01*
X48885264Y-86985264D01*
X48751267Y-87095234D01*
X48618417Y-87166243D01*
X48598391Y-87176947D01*
X48432510Y-87227266D01*
X48432509Y-87227266D01*
X48432506Y-87227267D01*
X48303225Y-87240000D01*
X48216775Y-87240000D01*
X48087494Y-87227267D01*
X48087491Y-87227266D01*
X48087490Y-87227266D01*
X47921609Y-87176947D01*
X47901583Y-87166243D01*
X47768733Y-87095234D01*
X47634736Y-86985264D01*
X47524766Y-86851267D01*
X47443055Y-86698395D01*
X47443055Y-86698394D01*
X47443053Y-86698391D01*
X47392734Y-86532510D01*
X47392734Y-86532509D01*
X47392733Y-86532506D01*
X47375743Y-86360000D01*
X47392733Y-86187494D01*
X47392734Y-86187490D01*
X47443053Y-86021609D01*
X47443055Y-86021605D01*
X47524766Y-85868733D01*
X47634736Y-85734736D01*
X47768733Y-85624766D01*
X47921605Y-85543055D01*
X47921606Y-85543055D01*
X47921609Y-85543053D01*
X48087490Y-85492734D01*
X48087491Y-85492734D01*
X48087494Y-85492733D01*
X48216775Y-85480000D01*
X48303225Y-85480000D01*
X48432506Y-85492733D01*
X48432506Y-85492733D01*
G37*
G36*
X50972506Y-85492733D02*
X50972509Y-85492734D01*
X50972510Y-85492734D01*
X51138391Y-85543053D01*
X51138394Y-85543055D01*
X51138395Y-85543055D01*
X51291267Y-85624766D01*
X51425264Y-85734736D01*
X51535234Y-85868733D01*
X51616945Y-86021605D01*
X51616947Y-86021609D01*
X51667266Y-86187490D01*
X51667267Y-86187494D01*
X51684257Y-86360000D01*
X51667267Y-86532506D01*
X51667266Y-86532509D01*
X51667266Y-86532510D01*
X51616947Y-86698391D01*
X51616945Y-86698394D01*
X51616945Y-86698395D01*
X51535234Y-86851267D01*
X51425264Y-86985264D01*
X51291267Y-87095234D01*
X51158417Y-87166243D01*
X51138391Y-87176947D01*
X50972510Y-87227266D01*
X50972509Y-87227266D01*
X50972506Y-87227267D01*
X50843225Y-87240000D01*
X50756775Y-87240000D01*
X50627494Y-87227267D01*
X50627491Y-87227266D01*
X50627490Y-87227266D01*
X50461609Y-87176947D01*
X50441583Y-87166243D01*
X50308733Y-87095234D01*
X50174736Y-86985264D01*
X50064766Y-86851267D01*
X49983055Y-86698395D01*
X49983055Y-86698394D01*
X49983053Y-86698391D01*
X49932734Y-86532510D01*
X49932734Y-86532509D01*
X49932733Y-86532506D01*
X49915743Y-86360000D01*
X49932733Y-86187494D01*
X49932734Y-86187490D01*
X49983053Y-86021609D01*
X49983055Y-86021605D01*
X50064766Y-85868733D01*
X50174736Y-85734736D01*
X50308733Y-85624766D01*
X50461605Y-85543055D01*
X50461606Y-85543055D01*
X50461609Y-85543053D01*
X50627490Y-85492734D01*
X50627491Y-85492734D01*
X50627494Y-85492733D01*
X50756775Y-85480000D01*
X50843225Y-85480000D01*
X50972506Y-85492733D01*
X50972506Y-85492733D01*
G37*
G36*
X45892506Y-85492733D02*
X45892509Y-85492734D01*
X45892510Y-85492734D01*
X46058391Y-85543053D01*
X46058394Y-85543055D01*
X46058395Y-85543055D01*
X46211267Y-85624766D01*
X46345264Y-85734736D01*
X46455234Y-85868733D01*
X46536945Y-86021605D01*
X46536947Y-86021609D01*
X46587266Y-86187490D01*
X46587267Y-86187494D01*
X46604257Y-86360000D01*
X46587267Y-86532506D01*
X46587266Y-86532509D01*
X46587266Y-86532510D01*
X46536947Y-86698391D01*
X46536945Y-86698394D01*
X46536945Y-86698395D01*
X46455234Y-86851267D01*
X46345264Y-86985264D01*
X46211267Y-87095234D01*
X46078417Y-87166243D01*
X46058391Y-87176947D01*
X45892510Y-87227266D01*
X45892509Y-87227266D01*
X45892506Y-87227267D01*
X45763225Y-87240000D01*
X45676775Y-87240000D01*
X45547494Y-87227267D01*
X45547491Y-87227266D01*
X45547490Y-87227266D01*
X45381609Y-87176947D01*
X45361583Y-87166243D01*
X45228733Y-87095234D01*
X45094736Y-86985264D01*
X44984766Y-86851267D01*
X44903055Y-86698395D01*
X44903055Y-86698394D01*
X44903053Y-86698391D01*
X44852734Y-86532510D01*
X44852734Y-86532509D01*
X44852733Y-86532506D01*
X44835743Y-86360000D01*
X44852733Y-86187494D01*
X44852734Y-86187490D01*
X44903053Y-86021609D01*
X44903055Y-86021605D01*
X44984766Y-85868733D01*
X45094736Y-85734736D01*
X45228733Y-85624766D01*
X45381605Y-85543055D01*
X45381606Y-85543055D01*
X45381609Y-85543053D01*
X45547490Y-85492734D01*
X45547491Y-85492734D01*
X45547494Y-85492733D01*
X45676775Y-85480000D01*
X45763225Y-85480000D01*
X45892506Y-85492733D01*
X45892506Y-85492733D01*
G37*
G36*
X53512506Y-85492733D02*
X53512509Y-85492734D01*
X53512510Y-85492734D01*
X53678391Y-85543053D01*
X53678394Y-85543055D01*
X53678395Y-85543055D01*
X53831267Y-85624766D01*
X53965264Y-85734736D01*
X54075234Y-85868733D01*
X54156945Y-86021605D01*
X54156947Y-86021609D01*
X54207266Y-86187490D01*
X54207267Y-86187494D01*
X54224257Y-86360000D01*
X54207267Y-86532506D01*
X54207266Y-86532509D01*
X54207266Y-86532510D01*
X54156947Y-86698391D01*
X54156945Y-86698394D01*
X54156945Y-86698395D01*
X54075234Y-86851267D01*
X53965264Y-86985264D01*
X53831267Y-87095234D01*
X53698417Y-87166243D01*
X53678391Y-87176947D01*
X53512510Y-87227266D01*
X53512509Y-87227266D01*
X53512506Y-87227267D01*
X53383225Y-87240000D01*
X53296775Y-87240000D01*
X53167494Y-87227267D01*
X53167491Y-87227266D01*
X53167490Y-87227266D01*
X53001609Y-87176947D01*
X52981583Y-87166243D01*
X52848733Y-87095234D01*
X52714736Y-86985264D01*
X52604766Y-86851267D01*
X52523055Y-86698395D01*
X52523055Y-86698394D01*
X52523053Y-86698391D01*
X52472734Y-86532510D01*
X52472734Y-86532509D01*
X52472733Y-86532506D01*
X52455743Y-86360000D01*
X52472733Y-86187494D01*
X52472734Y-86187490D01*
X52523053Y-86021609D01*
X52523055Y-86021605D01*
X52604766Y-85868733D01*
X52714736Y-85734736D01*
X52848733Y-85624766D01*
X53001605Y-85543055D01*
X53001606Y-85543055D01*
X53001609Y-85543053D01*
X53167490Y-85492734D01*
X53167491Y-85492734D01*
X53167494Y-85492733D01*
X53296775Y-85480000D01*
X53383225Y-85480000D01*
X53512506Y-85492733D01*
X53512506Y-85492733D01*
G37*
G36*
X56052506Y-85492733D02*
X56052509Y-85492734D01*
X56052510Y-85492734D01*
X56218391Y-85543053D01*
X56218394Y-85543055D01*
X56218395Y-85543055D01*
X56371267Y-85624766D01*
X56505264Y-85734736D01*
X56615234Y-85868733D01*
X56696945Y-86021605D01*
X56696947Y-86021609D01*
X56747266Y-86187490D01*
X56747267Y-86187494D01*
X56764257Y-86360000D01*
X56747267Y-86532506D01*
X56747266Y-86532509D01*
X56747266Y-86532510D01*
X56696947Y-86698391D01*
X56696945Y-86698394D01*
X56696945Y-86698395D01*
X56615234Y-86851267D01*
X56505264Y-86985264D01*
X56371267Y-87095234D01*
X56238417Y-87166243D01*
X56218391Y-87176947D01*
X56052510Y-87227266D01*
X56052509Y-87227266D01*
X56052506Y-87227267D01*
X55923225Y-87240000D01*
X55836775Y-87240000D01*
X55707494Y-87227267D01*
X55707491Y-87227266D01*
X55707490Y-87227266D01*
X55541609Y-87176947D01*
X55521583Y-87166243D01*
X55388733Y-87095234D01*
X55254736Y-86985264D01*
X55144766Y-86851267D01*
X55063055Y-86698395D01*
X55063055Y-86698394D01*
X55063053Y-86698391D01*
X55012734Y-86532510D01*
X55012734Y-86532509D01*
X55012733Y-86532506D01*
X54995743Y-86360000D01*
X55012733Y-86187494D01*
X55012734Y-86187490D01*
X55063053Y-86021609D01*
X55063055Y-86021605D01*
X55144766Y-85868733D01*
X55254736Y-85734736D01*
X55388733Y-85624766D01*
X55541605Y-85543055D01*
X55541606Y-85543055D01*
X55541609Y-85543053D01*
X55707490Y-85492734D01*
X55707491Y-85492734D01*
X55707494Y-85492733D01*
X55836775Y-85480000D01*
X55923225Y-85480000D01*
X56052506Y-85492733D01*
X56052506Y-85492733D01*
G37*
G36*
X43352506Y-85492733D02*
X43352509Y-85492734D01*
X43352510Y-85492734D01*
X43518391Y-85543053D01*
X43518394Y-85543055D01*
X43518395Y-85543055D01*
X43671267Y-85624766D01*
X43805264Y-85734736D01*
X43915234Y-85868733D01*
X43996945Y-86021605D01*
X43996947Y-86021609D01*
X44047266Y-86187490D01*
X44047267Y-86187494D01*
X44064257Y-86360000D01*
X44047267Y-86532506D01*
X44047266Y-86532509D01*
X44047266Y-86532510D01*
X43996947Y-86698391D01*
X43996945Y-86698394D01*
X43996945Y-86698395D01*
X43915234Y-86851267D01*
X43805264Y-86985264D01*
X43671267Y-87095234D01*
X43538417Y-87166243D01*
X43518391Y-87176947D01*
X43352510Y-87227266D01*
X43352509Y-87227266D01*
X43352506Y-87227267D01*
X43223225Y-87240000D01*
X43136775Y-87240000D01*
X43007494Y-87227267D01*
X43007491Y-87227266D01*
X43007490Y-87227266D01*
X42841609Y-87176947D01*
X42821583Y-87166243D01*
X42688733Y-87095234D01*
X42554736Y-86985264D01*
X42444766Y-86851267D01*
X42363055Y-86698395D01*
X42363055Y-86698394D01*
X42363053Y-86698391D01*
X42312734Y-86532510D01*
X42312734Y-86532509D01*
X42312733Y-86532506D01*
X42295743Y-86360000D01*
X42312733Y-86187494D01*
X42312734Y-86187490D01*
X42363053Y-86021609D01*
X42363055Y-86021605D01*
X42444766Y-85868733D01*
X42554736Y-85734736D01*
X42688733Y-85624766D01*
X42841605Y-85543055D01*
X42841606Y-85543055D01*
X42841609Y-85543053D01*
X43007490Y-85492734D01*
X43007491Y-85492734D01*
X43007494Y-85492733D01*
X43136775Y-85480000D01*
X43223225Y-85480000D01*
X43352506Y-85492733D01*
X43352506Y-85492733D01*
G37*
G36*
X56052506Y-82952733D02*
X56052509Y-82952734D01*
X56052510Y-82952734D01*
X56218391Y-83003053D01*
X56218394Y-83003055D01*
X56218395Y-83003055D01*
X56371267Y-83084766D01*
X56505264Y-83194736D01*
X56615234Y-83328733D01*
X56635153Y-83366000D01*
X56696947Y-83481609D01*
X56747266Y-83647490D01*
X56747267Y-83647494D01*
X56764257Y-83820000D01*
X56747267Y-83992506D01*
X56747266Y-83992509D01*
X56747266Y-83992510D01*
X56696947Y-84158391D01*
X56696945Y-84158394D01*
X56696945Y-84158395D01*
X56615234Y-84311267D01*
X56505264Y-84445264D01*
X56371267Y-84555234D01*
X56218395Y-84636945D01*
X56218391Y-84636947D01*
X56052510Y-84687266D01*
X56052509Y-84687266D01*
X56052506Y-84687267D01*
X55923225Y-84700000D01*
X55836775Y-84700000D01*
X55707494Y-84687267D01*
X55707491Y-84687266D01*
X55707490Y-84687266D01*
X55541609Y-84636947D01*
X55541605Y-84636945D01*
X55388733Y-84555234D01*
X55254736Y-84445264D01*
X55144766Y-84311267D01*
X55063055Y-84158395D01*
X55063055Y-84158394D01*
X55063053Y-84158391D01*
X55012734Y-83992510D01*
X55012734Y-83992509D01*
X55012733Y-83992506D01*
X54995743Y-83820000D01*
X55012733Y-83647494D01*
X55012734Y-83647490D01*
X55063053Y-83481609D01*
X55124847Y-83366000D01*
X55144766Y-83328733D01*
X55254736Y-83194736D01*
X55388733Y-83084766D01*
X55541605Y-83003055D01*
X55541606Y-83003055D01*
X55541609Y-83003053D01*
X55707490Y-82952734D01*
X55707491Y-82952734D01*
X55707494Y-82952733D01*
X55836775Y-82940000D01*
X55923225Y-82940000D01*
X56052506Y-82952733D01*
X56052506Y-82952733D01*
G37*
G36*
X48432506Y-82952733D02*
X48432509Y-82952734D01*
X48432510Y-82952734D01*
X48598391Y-83003053D01*
X48598394Y-83003055D01*
X48598395Y-83003055D01*
X48751267Y-83084766D01*
X48885264Y-83194736D01*
X48995234Y-83328733D01*
X49015153Y-83366000D01*
X49076947Y-83481609D01*
X49127266Y-83647490D01*
X49127267Y-83647494D01*
X49144257Y-83820000D01*
X49127267Y-83992506D01*
X49127266Y-83992509D01*
X49127266Y-83992510D01*
X49076947Y-84158391D01*
X49076945Y-84158394D01*
X49076945Y-84158395D01*
X48995234Y-84311267D01*
X48885264Y-84445264D01*
X48751267Y-84555234D01*
X48598395Y-84636945D01*
X48598391Y-84636947D01*
X48432510Y-84687266D01*
X48432509Y-84687266D01*
X48432506Y-84687267D01*
X48303225Y-84700000D01*
X48216775Y-84700000D01*
X48087494Y-84687267D01*
X48087491Y-84687266D01*
X48087490Y-84687266D01*
X47921609Y-84636947D01*
X47921605Y-84636945D01*
X47768733Y-84555234D01*
X47634736Y-84445264D01*
X47524766Y-84311267D01*
X47443055Y-84158395D01*
X47443055Y-84158394D01*
X47443053Y-84158391D01*
X47392734Y-83992510D01*
X47392734Y-83992509D01*
X47392733Y-83992506D01*
X47375743Y-83820000D01*
X47392733Y-83647494D01*
X47392734Y-83647490D01*
X47443053Y-83481609D01*
X47504847Y-83366000D01*
X47524766Y-83328733D01*
X47634736Y-83194736D01*
X47768733Y-83084766D01*
X47921605Y-83003055D01*
X47921606Y-83003055D01*
X47921609Y-83003053D01*
X48087490Y-82952734D01*
X48087491Y-82952734D01*
X48087494Y-82952733D01*
X48216775Y-82940000D01*
X48303225Y-82940000D01*
X48432506Y-82952733D01*
X48432506Y-82952733D01*
G37*
G36*
X43352506Y-82952733D02*
X43352509Y-82952734D01*
X43352510Y-82952734D01*
X43518391Y-83003053D01*
X43518394Y-83003055D01*
X43518395Y-83003055D01*
X43671267Y-83084766D01*
X43805264Y-83194736D01*
X43915234Y-83328733D01*
X43935153Y-83366000D01*
X43996947Y-83481609D01*
X44047266Y-83647490D01*
X44047267Y-83647494D01*
X44064257Y-83820000D01*
X44047267Y-83992506D01*
X44047266Y-83992509D01*
X44047266Y-83992510D01*
X43996947Y-84158391D01*
X43996945Y-84158394D01*
X43996945Y-84158395D01*
X43915234Y-84311267D01*
X43805264Y-84445264D01*
X43671267Y-84555234D01*
X43518395Y-84636945D01*
X43518391Y-84636947D01*
X43352510Y-84687266D01*
X43352509Y-84687266D01*
X43352506Y-84687267D01*
X43223225Y-84700000D01*
X43136775Y-84700000D01*
X43007494Y-84687267D01*
X43007491Y-84687266D01*
X43007490Y-84687266D01*
X42841609Y-84636947D01*
X42841605Y-84636945D01*
X42688733Y-84555234D01*
X42554736Y-84445264D01*
X42444766Y-84311267D01*
X42363055Y-84158395D01*
X42363055Y-84158394D01*
X42363053Y-84158391D01*
X42312734Y-83992510D01*
X42312734Y-83992509D01*
X42312733Y-83992506D01*
X42295743Y-83820000D01*
X42312733Y-83647494D01*
X42312734Y-83647490D01*
X42363053Y-83481609D01*
X42424847Y-83366000D01*
X42444766Y-83328733D01*
X42554736Y-83194736D01*
X42688733Y-83084766D01*
X42841605Y-83003055D01*
X42841606Y-83003055D01*
X42841609Y-83003053D01*
X43007490Y-82952734D01*
X43007491Y-82952734D01*
X43007494Y-82952733D01*
X43136775Y-82940000D01*
X43223225Y-82940000D01*
X43352506Y-82952733D01*
X43352506Y-82952733D01*
G37*
G36*
X50972506Y-82952733D02*
X50972509Y-82952734D01*
X50972510Y-82952734D01*
X51138391Y-83003053D01*
X51138394Y-83003055D01*
X51138395Y-83003055D01*
X51291267Y-83084766D01*
X51425264Y-83194736D01*
X51535234Y-83328733D01*
X51555153Y-83366000D01*
X51616947Y-83481609D01*
X51667266Y-83647490D01*
X51667267Y-83647494D01*
X51684257Y-83820000D01*
X51667267Y-83992506D01*
X51667266Y-83992509D01*
X51667266Y-83992510D01*
X51616947Y-84158391D01*
X51616945Y-84158394D01*
X51616945Y-84158395D01*
X51535234Y-84311267D01*
X51425264Y-84445264D01*
X51291267Y-84555234D01*
X51138395Y-84636945D01*
X51138391Y-84636947D01*
X50972510Y-84687266D01*
X50972509Y-84687266D01*
X50972506Y-84687267D01*
X50843225Y-84700000D01*
X50756775Y-84700000D01*
X50627494Y-84687267D01*
X50627491Y-84687266D01*
X50627490Y-84687266D01*
X50461609Y-84636947D01*
X50461605Y-84636945D01*
X50308733Y-84555234D01*
X50174736Y-84445264D01*
X50064766Y-84311267D01*
X49983055Y-84158395D01*
X49983055Y-84158394D01*
X49983053Y-84158391D01*
X49932734Y-83992510D01*
X49932734Y-83992509D01*
X49932733Y-83992506D01*
X49915743Y-83820000D01*
X49932733Y-83647494D01*
X49932734Y-83647490D01*
X49983053Y-83481609D01*
X50044847Y-83366000D01*
X50064766Y-83328733D01*
X50174736Y-83194736D01*
X50308733Y-83084766D01*
X50461605Y-83003055D01*
X50461606Y-83003055D01*
X50461609Y-83003053D01*
X50627490Y-82952734D01*
X50627491Y-82952734D01*
X50627494Y-82952733D01*
X50756775Y-82940000D01*
X50843225Y-82940000D01*
X50972506Y-82952733D01*
X50972506Y-82952733D01*
G37*
G36*
X53512506Y-82952733D02*
X53512509Y-82952734D01*
X53512510Y-82952734D01*
X53678391Y-83003053D01*
X53678394Y-83003055D01*
X53678395Y-83003055D01*
X53831267Y-83084766D01*
X53965264Y-83194736D01*
X54075234Y-83328733D01*
X54095153Y-83366000D01*
X54156947Y-83481609D01*
X54207266Y-83647490D01*
X54207267Y-83647494D01*
X54224257Y-83820000D01*
X54207267Y-83992506D01*
X54207266Y-83992509D01*
X54207266Y-83992510D01*
X54156947Y-84158391D01*
X54156945Y-84158394D01*
X54156945Y-84158395D01*
X54075234Y-84311267D01*
X53965264Y-84445264D01*
X53831267Y-84555234D01*
X53678395Y-84636945D01*
X53678391Y-84636947D01*
X53512510Y-84687266D01*
X53512509Y-84687266D01*
X53512506Y-84687267D01*
X53383225Y-84700000D01*
X53296775Y-84700000D01*
X53167494Y-84687267D01*
X53167491Y-84687266D01*
X53167490Y-84687266D01*
X53001609Y-84636947D01*
X53001605Y-84636945D01*
X52848733Y-84555234D01*
X52714736Y-84445264D01*
X52604766Y-84311267D01*
X52523055Y-84158395D01*
X52523055Y-84158394D01*
X52523053Y-84158391D01*
X52472734Y-83992510D01*
X52472734Y-83992509D01*
X52472733Y-83992506D01*
X52455743Y-83820000D01*
X52472733Y-83647494D01*
X52472734Y-83647490D01*
X52523053Y-83481609D01*
X52584847Y-83366000D01*
X52604766Y-83328733D01*
X52714736Y-83194736D01*
X52848733Y-83084766D01*
X53001605Y-83003055D01*
X53001606Y-83003055D01*
X53001609Y-83003053D01*
X53167490Y-82952734D01*
X53167491Y-82952734D01*
X53167494Y-82952733D01*
X53296775Y-82940000D01*
X53383225Y-82940000D01*
X53512506Y-82952733D01*
X53512506Y-82952733D01*
G37*
G36*
X45892506Y-82952733D02*
X45892509Y-82952734D01*
X45892510Y-82952734D01*
X46058391Y-83003053D01*
X46058394Y-83003055D01*
X46058395Y-83003055D01*
X46211267Y-83084766D01*
X46345264Y-83194736D01*
X46455234Y-83328733D01*
X46475153Y-83366000D01*
X46536947Y-83481609D01*
X46587266Y-83647490D01*
X46587267Y-83647494D01*
X46604257Y-83820000D01*
X46587267Y-83992506D01*
X46587266Y-83992509D01*
X46587266Y-83992510D01*
X46536947Y-84158391D01*
X46536945Y-84158394D01*
X46536945Y-84158395D01*
X46455234Y-84311267D01*
X46345264Y-84445264D01*
X46211267Y-84555234D01*
X46058395Y-84636945D01*
X46058391Y-84636947D01*
X45892510Y-84687266D01*
X45892509Y-84687266D01*
X45892506Y-84687267D01*
X45763225Y-84700000D01*
X45676775Y-84700000D01*
X45547494Y-84687267D01*
X45547491Y-84687266D01*
X45547490Y-84687266D01*
X45381609Y-84636947D01*
X45381605Y-84636945D01*
X45228733Y-84555234D01*
X45094736Y-84445264D01*
X44984766Y-84311267D01*
X44903055Y-84158395D01*
X44903055Y-84158394D01*
X44903053Y-84158391D01*
X44852734Y-83992510D01*
X44852734Y-83992509D01*
X44852733Y-83992506D01*
X44835743Y-83820000D01*
X44852733Y-83647494D01*
X44852734Y-83647490D01*
X44903053Y-83481609D01*
X44964847Y-83366000D01*
X44984766Y-83328733D01*
X45094736Y-83194736D01*
X45228733Y-83084766D01*
X45381605Y-83003055D01*
X45381606Y-83003055D01*
X45381609Y-83003053D01*
X45547490Y-82952734D01*
X45547491Y-82952734D01*
X45547494Y-82952733D01*
X45676775Y-82940000D01*
X45763225Y-82940000D01*
X45892506Y-82952733D01*
X45892506Y-82952733D01*
G37*
G36*
X89256962Y-81231161D02*
X89361757Y-81241482D01*
X89488733Y-81280000D01*
X89563456Y-81302667D01*
X89749337Y-81402022D01*
X89912265Y-81535735D01*
X90045978Y-81698663D01*
X90145333Y-81884544D01*
X90145334Y-81884548D01*
X90206518Y-82086243D01*
X90227177Y-82296000D01*
X90206518Y-82505757D01*
X90161254Y-82654971D01*
X90145333Y-82707456D01*
X90045978Y-82893337D01*
X89912265Y-83056265D01*
X89749337Y-83189978D01*
X89563456Y-83289333D01*
X89510971Y-83305254D01*
X89361757Y-83350518D01*
X89256962Y-83360839D01*
X89204565Y-83366000D01*
X87579435Y-83366000D01*
X87527038Y-83360839D01*
X87422243Y-83350518D01*
X87273029Y-83305254D01*
X87220544Y-83289333D01*
X87034663Y-83189978D01*
X86871735Y-83056265D01*
X86738022Y-82893337D01*
X86638667Y-82707456D01*
X86622746Y-82654971D01*
X86577482Y-82505757D01*
X86556823Y-82296000D01*
X86577482Y-82086243D01*
X86638666Y-81884548D01*
X86638667Y-81884544D01*
X86738022Y-81698663D01*
X86871735Y-81535735D01*
X87034663Y-81402022D01*
X87220544Y-81302667D01*
X87295267Y-81280000D01*
X87422243Y-81241482D01*
X87527038Y-81231161D01*
X87579435Y-81226000D01*
X89204565Y-81226000D01*
X89256962Y-81231161D01*
X89256962Y-81231161D01*
G37*
G36*
X53512506Y-80412733D02*
X53512509Y-80412734D01*
X53512510Y-80412734D01*
X53678391Y-80463053D01*
X53678394Y-80463055D01*
X53678395Y-80463055D01*
X53831267Y-80544766D01*
X53965264Y-80654736D01*
X54075234Y-80788733D01*
X54156945Y-80941605D01*
X54156947Y-80941609D01*
X54207266Y-81107490D01*
X54207267Y-81107494D01*
X54224257Y-81280000D01*
X54207267Y-81452506D01*
X54207266Y-81452509D01*
X54207266Y-81452510D01*
X54156947Y-81618391D01*
X54156945Y-81618394D01*
X54156945Y-81618395D01*
X54075234Y-81771267D01*
X53965264Y-81905264D01*
X53831267Y-82015234D01*
X53698417Y-82086243D01*
X53678391Y-82096947D01*
X53512510Y-82147266D01*
X53512509Y-82147266D01*
X53512506Y-82147267D01*
X53383225Y-82160000D01*
X53296775Y-82160000D01*
X53167494Y-82147267D01*
X53167491Y-82147266D01*
X53167490Y-82147266D01*
X53001609Y-82096947D01*
X52981583Y-82086243D01*
X52848733Y-82015234D01*
X52714736Y-81905264D01*
X52604766Y-81771267D01*
X52523055Y-81618395D01*
X52523055Y-81618394D01*
X52523053Y-81618391D01*
X52472734Y-81452510D01*
X52472734Y-81452509D01*
X52472733Y-81452506D01*
X52455743Y-81280000D01*
X52472733Y-81107494D01*
X52472734Y-81107490D01*
X52523053Y-80941609D01*
X52523055Y-80941605D01*
X52604766Y-80788733D01*
X52714736Y-80654736D01*
X52848733Y-80544766D01*
X53001605Y-80463055D01*
X53001606Y-80463055D01*
X53001609Y-80463053D01*
X53167490Y-80412734D01*
X53167491Y-80412734D01*
X53167494Y-80412733D01*
X53296775Y-80400000D01*
X53383225Y-80400000D01*
X53512506Y-80412733D01*
X53512506Y-80412733D01*
G37*
G36*
X56052506Y-80412733D02*
X56052509Y-80412734D01*
X56052510Y-80412734D01*
X56218391Y-80463053D01*
X56218394Y-80463055D01*
X56218395Y-80463055D01*
X56371267Y-80544766D01*
X56505264Y-80654736D01*
X56615234Y-80788733D01*
X56696945Y-80941605D01*
X56696947Y-80941609D01*
X56747266Y-81107490D01*
X56747267Y-81107494D01*
X56764257Y-81280000D01*
X56747267Y-81452506D01*
X56747266Y-81452509D01*
X56747266Y-81452510D01*
X56696947Y-81618391D01*
X56696945Y-81618394D01*
X56696945Y-81618395D01*
X56615234Y-81771267D01*
X56505264Y-81905264D01*
X56371267Y-82015234D01*
X56238417Y-82086243D01*
X56218391Y-82096947D01*
X56052510Y-82147266D01*
X56052509Y-82147266D01*
X56052506Y-82147267D01*
X55923225Y-82160000D01*
X55836775Y-82160000D01*
X55707494Y-82147267D01*
X55707491Y-82147266D01*
X55707490Y-82147266D01*
X55541609Y-82096947D01*
X55521583Y-82086243D01*
X55388733Y-82015234D01*
X55254736Y-81905264D01*
X55144766Y-81771267D01*
X55063055Y-81618395D01*
X55063055Y-81618394D01*
X55063053Y-81618391D01*
X55012734Y-81452510D01*
X55012734Y-81452509D01*
X55012733Y-81452506D01*
X54995743Y-81280000D01*
X55012733Y-81107494D01*
X55012734Y-81107490D01*
X55063053Y-80941609D01*
X55063055Y-80941605D01*
X55144766Y-80788733D01*
X55254736Y-80654736D01*
X55388733Y-80544766D01*
X55541605Y-80463055D01*
X55541606Y-80463055D01*
X55541609Y-80463053D01*
X55707490Y-80412734D01*
X55707491Y-80412734D01*
X55707494Y-80412733D01*
X55836775Y-80400000D01*
X55923225Y-80400000D01*
X56052506Y-80412733D01*
X56052506Y-80412733D01*
G37*
G36*
X43352506Y-80412733D02*
X43352509Y-80412734D01*
X43352510Y-80412734D01*
X43518391Y-80463053D01*
X43518394Y-80463055D01*
X43518395Y-80463055D01*
X43671267Y-80544766D01*
X43805264Y-80654736D01*
X43915234Y-80788733D01*
X43996945Y-80941605D01*
X43996947Y-80941609D01*
X44047266Y-81107490D01*
X44047267Y-81107494D01*
X44064257Y-81280000D01*
X44047267Y-81452506D01*
X44047266Y-81452509D01*
X44047266Y-81452510D01*
X43996947Y-81618391D01*
X43996945Y-81618394D01*
X43996945Y-81618395D01*
X43915234Y-81771267D01*
X43805264Y-81905264D01*
X43671267Y-82015234D01*
X43538417Y-82086243D01*
X43518391Y-82096947D01*
X43352510Y-82147266D01*
X43352509Y-82147266D01*
X43352506Y-82147267D01*
X43223225Y-82160000D01*
X43136775Y-82160000D01*
X43007494Y-82147267D01*
X43007491Y-82147266D01*
X43007490Y-82147266D01*
X42841609Y-82096947D01*
X42821583Y-82086243D01*
X42688733Y-82015234D01*
X42554736Y-81905264D01*
X42444766Y-81771267D01*
X42363055Y-81618395D01*
X42363055Y-81618394D01*
X42363053Y-81618391D01*
X42312734Y-81452510D01*
X42312734Y-81452509D01*
X42312733Y-81452506D01*
X42295743Y-81280000D01*
X42312733Y-81107494D01*
X42312734Y-81107490D01*
X42363053Y-80941609D01*
X42363055Y-80941605D01*
X42444766Y-80788733D01*
X42554736Y-80654736D01*
X42688733Y-80544766D01*
X42841605Y-80463055D01*
X42841606Y-80463055D01*
X42841609Y-80463053D01*
X43007490Y-80412734D01*
X43007491Y-80412734D01*
X43007494Y-80412733D01*
X43136775Y-80400000D01*
X43223225Y-80400000D01*
X43352506Y-80412733D01*
X43352506Y-80412733D01*
G37*
G36*
X45892506Y-80412733D02*
X45892509Y-80412734D01*
X45892510Y-80412734D01*
X46058391Y-80463053D01*
X46058394Y-80463055D01*
X46058395Y-80463055D01*
X46211267Y-80544766D01*
X46345264Y-80654736D01*
X46455234Y-80788733D01*
X46536945Y-80941605D01*
X46536947Y-80941609D01*
X46587266Y-81107490D01*
X46587267Y-81107494D01*
X46604257Y-81280000D01*
X46587267Y-81452506D01*
X46587266Y-81452509D01*
X46587266Y-81452510D01*
X46536947Y-81618391D01*
X46536945Y-81618394D01*
X46536945Y-81618395D01*
X46455234Y-81771267D01*
X46345264Y-81905264D01*
X46211267Y-82015234D01*
X46078417Y-82086243D01*
X46058391Y-82096947D01*
X45892510Y-82147266D01*
X45892509Y-82147266D01*
X45892506Y-82147267D01*
X45763225Y-82160000D01*
X45676775Y-82160000D01*
X45547494Y-82147267D01*
X45547491Y-82147266D01*
X45547490Y-82147266D01*
X45381609Y-82096947D01*
X45361583Y-82086243D01*
X45228733Y-82015234D01*
X45094736Y-81905264D01*
X44984766Y-81771267D01*
X44903055Y-81618395D01*
X44903055Y-81618394D01*
X44903053Y-81618391D01*
X44852734Y-81452510D01*
X44852734Y-81452509D01*
X44852733Y-81452506D01*
X44835743Y-81280000D01*
X44852733Y-81107494D01*
X44852734Y-81107490D01*
X44903053Y-80941609D01*
X44903055Y-80941605D01*
X44984766Y-80788733D01*
X45094736Y-80654736D01*
X45228733Y-80544766D01*
X45381605Y-80463055D01*
X45381606Y-80463055D01*
X45381609Y-80463053D01*
X45547490Y-80412734D01*
X45547491Y-80412734D01*
X45547494Y-80412733D01*
X45676775Y-80400000D01*
X45763225Y-80400000D01*
X45892506Y-80412733D01*
X45892506Y-80412733D01*
G37*
G36*
X48432506Y-80412733D02*
X48432509Y-80412734D01*
X48432510Y-80412734D01*
X48598391Y-80463053D01*
X48598394Y-80463055D01*
X48598395Y-80463055D01*
X48751267Y-80544766D01*
X48885264Y-80654736D01*
X48995234Y-80788733D01*
X49076945Y-80941605D01*
X49076947Y-80941609D01*
X49127266Y-81107490D01*
X49127267Y-81107494D01*
X49144257Y-81280000D01*
X49127267Y-81452506D01*
X49127266Y-81452509D01*
X49127266Y-81452510D01*
X49076947Y-81618391D01*
X49076945Y-81618394D01*
X49076945Y-81618395D01*
X48995234Y-81771267D01*
X48885264Y-81905264D01*
X48751267Y-82015234D01*
X48618417Y-82086243D01*
X48598391Y-82096947D01*
X48432510Y-82147266D01*
X48432509Y-82147266D01*
X48432506Y-82147267D01*
X48303225Y-82160000D01*
X48216775Y-82160000D01*
X48087494Y-82147267D01*
X48087491Y-82147266D01*
X48087490Y-82147266D01*
X47921609Y-82096947D01*
X47901583Y-82086243D01*
X47768733Y-82015234D01*
X47634736Y-81905264D01*
X47524766Y-81771267D01*
X47443055Y-81618395D01*
X47443055Y-81618394D01*
X47443053Y-81618391D01*
X47392734Y-81452510D01*
X47392734Y-81452509D01*
X47392733Y-81452506D01*
X47375743Y-81280000D01*
X47392733Y-81107494D01*
X47392734Y-81107490D01*
X47443053Y-80941609D01*
X47443055Y-80941605D01*
X47524766Y-80788733D01*
X47634736Y-80654736D01*
X47768733Y-80544766D01*
X47921605Y-80463055D01*
X47921606Y-80463055D01*
X47921609Y-80463053D01*
X48087490Y-80412734D01*
X48087491Y-80412734D01*
X48087494Y-80412733D01*
X48216775Y-80400000D01*
X48303225Y-80400000D01*
X48432506Y-80412733D01*
X48432506Y-80412733D01*
G37*
G36*
X50972506Y-80412733D02*
X50972509Y-80412734D01*
X50972510Y-80412734D01*
X51138391Y-80463053D01*
X51138394Y-80463055D01*
X51138395Y-80463055D01*
X51291267Y-80544766D01*
X51425264Y-80654736D01*
X51535234Y-80788733D01*
X51616945Y-80941605D01*
X51616947Y-80941609D01*
X51667266Y-81107490D01*
X51667267Y-81107494D01*
X51684257Y-81280000D01*
X51667267Y-81452506D01*
X51667266Y-81452509D01*
X51667266Y-81452510D01*
X51616947Y-81618391D01*
X51616945Y-81618394D01*
X51616945Y-81618395D01*
X51535234Y-81771267D01*
X51425264Y-81905264D01*
X51291267Y-82015234D01*
X51158417Y-82086243D01*
X51138391Y-82096947D01*
X50972510Y-82147266D01*
X50972509Y-82147266D01*
X50972506Y-82147267D01*
X50843225Y-82160000D01*
X50756775Y-82160000D01*
X50627494Y-82147267D01*
X50627491Y-82147266D01*
X50627490Y-82147266D01*
X50461609Y-82096947D01*
X50441583Y-82086243D01*
X50308733Y-82015234D01*
X50174736Y-81905264D01*
X50064766Y-81771267D01*
X49983055Y-81618395D01*
X49983055Y-81618394D01*
X49983053Y-81618391D01*
X49932734Y-81452510D01*
X49932734Y-81452509D01*
X49932733Y-81452506D01*
X49915743Y-81280000D01*
X49932733Y-81107494D01*
X49932734Y-81107490D01*
X49983053Y-80941609D01*
X49983055Y-80941605D01*
X50064766Y-80788733D01*
X50174736Y-80654736D01*
X50308733Y-80544766D01*
X50461605Y-80463055D01*
X50461606Y-80463055D01*
X50461609Y-80463053D01*
X50627490Y-80412734D01*
X50627491Y-80412734D01*
X50627494Y-80412733D01*
X50756775Y-80400000D01*
X50843225Y-80400000D01*
X50972506Y-80412733D01*
X50972506Y-80412733D01*
G37*
G36*
X43352506Y-77872733D02*
X43352509Y-77872734D01*
X43352510Y-77872734D01*
X43518391Y-77923053D01*
X43518394Y-77923055D01*
X43518395Y-77923055D01*
X43671267Y-78004766D01*
X43805264Y-78114736D01*
X43915234Y-78248733D01*
X43996945Y-78401605D01*
X43996947Y-78401609D01*
X44047266Y-78567490D01*
X44047267Y-78567494D01*
X44064257Y-78740000D01*
X44047267Y-78912506D01*
X44047266Y-78912509D01*
X44047266Y-78912510D01*
X43996947Y-79078391D01*
X43996945Y-79078394D01*
X43996945Y-79078395D01*
X43915234Y-79231267D01*
X43805264Y-79365264D01*
X43671267Y-79475234D01*
X43518395Y-79556945D01*
X43518391Y-79556947D01*
X43352510Y-79607266D01*
X43352509Y-79607266D01*
X43352506Y-79607267D01*
X43223225Y-79620000D01*
X43136775Y-79620000D01*
X43007494Y-79607267D01*
X43007491Y-79607266D01*
X43007490Y-79607266D01*
X42841609Y-79556947D01*
X42841605Y-79556945D01*
X42688733Y-79475234D01*
X42554736Y-79365264D01*
X42444766Y-79231267D01*
X42363055Y-79078395D01*
X42363055Y-79078394D01*
X42363053Y-79078391D01*
X42312734Y-78912510D01*
X42312734Y-78912509D01*
X42312733Y-78912506D01*
X42295743Y-78740000D01*
X42312733Y-78567494D01*
X42312734Y-78567490D01*
X42363053Y-78401609D01*
X42363055Y-78401605D01*
X42444766Y-78248733D01*
X42554736Y-78114736D01*
X42688733Y-78004766D01*
X42841605Y-77923055D01*
X42841606Y-77923055D01*
X42841609Y-77923053D01*
X43007490Y-77872734D01*
X43007491Y-77872734D01*
X43007494Y-77872733D01*
X43136775Y-77860000D01*
X43223225Y-77860000D01*
X43352506Y-77872733D01*
X43352506Y-77872733D01*
G37*
G36*
X45892506Y-77872733D02*
X45892509Y-77872734D01*
X45892510Y-77872734D01*
X46058391Y-77923053D01*
X46058394Y-77923055D01*
X46058395Y-77923055D01*
X46211267Y-78004766D01*
X46345264Y-78114736D01*
X46455234Y-78248733D01*
X46536945Y-78401605D01*
X46536947Y-78401609D01*
X46587266Y-78567490D01*
X46587267Y-78567494D01*
X46604257Y-78740000D01*
X46587267Y-78912506D01*
X46587266Y-78912509D01*
X46587266Y-78912510D01*
X46536947Y-79078391D01*
X46536945Y-79078394D01*
X46536945Y-79078395D01*
X46455234Y-79231267D01*
X46345264Y-79365264D01*
X46211267Y-79475234D01*
X46058395Y-79556945D01*
X46058391Y-79556947D01*
X45892510Y-79607266D01*
X45892509Y-79607266D01*
X45892506Y-79607267D01*
X45763225Y-79620000D01*
X45676775Y-79620000D01*
X45547494Y-79607267D01*
X45547491Y-79607266D01*
X45547490Y-79607266D01*
X45381609Y-79556947D01*
X45381605Y-79556945D01*
X45228733Y-79475234D01*
X45094736Y-79365264D01*
X44984766Y-79231267D01*
X44903055Y-79078395D01*
X44903055Y-79078394D01*
X44903053Y-79078391D01*
X44852734Y-78912510D01*
X44852734Y-78912509D01*
X44852733Y-78912506D01*
X44835743Y-78740000D01*
X44852733Y-78567494D01*
X44852734Y-78567490D01*
X44903053Y-78401609D01*
X44903055Y-78401605D01*
X44984766Y-78248733D01*
X45094736Y-78114736D01*
X45228733Y-78004766D01*
X45381605Y-77923055D01*
X45381606Y-77923055D01*
X45381609Y-77923053D01*
X45547490Y-77872734D01*
X45547491Y-77872734D01*
X45547494Y-77872733D01*
X45676775Y-77860000D01*
X45763225Y-77860000D01*
X45892506Y-77872733D01*
X45892506Y-77872733D01*
G37*
G36*
X53512506Y-77872733D02*
X53512509Y-77872734D01*
X53512510Y-77872734D01*
X53678391Y-77923053D01*
X53678394Y-77923055D01*
X53678395Y-77923055D01*
X53831267Y-78004766D01*
X53965264Y-78114736D01*
X54075234Y-78248733D01*
X54156945Y-78401605D01*
X54156947Y-78401609D01*
X54207266Y-78567490D01*
X54207267Y-78567494D01*
X54224257Y-78740000D01*
X54207267Y-78912506D01*
X54207266Y-78912509D01*
X54207266Y-78912510D01*
X54156947Y-79078391D01*
X54156945Y-79078394D01*
X54156945Y-79078395D01*
X54075234Y-79231267D01*
X53965264Y-79365264D01*
X53831267Y-79475234D01*
X53678395Y-79556945D01*
X53678391Y-79556947D01*
X53512510Y-79607266D01*
X53512509Y-79607266D01*
X53512506Y-79607267D01*
X53383225Y-79620000D01*
X53296775Y-79620000D01*
X53167494Y-79607267D01*
X53167491Y-79607266D01*
X53167490Y-79607266D01*
X53001609Y-79556947D01*
X53001605Y-79556945D01*
X52848733Y-79475234D01*
X52714736Y-79365264D01*
X52604766Y-79231267D01*
X52523055Y-79078395D01*
X52523055Y-79078394D01*
X52523053Y-79078391D01*
X52472734Y-78912510D01*
X52472734Y-78912509D01*
X52472733Y-78912506D01*
X52455743Y-78740000D01*
X52472733Y-78567494D01*
X52472734Y-78567490D01*
X52523053Y-78401609D01*
X52523055Y-78401605D01*
X52604766Y-78248733D01*
X52714736Y-78114736D01*
X52848733Y-78004766D01*
X53001605Y-77923055D01*
X53001606Y-77923055D01*
X53001609Y-77923053D01*
X53167490Y-77872734D01*
X53167491Y-77872734D01*
X53167494Y-77872733D01*
X53296775Y-77860000D01*
X53383225Y-77860000D01*
X53512506Y-77872733D01*
X53512506Y-77872733D01*
G37*
G36*
X50972506Y-77872733D02*
X50972509Y-77872734D01*
X50972510Y-77872734D01*
X51138391Y-77923053D01*
X51138394Y-77923055D01*
X51138395Y-77923055D01*
X51291267Y-78004766D01*
X51425264Y-78114736D01*
X51535234Y-78248733D01*
X51616945Y-78401605D01*
X51616947Y-78401609D01*
X51667266Y-78567490D01*
X51667267Y-78567494D01*
X51684257Y-78740000D01*
X51667267Y-78912506D01*
X51667266Y-78912509D01*
X51667266Y-78912510D01*
X51616947Y-79078391D01*
X51616945Y-79078394D01*
X51616945Y-79078395D01*
X51535234Y-79231267D01*
X51425264Y-79365264D01*
X51291267Y-79475234D01*
X51138395Y-79556945D01*
X51138391Y-79556947D01*
X50972510Y-79607266D01*
X50972509Y-79607266D01*
X50972506Y-79607267D01*
X50843225Y-79620000D01*
X50756775Y-79620000D01*
X50627494Y-79607267D01*
X50627491Y-79607266D01*
X50627490Y-79607266D01*
X50461609Y-79556947D01*
X50461605Y-79556945D01*
X50308733Y-79475234D01*
X50174736Y-79365264D01*
X50064766Y-79231267D01*
X49983055Y-79078395D01*
X49983055Y-79078394D01*
X49983053Y-79078391D01*
X49932734Y-78912510D01*
X49932734Y-78912509D01*
X49932733Y-78912506D01*
X49915743Y-78740000D01*
X49932733Y-78567494D01*
X49932734Y-78567490D01*
X49983053Y-78401609D01*
X49983055Y-78401605D01*
X50064766Y-78248733D01*
X50174736Y-78114736D01*
X50308733Y-78004766D01*
X50461605Y-77923055D01*
X50461606Y-77923055D01*
X50461609Y-77923053D01*
X50627490Y-77872734D01*
X50627491Y-77872734D01*
X50627494Y-77872733D01*
X50756775Y-77860000D01*
X50843225Y-77860000D01*
X50972506Y-77872733D01*
X50972506Y-77872733D01*
G37*
G36*
X48432506Y-77872733D02*
X48432509Y-77872734D01*
X48432510Y-77872734D01*
X48598391Y-77923053D01*
X48598394Y-77923055D01*
X48598395Y-77923055D01*
X48751267Y-78004766D01*
X48885264Y-78114736D01*
X48995234Y-78248733D01*
X49076945Y-78401605D01*
X49076947Y-78401609D01*
X49127266Y-78567490D01*
X49127267Y-78567494D01*
X49144257Y-78740000D01*
X49127267Y-78912506D01*
X49127266Y-78912509D01*
X49127266Y-78912510D01*
X49076947Y-79078391D01*
X49076945Y-79078394D01*
X49076945Y-79078395D01*
X48995234Y-79231267D01*
X48885264Y-79365264D01*
X48751267Y-79475234D01*
X48598395Y-79556945D01*
X48598391Y-79556947D01*
X48432510Y-79607266D01*
X48432509Y-79607266D01*
X48432506Y-79607267D01*
X48303225Y-79620000D01*
X48216775Y-79620000D01*
X48087494Y-79607267D01*
X48087491Y-79607266D01*
X48087490Y-79607266D01*
X47921609Y-79556947D01*
X47921605Y-79556945D01*
X47768733Y-79475234D01*
X47634736Y-79365264D01*
X47524766Y-79231267D01*
X47443055Y-79078395D01*
X47443055Y-79078394D01*
X47443053Y-79078391D01*
X47392734Y-78912510D01*
X47392734Y-78912509D01*
X47392733Y-78912506D01*
X47375743Y-78740000D01*
X47392733Y-78567494D01*
X47392734Y-78567490D01*
X47443053Y-78401609D01*
X47443055Y-78401605D01*
X47524766Y-78248733D01*
X47634736Y-78114736D01*
X47768733Y-78004766D01*
X47921605Y-77923055D01*
X47921606Y-77923055D01*
X47921609Y-77923053D01*
X48087490Y-77872734D01*
X48087491Y-77872734D01*
X48087494Y-77872733D01*
X48216775Y-77860000D01*
X48303225Y-77860000D01*
X48432506Y-77872733D01*
X48432506Y-77872733D01*
G37*
G36*
X56052506Y-77872733D02*
X56052509Y-77872734D01*
X56052510Y-77872734D01*
X56218391Y-77923053D01*
X56218394Y-77923055D01*
X56218395Y-77923055D01*
X56371267Y-78004766D01*
X56505264Y-78114736D01*
X56615234Y-78248733D01*
X56696945Y-78401605D01*
X56696947Y-78401609D01*
X56747266Y-78567490D01*
X56747267Y-78567494D01*
X56764257Y-78740000D01*
X56747267Y-78912506D01*
X56747266Y-78912509D01*
X56747266Y-78912510D01*
X56696947Y-79078391D01*
X56696945Y-79078394D01*
X56696945Y-79078395D01*
X56615234Y-79231267D01*
X56505264Y-79365264D01*
X56371267Y-79475234D01*
X56218395Y-79556945D01*
X56218391Y-79556947D01*
X56052510Y-79607266D01*
X56052509Y-79607266D01*
X56052506Y-79607267D01*
X55923225Y-79620000D01*
X55836775Y-79620000D01*
X55707494Y-79607267D01*
X55707491Y-79607266D01*
X55707490Y-79607266D01*
X55541609Y-79556947D01*
X55541605Y-79556945D01*
X55388733Y-79475234D01*
X55254736Y-79365264D01*
X55144766Y-79231267D01*
X55063055Y-79078395D01*
X55063055Y-79078394D01*
X55063053Y-79078391D01*
X55012734Y-78912510D01*
X55012734Y-78912509D01*
X55012733Y-78912506D01*
X54995743Y-78740000D01*
X55012733Y-78567494D01*
X55012734Y-78567490D01*
X55063053Y-78401609D01*
X55063055Y-78401605D01*
X55144766Y-78248733D01*
X55254736Y-78114736D01*
X55388733Y-78004766D01*
X55541605Y-77923055D01*
X55541606Y-77923055D01*
X55541609Y-77923053D01*
X55707490Y-77872734D01*
X55707491Y-77872734D01*
X55707494Y-77872733D01*
X55836775Y-77860000D01*
X55923225Y-77860000D01*
X56052506Y-77872733D01*
X56052506Y-77872733D01*
G37*
G36*
X45892506Y-75332733D02*
X45892509Y-75332734D01*
X45892510Y-75332734D01*
X46058391Y-75383053D01*
X46058394Y-75383055D01*
X46058395Y-75383055D01*
X46211267Y-75464766D01*
X46345264Y-75574736D01*
X46455234Y-75708733D01*
X46536945Y-75861605D01*
X46536947Y-75861609D01*
X46587266Y-76027490D01*
X46587267Y-76027494D01*
X46604257Y-76200000D01*
X46587267Y-76372506D01*
X46587266Y-76372509D01*
X46587266Y-76372510D01*
X46536947Y-76538391D01*
X46536945Y-76538394D01*
X46536945Y-76538395D01*
X46455234Y-76691267D01*
X46345264Y-76825264D01*
X46211267Y-76935234D01*
X46058395Y-77016945D01*
X46058391Y-77016947D01*
X45892510Y-77067266D01*
X45892509Y-77067266D01*
X45892506Y-77067267D01*
X45763225Y-77080000D01*
X45676775Y-77080000D01*
X45547494Y-77067267D01*
X45547491Y-77067266D01*
X45547490Y-77067266D01*
X45381609Y-77016947D01*
X45381605Y-77016945D01*
X45228733Y-76935234D01*
X45094736Y-76825264D01*
X44984766Y-76691267D01*
X44903055Y-76538395D01*
X44903055Y-76538394D01*
X44903053Y-76538391D01*
X44852734Y-76372510D01*
X44852734Y-76372509D01*
X44852733Y-76372506D01*
X44835743Y-76200000D01*
X44852733Y-76027494D01*
X44852734Y-76027490D01*
X44903053Y-75861609D01*
X44903055Y-75861605D01*
X44984766Y-75708733D01*
X45094736Y-75574736D01*
X45228733Y-75464766D01*
X45381605Y-75383055D01*
X45381606Y-75383055D01*
X45381609Y-75383053D01*
X45547490Y-75332734D01*
X45547491Y-75332734D01*
X45547494Y-75332733D01*
X45676775Y-75320000D01*
X45763225Y-75320000D01*
X45892506Y-75332733D01*
X45892506Y-75332733D01*
G37*
G36*
X43352506Y-75332733D02*
X43352509Y-75332734D01*
X43352510Y-75332734D01*
X43518391Y-75383053D01*
X43518394Y-75383055D01*
X43518395Y-75383055D01*
X43671267Y-75464766D01*
X43805264Y-75574736D01*
X43915234Y-75708733D01*
X43996945Y-75861605D01*
X43996947Y-75861609D01*
X44047266Y-76027490D01*
X44047267Y-76027494D01*
X44064257Y-76200000D01*
X44047267Y-76372506D01*
X44047266Y-76372509D01*
X44047266Y-76372510D01*
X43996947Y-76538391D01*
X43996945Y-76538394D01*
X43996945Y-76538395D01*
X43915234Y-76691267D01*
X43805264Y-76825264D01*
X43671267Y-76935234D01*
X43518395Y-77016945D01*
X43518391Y-77016947D01*
X43352510Y-77067266D01*
X43352509Y-77067266D01*
X43352506Y-77067267D01*
X43223225Y-77080000D01*
X43136775Y-77080000D01*
X43007494Y-77067267D01*
X43007491Y-77067266D01*
X43007490Y-77067266D01*
X42841609Y-77016947D01*
X42841605Y-77016945D01*
X42688733Y-76935234D01*
X42554736Y-76825264D01*
X42444766Y-76691267D01*
X42363055Y-76538395D01*
X42363055Y-76538394D01*
X42363053Y-76538391D01*
X42312734Y-76372510D01*
X42312734Y-76372509D01*
X42312733Y-76372506D01*
X42295743Y-76200000D01*
X42312733Y-76027494D01*
X42312734Y-76027490D01*
X42363053Y-75861609D01*
X42363055Y-75861605D01*
X42444766Y-75708733D01*
X42554736Y-75574736D01*
X42688733Y-75464766D01*
X42841605Y-75383055D01*
X42841606Y-75383055D01*
X42841609Y-75383053D01*
X43007490Y-75332734D01*
X43007491Y-75332734D01*
X43007494Y-75332733D01*
X43136775Y-75320000D01*
X43223225Y-75320000D01*
X43352506Y-75332733D01*
X43352506Y-75332733D01*
G37*
G36*
X56052506Y-75332733D02*
X56052509Y-75332734D01*
X56052510Y-75332734D01*
X56218391Y-75383053D01*
X56218394Y-75383055D01*
X56218395Y-75383055D01*
X56371267Y-75464766D01*
X56505264Y-75574736D01*
X56615234Y-75708733D01*
X56696945Y-75861605D01*
X56696947Y-75861609D01*
X56747266Y-76027490D01*
X56747267Y-76027494D01*
X56764257Y-76200000D01*
X56747267Y-76372506D01*
X56747266Y-76372509D01*
X56747266Y-76372510D01*
X56696947Y-76538391D01*
X56696945Y-76538394D01*
X56696945Y-76538395D01*
X56615234Y-76691267D01*
X56505264Y-76825264D01*
X56371267Y-76935234D01*
X56218395Y-77016945D01*
X56218391Y-77016947D01*
X56052510Y-77067266D01*
X56052509Y-77067266D01*
X56052506Y-77067267D01*
X55923225Y-77080000D01*
X55836775Y-77080000D01*
X55707494Y-77067267D01*
X55707491Y-77067266D01*
X55707490Y-77067266D01*
X55541609Y-77016947D01*
X55541605Y-77016945D01*
X55388733Y-76935234D01*
X55254736Y-76825264D01*
X55144766Y-76691267D01*
X55063055Y-76538395D01*
X55063055Y-76538394D01*
X55063053Y-76538391D01*
X55012734Y-76372510D01*
X55012734Y-76372509D01*
X55012733Y-76372506D01*
X54995743Y-76200000D01*
X55012733Y-76027494D01*
X55012734Y-76027490D01*
X55063053Y-75861609D01*
X55063055Y-75861605D01*
X55144766Y-75708733D01*
X55254736Y-75574736D01*
X55388733Y-75464766D01*
X55541605Y-75383055D01*
X55541606Y-75383055D01*
X55541609Y-75383053D01*
X55707490Y-75332734D01*
X55707491Y-75332734D01*
X55707494Y-75332733D01*
X55836775Y-75320000D01*
X55923225Y-75320000D01*
X56052506Y-75332733D01*
X56052506Y-75332733D01*
G37*
G36*
X53512506Y-75332733D02*
X53512509Y-75332734D01*
X53512510Y-75332734D01*
X53678391Y-75383053D01*
X53678394Y-75383055D01*
X53678395Y-75383055D01*
X53831267Y-75464766D01*
X53965264Y-75574736D01*
X54075234Y-75708733D01*
X54156945Y-75861605D01*
X54156947Y-75861609D01*
X54207266Y-76027490D01*
X54207267Y-76027494D01*
X54224257Y-76200000D01*
X54207267Y-76372506D01*
X54207266Y-76372509D01*
X54207266Y-76372510D01*
X54156947Y-76538391D01*
X54156945Y-76538394D01*
X54156945Y-76538395D01*
X54075234Y-76691267D01*
X53965264Y-76825264D01*
X53831267Y-76935234D01*
X53678395Y-77016945D01*
X53678391Y-77016947D01*
X53512510Y-77067266D01*
X53512509Y-77067266D01*
X53512506Y-77067267D01*
X53383225Y-77080000D01*
X53296775Y-77080000D01*
X53167494Y-77067267D01*
X53167491Y-77067266D01*
X53167490Y-77067266D01*
X53001609Y-77016947D01*
X53001605Y-77016945D01*
X52848733Y-76935234D01*
X52714736Y-76825264D01*
X52604766Y-76691267D01*
X52523055Y-76538395D01*
X52523055Y-76538394D01*
X52523053Y-76538391D01*
X52472734Y-76372510D01*
X52472734Y-76372509D01*
X52472733Y-76372506D01*
X52455743Y-76200000D01*
X52472733Y-76027494D01*
X52472734Y-76027490D01*
X52523053Y-75861609D01*
X52523055Y-75861605D01*
X52604766Y-75708733D01*
X52714736Y-75574736D01*
X52848733Y-75464766D01*
X53001605Y-75383055D01*
X53001606Y-75383055D01*
X53001609Y-75383053D01*
X53167490Y-75332734D01*
X53167491Y-75332734D01*
X53167494Y-75332733D01*
X53296775Y-75320000D01*
X53383225Y-75320000D01*
X53512506Y-75332733D01*
X53512506Y-75332733D01*
G37*
G36*
X50972506Y-75332733D02*
X50972509Y-75332734D01*
X50972510Y-75332734D01*
X51138391Y-75383053D01*
X51138394Y-75383055D01*
X51138395Y-75383055D01*
X51291267Y-75464766D01*
X51425264Y-75574736D01*
X51535234Y-75708733D01*
X51616945Y-75861605D01*
X51616947Y-75861609D01*
X51667266Y-76027490D01*
X51667267Y-76027494D01*
X51684257Y-76200000D01*
X51667267Y-76372506D01*
X51667266Y-76372509D01*
X51667266Y-76372510D01*
X51616947Y-76538391D01*
X51616945Y-76538394D01*
X51616945Y-76538395D01*
X51535234Y-76691267D01*
X51425264Y-76825264D01*
X51291267Y-76935234D01*
X51138395Y-77016945D01*
X51138391Y-77016947D01*
X50972510Y-77067266D01*
X50972509Y-77067266D01*
X50972506Y-77067267D01*
X50843225Y-77080000D01*
X50756775Y-77080000D01*
X50627494Y-77067267D01*
X50627491Y-77067266D01*
X50627490Y-77067266D01*
X50461609Y-77016947D01*
X50461605Y-77016945D01*
X50308733Y-76935234D01*
X50174736Y-76825264D01*
X50064766Y-76691267D01*
X49983055Y-76538395D01*
X49983055Y-76538394D01*
X49983053Y-76538391D01*
X49932734Y-76372510D01*
X49932734Y-76372509D01*
X49932733Y-76372506D01*
X49915743Y-76200000D01*
X49932733Y-76027494D01*
X49932734Y-76027490D01*
X49983053Y-75861609D01*
X49983055Y-75861605D01*
X50064766Y-75708733D01*
X50174736Y-75574736D01*
X50308733Y-75464766D01*
X50461605Y-75383055D01*
X50461606Y-75383055D01*
X50461609Y-75383053D01*
X50627490Y-75332734D01*
X50627491Y-75332734D01*
X50627494Y-75332733D01*
X50756775Y-75320000D01*
X50843225Y-75320000D01*
X50972506Y-75332733D01*
X50972506Y-75332733D01*
G37*
G36*
X48432506Y-75332733D02*
X48432509Y-75332734D01*
X48432510Y-75332734D01*
X48598391Y-75383053D01*
X48598394Y-75383055D01*
X48598395Y-75383055D01*
X48751267Y-75464766D01*
X48885264Y-75574736D01*
X48995234Y-75708733D01*
X49076945Y-75861605D01*
X49076947Y-75861609D01*
X49127266Y-76027490D01*
X49127267Y-76027494D01*
X49144257Y-76200000D01*
X49127267Y-76372506D01*
X49127266Y-76372509D01*
X49127266Y-76372510D01*
X49076947Y-76538391D01*
X49076945Y-76538394D01*
X49076945Y-76538395D01*
X48995234Y-76691267D01*
X48885264Y-76825264D01*
X48751267Y-76935234D01*
X48598395Y-77016945D01*
X48598391Y-77016947D01*
X48432510Y-77067266D01*
X48432509Y-77067266D01*
X48432506Y-77067267D01*
X48303225Y-77080000D01*
X48216775Y-77080000D01*
X48087494Y-77067267D01*
X48087491Y-77067266D01*
X48087490Y-77067266D01*
X47921609Y-77016947D01*
X47921605Y-77016945D01*
X47768733Y-76935234D01*
X47634736Y-76825264D01*
X47524766Y-76691267D01*
X47443055Y-76538395D01*
X47443055Y-76538394D01*
X47443053Y-76538391D01*
X47392734Y-76372510D01*
X47392734Y-76372509D01*
X47392733Y-76372506D01*
X47375743Y-76200000D01*
X47392733Y-76027494D01*
X47392734Y-76027490D01*
X47443053Y-75861609D01*
X47443055Y-75861605D01*
X47524766Y-75708733D01*
X47634736Y-75574736D01*
X47768733Y-75464766D01*
X47921605Y-75383055D01*
X47921606Y-75383055D01*
X47921609Y-75383053D01*
X48087490Y-75332734D01*
X48087491Y-75332734D01*
X48087494Y-75332733D01*
X48216775Y-75320000D01*
X48303225Y-75320000D01*
X48432506Y-75332733D01*
X48432506Y-75332733D01*
G37*
G36*
X95628608Y-72530909D02*
X95785064Y-72578370D01*
X95929254Y-72655441D01*
X96055638Y-72759162D01*
X96159359Y-72885546D01*
X96236430Y-73029736D01*
X96283891Y-73186192D01*
X96295900Y-73308124D01*
X96295900Y-74189676D01*
X96283891Y-74311608D01*
X96236430Y-74468064D01*
X96159359Y-74612254D01*
X96159357Y-74612256D01*
X96055638Y-74738638D01*
X95929254Y-74842359D01*
X95839843Y-74890150D01*
X95785063Y-74919430D01*
X95628607Y-74966891D01*
X95465900Y-74982916D01*
X95303192Y-74966891D01*
X95146736Y-74919430D01*
X95002546Y-74842359D01*
X94876162Y-74738638D01*
X94772443Y-74612256D01*
X94772441Y-74612254D01*
X94695373Y-74468068D01*
X94695372Y-74468066D01*
X94695370Y-74468063D01*
X94647909Y-74311607D01*
X94635900Y-74189675D01*
X94635900Y-73308124D01*
X94647910Y-73186192D01*
X94695371Y-73029736D01*
X94772442Y-72885546D01*
X94876163Y-72759162D01*
X95002547Y-72655441D01*
X95146737Y-72578370D01*
X95303193Y-72530909D01*
X95465900Y-72514884D01*
X95628608Y-72530909D01*
X95628608Y-72530909D01*
G37*
G36*
X98168608Y-72530909D02*
X98325064Y-72578370D01*
X98469254Y-72655441D01*
X98595638Y-72759162D01*
X98699359Y-72885546D01*
X98776430Y-73029736D01*
X98823891Y-73186192D01*
X98835900Y-73308124D01*
X98835900Y-74189676D01*
X98823891Y-74311608D01*
X98776430Y-74468064D01*
X98699359Y-74612254D01*
X98699357Y-74612256D01*
X98595638Y-74738638D01*
X98469254Y-74842359D01*
X98379843Y-74890150D01*
X98325063Y-74919430D01*
X98168607Y-74966891D01*
X98005900Y-74982916D01*
X97843192Y-74966891D01*
X97686736Y-74919430D01*
X97542546Y-74842359D01*
X97416162Y-74738638D01*
X97312443Y-74612256D01*
X97312441Y-74612254D01*
X97235373Y-74468068D01*
X97235372Y-74468066D01*
X97235370Y-74468063D01*
X97187909Y-74311607D01*
X97175900Y-74189675D01*
X97175900Y-73308124D01*
X97187910Y-73186192D01*
X97235371Y-73029736D01*
X97312442Y-72885546D01*
X97416163Y-72759162D01*
X97542547Y-72655441D01*
X97686737Y-72578370D01*
X97843193Y-72530909D01*
X98005900Y-72514884D01*
X98168608Y-72530909D01*
X98168608Y-72530909D01*
G37*
G36*
X93088608Y-72530909D02*
X93245064Y-72578370D01*
X93389254Y-72655441D01*
X93515638Y-72759162D01*
X93619359Y-72885546D01*
X93696430Y-73029736D01*
X93743891Y-73186192D01*
X93755900Y-73308124D01*
X93755900Y-74189676D01*
X93743891Y-74311608D01*
X93696430Y-74468064D01*
X93619359Y-74612254D01*
X93619357Y-74612256D01*
X93515638Y-74738638D01*
X93389254Y-74842359D01*
X93299843Y-74890150D01*
X93245063Y-74919430D01*
X93088607Y-74966891D01*
X92925900Y-74982916D01*
X92763192Y-74966891D01*
X92606736Y-74919430D01*
X92462546Y-74842359D01*
X92336162Y-74738638D01*
X92232443Y-74612256D01*
X92232441Y-74612254D01*
X92155373Y-74468068D01*
X92155372Y-74468066D01*
X92155370Y-74468063D01*
X92107909Y-74311607D01*
X92095900Y-74189675D01*
X92095900Y-73308124D01*
X92107910Y-73186192D01*
X92155371Y-73029736D01*
X92232442Y-72885546D01*
X92336163Y-72759162D01*
X92462547Y-72655441D01*
X92606737Y-72578370D01*
X92763193Y-72530909D01*
X92925900Y-72514884D01*
X93088608Y-72530909D01*
X93088608Y-72530909D01*
G37*
G36*
X90548608Y-72530909D02*
X90705064Y-72578370D01*
X90849254Y-72655441D01*
X90975638Y-72759162D01*
X91079359Y-72885546D01*
X91156430Y-73029736D01*
X91203891Y-73186192D01*
X91215900Y-73308124D01*
X91215900Y-74189676D01*
X91203891Y-74311608D01*
X91156430Y-74468064D01*
X91079359Y-74612254D01*
X91079357Y-74612256D01*
X90975638Y-74738638D01*
X90849254Y-74842359D01*
X90759843Y-74890150D01*
X90705063Y-74919430D01*
X90548607Y-74966891D01*
X90385900Y-74982916D01*
X90223192Y-74966891D01*
X90066736Y-74919430D01*
X89922546Y-74842359D01*
X89796162Y-74738638D01*
X89692443Y-74612256D01*
X89692441Y-74612254D01*
X89615373Y-74468068D01*
X89615372Y-74468066D01*
X89615370Y-74468063D01*
X89567909Y-74311607D01*
X89555900Y-74189675D01*
X89555900Y-73308124D01*
X89567910Y-73186192D01*
X89615371Y-73029736D01*
X89692442Y-72885546D01*
X89796163Y-72759162D01*
X89922547Y-72655441D01*
X90066737Y-72578370D01*
X90223193Y-72530909D01*
X90385900Y-72514884D01*
X90548608Y-72530909D01*
X90548608Y-72530909D01*
G37*
G36*
X85468608Y-72530909D02*
X85625064Y-72578370D01*
X85769254Y-72655441D01*
X85895638Y-72759162D01*
X85999359Y-72885546D01*
X86076430Y-73029736D01*
X86123891Y-73186192D01*
X86135900Y-73308124D01*
X86135900Y-74189676D01*
X86123891Y-74311608D01*
X86076430Y-74468064D01*
X85999359Y-74612254D01*
X85999357Y-74612256D01*
X85895638Y-74738638D01*
X85769254Y-74842359D01*
X85679843Y-74890150D01*
X85625063Y-74919430D01*
X85468607Y-74966891D01*
X85305900Y-74982916D01*
X85143192Y-74966891D01*
X84986736Y-74919430D01*
X84842546Y-74842359D01*
X84716162Y-74738638D01*
X84612443Y-74612256D01*
X84612441Y-74612254D01*
X84535373Y-74468068D01*
X84535372Y-74468066D01*
X84535370Y-74468063D01*
X84487909Y-74311607D01*
X84475900Y-74189675D01*
X84475900Y-73308124D01*
X84487910Y-73186192D01*
X84535371Y-73029736D01*
X84612442Y-72885546D01*
X84716163Y-72759162D01*
X84842547Y-72655441D01*
X84986737Y-72578370D01*
X85143193Y-72530909D01*
X85305900Y-72514884D01*
X85468608Y-72530909D01*
X85468608Y-72530909D01*
G37*
G36*
X88008608Y-72530909D02*
X88165064Y-72578370D01*
X88309254Y-72655441D01*
X88435638Y-72759162D01*
X88539359Y-72885546D01*
X88616430Y-73029736D01*
X88663891Y-73186192D01*
X88675900Y-73308124D01*
X88675900Y-74189676D01*
X88663891Y-74311608D01*
X88616430Y-74468064D01*
X88539359Y-74612254D01*
X88539357Y-74612256D01*
X88435638Y-74738638D01*
X88309254Y-74842359D01*
X88219843Y-74890150D01*
X88165063Y-74919430D01*
X88008607Y-74966891D01*
X87845900Y-74982916D01*
X87683192Y-74966891D01*
X87526736Y-74919430D01*
X87382546Y-74842359D01*
X87256162Y-74738638D01*
X87152443Y-74612256D01*
X87152441Y-74612254D01*
X87075373Y-74468068D01*
X87075372Y-74468066D01*
X87075370Y-74468063D01*
X87027909Y-74311607D01*
X87015900Y-74189675D01*
X87015900Y-73308124D01*
X87027910Y-73186192D01*
X87075371Y-73029736D01*
X87152442Y-72885546D01*
X87256163Y-72759162D01*
X87382547Y-72655441D01*
X87526737Y-72578370D01*
X87683193Y-72530909D01*
X87845900Y-72514884D01*
X88008608Y-72530909D01*
X88008608Y-72530909D01*
G37*
G36*
X46600000Y-74540000D02*
X44840000Y-74540000D01*
X44840000Y-72780000D01*
X46600000Y-72780000D01*
X46600000Y-74540000D01*
X46600000Y-74540000D01*
G37*
G36*
X49140000Y-74540000D02*
X47380000Y-74540000D01*
X47380000Y-72780000D01*
X49140000Y-72780000D01*
X49140000Y-74540000D01*
X49140000Y-74540000D01*
G37*
G36*
X51680000Y-74540000D02*
X49920000Y-74540000D01*
X49920000Y-72780000D01*
X51680000Y-72780000D01*
X51680000Y-74540000D01*
X51680000Y-74540000D01*
G37*
G36*
X44060000Y-74540000D02*
X42300000Y-74540000D01*
X42300000Y-72780000D01*
X44060000Y-72780000D01*
X44060000Y-74540000D01*
X44060000Y-74540000D01*
G37*
G36*
X54220000Y-74540000D02*
X52460000Y-74540000D01*
X52460000Y-72780000D01*
X54220000Y-72780000D01*
X54220000Y-74540000D01*
X54220000Y-74540000D01*
G37*
G36*
X56760000Y-74540000D02*
X55000000Y-74540000D01*
X55000000Y-72780000D01*
X56760000Y-72780000D01*
X56760000Y-74540000D01*
X56760000Y-74540000D01*
G37*
G36*
X60550000Y-70910000D02*
X57990000Y-70910000D01*
X57990000Y-68350000D01*
X60550000Y-68350000D01*
X60550000Y-70910000D01*
X60550000Y-70910000D01*
G37*
G36*
X78330000Y-70910000D02*
X75770000Y-70910000D01*
X75770000Y-68350000D01*
X78330000Y-68350000D01*
X78330000Y-70910000D01*
X78330000Y-70910000D01*
G37*
G36*
X52457506Y-66222733D02*
X52457509Y-66222734D01*
X52457510Y-66222734D01*
X52623391Y-66273053D01*
X52623394Y-66273055D01*
X52623395Y-66273055D01*
X52776267Y-66354766D01*
X52910264Y-66464736D01*
X53020234Y-66598733D01*
X53101945Y-66751605D01*
X53101947Y-66751609D01*
X53152266Y-66917490D01*
X53152267Y-66917494D01*
X53169257Y-67090000D01*
X53152267Y-67262506D01*
X53152266Y-67262509D01*
X53152266Y-67262510D01*
X53101947Y-67428391D01*
X53101945Y-67428394D01*
X53101945Y-67428395D01*
X53020234Y-67581267D01*
X52910264Y-67715264D01*
X52776267Y-67825234D01*
X52623395Y-67906945D01*
X52623391Y-67906947D01*
X52457510Y-67957266D01*
X52457509Y-67957266D01*
X52457506Y-67957267D01*
X52328225Y-67970000D01*
X52241775Y-67970000D01*
X52112494Y-67957267D01*
X52112491Y-67957266D01*
X52112490Y-67957266D01*
X51946609Y-67906947D01*
X51946605Y-67906945D01*
X51793733Y-67825234D01*
X51659736Y-67715264D01*
X51549766Y-67581267D01*
X51468055Y-67428395D01*
X51468055Y-67428394D01*
X51468053Y-67428391D01*
X51417734Y-67262510D01*
X51417734Y-67262509D01*
X51417733Y-67262506D01*
X51400743Y-67090000D01*
X51417733Y-66917494D01*
X51417734Y-66917490D01*
X51468053Y-66751609D01*
X51468055Y-66751605D01*
X51549766Y-66598733D01*
X51659736Y-66464736D01*
X51793733Y-66354766D01*
X51946605Y-66273055D01*
X51946606Y-66273055D01*
X51946609Y-66273053D01*
X52112490Y-66222734D01*
X52112491Y-66222734D01*
X52112494Y-66222733D01*
X52241775Y-66210000D01*
X52328225Y-66210000D01*
X52457506Y-66222733D01*
X52457506Y-66222733D01*
G37*
G36*
X55705000Y-67970000D02*
X53945000Y-67970000D01*
X53945000Y-66210000D01*
X55705000Y-66210000D01*
X55705000Y-67970000D01*
X55705000Y-67970000D01*
G37*
G36*
X42297506Y-66222733D02*
X42297509Y-66222734D01*
X42297510Y-66222734D01*
X42463391Y-66273053D01*
X42463394Y-66273055D01*
X42463395Y-66273055D01*
X42616267Y-66354766D01*
X42750264Y-66464736D01*
X42860234Y-66598733D01*
X42941945Y-66751605D01*
X42941947Y-66751609D01*
X42992266Y-66917490D01*
X42992267Y-66917494D01*
X43009257Y-67090000D01*
X42992267Y-67262506D01*
X42992266Y-67262509D01*
X42992266Y-67262510D01*
X42941947Y-67428391D01*
X42941945Y-67428394D01*
X42941945Y-67428395D01*
X42860234Y-67581267D01*
X42750264Y-67715264D01*
X42616267Y-67825234D01*
X42463395Y-67906945D01*
X42463391Y-67906947D01*
X42297510Y-67957266D01*
X42297509Y-67957266D01*
X42297506Y-67957267D01*
X42168225Y-67970000D01*
X42081775Y-67970000D01*
X41952494Y-67957267D01*
X41952491Y-67957266D01*
X41952490Y-67957266D01*
X41786609Y-67906947D01*
X41786605Y-67906945D01*
X41633733Y-67825234D01*
X41499736Y-67715264D01*
X41389766Y-67581267D01*
X41308055Y-67428395D01*
X41308055Y-67428394D01*
X41308053Y-67428391D01*
X41257734Y-67262510D01*
X41257734Y-67262509D01*
X41257733Y-67262506D01*
X41240743Y-67090000D01*
X41257733Y-66917494D01*
X41257734Y-66917490D01*
X41308053Y-66751609D01*
X41308055Y-66751605D01*
X41389766Y-66598733D01*
X41499736Y-66464736D01*
X41633733Y-66354766D01*
X41786605Y-66273055D01*
X41786606Y-66273055D01*
X41786609Y-66273053D01*
X41952490Y-66222734D01*
X41952491Y-66222734D01*
X41952494Y-66222733D01*
X42081775Y-66210000D01*
X42168225Y-66210000D01*
X42297506Y-66222733D01*
X42297506Y-66222733D01*
G37*
G36*
X44837506Y-66222733D02*
X44837509Y-66222734D01*
X44837510Y-66222734D01*
X45003391Y-66273053D01*
X45003394Y-66273055D01*
X45003395Y-66273055D01*
X45156267Y-66354766D01*
X45290264Y-66464736D01*
X45400234Y-66598733D01*
X45481945Y-66751605D01*
X45481947Y-66751609D01*
X45532266Y-66917490D01*
X45532267Y-66917494D01*
X45549257Y-67090000D01*
X45532267Y-67262506D01*
X45532266Y-67262509D01*
X45532266Y-67262510D01*
X45481947Y-67428391D01*
X45481945Y-67428394D01*
X45481945Y-67428395D01*
X45400234Y-67581267D01*
X45290264Y-67715264D01*
X45156267Y-67825234D01*
X45003395Y-67906945D01*
X45003391Y-67906947D01*
X44837510Y-67957266D01*
X44837509Y-67957266D01*
X44837506Y-67957267D01*
X44708225Y-67970000D01*
X44621775Y-67970000D01*
X44492494Y-67957267D01*
X44492491Y-67957266D01*
X44492490Y-67957266D01*
X44326609Y-67906947D01*
X44326605Y-67906945D01*
X44173733Y-67825234D01*
X44039736Y-67715264D01*
X43929766Y-67581267D01*
X43848055Y-67428395D01*
X43848055Y-67428394D01*
X43848053Y-67428391D01*
X43797734Y-67262510D01*
X43797734Y-67262509D01*
X43797733Y-67262506D01*
X43780743Y-67090000D01*
X43797733Y-66917494D01*
X43797734Y-66917490D01*
X43848053Y-66751609D01*
X43848055Y-66751605D01*
X43929766Y-66598733D01*
X44039736Y-66464736D01*
X44173733Y-66354766D01*
X44326605Y-66273055D01*
X44326606Y-66273055D01*
X44326609Y-66273053D01*
X44492490Y-66222734D01*
X44492491Y-66222734D01*
X44492494Y-66222733D01*
X44621775Y-66210000D01*
X44708225Y-66210000D01*
X44837506Y-66222733D01*
X44837506Y-66222733D01*
G37*
G36*
X47377506Y-66222733D02*
X47377509Y-66222734D01*
X47377510Y-66222734D01*
X47543391Y-66273053D01*
X47543394Y-66273055D01*
X47543395Y-66273055D01*
X47696267Y-66354766D01*
X47830264Y-66464736D01*
X47940234Y-66598733D01*
X48021945Y-66751605D01*
X48021947Y-66751609D01*
X48072266Y-66917490D01*
X48072267Y-66917494D01*
X48089257Y-67090000D01*
X48072267Y-67262506D01*
X48072266Y-67262509D01*
X48072266Y-67262510D01*
X48021947Y-67428391D01*
X48021945Y-67428394D01*
X48021945Y-67428395D01*
X47940234Y-67581267D01*
X47830264Y-67715264D01*
X47696267Y-67825234D01*
X47543395Y-67906945D01*
X47543391Y-67906947D01*
X47377510Y-67957266D01*
X47377509Y-67957266D01*
X47377506Y-67957267D01*
X47248225Y-67970000D01*
X47161775Y-67970000D01*
X47032494Y-67957267D01*
X47032491Y-67957266D01*
X47032490Y-67957266D01*
X46866609Y-67906947D01*
X46866605Y-67906945D01*
X46713733Y-67825234D01*
X46579736Y-67715264D01*
X46469766Y-67581267D01*
X46388055Y-67428395D01*
X46388055Y-67428394D01*
X46388053Y-67428391D01*
X46337734Y-67262510D01*
X46337734Y-67262509D01*
X46337733Y-67262506D01*
X46320743Y-67090000D01*
X46337733Y-66917494D01*
X46337734Y-66917490D01*
X46388053Y-66751609D01*
X46388055Y-66751605D01*
X46469766Y-66598733D01*
X46579736Y-66464736D01*
X46713733Y-66354766D01*
X46866605Y-66273055D01*
X46866606Y-66273055D01*
X46866609Y-66273053D01*
X47032490Y-66222734D01*
X47032491Y-66222734D01*
X47032494Y-66222733D01*
X47161775Y-66210000D01*
X47248225Y-66210000D01*
X47377506Y-66222733D01*
X47377506Y-66222733D01*
G37*
G36*
X49917506Y-66222733D02*
X49917509Y-66222734D01*
X49917510Y-66222734D01*
X50083391Y-66273053D01*
X50083394Y-66273055D01*
X50083395Y-66273055D01*
X50236267Y-66354766D01*
X50370264Y-66464736D01*
X50480234Y-66598733D01*
X50561945Y-66751605D01*
X50561947Y-66751609D01*
X50612266Y-66917490D01*
X50612267Y-66917494D01*
X50629257Y-67090000D01*
X50612267Y-67262506D01*
X50612266Y-67262509D01*
X50612266Y-67262510D01*
X50561947Y-67428391D01*
X50561945Y-67428394D01*
X50561945Y-67428395D01*
X50480234Y-67581267D01*
X50370264Y-67715264D01*
X50236267Y-67825234D01*
X50083395Y-67906945D01*
X50083391Y-67906947D01*
X49917510Y-67957266D01*
X49917509Y-67957266D01*
X49917506Y-67957267D01*
X49788225Y-67970000D01*
X49701775Y-67970000D01*
X49572494Y-67957267D01*
X49572491Y-67957266D01*
X49572490Y-67957266D01*
X49406609Y-67906947D01*
X49406605Y-67906945D01*
X49253733Y-67825234D01*
X49119736Y-67715264D01*
X49009766Y-67581267D01*
X48928055Y-67428395D01*
X48928055Y-67428394D01*
X48928053Y-67428391D01*
X48877734Y-67262510D01*
X48877734Y-67262509D01*
X48877733Y-67262506D01*
X48860743Y-67090000D01*
X48877733Y-66917494D01*
X48877734Y-66917490D01*
X48928053Y-66751609D01*
X48928055Y-66751605D01*
X49009766Y-66598733D01*
X49119736Y-66464736D01*
X49253733Y-66354766D01*
X49406605Y-66273055D01*
X49406606Y-66273055D01*
X49406609Y-66273053D01*
X49572490Y-66222734D01*
X49572491Y-66222734D01*
X49572494Y-66222733D01*
X49701775Y-66210000D01*
X49788225Y-66210000D01*
X49917506Y-66222733D01*
X49917506Y-66222733D01*
G37*
G36*
X93088608Y-62370909D02*
X93245064Y-62418370D01*
X93389254Y-62495441D01*
X93515638Y-62599162D01*
X93619359Y-62725546D01*
X93696430Y-62869736D01*
X93743891Y-63026192D01*
X93755900Y-63148124D01*
X93755900Y-64029676D01*
X93743891Y-64151608D01*
X93696430Y-64308064D01*
X93619359Y-64452254D01*
X93619357Y-64452256D01*
X93515638Y-64578638D01*
X93389254Y-64682359D01*
X93299843Y-64730150D01*
X93245063Y-64759430D01*
X93088607Y-64806891D01*
X92925900Y-64822916D01*
X92763192Y-64806891D01*
X92606736Y-64759430D01*
X92462546Y-64682359D01*
X92336162Y-64578638D01*
X92232443Y-64452256D01*
X92232441Y-64452254D01*
X92155373Y-64308068D01*
X92155372Y-64308066D01*
X92155370Y-64308063D01*
X92107909Y-64151607D01*
X92095900Y-64029675D01*
X92095900Y-63148124D01*
X92107910Y-63026192D01*
X92155371Y-62869736D01*
X92232442Y-62725546D01*
X92336163Y-62599162D01*
X92462547Y-62495441D01*
X92606737Y-62418370D01*
X92763193Y-62370909D01*
X92925900Y-62354884D01*
X93088608Y-62370909D01*
X93088608Y-62370909D01*
G37*
G36*
X95628608Y-62370909D02*
X95785064Y-62418370D01*
X95929254Y-62495441D01*
X96055638Y-62599162D01*
X96159359Y-62725546D01*
X96236430Y-62869736D01*
X96283891Y-63026192D01*
X96295900Y-63148124D01*
X96295900Y-64029676D01*
X96283891Y-64151608D01*
X96236430Y-64308064D01*
X96159359Y-64452254D01*
X96159357Y-64452256D01*
X96055638Y-64578638D01*
X95929254Y-64682359D01*
X95839843Y-64730150D01*
X95785063Y-64759430D01*
X95628607Y-64806891D01*
X95465900Y-64822916D01*
X95303192Y-64806891D01*
X95146736Y-64759430D01*
X95002546Y-64682359D01*
X94876162Y-64578638D01*
X94772443Y-64452256D01*
X94772441Y-64452254D01*
X94695373Y-64308068D01*
X94695372Y-64308066D01*
X94695370Y-64308063D01*
X94647909Y-64151607D01*
X94635900Y-64029675D01*
X94635900Y-63148124D01*
X94647910Y-63026192D01*
X94695371Y-62869736D01*
X94772442Y-62725546D01*
X94876163Y-62599162D01*
X95002547Y-62495441D01*
X95146737Y-62418370D01*
X95303193Y-62370909D01*
X95465900Y-62354884D01*
X95628608Y-62370909D01*
X95628608Y-62370909D01*
G37*
G36*
X88008608Y-62370909D02*
X88165064Y-62418370D01*
X88309254Y-62495441D01*
X88435638Y-62599162D01*
X88539359Y-62725546D01*
X88616430Y-62869736D01*
X88663891Y-63026192D01*
X88675900Y-63148124D01*
X88675900Y-64029676D01*
X88663891Y-64151608D01*
X88616430Y-64308064D01*
X88539359Y-64452254D01*
X88539357Y-64452256D01*
X88435638Y-64578638D01*
X88309254Y-64682359D01*
X88219843Y-64730150D01*
X88165063Y-64759430D01*
X88008607Y-64806891D01*
X87845900Y-64822916D01*
X87683192Y-64806891D01*
X87526736Y-64759430D01*
X87382546Y-64682359D01*
X87256162Y-64578638D01*
X87152443Y-64452256D01*
X87152441Y-64452254D01*
X87075373Y-64308068D01*
X87075372Y-64308066D01*
X87075370Y-64308063D01*
X87027909Y-64151607D01*
X87015900Y-64029675D01*
X87015900Y-63148124D01*
X87027910Y-63026192D01*
X87075371Y-62869736D01*
X87152442Y-62725546D01*
X87256163Y-62599162D01*
X87382547Y-62495441D01*
X87526737Y-62418370D01*
X87683193Y-62370909D01*
X87845900Y-62354884D01*
X88008608Y-62370909D01*
X88008608Y-62370909D01*
G37*
G36*
X85468608Y-62370909D02*
X85625064Y-62418370D01*
X85769254Y-62495441D01*
X85895638Y-62599162D01*
X85999359Y-62725546D01*
X86076430Y-62869736D01*
X86123891Y-63026192D01*
X86135900Y-63148124D01*
X86135900Y-64029676D01*
X86123891Y-64151608D01*
X86076430Y-64308064D01*
X85999359Y-64452254D01*
X85999357Y-64452256D01*
X85895638Y-64578638D01*
X85769254Y-64682359D01*
X85679843Y-64730150D01*
X85625063Y-64759430D01*
X85468607Y-64806891D01*
X85305900Y-64822916D01*
X85143192Y-64806891D01*
X84986736Y-64759430D01*
X84842546Y-64682359D01*
X84716162Y-64578638D01*
X84612443Y-64452256D01*
X84612441Y-64452254D01*
X84535373Y-64308068D01*
X84535372Y-64308066D01*
X84535370Y-64308063D01*
X84487909Y-64151607D01*
X84475900Y-64029675D01*
X84475900Y-63148124D01*
X84487910Y-63026192D01*
X84535371Y-62869736D01*
X84612442Y-62725546D01*
X84716163Y-62599162D01*
X84842547Y-62495441D01*
X84986737Y-62418370D01*
X85143193Y-62370909D01*
X85305900Y-62354884D01*
X85468608Y-62370909D01*
X85468608Y-62370909D01*
G37*
G36*
X90548608Y-62370909D02*
X90705064Y-62418370D01*
X90849254Y-62495441D01*
X90975638Y-62599162D01*
X91079359Y-62725546D01*
X91156430Y-62869736D01*
X91203891Y-63026192D01*
X91215900Y-63148124D01*
X91215900Y-64029676D01*
X91203891Y-64151608D01*
X91156430Y-64308064D01*
X91079359Y-64452254D01*
X91079357Y-64452256D01*
X90975638Y-64578638D01*
X90849254Y-64682359D01*
X90759843Y-64730150D01*
X90705063Y-64759430D01*
X90548607Y-64806891D01*
X90385900Y-64822916D01*
X90223192Y-64806891D01*
X90066736Y-64759430D01*
X89922546Y-64682359D01*
X89796162Y-64578638D01*
X89692443Y-64452256D01*
X89692441Y-64452254D01*
X89615373Y-64308068D01*
X89615372Y-64308066D01*
X89615370Y-64308063D01*
X89567909Y-64151607D01*
X89555900Y-64029675D01*
X89555900Y-63148124D01*
X89567910Y-63026192D01*
X89615371Y-62869736D01*
X89692442Y-62725546D01*
X89796163Y-62599162D01*
X89922547Y-62495441D01*
X90066737Y-62418370D01*
X90223193Y-62370909D01*
X90385900Y-62354884D01*
X90548608Y-62370909D01*
X90548608Y-62370909D01*
G37*
G36*
X98835900Y-64818900D02*
X97175900Y-64818900D01*
X97175900Y-62358900D01*
X98835900Y-62358900D01*
X98835900Y-64818900D01*
X98835900Y-64818900D01*
G37*
G36*
X89221200Y-57293400D02*
X87461200Y-57293400D01*
X87461200Y-55533400D01*
X89221200Y-55533400D01*
X89221200Y-57293400D01*
X89221200Y-57293400D01*
G37*
G36*
X51134600Y-57238800D02*
X47874600Y-57238800D01*
X47874600Y-55178800D01*
X51134600Y-55178800D01*
X51134600Y-57238800D01*
X51134600Y-57238800D01*
G37*
G36*
X97749930Y-54839272D02*
X97937285Y-54916877D01*
X98105904Y-55029545D01*
X98249295Y-55172936D01*
X98361963Y-55341555D01*
X98439568Y-55528910D01*
X98479130Y-55727803D01*
X98479130Y-55930597D01*
X98439568Y-56129490D01*
X98361963Y-56316845D01*
X98249295Y-56485464D01*
X98105904Y-56628855D01*
X97937285Y-56741523D01*
X97749930Y-56819128D01*
X97551037Y-56858690D01*
X97348243Y-56858690D01*
X97149350Y-56819128D01*
X96961995Y-56741523D01*
X96793376Y-56628855D01*
X96649985Y-56485464D01*
X96537317Y-56316845D01*
X96459712Y-56129490D01*
X96420150Y-55930597D01*
X96420150Y-55727803D01*
X96459712Y-55528910D01*
X96537317Y-55341555D01*
X96649985Y-55172936D01*
X96793376Y-55029545D01*
X96961995Y-54916877D01*
X97149350Y-54839272D01*
X97348243Y-54799710D01*
X97551037Y-54799710D01*
X97749930Y-54839272D01*
X97749930Y-54839272D01*
G37*
G36*
X93249050Y-54839272D02*
X93436405Y-54916877D01*
X93605024Y-55029545D01*
X93748415Y-55172936D01*
X93861083Y-55341555D01*
X93938688Y-55528910D01*
X93978250Y-55727803D01*
X93978250Y-55930597D01*
X93938688Y-56129490D01*
X93861083Y-56316845D01*
X93748415Y-56485464D01*
X93605024Y-56628855D01*
X93436405Y-56741523D01*
X93249050Y-56819128D01*
X93050157Y-56858690D01*
X92847363Y-56858690D01*
X92648470Y-56819128D01*
X92461115Y-56741523D01*
X92292496Y-56628855D01*
X92149105Y-56485464D01*
X92036437Y-56316845D01*
X91958832Y-56129490D01*
X91919270Y-55930597D01*
X91919270Y-55727803D01*
X91958832Y-55528910D01*
X92036437Y-55341555D01*
X92149105Y-55172936D01*
X92292496Y-55029545D01*
X92461115Y-54916877D01*
X92648470Y-54839272D01*
X92847363Y-54799710D01*
X93050157Y-54799710D01*
X93249050Y-54839272D01*
X93249050Y-54839272D01*
G37*
G36*
X88513706Y-53006133D02*
X88513709Y-53006134D01*
X88513710Y-53006134D01*
X88679591Y-53056453D01*
X88679594Y-53056455D01*
X88679595Y-53056455D01*
X88832467Y-53138166D01*
X88966464Y-53248136D01*
X89076434Y-53382133D01*
X89158145Y-53535005D01*
X89158147Y-53535009D01*
X89208466Y-53700890D01*
X89208467Y-53700894D01*
X89225457Y-53873400D01*
X89208467Y-54045906D01*
X89208466Y-54045909D01*
X89208466Y-54045910D01*
X89158147Y-54211791D01*
X89158145Y-54211794D01*
X89158145Y-54211795D01*
X89076434Y-54364667D01*
X88966464Y-54498664D01*
X88832467Y-54608634D01*
X88679595Y-54690345D01*
X88679591Y-54690347D01*
X88513710Y-54740666D01*
X88513709Y-54740666D01*
X88513706Y-54740667D01*
X88384425Y-54753400D01*
X88297975Y-54753400D01*
X88168694Y-54740667D01*
X88168691Y-54740666D01*
X88168690Y-54740666D01*
X88002809Y-54690347D01*
X88002805Y-54690345D01*
X87849933Y-54608634D01*
X87715936Y-54498664D01*
X87605966Y-54364667D01*
X87524255Y-54211795D01*
X87524255Y-54211794D01*
X87524253Y-54211791D01*
X87473934Y-54045910D01*
X87473934Y-54045909D01*
X87473933Y-54045906D01*
X87456943Y-53873400D01*
X87473933Y-53700894D01*
X87473934Y-53700890D01*
X87524253Y-53535009D01*
X87524255Y-53535005D01*
X87605966Y-53382133D01*
X87715936Y-53248136D01*
X87849933Y-53138166D01*
X88002805Y-53056455D01*
X88002806Y-53056455D01*
X88002809Y-53056453D01*
X88168690Y-53006134D01*
X88168691Y-53006134D01*
X88168694Y-53006133D01*
X88297975Y-52993400D01*
X88384425Y-52993400D01*
X88513706Y-53006133D01*
X88513706Y-53006133D01*
G37*
G36*
X58034600Y-54138800D02*
X55974600Y-54138800D01*
X55974600Y-52078800D01*
X58034600Y-52078800D01*
X58034600Y-54138800D01*
X58034600Y-54138800D01*
G37*
G36*
X42738709Y-52105188D02*
X42805040Y-52118382D01*
X42882205Y-52150345D01*
X42992487Y-52196025D01*
X43161190Y-52308749D01*
X43304651Y-52452210D01*
X43417375Y-52620913D01*
X43495018Y-52808361D01*
X43534600Y-53007352D01*
X43534600Y-53210248D01*
X43495018Y-53409239D01*
X43417375Y-53596687D01*
X43304651Y-53765390D01*
X43161190Y-53908851D01*
X42992487Y-54021575D01*
X42882683Y-54067057D01*
X42805040Y-54099218D01*
X42738709Y-54112412D01*
X42606048Y-54138800D01*
X42403152Y-54138800D01*
X42270491Y-54112412D01*
X42204160Y-54099218D01*
X42126517Y-54067057D01*
X42016713Y-54021575D01*
X41848010Y-53908851D01*
X41704549Y-53765390D01*
X41591825Y-53596687D01*
X41514182Y-53409239D01*
X41474600Y-53210248D01*
X41474600Y-53007352D01*
X41514182Y-52808361D01*
X41591825Y-52620913D01*
X41704549Y-52452210D01*
X41848010Y-52308749D01*
X42016713Y-52196025D01*
X42126995Y-52150345D01*
X42204160Y-52118382D01*
X42270491Y-52105188D01*
X42403152Y-52078800D01*
X42606048Y-52078800D01*
X42738709Y-52105188D01*
X42738709Y-52105188D01*
G37*
G36*
X88513706Y-50466133D02*
X88513709Y-50466134D01*
X88513710Y-50466134D01*
X88679591Y-50516453D01*
X88679594Y-50516455D01*
X88679595Y-50516455D01*
X88832467Y-50598166D01*
X88966464Y-50708136D01*
X89076434Y-50842133D01*
X89158145Y-50995005D01*
X89158147Y-50995009D01*
X89208466Y-51160890D01*
X89208467Y-51160894D01*
X89225457Y-51333400D01*
X89208467Y-51505906D01*
X89208466Y-51505909D01*
X89208466Y-51505910D01*
X89158147Y-51671791D01*
X89158145Y-51671794D01*
X89158145Y-51671795D01*
X89076434Y-51824667D01*
X88966464Y-51958664D01*
X88832467Y-52068634D01*
X88679595Y-52150345D01*
X88679591Y-52150347D01*
X88513710Y-52200666D01*
X88513709Y-52200666D01*
X88513706Y-52200667D01*
X88384425Y-52213400D01*
X88297975Y-52213400D01*
X88168694Y-52200667D01*
X88168691Y-52200666D01*
X88168690Y-52200666D01*
X88002809Y-52150347D01*
X88002805Y-52150345D01*
X87849933Y-52068634D01*
X87715936Y-51958664D01*
X87605966Y-51824667D01*
X87524255Y-51671795D01*
X87524255Y-51671794D01*
X87524253Y-51671791D01*
X87473934Y-51505910D01*
X87473934Y-51505909D01*
X87473933Y-51505906D01*
X87456943Y-51333400D01*
X87473933Y-51160894D01*
X87473934Y-51160890D01*
X87524253Y-50995009D01*
X87524255Y-50995005D01*
X87605966Y-50842133D01*
X87715936Y-50708136D01*
X87849933Y-50598166D01*
X88002805Y-50516455D01*
X88002806Y-50516455D01*
X88002809Y-50516453D01*
X88168690Y-50466134D01*
X88168691Y-50466134D01*
X88168694Y-50466133D01*
X88297975Y-50453400D01*
X88384425Y-50453400D01*
X88513706Y-50466133D01*
X88513706Y-50466133D01*
G37*
G36*
X57238709Y-49605188D02*
X57305040Y-49618382D01*
X57326065Y-49627091D01*
X57492487Y-49696025D01*
X57661190Y-49808749D01*
X57804651Y-49952210D01*
X57917375Y-50120913D01*
X57995018Y-50308361D01*
X58034600Y-50507352D01*
X58034600Y-50710248D01*
X57995018Y-50909239D01*
X57917375Y-51096687D01*
X57804651Y-51265390D01*
X57661190Y-51408851D01*
X57492487Y-51521575D01*
X57382683Y-51567057D01*
X57305040Y-51599218D01*
X57238709Y-51612412D01*
X57106048Y-51638800D01*
X56903152Y-51638800D01*
X56770491Y-51612412D01*
X56704160Y-51599218D01*
X56626517Y-51567057D01*
X56516713Y-51521575D01*
X56348010Y-51408851D01*
X56204549Y-51265390D01*
X56091825Y-51096687D01*
X56014182Y-50909239D01*
X55974600Y-50710248D01*
X55974600Y-50507352D01*
X56014182Y-50308361D01*
X56091825Y-50120913D01*
X56204549Y-49952210D01*
X56348010Y-49808749D01*
X56516713Y-49696025D01*
X56683135Y-49627091D01*
X56704160Y-49618382D01*
X56770491Y-49605188D01*
X56903152Y-49578800D01*
X57106048Y-49578800D01*
X57238709Y-49605188D01*
X57238709Y-49605188D01*
G37*
G36*
X93249050Y-48336872D02*
X93436405Y-48414477D01*
X93605024Y-48527145D01*
X93748415Y-48670536D01*
X93861083Y-48839155D01*
X93938688Y-49026510D01*
X93978250Y-49225403D01*
X93978250Y-49428197D01*
X93938688Y-49627090D01*
X93861083Y-49814445D01*
X93748415Y-49983064D01*
X93605024Y-50126455D01*
X93436405Y-50239123D01*
X93249050Y-50316728D01*
X93050157Y-50356290D01*
X92847363Y-50356290D01*
X92648470Y-50316728D01*
X92461115Y-50239123D01*
X92292496Y-50126455D01*
X92149105Y-49983064D01*
X92036437Y-49814445D01*
X91958832Y-49627090D01*
X91919270Y-49428197D01*
X91919270Y-49225403D01*
X91958832Y-49026510D01*
X92036437Y-48839155D01*
X92149105Y-48670536D01*
X92292496Y-48527145D01*
X92461115Y-48414477D01*
X92648470Y-48336872D01*
X92847363Y-48297310D01*
X93050157Y-48297310D01*
X93249050Y-48336872D01*
X93249050Y-48336872D01*
G37*
G36*
X97749930Y-48336872D02*
X97937285Y-48414477D01*
X98105904Y-48527145D01*
X98249295Y-48670536D01*
X98361963Y-48839155D01*
X98439568Y-49026510D01*
X98479130Y-49225403D01*
X98479130Y-49428197D01*
X98439568Y-49627090D01*
X98361963Y-49814445D01*
X98249295Y-49983064D01*
X98105904Y-50126455D01*
X97937285Y-50239123D01*
X97749930Y-50316728D01*
X97551037Y-50356290D01*
X97348243Y-50356290D01*
X97149350Y-50316728D01*
X96961995Y-50239123D01*
X96793376Y-50126455D01*
X96649985Y-49983064D01*
X96537317Y-49814445D01*
X96459712Y-49627090D01*
X96420150Y-49428197D01*
X96420150Y-49225403D01*
X96459712Y-49026510D01*
X96537317Y-48839155D01*
X96649985Y-48670536D01*
X96793376Y-48527145D01*
X96961995Y-48414477D01*
X97149350Y-48336872D01*
X97348243Y-48297310D01*
X97551037Y-48297310D01*
X97749930Y-48336872D01*
X97749930Y-48336872D01*
G37*
G36*
X88513706Y-47926133D02*
X88513709Y-47926134D01*
X88513710Y-47926134D01*
X88679591Y-47976453D01*
X88679594Y-47976455D01*
X88679595Y-47976455D01*
X88832467Y-48058166D01*
X88966464Y-48168136D01*
X89076434Y-48302133D01*
X89136483Y-48414478D01*
X89158147Y-48455009D01*
X89201124Y-48596687D01*
X89208467Y-48620894D01*
X89225457Y-48793400D01*
X89208467Y-48965906D01*
X89208466Y-48965909D01*
X89208466Y-48965910D01*
X89158147Y-49131791D01*
X89158145Y-49131794D01*
X89158145Y-49131795D01*
X89076434Y-49284667D01*
X88966464Y-49418664D01*
X88832467Y-49528634D01*
X88679595Y-49610345D01*
X88679591Y-49610347D01*
X88513710Y-49660666D01*
X88513709Y-49660666D01*
X88513706Y-49660667D01*
X88384425Y-49673400D01*
X88297975Y-49673400D01*
X88168694Y-49660667D01*
X88168691Y-49660666D01*
X88168690Y-49660666D01*
X88002809Y-49610347D01*
X88002805Y-49610345D01*
X87849933Y-49528634D01*
X87715936Y-49418664D01*
X87605966Y-49284667D01*
X87524255Y-49131795D01*
X87524255Y-49131794D01*
X87524253Y-49131791D01*
X87473934Y-48965910D01*
X87473934Y-48965909D01*
X87473933Y-48965906D01*
X87456943Y-48793400D01*
X87473933Y-48620894D01*
X87481276Y-48596687D01*
X87524253Y-48455009D01*
X87545917Y-48414478D01*
X87605966Y-48302133D01*
X87715936Y-48168136D01*
X87849933Y-48058166D01*
X88002805Y-47976455D01*
X88002806Y-47976455D01*
X88002809Y-47976453D01*
X88168690Y-47926134D01*
X88168691Y-47926134D01*
X88168694Y-47926133D01*
X88297975Y-47913400D01*
X88384425Y-47913400D01*
X88513706Y-47926133D01*
X88513706Y-47926133D01*
G37*
G36*
X57238709Y-47105188D02*
X57305040Y-47118382D01*
X57382683Y-47150543D01*
X57492487Y-47196025D01*
X57661190Y-47308749D01*
X57804651Y-47452210D01*
X57917375Y-47620913D01*
X57995018Y-47808361D01*
X58028454Y-47976453D01*
X58034600Y-48007354D01*
X58034600Y-48210246D01*
X57995018Y-48409240D01*
X57992848Y-48414478D01*
X57917375Y-48596687D01*
X57804651Y-48765390D01*
X57661190Y-48908851D01*
X57492487Y-49021575D01*
X57382683Y-49067057D01*
X57305040Y-49099218D01*
X57238709Y-49112412D01*
X57106048Y-49138800D01*
X56903152Y-49138800D01*
X56770491Y-49112412D01*
X56704160Y-49099218D01*
X56626517Y-49067057D01*
X56516713Y-49021575D01*
X56348010Y-48908851D01*
X56204549Y-48765390D01*
X56091825Y-48596687D01*
X56016352Y-48414478D01*
X56014182Y-48409240D01*
X55974600Y-48210246D01*
X55974600Y-48007354D01*
X55980747Y-47976453D01*
X56014182Y-47808361D01*
X56091825Y-47620913D01*
X56204549Y-47452210D01*
X56348010Y-47308749D01*
X56516713Y-47196025D01*
X56626517Y-47150543D01*
X56704160Y-47118382D01*
X56770491Y-47105188D01*
X56903152Y-47078800D01*
X57106048Y-47078800D01*
X57238709Y-47105188D01*
X57238709Y-47105188D01*
G37*
G36*
X42738709Y-47105188D02*
X42805040Y-47118382D01*
X42882683Y-47150543D01*
X42992487Y-47196025D01*
X43161190Y-47308749D01*
X43304651Y-47452210D01*
X43417375Y-47620913D01*
X43495018Y-47808361D01*
X43528454Y-47976453D01*
X43534600Y-48007354D01*
X43534600Y-48210246D01*
X43495018Y-48409240D01*
X43492848Y-48414478D01*
X43417375Y-48596687D01*
X43304651Y-48765390D01*
X43161190Y-48908851D01*
X42992487Y-49021575D01*
X42882683Y-49067057D01*
X42805040Y-49099218D01*
X42738709Y-49112412D01*
X42606048Y-49138800D01*
X42403152Y-49138800D01*
X42270491Y-49112412D01*
X42204160Y-49099218D01*
X42126517Y-49067057D01*
X42016713Y-49021575D01*
X41848010Y-48908851D01*
X41704549Y-48765390D01*
X41591825Y-48596687D01*
X41516352Y-48414478D01*
X41514182Y-48409240D01*
X41474600Y-48210246D01*
X41474600Y-48007354D01*
X41480747Y-47976453D01*
X41514182Y-47808361D01*
X41591825Y-47620913D01*
X41704549Y-47452210D01*
X41848010Y-47308749D01*
X42016713Y-47196025D01*
X42126517Y-47150543D01*
X42204160Y-47118382D01*
X42270491Y-47105188D01*
X42403152Y-47078800D01*
X42606048Y-47078800D01*
X42738709Y-47105188D01*
X42738709Y-47105188D01*
G37*
G36*
X51134600Y-46038800D02*
X47874600Y-46038800D01*
X47874600Y-43978800D01*
X51134600Y-43978800D01*
X51134600Y-46038800D01*
X51134600Y-46038800D01*
G37*
G36*
X89402706Y-43595433D02*
X89402709Y-43595434D01*
X89402710Y-43595434D01*
X89568591Y-43645753D01*
X89568594Y-43645755D01*
X89568595Y-43645755D01*
X89721467Y-43727466D01*
X89855464Y-43837436D01*
X89965434Y-43971433D01*
X90047145Y-44124305D01*
X90047147Y-44124309D01*
X90097466Y-44290190D01*
X90097467Y-44290194D01*
X90114457Y-44462700D01*
X90097467Y-44635206D01*
X90097466Y-44635209D01*
X90097466Y-44635210D01*
X90047147Y-44801091D01*
X90047145Y-44801094D01*
X90047145Y-44801095D01*
X89965434Y-44953967D01*
X89855464Y-45087964D01*
X89721467Y-45197934D01*
X89568595Y-45279645D01*
X89568591Y-45279647D01*
X89402710Y-45329966D01*
X89402709Y-45329966D01*
X89402706Y-45329967D01*
X89273425Y-45342700D01*
X89186975Y-45342700D01*
X89057694Y-45329967D01*
X89057691Y-45329966D01*
X89057690Y-45329966D01*
X88891809Y-45279647D01*
X88891805Y-45279645D01*
X88738933Y-45197934D01*
X88604936Y-45087964D01*
X88494966Y-44953967D01*
X88413255Y-44801095D01*
X88413255Y-44801094D01*
X88413253Y-44801091D01*
X88362934Y-44635210D01*
X88362934Y-44635209D01*
X88362933Y-44635206D01*
X88345943Y-44462700D01*
X88362933Y-44290194D01*
X88362934Y-44290190D01*
X88413253Y-44124309D01*
X88413255Y-44124305D01*
X88494966Y-43971433D01*
X88604936Y-43837436D01*
X88738933Y-43727466D01*
X88891805Y-43645755D01*
X88891806Y-43645755D01*
X88891809Y-43645753D01*
X89057690Y-43595434D01*
X89057691Y-43595434D01*
X89057694Y-43595433D01*
X89186975Y-43582700D01*
X89273425Y-43582700D01*
X89402706Y-43595433D01*
X89402706Y-43595433D01*
G37*
G36*
X97022706Y-43595433D02*
X97022709Y-43595434D01*
X97022710Y-43595434D01*
X97188591Y-43645753D01*
X97188594Y-43645755D01*
X97188595Y-43645755D01*
X97341467Y-43727466D01*
X97475464Y-43837436D01*
X97585434Y-43971433D01*
X97667145Y-44124305D01*
X97667147Y-44124309D01*
X97717466Y-44290190D01*
X97717467Y-44290194D01*
X97734457Y-44462700D01*
X97717467Y-44635206D01*
X97717466Y-44635209D01*
X97717466Y-44635210D01*
X97667147Y-44801091D01*
X97667145Y-44801094D01*
X97667145Y-44801095D01*
X97585434Y-44953967D01*
X97475464Y-45087964D01*
X97341467Y-45197934D01*
X97188595Y-45279645D01*
X97188591Y-45279647D01*
X97022710Y-45329966D01*
X97022709Y-45329966D01*
X97022706Y-45329967D01*
X96893425Y-45342700D01*
X96806975Y-45342700D01*
X96677694Y-45329967D01*
X96677691Y-45329966D01*
X96677690Y-45329966D01*
X96511809Y-45279647D01*
X96511805Y-45279645D01*
X96358933Y-45197934D01*
X96224936Y-45087964D01*
X96114966Y-44953967D01*
X96033255Y-44801095D01*
X96033255Y-44801094D01*
X96033253Y-44801091D01*
X95982934Y-44635210D01*
X95982934Y-44635209D01*
X95982933Y-44635206D01*
X95965943Y-44462700D01*
X95982933Y-44290194D01*
X95982934Y-44290190D01*
X96033253Y-44124309D01*
X96033255Y-44124305D01*
X96114966Y-43971433D01*
X96224936Y-43837436D01*
X96358933Y-43727466D01*
X96511805Y-43645755D01*
X96511806Y-43645755D01*
X96511809Y-43645753D01*
X96677690Y-43595434D01*
X96677691Y-43595434D01*
X96677694Y-43595433D01*
X96806975Y-43582700D01*
X96893425Y-43582700D01*
X97022706Y-43595433D01*
X97022706Y-43595433D01*
G37*
G36*
X94482706Y-43595433D02*
X94482709Y-43595434D01*
X94482710Y-43595434D01*
X94648591Y-43645753D01*
X94648594Y-43645755D01*
X94648595Y-43645755D01*
X94801467Y-43727466D01*
X94935464Y-43837436D01*
X95045434Y-43971433D01*
X95127145Y-44124305D01*
X95127147Y-44124309D01*
X95177466Y-44290190D01*
X95177467Y-44290194D01*
X95194457Y-44462700D01*
X95177467Y-44635206D01*
X95177466Y-44635209D01*
X95177466Y-44635210D01*
X95127147Y-44801091D01*
X95127145Y-44801094D01*
X95127145Y-44801095D01*
X95045434Y-44953967D01*
X94935464Y-45087964D01*
X94801467Y-45197934D01*
X94648595Y-45279645D01*
X94648591Y-45279647D01*
X94482710Y-45329966D01*
X94482709Y-45329966D01*
X94482706Y-45329967D01*
X94353425Y-45342700D01*
X94266975Y-45342700D01*
X94137694Y-45329967D01*
X94137691Y-45329966D01*
X94137690Y-45329966D01*
X93971809Y-45279647D01*
X93971805Y-45279645D01*
X93818933Y-45197934D01*
X93684936Y-45087964D01*
X93574966Y-44953967D01*
X93493255Y-44801095D01*
X93493255Y-44801094D01*
X93493253Y-44801091D01*
X93442934Y-44635210D01*
X93442934Y-44635209D01*
X93442933Y-44635206D01*
X93425943Y-44462700D01*
X93442933Y-44290194D01*
X93442934Y-44290190D01*
X93493253Y-44124309D01*
X93493255Y-44124305D01*
X93574966Y-43971433D01*
X93684936Y-43837436D01*
X93818933Y-43727466D01*
X93971805Y-43645755D01*
X93971806Y-43645755D01*
X93971809Y-43645753D01*
X94137690Y-43595434D01*
X94137691Y-43595434D01*
X94137694Y-43595433D01*
X94266975Y-43582700D01*
X94353425Y-43582700D01*
X94482706Y-43595433D01*
X94482706Y-43595433D01*
G37*
G36*
X91942706Y-43595433D02*
X91942709Y-43595434D01*
X91942710Y-43595434D01*
X92108591Y-43645753D01*
X92108594Y-43645755D01*
X92108595Y-43645755D01*
X92261467Y-43727466D01*
X92395464Y-43837436D01*
X92505434Y-43971433D01*
X92587145Y-44124305D01*
X92587147Y-44124309D01*
X92637466Y-44290190D01*
X92637467Y-44290194D01*
X92654457Y-44462700D01*
X92637467Y-44635206D01*
X92637466Y-44635209D01*
X92637466Y-44635210D01*
X92587147Y-44801091D01*
X92587145Y-44801094D01*
X92587145Y-44801095D01*
X92505434Y-44953967D01*
X92395464Y-45087964D01*
X92261467Y-45197934D01*
X92108595Y-45279645D01*
X92108591Y-45279647D01*
X91942710Y-45329966D01*
X91942709Y-45329966D01*
X91942706Y-45329967D01*
X91813425Y-45342700D01*
X91726975Y-45342700D01*
X91597694Y-45329967D01*
X91597691Y-45329966D01*
X91597690Y-45329966D01*
X91431809Y-45279647D01*
X91431805Y-45279645D01*
X91278933Y-45197934D01*
X91144936Y-45087964D01*
X91034966Y-44953967D01*
X90953255Y-44801095D01*
X90953255Y-44801094D01*
X90953253Y-44801091D01*
X90902934Y-44635210D01*
X90902934Y-44635209D01*
X90902933Y-44635206D01*
X90885943Y-44462700D01*
X90902933Y-44290194D01*
X90902934Y-44290190D01*
X90953253Y-44124309D01*
X90953255Y-44124305D01*
X91034966Y-43971433D01*
X91144936Y-43837436D01*
X91278933Y-43727466D01*
X91431805Y-43645755D01*
X91431806Y-43645755D01*
X91431809Y-43645753D01*
X91597690Y-43595434D01*
X91597691Y-43595434D01*
X91597694Y-43595433D01*
X91726975Y-43582700D01*
X91813425Y-43582700D01*
X91942706Y-43595433D01*
X91942706Y-43595433D01*
G37*
G36*
X87570200Y-45342700D02*
X85810200Y-45342700D01*
X85810200Y-43582700D01*
X87570200Y-43582700D01*
X87570200Y-45342700D01*
X87570200Y-45342700D01*
G37*
G36*
X90762390Y-40183472D02*
X90949745Y-40261077D01*
X91118364Y-40373745D01*
X91261755Y-40517136D01*
X91374423Y-40685755D01*
X91452028Y-40873110D01*
X91491590Y-41072003D01*
X91491590Y-41274797D01*
X91452028Y-41473690D01*
X91374423Y-41661045D01*
X91261755Y-41829664D01*
X91118364Y-41973055D01*
X90949745Y-42085723D01*
X90762390Y-42163328D01*
X90563497Y-42202890D01*
X90360703Y-42202890D01*
X90161810Y-42163328D01*
X89974455Y-42085723D01*
X89805836Y-41973055D01*
X89662445Y-41829664D01*
X89549777Y-41661045D01*
X89472172Y-41473690D01*
X89432610Y-41274797D01*
X89432610Y-41072003D01*
X89472172Y-40873110D01*
X89549777Y-40685755D01*
X89662445Y-40517136D01*
X89805836Y-40373745D01*
X89974455Y-40261077D01*
X90161810Y-40183472D01*
X90360703Y-40143910D01*
X90563497Y-40143910D01*
X90762390Y-40183472D01*
X90762390Y-40183472D01*
G37*
G36*
X86261510Y-40183472D02*
X86448865Y-40261077D01*
X86617484Y-40373745D01*
X86760875Y-40517136D01*
X86873543Y-40685755D01*
X86951148Y-40873110D01*
X86990710Y-41072003D01*
X86990710Y-41274797D01*
X86951148Y-41473690D01*
X86873543Y-41661045D01*
X86760875Y-41829664D01*
X86617484Y-41973055D01*
X86448865Y-42085723D01*
X86261510Y-42163328D01*
X86062617Y-42202890D01*
X85859823Y-42202890D01*
X85660930Y-42163328D01*
X85473575Y-42085723D01*
X85304956Y-41973055D01*
X85161565Y-41829664D01*
X85048897Y-41661045D01*
X84971292Y-41473690D01*
X84931730Y-41274797D01*
X84931730Y-41072003D01*
X84971292Y-40873110D01*
X85048897Y-40685755D01*
X85161565Y-40517136D01*
X85304956Y-40373745D01*
X85473575Y-40261077D01*
X85660930Y-40183472D01*
X85859823Y-40143910D01*
X86062617Y-40143910D01*
X86261510Y-40183472D01*
X86261510Y-40183472D01*
G37*
G36*
X50629606Y-38871033D02*
X50629609Y-38871034D01*
X50629610Y-38871034D01*
X50795491Y-38921353D01*
X50795494Y-38921355D01*
X50795495Y-38921355D01*
X50948367Y-39003066D01*
X51082364Y-39113036D01*
X51192334Y-39247033D01*
X51274045Y-39399905D01*
X51274047Y-39399909D01*
X51324366Y-39565790D01*
X51324367Y-39565794D01*
X51341357Y-39738300D01*
X51324367Y-39910806D01*
X51324366Y-39910809D01*
X51324366Y-39910810D01*
X51274047Y-40076691D01*
X51274045Y-40076694D01*
X51274045Y-40076695D01*
X51192334Y-40229567D01*
X51082364Y-40363564D01*
X50948367Y-40473534D01*
X50795495Y-40555245D01*
X50795491Y-40555247D01*
X50629610Y-40605566D01*
X50629609Y-40605566D01*
X50629606Y-40605567D01*
X50500325Y-40618300D01*
X50413875Y-40618300D01*
X50284594Y-40605567D01*
X50284591Y-40605566D01*
X50284590Y-40605566D01*
X50118709Y-40555247D01*
X50118705Y-40555245D01*
X49965833Y-40473534D01*
X49831836Y-40363564D01*
X49721866Y-40229567D01*
X49640155Y-40076695D01*
X49640155Y-40076694D01*
X49640153Y-40076691D01*
X49589834Y-39910810D01*
X49589834Y-39910809D01*
X49589833Y-39910806D01*
X49572843Y-39738300D01*
X49589833Y-39565794D01*
X49589834Y-39565790D01*
X49640153Y-39399909D01*
X49640155Y-39399905D01*
X49721866Y-39247033D01*
X49831836Y-39113036D01*
X49965833Y-39003066D01*
X50118705Y-38921355D01*
X50118706Y-38921355D01*
X50118709Y-38921353D01*
X50284590Y-38871034D01*
X50284591Y-38871034D01*
X50284594Y-38871033D01*
X50413875Y-38858300D01*
X50500325Y-38858300D01*
X50629606Y-38871033D01*
X50629606Y-38871033D01*
G37*
G36*
X43009606Y-38871033D02*
X43009609Y-38871034D01*
X43009610Y-38871034D01*
X43175491Y-38921353D01*
X43175494Y-38921355D01*
X43175495Y-38921355D01*
X43328367Y-39003066D01*
X43462364Y-39113036D01*
X43572334Y-39247033D01*
X43654045Y-39399905D01*
X43654047Y-39399909D01*
X43704366Y-39565790D01*
X43704367Y-39565794D01*
X43721357Y-39738300D01*
X43704367Y-39910806D01*
X43704366Y-39910809D01*
X43704366Y-39910810D01*
X43654047Y-40076691D01*
X43654045Y-40076694D01*
X43654045Y-40076695D01*
X43572334Y-40229567D01*
X43462364Y-40363564D01*
X43328367Y-40473534D01*
X43175495Y-40555245D01*
X43175491Y-40555247D01*
X43009610Y-40605566D01*
X43009609Y-40605566D01*
X43009606Y-40605567D01*
X42880325Y-40618300D01*
X42793875Y-40618300D01*
X42664594Y-40605567D01*
X42664591Y-40605566D01*
X42664590Y-40605566D01*
X42498709Y-40555247D01*
X42498705Y-40555245D01*
X42345833Y-40473534D01*
X42211836Y-40363564D01*
X42101866Y-40229567D01*
X42020155Y-40076695D01*
X42020155Y-40076694D01*
X42020153Y-40076691D01*
X41969834Y-39910810D01*
X41969834Y-39910809D01*
X41969833Y-39910806D01*
X41952843Y-39738300D01*
X41969833Y-39565794D01*
X41969834Y-39565790D01*
X42020153Y-39399909D01*
X42020155Y-39399905D01*
X42101866Y-39247033D01*
X42211836Y-39113036D01*
X42345833Y-39003066D01*
X42498705Y-38921355D01*
X42498706Y-38921355D01*
X42498709Y-38921353D01*
X42664590Y-38871034D01*
X42664591Y-38871034D01*
X42664594Y-38871033D01*
X42793875Y-38858300D01*
X42880325Y-38858300D01*
X43009606Y-38871033D01*
X43009606Y-38871033D01*
G37*
G36*
X53877100Y-40618300D02*
X52117100Y-40618300D01*
X52117100Y-38858300D01*
X53877100Y-38858300D01*
X53877100Y-40618300D01*
X53877100Y-40618300D01*
G37*
G36*
X48089606Y-38871033D02*
X48089609Y-38871034D01*
X48089610Y-38871034D01*
X48255491Y-38921353D01*
X48255494Y-38921355D01*
X48255495Y-38921355D01*
X48408367Y-39003066D01*
X48542364Y-39113036D01*
X48652334Y-39247033D01*
X48734045Y-39399905D01*
X48734047Y-39399909D01*
X48784366Y-39565790D01*
X48784367Y-39565794D01*
X48801357Y-39738300D01*
X48784367Y-39910806D01*
X48784366Y-39910809D01*
X48784366Y-39910810D01*
X48734047Y-40076691D01*
X48734045Y-40076694D01*
X48734045Y-40076695D01*
X48652334Y-40229567D01*
X48542364Y-40363564D01*
X48408367Y-40473534D01*
X48255495Y-40555245D01*
X48255491Y-40555247D01*
X48089610Y-40605566D01*
X48089609Y-40605566D01*
X48089606Y-40605567D01*
X47960325Y-40618300D01*
X47873875Y-40618300D01*
X47744594Y-40605567D01*
X47744591Y-40605566D01*
X47744590Y-40605566D01*
X47578709Y-40555247D01*
X47578705Y-40555245D01*
X47425833Y-40473534D01*
X47291836Y-40363564D01*
X47181866Y-40229567D01*
X47100155Y-40076695D01*
X47100155Y-40076694D01*
X47100153Y-40076691D01*
X47049834Y-39910810D01*
X47049834Y-39910809D01*
X47049833Y-39910806D01*
X47032843Y-39738300D01*
X47049833Y-39565794D01*
X47049834Y-39565790D01*
X47100153Y-39399909D01*
X47100155Y-39399905D01*
X47181866Y-39247033D01*
X47291836Y-39113036D01*
X47425833Y-39003066D01*
X47578705Y-38921355D01*
X47578706Y-38921355D01*
X47578709Y-38921353D01*
X47744590Y-38871034D01*
X47744591Y-38871034D01*
X47744594Y-38871033D01*
X47873875Y-38858300D01*
X47960325Y-38858300D01*
X48089606Y-38871033D01*
X48089606Y-38871033D01*
G37*
G36*
X45549606Y-38871033D02*
X45549609Y-38871034D01*
X45549610Y-38871034D01*
X45715491Y-38921353D01*
X45715494Y-38921355D01*
X45715495Y-38921355D01*
X45868367Y-39003066D01*
X46002364Y-39113036D01*
X46112334Y-39247033D01*
X46194045Y-39399905D01*
X46194047Y-39399909D01*
X46244366Y-39565790D01*
X46244367Y-39565794D01*
X46261357Y-39738300D01*
X46244367Y-39910806D01*
X46244366Y-39910809D01*
X46244366Y-39910810D01*
X46194047Y-40076691D01*
X46194045Y-40076694D01*
X46194045Y-40076695D01*
X46112334Y-40229567D01*
X46002364Y-40363564D01*
X45868367Y-40473534D01*
X45715495Y-40555245D01*
X45715491Y-40555247D01*
X45549610Y-40605566D01*
X45549609Y-40605566D01*
X45549606Y-40605567D01*
X45420325Y-40618300D01*
X45333875Y-40618300D01*
X45204594Y-40605567D01*
X45204591Y-40605566D01*
X45204590Y-40605566D01*
X45038709Y-40555247D01*
X45038705Y-40555245D01*
X44885833Y-40473534D01*
X44751836Y-40363564D01*
X44641866Y-40229567D01*
X44560155Y-40076695D01*
X44560155Y-40076694D01*
X44560153Y-40076691D01*
X44509834Y-39910810D01*
X44509834Y-39910809D01*
X44509833Y-39910806D01*
X44492843Y-39738300D01*
X44509833Y-39565794D01*
X44509834Y-39565790D01*
X44560153Y-39399909D01*
X44560155Y-39399905D01*
X44641866Y-39247033D01*
X44751836Y-39113036D01*
X44885833Y-39003066D01*
X45038705Y-38921355D01*
X45038706Y-38921355D01*
X45038709Y-38921353D01*
X45204590Y-38871034D01*
X45204591Y-38871034D01*
X45204594Y-38871033D01*
X45333875Y-38858300D01*
X45420325Y-38858300D01*
X45549606Y-38871033D01*
X45549606Y-38871033D01*
G37*
G36*
X90762390Y-33681072D02*
X90949745Y-33758677D01*
X91118364Y-33871345D01*
X91261755Y-34014736D01*
X91374423Y-34183355D01*
X91452028Y-34370710D01*
X91491590Y-34569603D01*
X91491590Y-34772397D01*
X91452028Y-34971290D01*
X91374423Y-35158645D01*
X91261755Y-35327264D01*
X91118364Y-35470655D01*
X90949745Y-35583323D01*
X90762390Y-35660928D01*
X90563497Y-35700490D01*
X90360703Y-35700490D01*
X90161810Y-35660928D01*
X89974455Y-35583323D01*
X89805836Y-35470655D01*
X89662445Y-35327264D01*
X89549777Y-35158645D01*
X89472172Y-34971290D01*
X89432610Y-34772397D01*
X89432610Y-34569603D01*
X89472172Y-34370710D01*
X89549777Y-34183355D01*
X89662445Y-34014736D01*
X89805836Y-33871345D01*
X89974455Y-33758677D01*
X90161810Y-33681072D01*
X90360703Y-33641510D01*
X90563497Y-33641510D01*
X90762390Y-33681072D01*
X90762390Y-33681072D01*
G37*
G36*
X86261510Y-33681072D02*
X86448865Y-33758677D01*
X86617484Y-33871345D01*
X86760875Y-34014736D01*
X86873543Y-34183355D01*
X86951148Y-34370710D01*
X86990710Y-34569603D01*
X86990710Y-34772397D01*
X86951148Y-34971290D01*
X86873543Y-35158645D01*
X86760875Y-35327264D01*
X86617484Y-35470655D01*
X86448865Y-35583323D01*
X86261510Y-35660928D01*
X86062617Y-35700490D01*
X85859823Y-35700490D01*
X85660930Y-35660928D01*
X85473575Y-35583323D01*
X85304956Y-35470655D01*
X85161565Y-35327264D01*
X85048897Y-35158645D01*
X84971292Y-34971290D01*
X84931730Y-34772397D01*
X84931730Y-34569603D01*
X84971292Y-34370710D01*
X85048897Y-34183355D01*
X85161565Y-34014736D01*
X85304956Y-33871345D01*
X85473575Y-33758677D01*
X85660930Y-33681072D01*
X85859823Y-33641510D01*
X86062617Y-33641510D01*
X86261510Y-33681072D01*
X86261510Y-33681072D01*
G37*
G36*
X96475451Y-32432639D02*
X96475454Y-32432640D01*
X96475453Y-32432640D01*
X96772095Y-32555513D01*
X97039065Y-32733896D01*
X97266104Y-32960935D01*
X97444487Y-33227905D01*
X97567361Y-33524549D01*
X97630000Y-33839458D01*
X97630000Y-34160542D01*
X97567361Y-34475451D01*
X97444487Y-34772095D01*
X97266104Y-35039065D01*
X97039065Y-35266104D01*
X96947532Y-35327264D01*
X96772095Y-35444487D01*
X96475451Y-35567361D01*
X96160542Y-35630000D01*
X95839458Y-35630000D01*
X95524549Y-35567361D01*
X95227905Y-35444487D01*
X95052468Y-35327264D01*
X94960935Y-35266104D01*
X94733896Y-35039065D01*
X94555513Y-34772095D01*
X94432639Y-34475451D01*
X94370000Y-34160542D01*
X94370000Y-33839458D01*
X94432639Y-33524549D01*
X94555513Y-33227905D01*
X94733896Y-32960935D01*
X94960935Y-32733896D01*
X95227905Y-32555513D01*
X95524547Y-32432640D01*
X95524546Y-32432640D01*
X95524549Y-32432639D01*
X95839458Y-32370000D01*
X96160542Y-32370000D01*
X96475451Y-32432639D01*
X96475451Y-32432639D01*
G37*
G36*
X44475451Y-32432639D02*
X44475454Y-32432640D01*
X44475453Y-32432640D01*
X44772095Y-32555513D01*
X45039065Y-32733896D01*
X45266104Y-32960935D01*
X45444487Y-33227905D01*
X45567361Y-33524549D01*
X45630000Y-33839458D01*
X45630000Y-34160542D01*
X45567361Y-34475451D01*
X45444487Y-34772095D01*
X45266104Y-35039065D01*
X45039065Y-35266104D01*
X44947532Y-35327264D01*
X44772095Y-35444487D01*
X44475451Y-35567361D01*
X44160542Y-35630000D01*
X43839458Y-35630000D01*
X43524549Y-35567361D01*
X43227905Y-35444487D01*
X43052468Y-35327264D01*
X42960935Y-35266104D01*
X42733896Y-35039065D01*
X42555513Y-34772095D01*
X42432639Y-34475451D01*
X42370000Y-34160542D01*
X42370000Y-33839458D01*
X42432639Y-33524549D01*
X42555513Y-33227905D01*
X42733896Y-32960935D01*
X42960935Y-32733896D01*
X43227905Y-32555513D01*
X43524547Y-32432640D01*
X43524546Y-32432640D01*
X43524549Y-32432639D01*
X43839458Y-32370000D01*
X44160542Y-32370000D01*
X44475451Y-32432639D01*
X44475451Y-32432639D01*
G37*
M02*
