M48
;DRILL file {KiCad (5.0.1)-3} date 18.11.2018 09:55:21
;FORMAT={-:-/ absolute / inch / decimal}
FMAT,2
INCH,TZ
T1C0.0157
T2C0.0236
T3C0.0315
T4C0.0335
T5C0.0394
T6C0.0394
T7C0.0433
T8C0.0472
T9C0.0551
T10C0.0591
%
G90
G05
M72
T1
X1.82Y-2.54
X1.94Y-2.4
X2.016Y-4.602
X2.06Y-2.34
X2.2Y-2.18
X2.2Y-2.34
X2.34Y-2.
X2.38Y-1.64
X2.4Y-1.52
X2.46Y-2.34
X2.5Y-2.52
X2.54Y-2.38
X2.54Y-2.6226
X2.575Y-4.5323
X2.58Y-1.62
X2.58Y-4.3
X2.66Y-4.18
X2.7Y-2.3
X2.7Y-4.675
X2.7209Y-2.44
X2.85Y-4.6299
X2.98Y-2.42
X2.98Y-2.52
X3.Y-2.3
X3.0328Y-2.5626
X3.0335Y-2.88
X3.0335Y-3.04
X3.04Y-1.76
X3.06Y-2.6
X3.08Y-1.62
X3.14Y-2.74
X3.3142Y-3.12
X3.32Y-1.5
X3.32Y-2.72
X3.66Y-2.4
X3.6688Y-3.1688
X3.78Y-1.84
X3.78Y-1.9
X3.8Y-3.418
X3.88Y-3.
X3.88Y-3.68
X3.88Y-3.68
X3.88Y-3.68
T3
X3.3585Y-2.5035
X3.3585Y-2.9035
X3.4585Y-2.5035
X3.4585Y-2.9035
X3.5585Y-2.5035
X3.5585Y-2.9035
X3.6585Y-2.5035
X3.6585Y-2.9035
X3.7585Y-2.5035
X3.7585Y-2.9035
X3.8585Y-2.5035
X3.8585Y-2.9035
X3.44Y-4.5216
X3.44Y-4.62
T4
X3.3416Y-4.9224
X3.5384Y-4.9224
T5
X3.413Y-1.7505
X3.513Y-1.7505
X3.613Y-1.7505
X3.713Y-1.7505
X3.813Y-1.7505
X3.478Y-1.921
X3.478Y-2.021
X3.478Y-2.121
X3.478Y-2.221
X2.Y-2.9
X2.Y-3.
X2.Y-3.1
X2.Y-3.2
X2.Y-3.3
X2.Y-3.4
X2.Y-3.5
X2.Y-3.6
X2.Y-3.7
X2.Y-3.8
X1.6585Y-2.6413
X1.7585Y-2.6413
X1.8585Y-2.6413
X1.9585Y-2.6413
X2.0585Y-2.6413
X2.1585Y-2.6413
X3.5Y-4.8
X3.6Y-4.8
X3.26Y-4.8
X3.36Y-4.8
X1.6734Y-1.894
X1.6734Y-2.0909
X2.2443Y-1.894
X2.2443Y-1.9925
X2.2443Y-2.0909
X1.7Y-2.9
X1.7Y-3.
X1.7Y-3.1
X1.7Y-3.2
X1.7Y-3.3
X1.7Y-3.4
X1.7Y-3.5
X1.7Y-3.6
X1.7Y-3.7
X1.7Y-3.8
X2.975Y-4.65
X3.075Y-4.65
X2.2Y-2.9
X2.2Y-3.
X2.2Y-3.1
X2.2Y-3.2
X2.2Y-3.3
X2.2Y-3.4
X2.2Y-3.5
X2.2Y-3.6
X2.2Y-3.7
X2.2Y-3.8
X1.8Y-2.9
X1.8Y-3.
X1.8Y-3.1
X1.8Y-3.2
X1.8Y-3.3
X1.8Y-3.4
X1.8Y-3.5
X1.8Y-3.6
X1.8Y-3.7
X1.8Y-3.8
X1.9Y-2.9
X1.9Y-3.
X1.9Y-3.1
X1.9Y-3.2
X1.9Y-3.3
X1.9Y-3.4
X1.9Y-3.5
X1.9Y-3.6
X1.9Y-3.7
X1.9Y-3.8
X2.1Y-2.9
X2.1Y-3.
X2.1Y-3.1
X2.1Y-3.2
X2.1Y-3.3
X2.1Y-3.4
X2.1Y-3.5
X2.1Y-3.6
X2.1Y-3.7
X2.1Y-3.8
X1.6865Y-1.5645
X1.7865Y-1.5645
X1.8865Y-1.5645
X1.9865Y-1.5645
X2.0865Y-1.5645
T6
X3.6594Y-1.942
X3.6594Y-2.198
X3.8366Y-1.942
X3.8366Y-2.198
X3.3843Y-1.365
X3.3843Y-1.621
X3.5615Y-1.365
X3.5615Y-1.621
T7
X3.78Y-4.22
X3.78Y-4.32
X3.78Y-4.42
X3.78Y-3.74
X3.78Y-3.84
X3.78Y-3.94
T8
X3.0335Y-2.7413
X2.3335Y-4.2413
X2.3335Y-2.7413
X3.0335Y-4.2413
T9
X2.05Y-4.95
X2.25Y-4.95
X2.45Y-4.95
X2.65Y-4.95
X2.85Y-4.95
X3.05Y-4.95
X3.48Y-3.24
X3.48Y-3.44
X3.48Y-3.64
X3.48Y-3.84
X3.48Y-4.04
X3.48Y-4.24
T2
X3.3022Y-5.0425G85X3.3022Y-5.0149
G05
X3.5778Y-5.0149G85X3.5778Y-5.0425
G05
T10
X1.9746Y-1.772G85X1.9234Y-1.772
G05
X1.9746Y-2.2129G85X1.9234Y-2.2129
G05
T0
M30
